<?xml version="1.0" encoding="utf-8"?>
<!-- Generator: Adobe Illustrator 22.1.0, SVG Export Plug-In . SVG Version: 6.00 Build 0)  -->
<svg version="1.1" id="レイヤー_1" xmlns="http://www.w3.org/2000/svg" xmlns:xlink="http://www.w3.org/1999/xlink" x="0px"
	 y="0px" viewBox="0 0 1307.5 154.4" style="enable-background:new 0 0 1307.5 154.4;" xml:space="preserve">
<style type="text/css">
	.st0{fill:#E42C68;}
</style>
<g>
	<g>
		<path class="st0" d="M1152.2,61.5h30.8v1.1h-30.8V61.5z M1152.2,57.6h30.8v1.3h-30.8V57.6z M1152.2,54h30.8v1.4h-30.8V54z
			 M1152.2,50.4h30.8v1.7h-30.8V50.4z M1152.2,46.5h30.8v2.2h-30.8V46.5z M1152.2,42.5h30.8v2.7h-30.8V42.5z M1152.2,38h30.8v3.1
			h-30.8V38z"/>
		<path class="st0" d="M1184.6,36.5v27.6h-33.9V36.5H1184.6z M1181.5,39.5L1181.5,39.5h-27.7H1181.5z"/>
	</g>
	<g>
		<g>
			<path class="st0" d="M73.3,98.1h-1.2l-4.7-26.9L49.1,100L31.7,72.8l-4.5,25.3h-1l5-28.2l18,28.2l18.6-29.6L73.3,98.1z M80,6.1
				l16.6,92h-3.2L78.3,14.6L49.1,60.5L20.5,15L6,98.1H2.8L18.7,6.6l30.4,47.9L80,6.1z M77.5,18.4L92,98.1h-2.5l-13.3-73l-27,42.7
				L22.4,25.3L9.8,98.1H7.4l13.5-79.5L49.1,63L77.5,18.4z M75.4,29L88,98.1h-2L74.4,34.6L49.1,74.4L24.3,35.1L13.4,98.1h-2
				l11.8-68.5l25.9,41L75.4,29z M73.5,38.8l10.8,59.3h-1.5L72.8,43.3L49.1,80.7l-23-36.3l-9.3,53.8H15l10.3-58.6L49,77.2L73.5,38.8z
				 M71.6,48.5l9,49.7h-1.4L71,52.6L49.1,87L28.1,53.8l-7.8,44.3h-1.5l8.4-48.9l21.9,34.9L71.6,48.5z M69.7,58.5l7.1,39.6h-1.3
				l-6.4-36.3L49,93.3L29.7,63.2l-5.9,34.9h-1.1l6.3-38.4L49,91.2L69.7,58.5z"/>
			<path class="st0" d="M98.5,99.7H70.8l-4.3-24.3l-17.4,27.5L32.5,77l-4,22.7H1L17.9,2.4l31.2,49.2L80.8,2L98.5,99.7z M94.7,96.6
				L94.7,96.6L79.2,10.3L49.1,57.4L28.6,25.1l20.5,32.5l30-47.2L94.7,96.6z M4.8,96.6l14.9-85.7l-0.1-0.1L4.6,96.6H4.8z"/>
		</g>
		<g>
			<path class="st0" d="M140.5,29.4c-2.3,0-3.9,0.6-4.9,1.7c-1,1.1-1.5,2.9-1.5,5.5v1.7h30.6v3.3h-52.3l-0.2,26.2
				c0,2.9,0.7,6.1,2.1,9.7c1.4,3.6,3.4,6.7,6,9.2c5.6,5.5,12.7,8.2,21.2,8.2h23.1v2.9h-23.4c-4.5,0-8.3-0.5-11.5-1.5
				c-3.1-1-6.3-2.8-9.6-5.5c-3.4-2.8-6.1-6.4-8.1-10.7c-2-4.3-3-8.7-3-13.2V34.6c0-3.7,0.7-7.4,2.1-11c1.4-3.7,3.5-7,6.3-10
				c2.3-2.4,4.7-4.3,7-5.6c2.4-1.4,4.9-2.3,7.7-2.9c2.8-0.6,5.8-0.8,9.2-0.8h23.1v3.2h-23c-5.7,0-10.3,0.9-13.9,2.7
				c-3.6,1.8-6.5,4-8.9,6.7c-1.6,1.9-3.1,4.4-4.4,7.7c-1.4,3.3-2,6.4-2,9.5v4.4h1.3v-3.7c0-3.2,0.7-6.3,2.1-9.5
				c1.4-3.1,3-5.8,4.9-8.1c2.4-2.7,5.4-4.8,9-6.2c3.6-1.4,7.3-2.1,11.2-2.1h23.8v2.7h-23.8c-7.4,0-13.5,2.4-18.3,7.1
				c-1.8,1.9-3.3,4.4-4.5,7.5c-1.1,3.1-1.7,5.6-1.7,7.6v4.7h1.6v-2.1c0-6.7,1.9-12.1,5.7-16.3c2-2.3,4.5-4,7.6-5.3
				c3.1-1.2,6.5-1.9,10.2-1.9h23.4v2.3h-23.5c-3.7,0-6.9,0.5-9.5,1.5c-2.6,1-4.9,2.8-6.9,5.4c-3.1,3.8-4.7,8.4-4.7,14v2.3h1.5v-3.6
				c0-1.7,0.4-3.7,1.1-5.9c0.8-2.2,1.8-4.1,3.2-5.6c1.9-2.3,4-3.9,6.5-4.9c2.4-0.9,5.3-1.4,8.6-1.4h23.6v1.7h-23.5
				c-3.1,0-5.9,0.5-8.2,1.4c-2.4,0.9-4.4,2.5-6.1,4.7c-1.1,1.4-1.9,3.1-2.5,5c-0.6,1.9-0.9,3.5-0.9,4.7v3.8h2.1v-3.8
				c0-3,1.1-6,3.2-8.8c1.6-2,3.4-3.3,5.4-4.1c2-0.8,4.4-1.2,7.1-1.2h23.4v1.8h-23.4c-2.5,0-4.6,0.3-6.2,0.8
				c-1.7,0.6-3.3,1.6-4.7,3.2c-1,1.2-1.9,2.6-2.5,4.4c-0.7,1.8-1,3.3-1,4.6v3.1h2.4v-2.7c0-3.4,0.8-5.8,2.4-7.5
				c2.2-2.4,5.6-3.6,10-3.6h23v1.1h-23c-4.1,0-7.1,1.1-9,3.2c-1.5,1.8-2.2,4.2-2.2,7.4v2.1h2.6v-1.9c0-2.7,0.5-4.7,1.6-5.9
				c1.3-1.5,3.1-2.2,5.5-2.2h24.4v1H140.5z M164.7,46.1L116.4,46v21.2c0,2.5,0.6,5.4,1.7,8.6c1.1,3.2,2.9,6,5.4,8.5
				c2.6,2.5,5.3,4.3,8.1,5.2c2.8,1,6.2,1.5,10.1,1.5h22.9v2.3h-23.3c-3.1,0-5.8-0.2-8.1-0.7c-2.3-0.5-4.5-1.3-6.5-2.5
				c-2-1.2-4-2.8-5.9-4.8c-2.2-2.4-3.9-5.3-5.2-8.8c-1.3-3.5-1.9-6.4-1.9-8.7V43.3h50.9V46.1z M164.7,49.6h-44.6v17.4
				c0,2.2,0.5,4.9,1.6,7.9c1.1,3,2.7,5.4,4.7,7.1c2,1.6,3.9,2.8,5.4,3.5c1.6,0.7,3.1,1.2,4.6,1.4s3.6,0.3,6.3,0.3h21.9v2h-22.6
				c-3.8,0-6.9-0.3-9-0.9c-2.2-0.6-4.8-2.2-7.9-4.7c-2.9-2.3-4.8-5.2-5.7-8.7c-0.9-3.5-1.4-6.5-1.4-9V47.7h46.6V49.6z M164.7,53.2
				h-41.1v14.5c0,1.8,0.5,3.8,1.5,6.1c1,2.3,2.3,4.2,4.1,5.7c3.3,2.8,7.1,4.2,11.2,4.2c0.6,0,1.2-0.1,1.9-0.1c0.7,0,1.1-0.1,1.3-0.1
				h21.1v1.7h-21.3c-3.7,0-6.5-0.2-8.5-0.7c-2-0.5-4.3-1.7-6.9-3.7c-1.8-1.4-3.3-3.5-4.4-6.2c-1.1-2.7-1.6-4.9-1.6-6.7l-0.1-16.5
				h42.9V53.2z M164.7,56.8h-37.5v9.9c0,4.6,1.7,8.2,5.2,10.8c1.3,1,2.5,1.6,3.7,1.9c1.2,0.3,2.5,0.4,4,0.4h3.6h21v1.7h-20.8H141
				c-2.1,0-3.8-0.2-5-0.5c-1.3-0.3-2.9-1.1-5-2.5c-1.7-1.2-3.1-3-4.1-5.3c-1-2.3-1.5-4.5-1.5-6.5V55.1h39.2V56.8z M164.7,60.3h-34.1
				v6.5c0,0.9,0.3,2.2,0.8,3.8c0.5,1.6,1.5,2.9,2.8,3.9c1.1,0.8,2.1,1.3,2.9,1.5c0.8,0.2,1.9,0.3,3.4,0.3h3.5h20.7v1.3h-20.8h-3.5
				c-1.5,0-2.7-0.1-3.7-0.4c-1-0.3-2.2-0.8-3.4-1.7c-1.3-1-2.3-2.4-3-4.2c-0.7-1.8-1-3.2-1-4.3l0.1-8l35.3,0.1V60.3z M164.7,64
				h-30.4l-0.1,3.3c0,2,0.9,3.6,2.6,4.8c0.9,0.5,2.1,0.7,3.7,0.7h2.8h21.4v1h-21.3c-1.9,0-3.4-0.1-4.5-0.2c-1.1-0.2-2-0.5-2.9-1.1
				c-1.8-1.1-2.8-2.8-2.8-5.3l0.1-4.2l31.3,0.1V64z"/>
			<path class="st0" d="M166.3,2.5V31h-25.8c-1.8,0-3,0.4-3.7,1.2c-0.5,0.5-1.1,1.7-1.1,4.4v0.1h30.6v28.8h-30.4l-0.1,1.7
				c0,1.4,0.6,2.5,1.9,3.3c0.7,0.3,1.6,0.5,2.8,0.5h25.8v28.4h-25c-4.7,0-8.7-0.5-12-1.5c-3.3-1-6.7-3-10.2-5.8
				c-3.6-3-6.5-6.7-8.6-11.2c-2.1-4.5-3.2-9.1-3.2-13.9V34.6c0-3.9,0.8-7.8,2.3-11.6c1.5-3.9,3.7-7.4,6.7-10.5
				c2.4-2.5,4.9-4.5,7.4-5.9c2.5-1.4,5.3-2.5,8.2-3.1c2.9-0.6,6.1-0.9,9.5-0.9H166.3z M163,5.8L163,5.8l-21.5,0
				c-3.3,0-6.2,0.3-8.9,0.8c-2.6,0.5-5,1.4-7.2,2.7c-1.5,0.9-3,2-4.5,3.3c1.8-1.5,3.9-2.8,6.2-4c3.8-1.9,8.7-2.8,14.6-2.8H163z
				 M163,40.1L163,40.1L110.8,40v-6c0-3.3,0.7-6.7,2.2-10.1c0.8-1.9,1.6-3.6,2.5-5.1c-1.1,1.7-2,3.5-2.7,5.3c-1.4,3.5-2,7-2,10.5
				v18.5l0.1-13H163z M123.8,91.7c2.2,1.5,4.3,2.6,6.4,3.2c0.8,0.2,1.6,0.4,2.4,0.6C129.5,94.7,126.6,93.4,123.8,91.7z"/>
		</g>
		<g>
			<path class="st0" d="M260.7,52.3c-0.1,6.2-1.4,12.1-3.9,17.6c-2.5,5.5-5.8,10.4-10.1,14.5c-4.3,4.2-9.2,7.4-14.8,9.7
				c-5.6,2.3-11.5,3.5-17.6,3.5h-29.4V4.4h28c6.7,0,13,1.2,18.9,3.7c5.9,2.4,11,5.8,15.3,10.1c4.3,4.3,7.6,9.4,10,15.3
				C259.5,39.4,260.7,45.7,260.7,52.3z M214.7,7.6h-26.4v87h26c7.7,0,14.8-1.9,21.3-5.7c6.6-3.8,11.8-9,15.7-15.6
				c3.9-6.6,5.9-13.7,6.1-21.4c0-6.1-1.1-11.8-3.3-17.2c-2.2-5.4-5.2-10.2-9.1-14.2c-3.9-4-8.4-7.2-13.6-9.5
				C226.2,8.8,220.6,7.6,214.7,7.6z M213.9,93.1h-24.2V9.1h25c5.7,0,11,1.1,16,3.3c5,2.2,9.5,5.3,13.3,9.3c3.8,4,6.8,8.6,8.9,13.7
				c2.1,5.2,3.2,10.7,3.2,16.7c-0.2,7.6-2.1,14.5-5.8,20.8c-3.7,6.3-8.8,11.2-15.2,14.8C228.6,91.3,221.6,93.1,213.9,93.1z
				 M215.8,11.9h-23.4v78.5H214c7.3,0,13.9-1.7,19.8-5.1c5.9-3.4,10.6-8,14.1-13.9c3.5-5.9,5.3-12.3,5.4-19.3c0-5.4-1-10.6-2.9-15.4
				c-1.9-4.8-4.6-9.1-8-12.9c-3.4-3.7-7.4-6.6-12-8.7C225.9,12.9,221,11.9,215.8,11.9z M214.1,89h-20.4V13.2H216
				c4.9,0,9.5,1,13.8,3.1c4.4,2,8.2,4.8,11.5,8.4c3.3,3.6,5.9,7.8,7.8,12.5c1.9,4.7,2.8,9.7,2.8,14.9c-0.2,6.7-1.9,13-5.4,18.6
				c-3.4,5.7-8,10.2-13.7,13.4C227.1,87.4,220.8,89,214.1,89z M216.2,15.5h-20.3v71.3h18.3c4.9,0,9.5-0.9,13.8-2.6
				c4.3-1.8,8.1-4.2,11.3-7.4c3.2-3.2,5.7-6.9,7.5-11.1c1.8-4.2,2.8-8.7,2.9-13.6c0-4.9-0.9-9.7-2.6-14.2c-1.8-4.5-4.2-8.4-7.2-11.7
				c-3-3.3-6.6-6-10.7-7.9C225.2,16.4,220.8,15.5,216.2,15.5z M213.8,84.9h-15.9V17.1h17.8c5.9,0,11.4,1.6,16.3,4.8
				c5,3.2,8.9,7.4,11.8,12.8c2.9,5.3,4.3,11.1,4.3,17.3c-0.2,6.1-1.8,11.7-4.9,16.7c-3.1,5-7.2,9-12.4,11.9
				C225.8,83.5,220.1,84.9,213.8,84.9z M246.2,52.1c0-5.9-1.3-11.5-4-16.5c-2.7-5.1-6.3-9.1-11-12c-4.7-2.9-9.8-4.4-15.5-4.4h-16.1
				v64h14.2c5.8,0,11.2-1.4,16.2-4.1c4.9-2.7,8.9-6.5,11.7-11.2C244.6,63,246.1,57.8,246.2,52.1z M213.9,81.2h-12.4V21.1h15.3
				c4.9,0,9.5,1.4,13.8,4.2c4.3,2.8,7.7,6.7,10.2,11.5c2.5,4.8,3.8,9.9,3.8,15.4c-0.1,4.1-1,7.9-2.6,11.4c-1.6,3.5-3.8,6.6-6.6,9.2
				c-2.7,2.6-6,4.7-9.7,6.1C222,80.4,218.1,81.2,213.9,81.2z M242.9,52.3c0-4-0.7-7.8-2-11.4c-1.3-3.6-3.2-6.8-5.5-9.5
				c-2.4-2.7-5.2-4.9-8.4-6.4c-3.2-1.6-6.6-2.4-10.2-2.4h-13.7v57.1h10.6c5,0,9.8-1.2,14.2-3.6c4.4-2.4,8-5.7,10.7-9.8
				C241.2,62.1,242.6,57.4,242.9,52.3z M213.8,77.2h-8.5V24.9h11.2c4.4,0,8.4,1.2,12,3.7c3.7,2.5,6.6,5.9,8.7,10.1
				c2.1,4.2,3.2,8.8,3.2,13.7c-0.2,4.6-1.5,8.8-3.7,12.6c-2.2,3.8-5.3,6.8-9.3,8.9C223.3,76.1,218.8,77.2,213.8,77.2z M239.2,52.4
				c0-4.7-1-9.1-3-13.1c-2-4-4.8-7.2-8.4-9.6c-3.6-2.4-7.4-3.6-11.6-3.6h-9.7V76h7c3.7,0,7.2-0.6,10.3-1.7c3.1-1.2,5.8-2.8,8-4.9
				c2.2-2.1,4-4.6,5.2-7.5C238.3,58.9,239.1,55.8,239.2,52.4z M213.9,73.4h-4.7V28.9h8c3.5,0,6.7,1.1,9.7,3.2c3,2.1,5.4,5,7.1,8.6
				c1.8,3.6,2.6,7.5,2.6,11.7c-0.2,3.9-1.4,7.5-3.5,10.7c-2.1,3.2-4.8,5.7-8.2,7.5C221.5,72.5,217.9,73.4,213.9,73.4z M235.6,52.4
				c0-3.9-0.8-7.7-2.4-11.1c-1.6-3.5-3.8-6.2-6.6-8.2c-2.8-2-5.9-3.1-9.2-3.1h-7.1v42.1h4.9c3.5,0,6.8-0.9,9.8-2.6
				c3.1-1.8,5.5-4.1,7.4-7.2C234.3,59.4,235.4,56.1,235.6,52.4z"/>
			<path class="st0" d="M262.3,52.3L262.3,52.3c-0.1,6.4-1.5,12.6-4,18.3c-2.5,5.7-6.1,10.7-10.5,15c-4.4,4.3-9.6,7.7-15.3,10.1
				c-5.8,2.4-11.9,3.6-18.3,3.6h-31V2.8h29.6c6.9,0,13.4,1.3,19.5,3.8c6.1,2.5,11.4,6,15.9,10.5c4.4,4.5,7.9,9.8,10.4,15.8
				C261.1,39,262.3,45.5,262.3,52.3z M244.4,84.4c0.4-0.4,0.8-0.7,1.2-1.1c4.1-4,7.4-8.7,9.8-14c2.4-5.3,3.6-11,3.7-17
				c0-6.4-1.2-12.5-3.5-18.2c-1.1-2.6-2.3-5.1-3.8-7.3c1.4,2.3,2.7,4.8,3.7,7.4c2.2,5.6,3.4,11.6,3.4,17.8c-0.1,8-2.2,15.4-6.3,22.2
				C250.4,78.1,247.6,81.5,244.4,84.4z M211.9,70.6h3.3c3.2,0,6.2-0.8,9-2.4c2.8-1.6,5.1-3.8,6.8-6.6c1.7-2.8,2.7-5.8,2.9-9.2
				c0-3.7-0.8-7.2-2.2-10.4c-1.5-3.2-3.5-5.7-6.1-7.6c-2.5-1.8-5.2-2.7-8.3-2.7h-5.5V70.6z M186.6,96.1V6h27.3c-0.4,0-0.7,0-1.1,0
				h-26.4v90.1H186.6z"/>
		</g>
		<g>
			<path class="st0" d="M279.1,3.6V98h-3.2V3.6H279.1z M283.4,3.6V98h-2.8V3.6H283.4z M286.9,3.6V98h-2.1V3.6H286.9z M290.6,3.6V98
				h-1.7V3.6H290.6z M294.1,3.6V98h-1.5V3.6H294.1z M297.7,3.6V98h-1.4V3.6H297.7z M301.5,3.6V98h-1.1V3.6H301.5z"/>
			<rect x="274.3" y="2" class="st0" width="28.8" height="97.7"/>
		</g>
		<g>
			<path class="st0" d="M349.2,3.6c4.2,0,8.1,0.8,11.9,2.4c3.8,1.6,7.1,3.7,9.9,6.5c2.8,2.7,5.1,6,6.7,9.6c1.6,3.7,2.4,7.6,2.4,11.8
				L380,98.1h-3.1V34c0-5-1.2-9.6-3.7-13.8c-2.5-4.2-5.9-7.5-10.1-9.9c-4.2-2.5-8.9-3.7-13.9-3.7c-3.5,0-6.9,0.8-10.1,2.1
				c-3.2,1.4-6,3.3-8.4,5.6c-2.4,2.4-4.3,5.1-5.7,8.2c-1.4,3.1-2.1,6.4-2.1,10v17.3h1.4V33.1c0-4.4,1.1-8.6,3.4-12.4
				c2.3-3.8,5.3-6.9,9.2-9.1c3.9-2.2,8-3.4,12.4-3.4c3.5,0,6.9,0.7,10,2c3.1,1.3,5.9,3.2,8.4,5.5c2.4,2.4,4.3,5.1,5.7,8.3
				c1.4,3.2,2.1,6.5,2.1,10v64.1H373V34c0-4.2-1.1-8.1-3.2-11.6c-2.1-3.6-5-6.4-8.6-8.5c-3.6-2.1-7.6-3.1-11.8-3.1
				c-4,0.1-7.8,1.2-11.2,3.1c-3.4,2-6.2,4.6-8.2,8c-2,3.4-3,7-3,10.9v17.1h1.3V31.9c0-5.5,2.1-10.2,6.3-13.9
				c4.2-3.7,9.1-5.7,14.8-5.7c3.9,0,7.6,1,11,2.9c3.4,2,6.1,4.6,8.1,7.9c2,3.3,3,7,3,11v64h-2.2V34c0-2.7-0.5-5.2-1.6-7.7
				s-2.5-4.5-4.2-6.3c-1.8-1.8-3.9-3.2-6.3-4.2c-2.4-1-5-1.6-7.7-1.6c-3.3,0-6.5,0.9-9.4,2.5c-2.9,1.6-5.2,3.8-7,6.5
				c-1.8,2.8-2.6,5.8-2.6,9.1l0.1,17.6h1.7V32.4c0-3,0.8-5.8,2.4-8.3c1.6-2.5,3.7-4.4,6.4-5.8c2.7-1.4,5.5-2.1,8.5-2.2
				c3.2,0,6.2,0.8,8.9,2.4c2.8,1.6,4.9,3.8,6.6,6.6c1.6,2.8,2.4,5.8,2.4,9v64.1h-2.2V34c0-2.2-0.4-4.3-1.2-6.2
				c-0.8-2-1.9-3.7-3.4-5.2c-1.5-1.5-3.2-2.7-5.2-3.6c-2-0.8-4-1.3-6.1-1.3c-2.8,0.1-5.3,0.8-7.7,2c-2.4,1.3-4.3,3-5.7,5.3
				c-1.4,2.2-2.1,4.7-2.1,7.4v17.5h1.9V32.4c0-3.6,1.4-6.5,4.1-9c2.7-2.4,5.9-3.6,9.6-3.6c3.9,0,7.2,1.4,10,4.1
				c2.7,2.7,4.1,6.1,4.1,10.1v64.1h-1.3V33.7c0-2.3-0.6-4.4-1.7-6.3c-1.2-1.9-2.7-3.4-4.7-4.5c-2-1.1-4.1-1.7-6.3-1.7
				c-2.1,0-4,0.5-5.9,1.5c-1.9,0.9-3.4,2.3-4.5,3.9c-1.1,1.7-1.7,3.5-1.7,5.6v17.6h2.2V32.1c0-2.4,1-4.5,3.1-6.1
				c2.1-1.6,4.4-2.4,7-2.4c2.8,0,5.3,1,7.3,3c2,2,3,4.4,3,7.3v64.1h-1.2V33.7c0-2.5-0.9-4.6-2.7-6.3c-1.8-1.7-4-2.6-6.5-2.6
				c-2.3,0.1-4.4,0.8-6.1,2.2c-1.7,1.4-2.6,3.2-2.6,5.3v17.5h2.6V33.2c0-1.6,0.6-2.9,1.7-4c1.2-1.1,2.6-1.7,4.2-1.8
				c1.8,0,3.3,0.6,4.7,1.9c1.3,1.2,2,2.7,2,4.5v64.3h-1V74.9h-10.4v23.1h-1.2V73.6h11.3v-2.4h-13.9v26.9h-1.3V69.6h15.3v-2.1h-17.4
				v30.5h-1.5l0.1-32.4h18.8V64H334v34h-1.7V62.2h22.5v-1.5h-24.3v37.3h-2.3V58.3H355v-1.4h-28.1v41.2h-2.7V54.3H355V53h-32.2v45.1
				h-3.1V32.4c0-5.2,1.4-10,4.1-14.4c2.7-4.4,6.3-7.8,10.8-10.4C339.1,5,344,3.7,349.2,3.6z M344.6,32.7v17.1H355V33.4
				c0-1.4-0.6-2.5-1.7-3.5c-1.1-0.9-2.4-1.4-3.8-1.4c-1.2,0.1-2.3,0.5-3.3,1.3S344.6,31.6,344.6,32.7z"/>
			<path class="st0" d="M381.8,33.9l-0.1,65.8h-28.1V76.5h-7.2v23.1h-28.2V32.4c0-5.5,1.5-10.7,4.3-15.2c2.8-4.6,6.7-8.2,11.4-10.9
				c4.7-2.7,9.9-4.1,15.4-4.2l0,0c4.3,0,8.5,0.8,12.5,2.5c3.9,1.6,7.4,3.9,10.4,6.8c3,2.9,5.3,6.3,7,10.1
				C380.9,25.3,381.8,29.5,381.8,33.9z M378.5,75.8l0.1-41.9c0-3.9-0.8-7.7-2.3-11.2c-0.8-1.9-1.9-3.7-3-5.3c0.5,0.7,0.9,1.3,1.3,2
				c2.6,4.4,4,9.3,4,14.6V75.8z M353.4,48.2V33.4c0-0.9-0.4-1.6-1.1-2.2c-0.8-0.7-1.7-1-2.8-1c-0.9,0.1-1.7,0.4-2.4,1
				c-0.8,0.6-0.9,1.2-0.9,1.6v15.5H353.4z"/>
		</g>
		<g>
			<path class="st0" d="M466.6,61.6c4.5,0,8.8-1.2,12.9-3.5c4.1-2.3,7.5-5.5,10.1-9.6c2.6-4.1,4-8.5,4-13.4c0-3.5-0.6-6.8-1.9-10.1
				c-1.3-3.3-3.1-6.3-5.4-8.9c-2.4-2.7-5.2-4.8-8.5-6.4c-3.3-1.6-6.7-2.4-10.3-2.4c-3.7,0-7.2,0.7-10.6,2.1
				c-3.4,1.4-6.3,3.3-8.8,5.8c-2.5,2.5-4.5,5.3-5.9,8.6c-1.4,3.3-2.1,6.8-2.1,10.4V98h-3.2V34.1c0-5.4,1.4-10.4,4.2-15.1
				s6.5-8.3,11.2-11c4.7-2.7,9.8-4,15.2-4c5.4,0.1,10.3,1.6,14.9,4.4c4.5,2.8,8.1,6.7,10.7,11.4c2.6,4.8,3.9,10,3.9,15.5
				c0,4-0.8,7.7-2.4,11.3c-1.6,3.6-3.8,6.7-6.6,9.3c-2.8,2.6-6,4.7-9.7,6.3c-3.7,1.6-7.5,2.4-11.6,2.5c-1.4,0-3.1-0.1-5-0.4V98h-1
				l-0.1-64c0-1.7,0.7-3.2,2-4.3c1.4-1.2,2.9-1.7,4.6-1.7c1.7,0,3.1,0.6,4.3,1.7c1.2,1.1,1.8,2.5,1.9,4.2c0,1.8-0.5,3.4-1.6,4.5
				c-1,1.2-2.6,1.9-4.6,2.2c-1.2,0-2.3-0.3-3.3-0.9c-1-0.6-1.7-1.2-2.1-1.7v3.6c0.4,0.3,1.1,0.6,2.2,1c1.1,0.4,2,0.6,2.8,0.6
				c2.4,0,4.5-0.9,6.3-2.8c1.8-1.8,2.7-4,2.7-6.5c0-2.4-0.9-4.4-2.5-6.1c-1.6-1.7-3.6-2.5-6-2.6c-2.5,0-4.7,0.9-6.5,2.6
				c-1.8,1.7-2.8,3.8-2.8,6.1l0.1,64h-1.3V34.2c0-1.8,0.5-3.5,1.4-5.1c0.9-1.6,2.2-2.8,3.8-3.7c1.6-0.9,3.3-1.4,5.2-1.4
				c2.7,0,5,1,6.9,3c1.9,2,2.9,4.4,2.9,7.2c0,1.8-0.5,3.6-1.4,5.1c-0.9,1.6-2.2,2.9-3.8,3.8c-1.6,0.9-3.3,1.4-5.1,1.4
				c-1.7-0.1-3.4-0.6-4.9-1.6v2.5c1.4,0.8,3.1,1.2,5,1.4c2.2,0,4.2-0.6,6.1-1.8c1.9-1.2,3.4-2.7,4.5-4.7c1.1-2,1.7-4,1.7-6.2
				c0-3.3-1.1-6.2-3.4-8.7c-2.3-2.4-5.1-3.7-8.4-3.8c-2.2,0-4.3,0.5-6.3,1.6c-2,1.1-3.6,2.6-4.7,4.4c-1.1,1.8-1.7,3.9-1.7,6.2v64
				h-1.8V34.2c0-2.6,0.6-5,1.9-7.1c1.3-2.1,3-3.8,5.2-5c2.2-1.2,4.6-1.9,7.2-1.9c2.4,0,4.6,0.7,6.7,1.9c2.1,1.3,3.7,2.9,5,5.1
				c1.2,2.1,1.9,4.4,1.9,6.9c0,2.5-0.6,4.9-1.9,7.1c-1.2,2.2-2.9,4-5.1,5.3c-2.2,1.3-4.6,2-7.2,2c-1.5-0.1-3-0.4-4.5-0.9v2.1
				c1.6,0.5,3.2,0.8,4.7,0.8c2.9,0,5.5-0.7,7.9-2.2c2.4-1.5,4.4-3.4,5.8-5.9c1.5-2.5,2.2-5.1,2.2-7.8c0-1.8-0.4-3.8-1.3-5.8
				c-0.8-2-2-3.8-3.3-5.4c-1.4-1.5-3-2.8-4.9-3.7c-1.9-0.9-3.9-1.4-6-1.4c-2,0-4,0.4-6,1.2c-1.9,0.8-3.7,2-5.1,3.5
				c-1.5,1.5-2.6,3.2-3.4,5.2c-0.8,2-1.2,4-1.2,6.1V98h-2V34.2c0-3.2,0.8-6.2,2.4-8.9c1.6-2.7,3.8-4.9,6.5-6.5
				c2.7-1.6,5.7-2.4,8.8-2.4c3.1,0,5.9,0.9,8.5,2.6c2.6,1.7,4.7,4,6.2,6.7c1.5,2.7,2.4,5.6,2.5,8.5c0,3.3-0.8,6.3-2.4,9.1
				c-1.6,2.8-3.7,5-6.5,6.6c-2.7,1.6-5.6,2.4-8.7,2.4c-1.7-0.1-3.4-0.5-5.1-1V53c1.6,0.5,3.2,0.8,4.7,0.9c3.5,0,6.7-0.9,9.7-2.8
				c3-1.8,5.4-4.3,7.2-7.3c1.8-3,2.7-6.1,2.7-9.2c-0.1-3.3-1-6.5-2.8-9.6c-1.7-3.1-4-5.6-6.9-7.4c-2.9-1.9-6-2.8-9.4-2.9
				c-3.5,0-6.8,0.9-9.8,2.6c-3,1.7-5.4,4.1-7.2,7c-1.8,2.9-2.7,6.2-2.7,9.8V98h-1.9V34.3c0-3.8,1-7.4,2.9-10.7
				c1.9-3.3,4.6-6,7.9-7.9c3.3-2,6.9-2.9,10.8-2.9c3.6,0.2,7,1.2,10.2,3c3.1,1.8,5.7,4.4,7.6,7.7c1.9,3.3,3,7.1,3.1,11.4
				c0,3.4-0.9,6.7-2.8,9.9c-1.9,3.2-4.5,5.9-7.8,7.9c-3.3,2-6.9,3-10.9,3c-2.4-0.2-3.9-0.3-4.7-0.5v1.5c1.4,0.4,2.9,0.6,4.6,0.7
				c3,0,6-0.6,8.8-1.8c2.8-1.2,5.3-2.8,7.4-4.8c2.1-2,3.8-4.5,5-7.3c1.3-2.9,1.9-5.8,1.9-8.8c0-4.2-1-8-3-11.5s-4.8-6.4-8.2-8.5
				c-3.4-2.1-7.1-3.3-11.1-3.4c-3.1,0-6.1,0.6-8.9,1.8c-2.8,1.2-5.2,2.8-7.4,5c-2.1,2.1-3.8,4.6-5,7.4c-1.2,2.8-1.8,5.7-1.8,8.8V98
				h-2.7V34.2c0-4.6,1.1-8.8,3.4-12.7c2.3-3.9,5.4-7,9.4-9.3c4-2.3,8.4-3.5,13.1-3.5c4.9,0.2,9.2,1.6,13,4.1
				c3.7,2.5,6.6,5.7,8.6,9.6c2,3.9,3.1,8,3.2,12.2c0,4.6-1.2,8.9-3.6,12.8c-2.4,3.9-5.6,7-9.6,9.3c-4,2.3-8.1,3.4-12.5,3.4
				c-2.4-0.2-3.9-0.3-4.7-0.5v1.3C464.1,61.4,465.7,61.6,466.6,61.6z M461.7,33.5c0,1.8,0.5,3.3,1.5,4.4c1,1.1,2.2,1.7,3.7,1.7
				c1.5,0,2.8-0.5,3.9-1.6c1.1-1.1,1.6-2.4,1.6-3.9c0-1.4-0.6-2.5-1.6-3.5c-1-1-2.2-1.4-3.6-1.4c-1.4,0-2.6,0.4-3.6,1.2
				C462.5,31,461.9,32.1,461.7,33.5z"/>
			<path class="st0" d="M498.4,35.4c0,4.2-0.9,8.2-2.5,11.9c-1.7,3.7-4,7-6.9,9.8c-2.9,2.8-6.3,5-10.2,6.6
				c-3.8,1.6-7.9,2.5-12.1,2.6c-1,0-2.2-0.1-3.4-0.2v33.3h-28V34.1c0-5.7,1.5-11,4.4-15.9c2.9-4.9,6.9-8.8,11.8-11.6
				c4.9-2.8,10.3-4.2,16-4.2c5.7,0.1,10.9,1.7,15.7,4.7c4.7,3,8.5,7,11.2,12C497,24.1,498.4,29.6,498.4,35.4z M477.5,60.9
				C477.5,60.9,477.5,60.9,477.5,60.9c3.5-1.5,6.6-3.5,9.2-6c2.6-2.5,4.7-5.5,6.2-8.8c1.5-3.3,2.3-6.9,2.3-10.7
				c0-5.3-1.2-10.3-3.7-14.8c-2.4-4.5-5.9-8.2-10.1-10.9c-4.3-2.7-9-4.1-14-4.2c-5.1,0-10,1.3-14.4,3.8c-4.4,2.5-8,6.1-10.6,10.4
				c-2.6,4.4-3.9,9.2-3.9,14.3v62.3h0V34.2c0-3.9,0.8-7.6,2.3-11c1.5-3.5,3.6-6.5,6.3-9.1c2.6-2.6,5.8-4.6,9.3-6.1
				c3.6-1.5,7.3-2.2,11.2-2.2c3.9,0,7.6,0.9,11,2.6c3.4,1.7,6.5,3.9,9,6.8c2.5,2.8,4.4,6,5.7,9.4c1.3,3.4,2,7,2,10.7
				c0,5.1-1.5,9.9-4.2,14.2c-2.8,4.3-6.4,7.7-10.7,10.1C479.4,60,478.4,60.5,477.5,60.9z M463.3,33.5c0,1.4,0.4,2.4,1.1,3.2
				c0.7,0.8,1.5,1.2,2.5,1.2c1.1,0,2-0.4,2.7-1.1c0.8-0.8,1.1-1.7,1.1-2.8c0-0.9-0.4-1.7-1.1-2.3c-0.7-0.7-1.6-1-2.5-1
				c-1,0-1.9,0.3-2.7,0.9C463.8,32,463.4,32.7,463.3,33.5z M462.2,62.9c1.7,0.2,3.2,0.3,4.4,0.3c1,0,2-0.1,3-0.2c-1,0.1-2,0.2-3,0.2
				c-0.9,0-2.4-0.2-4.4-0.5L462.2,62.9z"/>
		</g>
		<g>
			<path class="st0" d="M569.1,31.4c-0.5-4.3-1.9-8.3-4.4-12.1c-2.5-3.7-5.6-6.7-9.5-8.9c-3.9-2.2-8-3.3-12.5-3.4
				c-5,0-9.6,1.2-13.9,3.7c-4.2,2.5-7.6,5.7-10,9.9c-2.5,4.1-3.7,8.7-3.7,13.7v63.6h-3.2V34.2c0-5.5,1.4-10.5,4.2-15.1
				c2.8-4.6,6.6-8.3,11.3-11c4.7-2.7,9.8-4,15.2-4c5.4,0,10.4,1.4,15,4.2c4.6,2.7,8.1,6.5,10.7,11.3c2.6,4.8,3.9,10.1,3.9,15.9
				c-0.1,3.5-0.5,6.5-1.4,9c-0.8,2.5-2.3,5.2-4.3,8.1c1.9,2.2,3.3,4.7,4.2,7.5c1,2.6,1.4,5.4,1.4,8.3v29.7h-1V69.6
				c0-2.5-0.3-5-1-7.5c-0.7-2.5-1.7-4.8-3.1-7.1c-1.4-2.3-3.1-4.3-5.1-6.2c-2.6-2.5-5.2-4.3-7.7-5.4c-2.5-1.1-4.9-1.8-7.2-2.1
				c-2.3-0.3-4.5-0.6-6.6-0.8c-0.8-0.2-1.6-0.6-2.4-1.4c-0.8-0.7-1.2-1.1-1.3-1.2v3.4c0.2,0.2,0.5,0.4,0.8,0.6
				c0.4,0.3,0.8,0.5,1.3,0.7c0.5,0.2,1.1,0.3,1.9,0.3c2,0,4.1,0.3,6.5,0.8c2.4,0.5,4.8,1.4,7.2,2.6c2.4,1.2,4.5,2.7,6.3,4.4
				c2.6,2.6,4.6,5.5,6,8.7c1.4,3.3,2.1,6.3,2.1,9.1v29.2h-1.4V68.1c0-2.7-0.6-5.5-1.9-8.2c-1.2-2.7-3.1-5.3-5.5-7.8
				c-2.5-2.7-5.5-4.6-9-5.9c-3.6-1.2-7-1.9-10.4-1.9c-0.8,0-1.5-0.1-1.9-0.2c-0.4-0.2-0.8-0.4-1.1-0.7c-0.3-0.3-0.6-0.5-0.8-0.6v2.6
				c0.9,0.4,2,0.7,3.3,1c0.5,0.1,1.2,0.1,2.1,0.1c0.9,0,1.4,0,1.6,0.1c1.4,0,3,0.3,4.8,0.9c1.8,0.6,3.6,1.4,5.4,2.4
				c1.8,1,3.3,2.2,4.7,3.6c2.4,2.4,4,4.8,5.1,7.3c1,2.5,1.5,5.4,1.5,8.8v28.1h-1.6V69.5c0-3.1-0.5-5.8-1.5-8.2
				c-1-2.4-2.7-4.6-4.9-6.8c-2.1-2.1-4.2-3.6-6.3-4.4c-2.1-0.9-4.7-1.4-7.7-1.6c-0.1-0.1-0.6-0.1-1.4-0.2c-0.9,0-1.5-0.1-1.8-0.2
				c-0.4,0-0.7-0.1-1-0.1c-0.3-0.1-0.6-0.1-0.9-0.2c-0.3-0.1-0.7-0.1-1.1-0.3v1.9c1.2,0.4,2.1,0.6,2.8,0.7c0.5,0.1,1.1,0.1,2,0.1
				c0.9,0,1.4,0,1.6,0.1c2.6,0.2,4.8,0.7,6.8,1.5c1.9,0.9,3.8,2.2,5.6,3.9c2.3,2.2,3.9,4.5,4.8,6.9c0.9,2.4,1.4,5.3,1.4,8.5v26.7
				h-2.1V70.2c0-5.1-1.7-9.4-5-12.8c-1.7-1.8-3.5-3-5.3-3.8c-1.8-0.8-4.1-1.3-6.7-1.5c-0.6,0-1.6-0.1-3-0.2
				c-0.8-0.1-1.8-0.3-3.1-0.6v1.7l5.8,0.7c2.4,0.2,4.4,0.7,6.1,1.4c1.7,0.7,3.3,1.8,4.8,3.4c3.3,3.1,5,7,5,11.6v27.8h-2.2V70.3
				c0-4.2-1.5-7.8-4.5-10.6c-2.4-2.2-5.5-3.5-9.4-3.9l-5.6-0.5v1.5l5.2,0.5c2,0.1,3.6,0.4,4.9,0.9c1.3,0.5,2.5,1.3,3.6,2.4
				c2.9,2.5,4.3,5.9,4.3,10.1v27.2h-2.6V70.2c0-3-1.1-5.6-3.2-7.6c-1.6-1.6-3.8-2.4-6.7-2.5l-5.6-0.4v1.2l5.4,0.5
				c2.4,0.2,4.2,0.9,5.7,2.3c2,1.7,3,3.9,3,6.7v27.6h-3.4V70.5c0-1.6-0.6-3-1.7-4.1c-1.1-1.1-2.4-1.6-3.9-1.6l-5.2-0.2v33.4h-1.1
				l0.1-63.9c0-1.9,0.6-3.5,1.9-4.6c1.2-1.1,2.8-1.7,4.6-1.7c1.4,0,2.7,0.4,3.7,1.1c1.1,0.7,1.8,1.8,2.3,3.1
				c0.2,0.7,0.3,1.4,0.3,2.2c0,2.7-1.1,4.6-3.4,5.8l3.8,0.5c1.5-1.8,2.3-3.6,2.3-5.5c0-0.9-0.2-1.9-0.6-3.2
				c-1.4-4.2-4.2-6.3-8.4-6.4c-2.5,0-4.6,0.9-6.4,2.6c-1.8,1.7-2.7,3.8-2.7,6.2v63.9h-1.3V34.3c0-2.8,1-5.2,3.1-7.2c2-2,4.5-3,7.2-3
				c2.3,0,4.4,0.7,6.1,2c1.8,1.3,3,3.1,3.7,5.4c0.4,1.3,0.6,2.4,0.6,3.4c0,2.1-0.7,4.1-2.1,6l2.1,0.8c1.4-2.4,2.1-4.7,2.3-6.9
				c0-0.9-0.1-1.9-0.3-3c-0.6-3-2.1-5.4-4.3-7.2c-2.3-1.8-4.9-2.8-7.9-2.8c-3.4,0-6.4,1.2-8.9,3.7c-2.5,2.5-3.8,5.4-3.8,8.7v63.9
				h-1.4V34.3c0-2.6,0.6-4.9,1.9-7.1c1.3-2.2,3-3.9,5.2-5.1c2.2-1.3,4.5-1.9,6.9-1.9c3.4,0,6.3,1,8.8,3.1c2.5,2.1,4.1,4.8,4.8,8.2
				c0.3,1.8,0.5,2.9,0.5,3.5c0,2.2-0.8,4.7-2.4,7.4l1.9,0.7c1.6-2.5,2.4-5.1,2.4-7.8c0-1.2-0.1-2.4-0.3-3.7
				c-0.5-2.6-1.4-4.9-2.9-6.9c-1.5-2-3.3-3.6-5.6-4.7c-2.2-1.1-4.6-1.7-7.1-1.7c-2.8,0-5.5,0.7-8,2.2c-2.5,1.5-4.5,3.4-6,5.9
				s-2.2,5.2-2.2,8.1v63.6h-1.7V34.3c0-3.1,0.8-6.1,2.4-8.9c1.6-2.8,3.8-5,6.6-6.6c2.8-1.6,5.7-2.4,8.8-2.4c3,0,5.7,0.6,8.1,1.9
				c2.4,1.3,4.4,3,6.1,5.2c1.6,2.2,2.7,4.8,3.3,7.7c0.2,1,0.2,2.3,0.2,3.9c0,3-0.8,5.9-2.4,8.8l1.3,0.8c1.9-3.3,2.8-6.5,3-9.7
				c0-1.1-0.1-2.4-0.3-3.8c-0.3-2.1-1-4.2-2.2-6.3c-1.2-2.1-2.6-3.8-4.2-5.3c-1.7-1.5-3.6-2.7-5.8-3.6c-2.2-0.9-4.5-1.3-6.9-1.3
				c-2.6,0-5.1,0.5-7.6,1.5c-2.4,1-4.5,2.4-6.3,4.1c-1.8,1.7-3.2,3.8-4.3,6.2c-1.1,2.4-1.6,5-1.6,7.7v63.6h-2V34.2
				c0-3.9,1-7.5,3-10.8c2-3.3,4.7-5.9,8-7.8c3.4-1.9,7-2.9,10.8-2.9c2.7,0,5.2,0.5,7.6,1.5c2.4,1,4.5,2.4,6.4,4.1
				c1.9,1.7,3.5,3.7,4.7,5.8c1.2,2.2,1.9,4.3,2.2,6.4c0.2,1.1,0.3,2.6,0.3,4.5c-0.2,4.1-1.3,7.8-3.2,10.9l1.3,1
				c2.4-3.9,3.6-7.8,3.6-11.7c0-1.3-0.1-2.7-0.3-4.4c-0.6-3.8-1.9-7.2-4-10.2c-2.1-3-4.8-5.3-8-7c-3.2-1.7-6.7-2.5-10.5-2.5
				c-4.1,0-7.9,1-11.5,3.1c-3.6,2.1-6.4,4.9-8.5,8.4c-2.1,3.6-3.2,7.4-3.2,11.6v63.6h-2.6V34.3c0-3.5,0.7-6.8,2.1-10
				c1.4-3.2,3.3-5.9,5.7-8.3c2.4-2.4,5.2-4.2,8.3-5.5c3.1-1.3,6.4-2,9.9-2c3.2,0,6.2,0.6,9.2,1.8c3,1.2,5.6,2.9,7.8,5
				c2.3,2.1,4.1,4.6,5.6,7.4c1.4,2.8,2.3,5.7,2.5,8.8c0.2,1.6,0.2,2.7,0.2,3.5c0,2.4-0.4,4.7-1.1,6.9c-0.7,2.2-1.8,4.4-3.3,6.7
				l0.9,0.9c3.2-4.9,4.7-9.7,4.7-14.5C569.3,34.4,569.2,33.1,569.1,31.4z M536.9,33.5c0,1.8,0.5,3.2,1.5,4.4c1,1.1,2.2,1.7,3.7,1.7
				c1.5,0,2.8-0.5,3.8-1.6c1-1.1,1.5-2.4,1.5-3.9c0-0.9-0.2-1.7-0.7-2.5c-0.5-0.8-1.1-1.4-1.8-1.8c-0.7-0.4-1.6-0.7-2.5-0.7
				c-1.4,0-2.6,0.4-3.6,1.2C537.7,31,537.1,32.1,536.9,33.5z"/>
			<path class="st0" d="M573.9,35.3c-0.1,3.7-0.6,6.9-1.4,9.5c-0.8,2.3-2.1,4.9-3.8,7.5c1.6,2.1,2.9,4.5,3.8,7
				c1,2.8,1.5,5.7,1.5,8.8v31.2H546v-29c0-1.2-0.4-2.2-1.2-3c-0.8-0.8-1.7-1.2-2.8-1.2l-3.6-0.2v33.3h-28.1V34.2
				c0-5.7,1.5-11.1,4.4-15.9c2.9-4.8,6.9-8.7,11.8-11.5c4.9-2.8,10.3-4.2,16-4.2c5.7,0,11,1.5,15.8,4.4c4.8,2.9,8.6,6.9,11.3,11.9
				C572.5,23.7,573.9,29.3,573.9,35.3z M565.9,50.6c1.6-2.4,2.8-4.7,3.5-6.8c0.3-0.8,0.5-1.7,0.7-2.7c-0.8,3.1-2.2,6.2-4.2,9.3
				l0,0.1C565.9,50.5,565.9,50.6,565.9,50.6z M549.4,96.3v-26c0-2.3-0.8-4.1-2.4-5.4l-0.1-0.1c-1.2-1.1-2.7-1.7-4.7-1.9l-4.9-0.4
				l0,0.5l4.7,0.2c1.9,0,3.6,0.7,4.9,2.1c1.4,1.4,2.1,3.2,2.1,5.2v25.8H549.4z M538.5,33.6c0,1.3,0.4,2.4,1.1,3.2
				c0.7,0.8,1.5,1.2,2.5,1.2c1.1,0,1.9-0.4,2.6-1.1c0.7-0.8,1.1-1.7,1.1-2.8c0-0.6-0.2-1.1-0.5-1.7c-0.3-0.6-0.7-1-1.2-1.3
				c-0.5-0.3-1.1-0.5-1.8-0.5c-1,0-1.9,0.3-2.6,0.9C539,32,538.6,32.7,538.5,33.6z M513.5,96.3v-62c0-2.8,0.4-5.5,1.1-8.1
				c-0.8,2.5-1.1,5.2-1.1,8L513.5,96.3L513.5,96.3z"/>
		</g>
		<g>
			<path class="st0" d="M616.8,4c4.1,0,8.1,0.8,11.8,2.4c3.7,1.6,7,3.7,9.8,6.4c2.8,2.7,5,5.9,6.7,9.6c1.6,3.7,2.4,7.6,2.4,11.7
				L647.4,98h-3.1V34.2c0-5-1.2-9.5-3.7-13.7c-2.5-4.1-5.8-7.4-10-9.9S621.7,7,616.7,7c-3.5,0-6.9,0.7-10.1,2.1
				c-3.2,1.4-6,3.2-8.4,5.6c-2.4,2.4-4.3,5.1-5.6,8.2c-1.4,3.1-2.1,6.4-2.1,9.9V50h1.4V33.3c0-4.4,1.1-8.5,3.4-12.3s5.3-6.9,9.2-9.1
				c3.9-2.2,8-3.4,12.3-3.4c3.5,0,6.8,0.7,10,2c3.1,1.3,5.9,3.1,8.3,5.5c2.4,2.4,4.3,5.1,5.7,8.3c1.4,3.2,2.1,6.5,2.1,10V98h-2.4
				V34.2c0-4.2-1.1-8-3.2-11.6c-2.1-3.6-5-6.4-8.6-8.4c-3.6-2.1-7.5-3.1-11.8-3.1c-4,0.1-7.7,1.1-11.1,3.1c-3.4,1.9-6.1,4.6-8.1,7.9
				c-2,3.3-3,6.9-3,10.8v17h1.3V32.2c0-5.5,2.1-10.1,6.3-13.8c4.2-3.7,9.1-5.6,14.7-5.7c3.9,0,7.5,1,10.9,2.9c3.4,1.9,6.1,4.6,8,7.9
				c2,3.3,3,7,3,10.9V98h-2.1V34.2c0-2.7-0.5-5.2-1.6-7.6c-1-2.4-2.4-4.5-4.2-6.3c-1.8-1.8-3.9-3.2-6.3-4.2c-2.4-1-5-1.6-7.6-1.6
				c-3.3,0-6.4,0.9-9.3,2.4c-2.9,1.6-5.2,3.8-7,6.5c-1.8,2.7-2.6,5.7-2.6,9l0.1,17.5h1.7V32.6c0-3,0.8-5.8,2.4-8.2
				c1.6-2.5,3.7-4.4,6.3-5.8c2.6-1.4,5.5-2.1,8.5-2.2c3.2,0,6.1,0.8,8.9,2.4c2.7,1.6,4.9,3.8,6.5,6.5c1.6,2.8,2.4,5.7,2.4,8.9V98
				h-2.1V34.2c0-2.2-0.4-4.3-1.2-6.2c-0.8-1.9-1.9-3.7-3.4-5.2c-1.5-1.5-3.2-2.7-5.2-3.5c-1.9-0.8-4-1.3-6.1-1.3
				c-2.7,0.1-5.3,0.8-7.6,2c-2.4,1.3-4.2,3-5.6,5.2c-1.4,2.2-2.1,4.7-2.1,7.3V50h1.9V32.6c0-3.5,1.4-6.5,4.1-8.9
				c2.7-2.4,5.9-3.6,9.6-3.6c3.9,0,7.2,1.4,9.9,4.1c2.7,2.7,4.1,6.1,4.1,10V98h-1.3V34c0-2.3-0.6-4.4-1.7-6.2
				c-1.2-1.9-2.7-3.4-4.7-4.5c-2-1.1-4-1.7-6.3-1.7c-2,0-4,0.5-5.9,1.5c-1.9,0.9-3.4,2.2-4.5,3.9c-1.1,1.7-1.7,3.5-1.7,5.6V50h2.1
				V32.4c0-2.4,1-4.4,3.1-6c2-1.6,4.4-2.4,7-2.4c2.8,0,5.2,1,7.2,3c2,2,3,4.4,3,7.3V98h-1.2V34c0-2.5-0.9-4.6-2.7-6.3
				c-1.8-1.7-3.9-2.6-6.5-2.6c-2.3,0.1-4.3,0.8-6.1,2.2c-1.7,1.4-2.6,3.2-2.6,5.2V50h2.6V33.5c0-1.6,0.6-2.9,1.7-4
				c1.2-1.1,2.5-1.7,4.2-1.8c1.8,0,3.3,0.6,4.7,1.9c1.3,1.2,2,2.7,2,4.4v64h-1v-23h-10.4v23h-1.2V73.6h11.2v-2.4h-13.8V98h-1.3V69.6
				h15.2v-2.1H605V98h-1.5l0.1-32.2h18.7v-1.6h-20.7V98h-1.7V62.3h22.4v-1.5h-24.1V98h-2.3V58.4h26.6V57h-27.9v41h-2.7V54.5h30.6
				v-1.4h-32V98h-3.1V32.6c0-5.2,1.4-10,4.1-14.3c2.7-4.3,6.3-7.8,10.8-10.3C606.7,5.4,611.5,4.1,616.8,4z M612.1,33v17h10.4V33.7
				c0-1.4-0.6-2.5-1.7-3.4c-1.1-0.9-2.4-1.4-3.8-1.4c-1.2,0.1-2.3,0.5-3.3,1.3C612.7,30.9,612.1,31.8,612.1,33z"/>
			<path class="st0" d="M649.1,34.1L649,99.5H621v-23h-7.2v23h-28.1V32.6c0-5.5,1.4-10.6,4.3-15.2c2.8-4.5,6.6-8.2,11.3-10.9
				c4.7-2.7,9.8-4.1,15.3-4.2l0,0c4.3,0,8.5,0.8,12.4,2.5c3.9,1.6,7.4,3.9,10.3,6.8c3,2.9,5.3,6.3,7,10.1
				C648.3,25.6,649.1,29.7,649.1,34.1z M645.9,75.7l0.1-41.6c0-3.9-0.8-7.6-2.3-11.1c-0.8-1.9-1.9-3.7-3-5.3c0.5,0.7,0.9,1.3,1.3,2
				c2.6,4.4,3.9,9.2,3.9,14.5V75.7z M620.9,48.4V33.7c0-0.9-0.4-1.6-1.1-2.2c-0.8-0.7-1.7-1-2.7-1c-0.9,0.1-1.7,0.4-2.4,0.9
				c-0.8,0.6-0.9,1.2-0.9,1.6v15.4H620.9z"/>
		</g>
		<g>
			<path class="st0" d="M722.4,95.8c-4.3,1.4-8.5,2.1-12.8,2.2c-8.6,0-16.5-2.1-23.7-6.3s-12.9-9.9-17-17.1
				c-4.2-7.2-6.3-15.1-6.3-23.7c0-8.4,2.1-16.2,6.2-23.4c4.1-7.2,9.7-12.9,16.8-17.1c7-4.3,14.7-6.4,22.9-6.4c4.6,0,9.3,0.7,14,2.2
				v3.1c-2.3-0.8-4.4-1.4-6.6-1.7c-2.1-0.3-4.6-0.5-7.5-0.5c-5.6,0-10.9,1.1-16,3.3c-5.1,2.2-9.6,5.3-13.6,9.3
				c-4,4-7.1,8.7-9.4,14.1c-2.3,5.4-3.5,11.2-3.6,17.2c0,6.1,1.2,11.8,3.6,17.1c2.4,5.4,5.7,10,9.8,13.9c4.1,3.9,8.8,7,14,9.2
				c5.2,2.2,10.6,3.3,16.2,3.3c5.3-0.3,9.6-1,13-2.1V95.8z M722.4,91c-2.5,0.8-4.7,1.4-6.6,1.8c-1.9,0.3-4,0.5-6.4,0.5
				c-7.6,0-14.6-1.9-21.1-5.8c-6.5-3.8-11.6-9-15.4-15.5c-3.8-6.5-5.7-13.6-5.7-21.1c0-7.6,1.9-14.6,5.6-21.1
				c3.7-6.5,8.7-11.6,15-15.4c6.3-3.8,13.2-5.7,20.7-5.7c4.9,0,9.5,0.7,13.9,2.2v2.4c-2.3-0.8-4.5-1.4-6.6-1.7
				c-2.1-0.3-4.5-0.5-7.3-0.5c-5.2,0-10.2,1-15,3.1c-4.7,2.1-8.9,5-12.5,8.6c-3.6,3.7-6.4,7.9-8.4,12.8c-2,4.8-3,9.9-3,15.3
				c0,7.5,1.9,14.2,5.5,20.3c3.6,6.1,8.5,10.9,14.6,14.3c6.1,3.5,12.7,5.2,19.8,5.2c2.6,0,4.8-0.1,6.4-0.4c1.7-0.3,3.8-0.9,6.6-1.9
				V91z M722.4,86.9c-4.3,1.6-8.7,2.4-13,2.4c-7.1,0-13.6-1.7-19.5-5.1c-5.9-3.4-10.5-8.1-13.8-14c-3.3-5.9-5-12.3-5-19.3
				c0-6.8,1.7-13.2,5-19c3.4-5.9,7.9-10.5,13.7-14c5.8-3.5,12-5.2,18.7-5.3c2.9,0,5.3,0.2,7.3,0.6c2,0.4,4.2,1,6.6,1.9v2.1
				c-2.4-1-4.7-1.7-6.6-2.1c-2-0.3-4.4-0.5-7.3-0.5c-6.4,0.1-12.4,1.8-17.8,5.1c-5.4,3.3-9.7,7.7-12.9,13.2
				c-3.2,5.5-4.8,11.5-4.8,18c0,6.5,1.6,12.6,4.9,18.2c3.3,5.6,7.7,10,13.3,13.3c5.6,3.3,11.6,4.9,18.1,4.9c2.6,0,4.7-0.2,6.4-0.5
				c1.7-0.4,3.9-1.1,6.6-2.1V86.9z M722.4,82.8c-2.1,0.9-4.3,1.6-6.4,2c-2.1,0.5-4.3,0.7-6.6,0.7c-6.4,0-12.2-1.6-17.4-4.7
				c-5.3-3.1-9.4-7.3-12.5-12.7c-3.1-5.3-4.6-11.1-4.6-17.2c0-4.6,0.9-9.1,2.6-13.3c1.7-4.2,4.2-7.9,7.3-11.2
				c3.1-3.3,6.7-5.8,10.9-7.6c4.1-1.8,8.4-2.7,12.9-2.7c4.8,0,9.4,0.9,13.8,2.8V21c-2.2-1.1-4.1-1.8-5.7-2.3
				c-1.6-0.4-4.3-0.7-8.1-0.7c-5.8,0-11.2,1.5-16.1,4.5c-5,3-8.8,7.1-11.7,12.1c-2.8,5.1-4.2,10.5-4.2,16.2c0,5.9,1.5,11.5,4.4,16.5
				c2.9,5.1,6.9,9.1,11.9,12.1c5,2.9,10.6,4.4,16.6,4.4c4.5-0.1,8.9-1.1,13-2.9V82.8z M722.4,78.8c-2.4,1.1-4.5,1.9-6.2,2.4
				c-1.8,0.4-4,0.7-6.9,0.8c-4.1,0-8.1-0.8-11.9-2.4c-3.8-1.6-7.1-3.9-9.9-6.8c-2.9-2.9-5.1-6.3-6.7-10.1c-1.6-3.8-2.4-7.8-2.5-11.9
				c0-4.2,0.8-8.1,2.3-11.9c1.5-3.8,3.7-7.1,6.6-10c2.8-2.9,6.1-5.1,9.7-6.8c3.7-1.6,7.5-2.4,11.6-2.5c4.8,0,9.4,1.1,13.8,3.2v1.7
				c-4.4-2.3-9.1-3.4-13.9-3.4c-5.1,0-9.9,1.4-14.4,4.1c-4.4,2.7-8,6.3-10.5,10.8c-2.6,4.5-3.8,9.4-3.8,14.7c0,5.2,1.3,10.1,4,14.7
				c2.7,4.6,6.3,8.2,10.8,10.9c4.5,2.7,9.4,4,14.7,4c2.6-0.1,4.9-0.4,6.8-0.9c1.9-0.5,4-1.3,6.3-2.5V78.8z M722.4,74.7
				c-3.7,2.1-8,3.3-13.1,3.6c-4.9,0-9.5-1.2-13.7-3.7c-4.2-2.5-7.5-5.8-9.9-10c-2.4-4.2-3.6-8.7-3.6-13.6c0-3.7,0.7-7.1,2.1-10.4
				c1.4-3.2,3.3-6.1,5.7-8.6c2.4-2.5,5.3-4.5,8.5-5.9c3.3-1.5,6.7-2.2,10.2-2.2c2.9,0,5.4,0.2,7.3,0.7c2,0.5,4.1,1.4,6.4,2.8v1.3
				c-4.2-2.5-8.8-3.8-13.8-3.8c-3.5,0.1-6.7,0.8-9.7,2.1c-3,1.3-5.7,3.2-8.1,5.7c-2.4,2.4-4.2,5.2-5.5,8.4c-1.3,3.2-2,6.5-2,9.9
				c0,3.4,0.7,6.7,2,9.8c1.3,3.1,3.2,5.9,5.6,8.4c2.4,2.5,5.2,4.4,8.5,5.8c3.2,1.4,6.6,2.1,10.1,2.1c4.7-0.1,9.1-1.3,13-3.6V74.7z
				 M722.4,70c-2.2,1.6-4.3,2.7-6.2,3.4c-1.9,0.7-4.2,1-6.9,1c-4.1,0-8-1.1-11.6-3.2c-3.7-2.1-6.5-5-8.6-8.7
				c-2.1-3.6-3.2-7.5-3.2-11.7c0-4.2,1-8.1,3.1-11.7c2.1-3.6,4.8-6.4,8.3-8.5c3.5-2.1,7.3-3.2,11.4-3.3c5.2,0,9.8,1.4,13.8,4.3v1
				c-4-3-8.6-4.5-13.7-4.5c-3,0-5.8,0.7-8.5,1.8c-2.7,1.2-5,2.8-7,4.9c-2,2.1-3.6,4.5-4.7,7.2c-1.1,2.8-1.7,5.6-1.7,8.7
				c0,4.1,1,7.9,3.1,11.3c2.1,3.5,4.8,6.2,8.3,8.2c3.4,2,7.2,3,11.2,3c2.6,0,4.9-0.3,6.8-1c1.9-0.7,4-1.9,6.3-3.7V70z"/>
			<path class="st0" d="M724,4.9v30.8l-2.5-1.8c-3.7-2.8-8-4.2-12.8-4.2c-2.7,0-5.4,0.6-7.9,1.7c-2.5,1.1-4.7,2.6-6.5,4.5
				c-1.9,1.9-3.3,4.2-4.4,6.8c-1.1,2.6-1.6,5.3-1.6,8.1c0,3.8,1,7.4,2.9,10.6c1.9,3.2,4.5,5.8,7.7,7.7c3.2,1.9,6.7,2.8,10.4,2.8
				c2.4,0,4.6-0.3,6.3-0.9c1.8-0.6,3.7-1.8,5.8-3.4l2.5-1.9v31.3l-1.1,0.3c-4.4,1.4-8.8,2.2-13.3,2.3c-8.9,0-17.1-2.2-24.5-6.5
				c-7.4-4.3-13.3-10.3-17.6-17.7c-4.3-7.4-6.5-15.7-6.5-24.5c0-8.7,2.2-16.8,6.4-24.2c4.2-7.4,10.1-13.3,17.3-17.7
				c7.3-4.4,15.2-6.6,23.7-6.7c4.8,0,9.6,0.8,14.5,2.3L724,4.9z M720.9,94.6L720.9,94.6c-3.1,0.7-6.9,1.3-11.4,1.5l-0.1,0
				c-5.7,0-11.4-1.2-16.8-3.4c-5.4-2.3-10.3-5.5-14.5-9.5c-4.3-4-7.7-8.9-10.2-14.4c-2.5-5.5-3.8-11.5-3.8-17.8
				c0.1-6.3,1.4-12.2,3.8-17.8c2.4-5.6,5.7-10.5,9.8-14.6c4.1-4.1,8.8-7.3,14-9.6c5.2-2.3,10.8-3.5,16.6-3.5c1.3,0,2.6,0,3.8,0.1
				c-1.3-0.1-2.5-0.2-3.8-0.2c-7.9,0-15.3,2.1-22.1,6.2c-6.8,4.1-12.2,9.7-16.2,16.6c-4,6.9-6,14.5-6,22.6c0,8.3,2.1,16,6.1,23
				c4,7,9.6,12.5,16.5,16.6c6.9,4,14.6,6.1,22.9,6.1C713.3,96.4,717.2,95.7,720.9,94.6z"/>
		</g>
		<g>
			<path class="st0" d="M737.5,29.4v-0.8H758V26h-20.5v-1.3H758v-2.3h-20.5v-1.7H758v-2h-20.5v-1.9H758V15h-20.5v-2.1H758v-1.4
				h-20.5V8.5H758V7.4h-20.5V4.2h66.2v3.2h-42.3v90.5H758V29.4H737.5z M803.7,11.6h-38.1v86.4h-2.8V8.9h40.8V11.6z M803.7,15.4
				h-34.6v82.5H767V13.1h36.7V15.4z M803.7,19h-31v79H771V17.2h32.7V19z M803.7,22.4h-27.5v75.5h-1.6v-77h29.1V22.4z M803.7,26.1
				h-23.9v71.8h-1.3V24.7h25.2V26.1z M803.7,29.8h-20.1v68.1h-1.1V28.8h21.2V29.8z"/>
			<path class="st0" d="M805.3,2.5v28.9h-20.1v68.1h-28.8V31h-20.5V2.5H805.3z M802.1,5.8L802.1,5.8l-62.9,0v0h20.5v90.5h0.1V5.8
				H802.1z"/>
		</g>
		<g>
			<path class="st0" d="M822,3.9v93.9h-3.1V3.9H822z M826.3,3.9v93.9h-2.8V3.9H826.3z M829.8,3.9v93.9h-2.1V3.9H829.8z M833.5,3.9
				v93.9h-1.7V3.9H833.5z M837,3.9v93.9h-1.5V3.9H837z M840.5,3.9v93.9h-1.4V3.9H840.5z M844.2,3.9v93.9h-1.1V3.9H844.2z"/>
			<rect x="817.2" y="2.3" class="st0" width="28.6" height="97.2"/>
		</g>
		<g>
			<path class="st0" d="M919.2,95.7c-4.3,1.4-8.5,2.1-12.8,2.2c-8.6,0-16.5-2.1-23.7-6.3c-7.2-4.2-12.9-9.9-17-17.1
				c-4.2-7.2-6.3-15.1-6.3-23.7c0-8.4,2.1-16.2,6.2-23.4c4.1-7.2,9.7-12.9,16.8-17.1c7-4.3,14.7-6.4,22.9-6.4c4.6,0,9.3,0.7,14,2.2
				v3.1c-2.3-0.8-4.4-1.4-6.6-1.7C910.5,7.2,908,7,905.2,7c-5.6,0-10.9,1.1-16,3.3c-5.1,2.2-9.6,5.3-13.6,9.3c-4,4-7.1,8.7-9.4,14.1
				c-2.3,5.4-3.5,11.2-3.6,17.2c0,6.1,1.2,11.8,3.6,17.1c2.4,5.4,5.7,10,9.8,13.9c4.1,3.9,8.8,7,14,9.2c5.2,2.2,10.6,3.3,16.2,3.3
				c5.3-0.3,9.6-1,13-2.1V95.7z M919.2,91c-2.5,0.8-4.7,1.4-6.6,1.8c-1.9,0.3-4,0.5-6.4,0.5c-7.6,0-14.6-1.9-21.1-5.8
				c-6.5-3.8-11.6-9-15.4-15.5c-3.8-6.5-5.7-13.6-5.7-21.1c0-7.6,1.9-14.6,5.6-21.1c3.7-6.5,8.7-11.6,15-15.4
				c6.3-3.8,13.2-5.7,20.7-5.7c4.9,0,9.5,0.7,13.9,2.2v2.4c-2.3-0.8-4.5-1.4-6.6-1.7c-2.1-0.3-4.5-0.5-7.3-0.5c-5.2,0-10.2,1-15,3.1
				c-4.7,2.1-8.9,5-12.5,8.6c-3.6,3.7-6.4,7.9-8.4,12.8c-2,4.8-3,9.9-3,15.3c0,7.5,1.9,14.2,5.5,20.3c3.6,6.1,8.5,10.9,14.6,14.3
				c6.1,3.5,12.7,5.2,19.8,5.2c2.6,0,4.8-0.1,6.4-0.4c1.7-0.3,3.8-0.9,6.6-1.9V91z M919.2,86.9c-4.3,1.6-8.7,2.4-13,2.4
				c-7.1,0-13.6-1.7-19.5-5.1c-5.9-3.4-10.5-8.1-13.8-14c-3.3-5.9-5-12.3-5-19.3c0-6.8,1.7-13.2,5-19c3.4-5.9,7.9-10.5,13.7-14
				c5.8-3.5,12-5.2,18.7-5.3c2.9,0,5.3,0.2,7.3,0.6c2,0.4,4.2,1,6.6,1.9v2.1c-2.4-1-4.7-1.7-6.6-2.1c-2-0.3-4.4-0.5-7.3-0.5
				c-6.4,0.1-12.4,1.8-17.8,5.1c-5.4,3.3-9.7,7.7-12.9,13.2c-3.2,5.5-4.8,11.5-4.8,18c0,6.5,1.6,12.6,4.9,18.2
				c3.3,5.6,7.7,10,13.3,13.3c5.6,3.3,11.6,4.9,18.1,4.9c2.6,0,4.7-0.2,6.4-0.5c1.7-0.4,3.9-1.1,6.6-2.1V86.9z M919.2,82.8
				c-2.1,0.9-4.3,1.6-6.4,2c-2.1,0.5-4.3,0.7-6.6,0.7c-6.4,0-12.2-1.6-17.4-4.7c-5.3-3.1-9.4-7.3-12.5-12.7
				c-3.1-5.3-4.6-11.1-4.6-17.2c0-4.6,0.9-9.1,2.6-13.3c1.7-4.2,4.2-7.9,7.3-11.2c3.1-3.3,6.7-5.8,10.9-7.6
				c4.1-1.8,8.4-2.7,12.9-2.7c4.8,0,9.4,0.9,13.8,2.8v1.9c-2.2-1.1-4.1-1.8-5.7-2.3c-1.6-0.4-4.3-0.7-8.1-0.7
				c-5.8,0-11.2,1.5-16.1,4.5c-5,3-8.8,7.1-11.7,12.1c-2.8,5.1-4.2,10.5-4.2,16.2c0,5.9,1.5,11.5,4.4,16.5
				c2.9,5.1,6.9,9.1,11.9,12.1c5,2.9,10.5,4.4,16.6,4.4c4.5-0.1,8.9-1.1,13-2.9V82.8z M919.2,78.8c-2.4,1.1-4.5,1.9-6.2,2.4
				c-1.8,0.4-4,0.7-6.9,0.8c-4.1,0-8.1-0.8-11.9-2.4c-3.8-1.6-7.1-3.9-9.9-6.8c-2.9-2.9-5.1-6.3-6.7-10.1c-1.6-3.8-2.4-7.8-2.5-11.9
				c0-4.2,0.8-8.1,2.3-11.9c1.5-3.8,3.7-7.1,6.6-10c2.8-2.9,6.1-5.1,9.8-6.8c3.7-1.6,7.5-2.4,11.6-2.5c4.8,0,9.4,1.1,13.8,3.2v1.7
				c-4.4-2.3-9.1-3.4-13.9-3.4c-5.1,0-9.9,1.4-14.4,4.1c-4.4,2.7-8,6.3-10.5,10.8c-2.6,4.5-3.8,9.4-3.8,14.7c0,5.2,1.3,10.1,4,14.7
				c2.7,4.6,6.3,8.2,10.8,10.9c4.5,2.7,9.4,4,14.7,4c2.6-0.1,4.9-0.4,6.8-0.9c1.9-0.5,4-1.3,6.3-2.5V78.8z M919.2,74.6
				c-3.7,2.1-8,3.3-13.1,3.6c-4.9,0-9.5-1.2-13.7-3.7c-4.2-2.5-7.5-5.8-9.9-10c-2.4-4.2-3.6-8.7-3.6-13.6c0-3.7,0.7-7.1,2.1-10.4
				c1.4-3.2,3.3-6.1,5.7-8.6c2.4-2.5,5.3-4.5,8.5-5.9c3.3-1.5,6.7-2.2,10.2-2.2c2.9,0,5.4,0.2,7.3,0.7c2,0.5,4.1,1.4,6.4,2.8v1.3
				c-4.2-2.5-8.8-3.8-13.8-3.8c-3.5,0.1-6.7,0.8-9.7,2.1c-3,1.3-5.7,3.2-8.1,5.7c-2.4,2.4-4.2,5.2-5.5,8.4c-1.3,3.2-2,6.5-2,9.9
				c0,3.4,0.7,6.7,2,9.8c1.3,3.1,3.2,5.9,5.6,8.4c2.4,2.5,5.2,4.4,8.5,5.8c3.2,1.4,6.6,2.1,10.1,2.1c4.7-0.1,9.1-1.3,13-3.6V74.6z
				 M919.2,70c-2.2,1.6-4.3,2.7-6.2,3.4c-1.9,0.7-4.2,1-6.9,1c-4.1,0-8-1.1-11.6-3.2c-3.7-2.1-6.5-5-8.6-8.7
				c-2.1-3.6-3.2-7.5-3.2-11.7c0-4.2,1-8.1,3.1-11.7c2.1-3.6,4.8-6.4,8.3-8.5c3.5-2.1,7.3-3.2,11.4-3.3c5.2,0,9.8,1.4,13.8,4.3v1
				c-4-3-8.6-4.5-13.7-4.5c-3,0-5.8,0.7-8.5,1.8c-2.7,1.2-5,2.8-7,4.9c-2,2.1-3.6,4.5-4.7,7.2c-1.1,2.8-1.7,5.6-1.7,8.7
				c0,4.1,1,7.9,3.1,11.3c2.1,3.5,4.8,6.2,8.3,8.2c3.4,2,7.2,3,11.2,3c2.6,0,4.9-0.3,6.8-1c1.9-0.7,4-1.9,6.3-3.7V70z"/>
			<path class="st0" d="M920.7,4.9v30.8l-2.5-1.8c-3.7-2.8-8-4.2-12.8-4.2c-2.7,0-5.4,0.6-7.9,1.7c-2.5,1.1-4.7,2.6-6.5,4.5
				c-1.9,1.9-3.3,4.2-4.4,6.8c-1.1,2.6-1.6,5.3-1.6,8.1c0,3.8,1,7.3,2.9,10.6c1.9,3.2,4.5,5.8,7.7,7.7c3.2,1.9,6.7,2.8,10.4,2.8
				c2.4,0,4.6-0.3,6.3-0.9c1.8-0.6,3.7-1.8,5.8-3.4l2.5-1.9v31.3l-1.1,0.3c-4.4,1.4-8.8,2.2-13.3,2.3c-8.9,0-17.1-2.2-24.5-6.5
				c-7.4-4.3-13.3-10.3-17.6-17.7c-4.3-7.4-6.5-15.7-6.5-24.5c0-8.7,2.2-16.8,6.4-24.2c4.2-7.4,10.1-13.3,17.3-17.7
				c7.3-4.4,15.2-6.6,23.7-6.7c4.8,0,9.6,0.8,14.5,2.3L920.7,4.9z M917.7,94.6L917.7,94.6c-3.1,0.7-6.9,1.3-11.4,1.5l-0.1,0
				c-5.7,0-11.4-1.2-16.8-3.4c-5.4-2.3-10.3-5.5-14.5-9.5c-4.3-4-7.7-8.9-10.2-14.4c-2.5-5.5-3.8-11.5-3.8-17.8
				c0.1-6.3,1.4-12.2,3.8-17.8c2.4-5.6,5.7-10.5,9.8-14.6c4.1-4.1,8.8-7.3,14-9.6c5.2-2.3,10.8-3.5,16.6-3.5c1.3,0,2.6,0,3.8,0.1
				c-1.3-0.1-2.5-0.2-3.8-0.2c-7.9,0-15.3,2.1-22.1,6.2c-6.8,4.1-12.2,9.7-16.2,16.6c-4,6.9-6,14.5-6,22.6c0,8.3,2.1,16,6.1,23
				c4,7,9.6,12.5,16.5,16.6c6.9,4,14.6,6.1,22.9,6.1C910.1,96.3,913.9,95.7,917.7,94.6z"/>
		</g>
		<g>
			<path class="st0" d="M965.7,29.4c-2.3,0-3.9,0.6-4.9,1.7c-1,1.1-1.5,2.9-1.5,5.5v1.7h30.6v3.3h-52.3l-0.2,26.2
				c0,2.9,0.7,6.1,2.1,9.7c1.4,3.6,3.4,6.6,6,9.2c5.6,5.5,12.7,8.2,21.2,8.2h23.1v2.9h-23.4c-4.5,0-8.3-0.5-11.5-1.5
				c-3.1-1-6.3-2.8-9.6-5.5c-3.4-2.8-6.1-6.4-8.1-10.6c-2-4.3-3-8.7-3-13.2V34.5c0-3.7,0.7-7.3,2.1-11c1.4-3.7,3.5-7,6.3-10
				c2.3-2.4,4.7-4.3,7-5.6c2.4-1.4,4.9-2.3,7.7-2.9c2.8-0.6,5.8-0.8,9.2-0.8h23.1v3.2h-23c-5.7,0-10.3,0.9-13.9,2.7
				c-3.6,1.8-6.5,4-8.9,6.7c-1.6,1.9-3.1,4.4-4.4,7.7c-1.4,3.3-2,6.4-2,9.5v4.4h1.3v-3.7c0-3.2,0.7-6.3,2.1-9.4
				c1.4-3.1,3-5.8,4.9-8.1c2.4-2.7,5.4-4.8,8.9-6.2c3.6-1.4,7.3-2.1,11.2-2.1h23.8v2.7H966c-7.4,0-13.5,2.4-18.3,7.1
				c-1.8,1.9-3.3,4.4-4.5,7.5c-1.1,3.1-1.7,5.6-1.7,7.6v4.7h1.6v-2.1c0-6.7,1.9-12.1,5.6-16.3c2-2.3,4.5-4,7.6-5.3
				c3.1-1.2,6.5-1.9,10.2-1.9h23.4v2.3h-23.5c-3.7,0-6.9,0.5-9.5,1.5c-2.6,1-4.9,2.8-6.9,5.4c-3.1,3.7-4.6,8.4-4.6,14v2.3h1.5v-3.6
				c0-1.7,0.4-3.7,1.1-5.9c0.8-2.2,1.8-4.1,3.2-5.6c1.9-2.3,4-3.9,6.5-4.9c2.4-0.9,5.3-1.4,8.6-1.4h23.6v1.7h-23.5
				c-3.1,0-5.9,0.5-8.2,1.4c-2.4,0.9-4.4,2.5-6.1,4.7c-1.1,1.4-1.9,3.1-2.5,5c-0.6,1.9-0.9,3.5-0.9,4.7v3.8h2.1v-3.8
				c0-3,1.1-6,3.2-8.8c1.6-2,3.4-3.3,5.4-4.1c2-0.8,4.4-1.2,7.1-1.2h23.4v1.8h-23.4c-2.5,0-4.6,0.3-6.2,0.8
				c-1.7,0.6-3.3,1.6-4.7,3.2c-1,1.2-1.9,2.6-2.5,4.4c-0.7,1.8-1,3.3-1,4.6v3.1h2.4v-2.7c0-3.3,0.8-5.8,2.4-7.5
				c2.2-2.4,5.6-3.6,10-3.6h23v1.1h-23c-4.1,0-7.1,1.1-9,3.2c-1.5,1.8-2.2,4.2-2.2,7.4v2.1h2.6v-1.9c0-2.7,0.5-4.7,1.6-5.9
				c1.3-1.5,3.1-2.2,5.5-2.2h24.4v1H965.7z M989.8,46.1L941.6,46v21.2c0,2.5,0.6,5.4,1.7,8.6c1.1,3.2,2.9,6,5.4,8.5
				c2.6,2.5,5.3,4.3,8.1,5.2c2.8,1,6.2,1.5,10.1,1.5h22.9v2.3h-23.2c-3.1,0-5.8-0.2-8.1-0.7c-2.3-0.5-4.5-1.3-6.5-2.5
				c-2-1.2-4-2.8-5.9-4.8c-2.2-2.4-3.9-5.3-5.2-8.8c-1.3-3.5-1.9-6.4-1.9-8.7V43.3h50.8V46.1z M989.8,49.6h-44.5V67
				c0,2.2,0.5,4.9,1.6,7.9c1.1,3,2.7,5.4,4.7,7.1c2,1.6,3.9,2.8,5.4,3.5c1.6,0.7,3.1,1.2,4.6,1.4c1.5,0.2,3.6,0.3,6.3,0.3h21.9v2
				h-22.5c-3.8,0-6.8-0.3-9-0.9c-2.2-0.6-4.8-2.2-7.9-4.7c-2.9-2.3-4.8-5.2-5.7-8.7c-0.9-3.5-1.4-6.5-1.4-9V47.6h46.6V49.6z
				 M989.8,53.2h-41.1v14.5c0,1.8,0.5,3.8,1.5,6.1c1,2.3,2.3,4.2,4.1,5.7c3.3,2.8,7.1,4.2,11.2,4.2c0.6,0,1.2-0.1,1.9-0.1
				c0.7,0,1.1-0.1,1.3-0.1h21.1v1.7h-21.3c-3.7,0-6.5-0.2-8.5-0.7c-2-0.5-4.3-1.7-6.9-3.7c-1.8-1.4-3.3-3.5-4.4-6.2
				c-1.1-2.7-1.6-4.9-1.6-6.7l-0.1-16.5h42.9V53.2z M989.8,56.7h-37.5v9.9c0,4.6,1.7,8.2,5.2,10.8c1.3,1,2.5,1.6,3.7,1.9
				c1.2,0.3,2.5,0.4,4,0.4h3.6h21v1.7H969h-2.8c-2.1,0-3.8-0.2-5-0.5c-1.3-0.3-2.9-1.1-5-2.5c-1.7-1.2-3.1-3-4.1-5.3
				c-1-2.3-1.5-4.5-1.5-6.5V55.1h39.1V56.7z M989.8,60.3h-34.1v6.5c0,0.9,0.3,2.2,0.8,3.8c0.5,1.6,1.5,2.9,2.8,3.9
				c1.1,0.8,2.1,1.3,2.9,1.5c0.8,0.2,1.9,0.3,3.4,0.3h3.5h20.7v1.3H969h-3.5c-1.5,0-2.7-0.1-3.7-0.4c-1-0.3-2.2-0.8-3.4-1.7
				c-1.3-1-2.3-2.4-3-4.2c-0.7-1.8-1-3.2-1-4.3l0.1-8l35.3,0.1V60.3z M989.8,64h-30.4l-0.1,3.3c0,2,0.9,3.6,2.6,4.8
				c0.9,0.5,2.1,0.7,3.6,0.7h2.8h21.4v1h-21.3c-1.9,0-3.4-0.1-4.5-0.2c-1.1-0.2-2-0.5-2.9-1.1c-1.8-1.1-2.8-2.8-2.8-5.3l0.1-4.2
				l31.3,0.1V64z"/>
			<path class="st0" d="M991.5,2.5V31h-25.8c-1.8,0-3,0.4-3.7,1.2c-0.5,0.5-1.1,1.7-1.1,4.4v0.1h30.6v28.8H961l-0.1,1.7
				c0,1.4,0.6,2.5,1.9,3.3c0.7,0.3,1.6,0.5,2.8,0.5h25.8v28.3h-25c-4.7,0-8.7-0.5-12-1.5c-3.3-1-6.7-3-10.1-5.8
				c-3.6-3-6.5-6.7-8.5-11.2c-2.1-4.5-3.2-9.1-3.2-13.9V34.5c0-3.9,0.8-7.8,2.3-11.6c1.5-3.9,3.7-7.4,6.6-10.5
				c2.4-2.5,4.9-4.5,7.4-5.9c2.5-1.4,5.3-2.5,8.2-3.1c2.9-0.6,6.1-0.9,9.5-0.9H991.5z M988.2,5.8L988.2,5.8l-21.5,0
				c-3.2,0-6.2,0.3-8.9,0.8c-2.6,0.5-5,1.4-7.2,2.7c-1.5,0.9-3,2-4.5,3.3c1.8-1.5,3.9-2.8,6.1-3.9c3.8-1.9,8.7-2.8,14.6-2.8H988.2z
				 M988.2,40L988.2,40L936,40v-6c0-3.3,0.7-6.7,2.2-10.1c0.8-1.9,1.6-3.6,2.5-5.1c-1.1,1.7-2,3.5-2.7,5.3c-1.4,3.5-2,7-2,10.5v18.5
				l0.1-13H988.2z M949,91.6c2.2,1.5,4.3,2.6,6.4,3.2c0.8,0.2,1.6,0.4,2.4,0.6C954.7,94.7,951.8,93.4,949,91.6z"/>
		</g>
		<g>
			<path class="st0" d="M1032.5,28.5l12-0.1v69.4h-1.1V29.5h-11.4L1032.5,28.5z M1034.4,24.4h14.2v73.4h-1.2v-72h-13.6L1034.4,24.4z
				 M1036.2,20.6h16.4v77.1h-1.7V22.1h-15.3L1036.2,20.6z M1038,16.8h18.1v80.9h-1.7V18.6H1037L1038,16.8z M1039.8,12.7h20.4v85
				h-2.3V14.9h-19L1039.8,12.7z M1041.7,8.5h22.6v89.3h-2.8V11.3h-20.9L1041.7,8.5z M1044,3.8h25.1l-0.1,94h-3.2V7h-23.4L1044,3.8z"
				/>
			<path class="st0" d="M1070.7,2.2l-0.1,97.2h-28.7V31.1h-12.4l2.1-4.2l1.8-4.1h0.2l1.1-2.5h-0.2l2.7-5.1l1.7-4.1h0.1l1-2.4h-0.1
				l0.4-0.8l0.4-1h0.1l2.3-4.7H1070.7z M1067.4,65.1l0.1-59.7l-22.5,0h22.4V65.1z"/>
		</g>
		<g>
			<path class="st0" d="M1087.3,51.1c-2.2-2.9-3.7-5.7-4.6-8.5c-0.9-2.8-1.4-5.9-1.4-9.4c0-5.3,1.4-10.2,4.1-14.7
				c2.7-4.5,6.4-8.1,10.9-10.7c4.6-2.6,9.5-3.9,14.8-3.9c5,0.1,9.6,1.3,13.7,3.5c4.1,2.3,7.5,5.4,10.1,9.4c2.6,4,4.2,8.4,4.8,13.4
				c0.2,1,0.3,2.5,0.3,4.5c0,5.4-1.7,10.7-5.2,16c3.6,5,5.4,10.7,5.5,17.2c0,4.1-0.8,7.9-2.3,11.6c-1.5,3.6-3.6,6.8-6.3,9.6
				c-2.7,2.7-5.8,4.9-9.3,6.5s-7.2,2.4-11.2,2.4c-3.7,0-7.3-0.7-10.7-2c-3.4-1.4-6.5-3.2-9.1-5.7c-2.6-2.4-4.8-5.3-6.4-8.5
				c-1.6-3.2-2.7-6.8-3.1-10.8c-0.1-0.7-0.1-1.7-0.1-2.9C1081.6,62,1083.5,56.4,1087.3,51.1z M1089.4,53.8
				c-3.2,4.5-4.7,9.5-4.7,14.9c0,0.7,0.1,1.9,0.2,3.4c0.5,4.3,2.1,8.2,4.6,11.6c2.6,3.5,5.8,6.2,9.6,8.1c3.9,1.9,7.8,2.9,11.9,2.9
				c3.6,0,6.9-0.7,10-2.1c3.1-1.4,5.8-3.3,8.2-5.8c2.4-2.5,4.2-5.4,5.5-8.7c1.3-3.3,2-6.6,2-10.2c0-3.2-0.6-6.3-1.7-9.3
				c-1.1-3-2.7-5.7-4.8-8.1c-2-2.4-4.5-4.4-7.3-5.9c-2.8-1.5-5.9-2.5-9.2-2.8l-2.6-0.2c-2.3-0.2-4.3-1.1-6.1-2.5
				c-1.7-1.4-2.6-3.3-2.6-5.4c0-2.4,0.8-4.4,2.4-6.1c1.6-1.7,3.6-2.6,5.9-2.6c2,0,3.7,0.7,5.3,2c1.6,1.3,2.5,2.8,2.8,4.5
				c0.1,0.5,0.1,1.4,0.1,2.5c0,2.1-0.7,3.9-2,5.4l1.4,0.3c1.3-2.1,1.9-4.1,1.9-5.8c0-1.2-0.1-2.1-0.2-2.7c-0.6-2.3-1.7-4.2-3.4-5.6
				c-1.7-1.4-3.8-2.1-6.1-2.1c-2.6,0-4.9,1-6.7,3c-1.8,2-2.8,4.3-2.8,7c0,2.6,1,4.8,2.8,6.6c1.8,1.8,4,2.8,6.6,3l3.2,0.3
				c3.1,0.2,6,1,8.7,2.4c2.7,1.4,5,3.2,7,5.5c2,2.3,3.5,4.9,4.5,7.8c1.1,2.9,1.6,6,1.6,9.1c0,3.3-0.6,6.5-1.9,9.5
				c-1.3,3-3,5.7-5.2,8c-2.2,2.3-4.8,4.2-7.8,5.5c-3,1.4-6.2,2.1-9.5,2.1c-4.2,0-8.1-1-11.7-2.9c-3.6-1.9-6.6-4.5-8.9-7.8
				c-2.3-3.3-3.7-6.9-4.2-10.9c-0.1-0.8-0.1-1.8-0.1-3.3c0-2.6,0.3-4.9,1-7c0.7-2.1,1.8-4.3,3.3-6.6L1089.4,53.8z M1092.2,56.3
				c-2.4,3.7-3.6,7.7-3.6,12c0,1.4,0,2.5,0.1,3.3c0.3,2.5,1.1,4.9,2.3,7.1c1.2,2.2,2.9,4.2,4.9,6c2,1.8,4.4,3.2,7,4.2
				c2.6,1,5.2,1.5,7.9,1.5c3,0,5.9-0.6,8.6-1.8c2.7-1.2,5.1-2.8,7.1-4.8c2-2,3.6-4.3,4.7-7c1.1-2.7,1.7-5.5,1.7-8.6
				c0-3-0.5-5.8-1.4-8.3c-0.9-2.6-2.3-4.9-4-6.9c-1.7-2-3.8-3.7-6.3-5c-2.4-1.3-5-2.1-7.8-2.3l-2.4-0.2c-3.4-0.4-6.3-1.7-8.5-3.8
				c-2.3-2.1-3.5-4.8-3.6-7.9c0-2.3,0.5-4.3,1.6-6.3c1.1-1.9,2.5-3.5,4.3-4.6c1.8-1.1,3.8-1.8,6.1-1.8c2.9,0,5.5,0.9,7.8,2.8
				c2.3,1.9,3.7,4.2,4.1,6.9c0.2,1.1,0.3,2.2,0.3,3.3c0,2.1-0.6,4.2-1.8,6.3l1.2,0.5c1.4-2.4,2.1-4.8,2.1-7c0-0.6-0.1-1.6-0.2-2.8
				c-0.6-3.4-2.1-6.2-4.6-8.3c-2.5-2.1-5.5-3.2-8.9-3.2c-2.4,0-4.7,0.6-6.8,1.9c-2.1,1.3-3.8,3-5,5.1c-1.2,2.2-1.9,4.5-1.9,7
				c0.1,3.5,1.2,6.6,3.4,9.1c2.2,2.5,5,4,8.4,4.3l5.1,0.6c3.3,0.3,6.4,1.5,9,3.4c2.7,1.9,4.8,4.5,6.2,7.5c1.5,3.1,2.2,6.4,2.2,9.9
				c0,3.6-0.9,7-2.7,10.2c-1.8,3.2-4.3,5.7-7.4,7.6c-3.2,1.9-6.5,2.9-10.1,2.9c-2.6,0-5.1-0.4-7.5-1.3c-2.4-0.9-4.6-2.1-6.5-3.7
				c-1.9-1.6-3.5-3.4-4.7-5.5c-1.2-2.1-1.9-4.3-2.2-6.8c-0.2-1.4-0.2-2.4-0.2-3.1c0-1.9,0.3-3.8,0.8-5.5c0.5-1.7,1.4-3.6,2.7-5.5
				L1092.2,56.3z M1095.1,58.7c-2,3.1-3,6.3-3,9.5c0,0.7,0.1,1.9,0.2,3.4c0.5,4.2,2.5,7.8,6.1,10.8c3.6,3,7.6,4.5,12.2,4.5
				c3.2,0,6.3-0.9,9.2-2.6c2.9-1.7,5.2-4,6.8-6.9c1.7-2.9,2.5-6,2.5-9.4c0-3.2-0.6-6.1-1.9-8.8c-1.3-2.7-3.1-5-5.5-6.8
				c-2.4-1.8-5-2.9-8-3.2l-4.8-0.5c-3.9-0.5-7.2-2.1-9.7-5c-2.6-2.9-3.9-6.4-4-10.4c0-4.3,1.5-8,4.4-11.2c2.9-3.1,6.5-4.8,10.8-4.9
				c2.7,0,5.3,0.7,7.7,2c2.5,1.3,4.4,3.1,6,5.3c1.5,2.2,2.3,4.6,2.3,7c0,2.4-0.1,4.2-0.4,5.5c-0.3,1.3-0.9,2.8-1.9,4.5l1.4,0.7
				c0.9-1.8,1.6-3.4,2-4.7c0.4-1.4,0.6-2.7,0.6-4c0-1.3-0.1-2.6-0.4-3.9c-0.6-2.7-1.7-5.1-3.3-7.2c-1.6-2.1-3.6-3.7-5.9-4.8
				c-2.3-1.1-5-1.7-7.9-1.7c-2.4,0-4.6,0.4-6.7,1.3c-2.1,0.9-3.9,2.1-5.5,3.7c-1.6,1.6-2.8,3.5-3.7,5.6c-0.9,2.1-1.4,4.3-1.4,6.6
				c0,4.5,1.5,8.3,4.4,11.6c2.9,3.2,6.6,5.1,11.1,5.7l4.1,0.5c4.4,0.4,7.9,2.2,10.7,5.4c2.8,3.2,4.2,7.1,4.3,11.6
				c0,2.4-0.4,4.6-1.3,6.6c-0.8,2-2.1,3.8-3.7,5.5c-1.7,1.7-3.5,2.9-5.5,3.8c-2,0.9-4.2,1.3-6.6,1.4c-2.7,0-5.4-0.6-7.9-1.9
				c-2.5-1.3-4.6-3-6.2-5.1c-1.6-2.1-2.6-4.3-3-6.6c-0.2-1.5-0.2-2.6-0.2-3.1c0-3.1,1-6.1,2.9-9L1095.1,58.7z M1098,60.1
				c-1.8,2.5-2.6,5.4-2.6,8.5c0,1.3,0,2.2,0.1,2.8c0.4,3.2,2.2,6,5.4,8.4c3.2,2.4,6.6,3.6,10.2,3.6c2.7,0,5.3-0.7,7.6-2.1
				c2.3-1.4,4.2-3.3,5.6-5.6c1.4-2.4,2.1-4.9,2.1-7.7c0-2.5-0.6-4.9-1.8-7.2c-1.2-2.3-2.8-4.1-4.9-5.6c-2.1-1.4-4.5-2.3-7.1-2.6
				l-3.7-0.5c-4.9-0.5-8.9-2.6-12.1-6.1c-3.2-3.5-4.8-7.7-4.9-12.6c0-3.3,0.8-6.5,2.5-9.4c1.7-3,4-5.3,6.9-7.1
				c3-1.8,6.2-2.6,9.9-2.6c4.7,0.2,8.8,1.8,12.1,4.6c3.3,2.9,5.4,6.6,6.2,11.2c0.1,1,0.2,2.3,0.2,4c-0.1,3.4-1,6.5-2.6,9.2l1.6,1
				c0.9-1.7,1.7-3.4,2.1-5.1c0.5-1.7,0.7-3.4,0.7-5.1c0-1.6-0.1-2.9-0.2-3.9c-0.3-2.4-1.1-4.7-2.3-6.9c-1.2-2.2-2.8-4.1-4.6-5.8
				c-1.8-1.6-3.9-2.9-6.2-3.8c-2.3-0.9-4.7-1.3-7.2-1.3c-3.7,0-7.2,0.9-10.4,2.7c-3.2,1.8-5.8,4.3-7.8,7.4c-2,3.1-2.9,6.6-3,10.3
				c0,5.6,1.8,10.4,5.4,14.4c3.6,4.1,8.1,6.3,13.6,6.8l3.2,0.2c2.3,0.2,4.4,1,6.2,2.2c1.8,1.3,3.3,2.9,4.3,4.9
				c1.1,2,1.6,4.2,1.6,6.6c0,3.7-1.3,7-3.9,9.6c-2.6,2.7-5.8,4-9.5,4c-1.9,0-3.8-0.4-5.7-1.3c-1.9-0.9-3.5-2.1-4.9-3.7
				c-1.4-1.6-2.2-3.4-2.6-5.5c-0.2-0.8-0.2-1.8-0.2-3.3c0-2.4,0.8-4.8,2.3-7.2L1098,60.1z M1101.4,61.6c-1.8,2.2-2.7,4.6-2.7,7.3
				c0,1.1,0.2,2.2,0.5,3c0.7,2.4,2.2,4.4,4.4,6c2.2,1.5,4.6,2.3,7.3,2.3c2.2-0.1,4.2-0.6,6-1.7c1.8-1.1,3.2-2.5,4.3-4.4
				c1.1-1.9,1.6-3.9,1.6-6c0-2-0.5-3.9-1.4-5.6c-0.9-1.7-2.1-3.2-3.7-4.3c-1.6-1.1-3.4-1.8-5.4-1.9l-3.8-0.5
				c-3.8-0.5-7.3-1.7-10.4-3.8c-3.1-2.1-5.5-4.8-7.3-8.1c-1.8-3.3-2.6-6.9-2.6-10.8c0-4,1.1-7.7,3.2-11.2c2.1-3.5,4.9-6.2,8.4-8.2
				c3.5-2,7.3-3,11.3-3c3.7,0,7.1,0.9,10.2,2.7c3.1,1.8,5.7,4.1,7.7,7.2c2,3,3.3,6.4,3.7,10.2c0.2,1.5,0.3,2.9,0.3,4.2
				c-0.1,3.7-1.1,7.2-3,10.7l1.4,1.1c2.5-4.1,3.7-8.2,3.7-12.3c0-1.8-0.1-3.2-0.3-4.1c-0.6-4.1-2-7.8-4.2-11.1
				c-2.2-3.3-5-5.9-8.5-7.8c-3.5-1.9-7.2-2.9-11.3-2.9c-3.2,0-6.3,0.6-9.2,1.8c-3,1.2-5.6,3-8,5.2c-2.4,2.3-4.2,4.8-5.5,7.8
				c-1.3,2.9-2,6.1-2,9.4c0,4.3,1,8.3,3,12c2,3.7,4.8,6.7,8.4,9c3.6,2.3,7.5,3.7,11.8,4.1l2.5,0.3c2.5,0.2,4.6,1.3,6.3,3.2
				c1.7,1.9,2.5,4.1,2.5,6.7c0,2.7-1,5-3,6.9c-1.9,1.9-4.2,2.9-6.8,2.9c-2.4,0-4.5-0.7-6.3-2.1c-1.8-1.4-3-3.3-3.5-5.7
				c0-3.6,0.7-6.3,2.2-8L1101.4,61.6z M1104.8,62.5c-1.4,1.4-2.1,4.3-2.1,8.6c1.4,3.6,4.1,5.4,8.2,5.4c2.3,0,4.3-0.9,5.9-2.6
				c1.6-1.7,2.4-3.7,2.4-6c-0.1-2.3-0.9-4.2-2.4-5.8c-1.5-1.6-3.4-2.5-5.7-2.7l-2.1-0.1c-3.4-0.2-6.6-1-9.5-2.4
				c-2.9-1.4-5.5-3.3-7.7-5.7c-2.3-2.4-4-5.2-5.2-8.3c-1.2-3.1-1.9-6.3-1.9-9.7c0-4.7,1.2-9,3.6-13s5.5-7.1,9.5-9.4
				c4-2.3,8.4-3.5,13.1-3.5c4.2,0,8.2,1,11.8,3c3.6,2,6.6,4.7,8.9,8.2c2.3,3.5,3.8,7.4,4.3,11.6c0.2,1.5,0.3,3,0.3,4.5
				c0,2.4-0.3,4.6-1,6.6c-0.7,2.1-1.7,4.2-3.1,6.5l1.5,1.7c1.7-2.6,3-5,3.8-7.4c0.8-2.4,1.2-5,1.2-7.7c0-0.8-0.1-2.1-0.2-3.9
				c-0.3-3.5-1.3-6.9-2.8-10c-1.5-3.1-3.5-5.8-6-8.2c-2.5-2.3-5.3-4.1-8.4-5.4c-3.1-1.3-6.5-2-10-2c-5.3,0-10.1,1.3-14.6,3.8
				c-4.5,2.5-8,5.9-10.6,10.3c-2.6,4.3-3.9,9.1-3.9,14.3c0,5,1.2,9.5,3.6,13.8c2.3,4.2,5.5,7.6,9.6,10.2c4.1,2.6,8.4,4.1,13.1,4.3
				l1.9,0.2c1.7,0.1,3.2,0.7,4.4,1.9c1.2,1.1,1.8,2.5,1.8,4.1c0,1.6-0.5,3.1-1.6,4.3c-1.1,1.2-2.5,1.9-4.1,2c-1.5,0-2.9-0.4-4.1-1.3
				c-1.2-0.8-1.9-1.9-2.1-3.2c0-1.6,0.3-3,0.8-4.2c0.5-1.2,1.1-2,1.9-2.3L1104.8,62.5z M1106.2,70.1c0.7,2,2.2,3,4.6,3
				c1.4,0,2.6-0.5,3.5-1.5c1-1,1.5-2.2,1.5-3.7c0-1.3-0.5-2.4-1.4-3.3c-0.9-1-2-1.5-3.2-1.6c-0.9,0-1.8,0.3-2.6,0.8
				c-0.8,0.5-1.5,1.2-2,2.1c-0.5,0.9-0.7,1.8-0.7,2.6C1105.8,69.1,1106,69.6,1106.2,70.1z M1111.1,38.3c1.4,0,2.6-0.5,3.5-1.5
				c0.9-1,1.4-2.3,1.4-3.8c0-1.4-0.6-2.6-1.6-3.6c-1-1-2.2-1.5-3.5-1.5c-1.3,0-2.4,0.5-3.4,1.5c-1,1-1.5,2.1-1.5,3.5
				c0,1.5,0.5,2.8,1.5,3.9C1108.4,37.8,1109.6,38.3,1111.1,38.3z"/>
			<path class="st0" d="M1141.7,67.8c0,4.3-0.8,8.4-2.4,12.2c-1.6,3.8-3.8,7.2-6.6,10c-2.8,2.9-6.1,5.2-9.7,6.8
				c-3.7,1.6-7.6,2.5-11.8,2.5c-3.9,0-7.7-0.7-11.3-2.1c-3.6-1.4-6.8-3.4-9.6-6c-2.8-2.5-5-5.5-6.8-8.9c-1.7-3.4-2.8-7.2-3.2-11.3
				c-0.1-0.7-0.1-1.7-0.1-3.1c0-5.9,1.8-11.6,5.3-16.9c-1.9-2.7-3.3-5.4-4.2-8c-1-2.9-1.5-6.2-1.5-9.9c0-5.5,1.4-10.7,4.3-15.5
				c2.8-4.7,6.7-8.5,11.5-11.2c4.8-2.7,10-4.1,15.5-4.1c5.3,0.1,10.1,1.3,14.5,3.7c4.3,2.4,7.9,5.7,10.6,9.9c2.7,4.1,4.4,8.9,5,14.1
				c0.2,1.1,0.3,2.7,0.3,4.7c0,5.4-1.7,10.7-4.9,15.9C1139.9,55.6,1141.6,61.4,1141.7,67.8z M1125.2,92.1c1.9-1.2,3.6-2.6,5.2-4.2
				c2.5-2.6,4.5-5.6,6-9.1c1.4-3.4,2.2-7.1,2.2-11c-0.1-6.2-1.8-11.7-5.2-16.3l-0.6-0.9l0,0l-2.4-2.7l0-0.1l0,0l-2.4-2l0.1-0.2
				l-2.5-1.6l-3.8-1.8l0-0.1l-2.7-1.1l-0.1,0.2c1.6,0.5,3.1,1.1,4.6,1.9c3,1.6,5.6,3.7,7.8,6.3c2.1,2.5,3.8,5.4,5.1,8.6
				c1.2,3.2,1.8,6.5,1.8,9.9c0,3.7-0.7,7.3-2.1,10.7c-1.4,3.4-3.4,6.5-5.9,9.2C1128.8,89.5,1127.1,90.9,1125.2,92.1z M1091,87.8
				c0.4,0.4,0.8,0.8,1.2,1.2c2.5,2.3,5.4,4.1,8.6,5.4c3.2,1.3,6.7,1.9,10.2,1.9c2.6,0,5.1-0.4,7.4-1.1c-2.4,0.7-4.9,1-7.4,1
				c-4.3,0-8.6-1-12.6-3.1C1095.7,91.7,1093.2,89.9,1091,87.8z M1114.1,40.1l1.7-1.9c1-1.1,1.5-2.3,1.6-3.9
				c-0.2,1.3-0.8,2.5-1.6,3.5c-1.2,1.4-2.8,2.1-4.6,2.1c-1.8,0-3.5-0.7-4.8-2c-1.3-1.3-2-3-2-4.9c0-1.8,0.7-3.3,2-4.6
				c0.9-0.9,1.9-1.4,3-1.7c-1.3,0.3-2.4,0.9-3.3,1.9c-1.3,1.4-2,3.1-2,5.1c0,1.7,0.7,3.1,2.1,4.3c1.5,1.3,3.2,2,5.2,2.2l2.6,0.2
				c0.7,0.1,1.3,0.2,2,0.3L1114.1,40.1z M1107.4,32.9c0,1.1,0.4,2,1.1,2.7c0.7,0.8,1.6,1.1,2.6,1.1c1,0,1.7-0.3,2.3-1
				c0.7-0.7,1-1.7,1-2.8c0-1-0.4-1.8-1.1-2.5c-0.7-0.7-1.5-1-2.5-1c-0.9,0-1.6,0.3-2.3,1C1107.8,31.2,1107.4,32,1107.4,32.9z
				 M1107.4,68.5c0,0.3,0.1,0.6,0.2,0.8l0.1,0.2c0.5,1.4,1.4,2,3.1,2c1,0,1.8-0.3,2.4-1c0.7-0.7,1-1.5,1-2.6c0-0.8-0.3-1.6-1-2.3
				c-0.6-0.7-1.3-1-2.2-1.1c-0.6,0-1.2,0.2-1.8,0.5c-0.6,0.4-1.1,0.9-1.4,1.5C1107.6,67.3,1107.4,67.9,1107.4,68.5z M1083.2,66.5
				c0.4-4.9,2-9.5,4.9-13.6l0-0.1c0,0-0.1-0.1-0.1-0.1C1085.1,57,1083.5,61.7,1083.2,66.5z"/>
		</g>
		<g>
			<path class="st0" d="M1196.6,28.5l12-0.1v69.4h-1.1V29.5h-11.4L1196.6,28.5z M1198.5,24.4h14.2v73.4h-1.2v-72h-13.6L1198.5,24.4z
				 M1200.3,20.6h16.4v77.1h-1.7V22.1h-15.3L1200.3,20.6z M1202.1,16.8h18.1v80.9h-1.7V18.6h-17.4L1202.1,16.8z M1203.9,12.7h20.4
				v85h-2.3V14.9h-19L1203.9,12.7z M1205.8,8.5h22.6v89.3h-2.8V11.3h-20.9L1205.8,8.5z M1208.1,3.8h25.1l-0.1,94h-3.2V7h-23.4
				L1208.1,3.8z"/>
			<path class="st0" d="M1234.9,2.2l-0.1,97.2H1206V31.1h-12.4l2.1-4.2l1.8-4.1h0.2l1.1-2.5h-0.2l2.7-5.1l1.7-4.1h0.1l1-2.4h-0.1
				l0.4-0.8l0.4-1h0.1l2.3-4.7H1234.9z M1231.5,65.3l0.1-59.9l-22.5,0h22.4V65.3z"/>
		</g>
		<g>
			<path class="st0" d="M1245.4,34.9c0-4.3,0.8-8.4,2.4-12.3c1.6-3.8,3.8-7.2,6.6-10c2.8-2.8,6-5,9.6-6.6c3.6-1.5,7.4-2.3,11.4-2.3
				c5.4,0,10.5,1.4,15.1,4.2c4.6,2.8,8.3,6.6,10.9,11.4c2.7,4.8,4,9.9,4,15.4c0,1.2-0.1,2.5-0.4,4c-0.3,1.5-0.5,2.8-0.8,4
				c-0.3,1.2-0.6,2-0.8,2.5l-24.5,52.4h-3.6l25.4-54c0.3-0.8,0.7-2.2,1.1-4.1c0.4-1.9,0.6-3.7,0.6-5.2c0-3.7-0.7-7.2-2.1-10.5
				c-1.4-3.3-3.3-6.2-5.8-8.7c-2.5-2.5-5.4-4.5-8.7-6c-3.3-1.4-6.8-2.2-10.5-2.2c-4.8,0-9.2,1.2-13.3,3.6c-4.1,2.4-7.3,5.8-9.7,10.1
				c-2.4,4.3-3.6,8.9-3.6,13.8c0.1,6,2,11.5,5.7,16.3c3.7,4.9,8.5,8.1,14.4,9.6l0.6-1.3c-2.9-0.7-5.5-1.8-7.8-3.4
				c-2.3-1.6-4.4-3.6-6.2-6c-1.8-2.4-3.2-5-4.1-7.6c-0.9-2.6-1.4-5.2-1.4-7.7c0-4.7,1.1-9,3.3-13c2.2-4,5.2-7.1,9.1-9.4
				c3.9-2.3,8.2-3.5,13-3.5c3.4,0,6.6,0.7,9.7,2c3.1,1.4,5.9,3.2,8.2,5.5c2.3,2.3,4.2,5.1,5.5,8.2c1.3,3.1,2,6.5,2,10
				c0,3.6-0.8,7.1-2.3,10.4l-25,53h-2.5l25.2-54.1c1.3-2.9,2-6,2-9.5c0-3.1-0.6-6.1-1.8-8.9c-1.2-2.8-2.8-5.3-4.9-7.4
				c-2.1-2.1-4.5-3.7-7.2-4.9c-2.7-1.2-5.7-1.8-8.9-1.9c-6.5,0-11.9,2.3-16.3,6.8c-4.4,4.5-6.6,10.1-6.6,16.7c0,3.5,0.8,6.8,2.3,9.9
				c1.5,3.1,3.6,5.7,6.3,7.9c2.7,2.2,5.8,3.6,9.3,4.3l0.7-1.4c-2.5-0.5-4.7-1.4-6.7-2.6c-2-1.3-3.8-2.8-5.3-4.7
				c-1.5-1.9-2.7-4-3.6-6.3c-0.9-2.3-1.3-4.7-1.4-7.1c0-3,0.5-5.9,1.6-8.5c1.1-2.7,2.5-5,4.4-7c1.9-2,4.2-3.6,6.8-4.7
				c2.7-1.1,5.5-1.7,8.4-1.7c3.8,0,7.3,1,10.5,3c3.3,2,5.8,4.7,7.7,8.1c1.9,3.4,2.9,7.2,2.9,11.3c-0.1,2.9-0.7,5.5-1.7,7.8
				l-25.8,55.1h-2.3l26.1-55.5c0.7-1.6,1.1-2.8,1.3-3.8c0.2-1,0.3-2.3,0.4-3.9c0-2.8-0.5-5.4-1.6-7.8s-2.4-4.5-4.1-6.2
				c-1.7-1.7-3.8-3.1-6.1-4.2c-2.4-1.1-4.9-1.6-7.5-1.6c-2.5,0-5,0.5-7.3,1.5c-2.3,1-4.4,2.4-6.1,4.2c-1.7,1.8-3.1,3.9-4.1,6.5
				c-1,2.5-1.5,5.2-1.5,8.1c0.2,3,1,5.8,2.3,8.5c1.4,2.6,3.3,4.8,5.7,6.6c2.4,1.8,5.1,2.9,8.1,3.3l0.6-1.5
				c-4.3-0.6-7.9-2.5-10.7-5.7c-2.8-3.2-4.3-6.9-4.5-11.1c0-3.4,0.8-6.5,2.3-9.4c1.5-2.8,3.6-5.1,6.2-6.7c2.6-1.6,5.6-2.4,8.9-2.4
				c2.4,0,4.7,0.5,6.9,1.4c2.2,1,4,2.3,5.6,4c1.6,1.7,2.8,3.6,3.8,5.8c0.9,2.2,1.4,4.6,1.4,7.1c0,2.2-0.4,4.2-1.2,5.9l-26.6,57.1
				h-1.8l27-57.7c0.7-1.5,1-3.5,1-5.9c0-2.9-0.7-5.6-2.2-8.1c-1.4-2.5-3.4-4.4-5.9-5.9c-2.5-1.4-5.2-2.2-8-2.2
				c-4.4,0.1-8,1.7-11.1,5c-3,3.2-4.5,7.2-4.5,11.9c0.3,4,1.8,7.4,4.4,10.2c2.7,2.9,5.9,4.5,9.8,4.8l1-1.7c-3.7-0.2-6.8-1.6-9.4-4.3
				c-2.5-2.6-3.9-5.8-4-9.5c0-2.6,0.6-5,1.8-7.2c1.2-2.2,2.9-3.9,5-5.2c2.1-1.3,4.5-1.9,7.2-2c2.5,0,4.8,0.7,7,2
				c2.2,1.4,3.9,3.2,5.1,5.5c1.2,2.3,1.8,4.7,1.8,7.3c-0.1,1.8-0.4,3.4-0.9,4.6l-27.3,58.4h-1.9l27.7-58.9c0.5-1,0.8-2.5,0.8-4.5
				c0-2.3-0.6-4.4-1.7-6.3c-1.1-1.9-2.6-3.5-4.4-4.6c-1.8-1.1-3.9-1.7-6-1.7c-2.3,0-4.4,0.6-6.3,1.8c-1.9,1.2-3.3,2.7-4.4,4.6
				c-1.1,1.9-1.6,4-1.6,6.3c0,2.2,0.6,4.2,1.8,6.1c1.1,1.9,2.7,3.3,4.6,4.4c1.9,1.1,3.9,1.6,6.1,1.6l0.9-1.9c-0.8,0-1.4,0-1.8-0.1
				c-2.7-0.4-4.9-1.5-6.6-3.4c-1.8-1.9-2.7-4.1-2.7-6.7c0-2.9,1-5.4,2.9-7.4c1.9-2,4.4-3,7.4-3c1.8,0,3.4,0.5,4.9,1.4
				c1.5,0.9,2.7,2.1,3.5,3.7c0.8,1.5,1.3,3.2,1.4,5.1c0,1.8-0.3,3.2-0.8,4.2l-27.9,59.4h-1.3l28.1-60.4c0.4-0.9,0.6-2,0.6-3.1
				c0-1.6-0.4-3.1-1.2-4.5c-0.8-1.4-1.9-2.5-3.3-3.3c-1.4-0.8-2.8-1.2-4.4-1.2c-2.8,0.2-4.9,1.1-6.5,2.7c-1.5,1.7-2.3,3.8-2.3,6.4
				c0,2.3,0.9,4.4,2.7,6c1.8,1.7,3.9,2.6,6.3,2.7c0.2,0,0.4,0,0.7-0.1c0.2-0.1,0.5-0.2,0.8-0.2l1.8-3.2c-1.2,0.6-2.4,0.9-3.6,0.9
				c-1.6,0-3.1-0.6-4.4-1.9c-1.3-1.3-1.9-2.7-1.9-4.4c0-1.8,0.6-3.3,1.9-4.6c1.3-1.3,2.8-1.9,4.5-1.9c1,0,2,0.3,3,0.9
				c1,0.6,1.7,1.3,2.3,2.3c0.6,0.9,0.9,2,1,3.2c0,1.3-0.3,2.5-0.8,3.6l-28.3,60.1h-1l16.1-34.5c-6.5-1.7-11.7-5.2-15.7-10.3
				C1248,47.8,1245.9,41.8,1245.4,34.9z M1280.8,34.2c0-1.5-0.5-2.8-1.5-3.8c-1-1-2.2-1.6-3.7-1.6c-1.5,0-2.8,0.6-3.9,1.8
				c-1.1,1.2-1.6,2.5-1.6,4.1c0.2,1.5,0.8,2.7,1.8,3.6c1,0.9,2.2,1.4,3.7,1.4c1.4,0,2.6-0.6,3.6-1.6
				C1280.3,36.9,1280.8,35.7,1280.8,34.2z"/>
			<path class="st0" d="M1307.2,34.8c0,1.3-0.1,2.7-0.4,4.3c-0.3,1.5-0.6,3-0.9,4.2c-0.3,1.3-0.6,2.2-0.9,2.8l-24.9,53.4h-30.9
				l16.3-35.1c-6-1.9-11-5.4-14.7-10.4c-4.1-5.4-6.4-11.7-6.9-18.9l0-0.1c0-4.5,0.9-8.9,2.5-12.9c1.7-4,4-7.5,6.9-10.5
				c2.9-3,6.3-5.3,10.1-6.9c3.8-1.6,7.9-2.4,12.1-2.4c5.7,0,11,1.5,15.9,4.5c4.8,2.9,8.7,7,11.5,12
				C1305.7,23.6,1307.2,29,1307.2,34.8z M1278.1,96.2l19.8-42.5l-20,42.5H1278.1z M1247.3,34.6c0-5.2,1.3-10.1,3.8-14.6
				c2.5-4.5,6-8.1,10.2-10.7c4.3-2.6,9-3.9,14.1-3.9c3.9,0,7.6,0.8,11.1,2.3c2.9,1.3,5.5,2.9,7.8,5c-1.4-1.3-2.9-2.4-4.5-3.4
				c-4.3-2.7-9.1-4-14.3-4c-3.8,0-7.4,0.7-10.8,2.2c-3.4,1.5-6.5,3.6-9.1,6.2c-2.6,2.7-4.8,5.9-6.3,9.5c-1.5,3.6-2.3,7.5-2.3,11.6
				c0.4,6.5,2.5,12.2,6.2,17.1c2.3,3,5.1,5.4,8.3,7.2c-3.2-1.8-5.9-4.3-8.2-7.3C1249.5,46.7,1247.4,40.9,1247.3,34.6z M1271.7,34.5
				c0.2,1.1,0.6,1.9,1.3,2.6c0.7,0.7,1.6,1,2.6,1c0.9,0,1.8-0.4,2.5-1.2c0.7-0.8,1.1-1.6,1.1-2.6c0-1.1-0.4-2-1.1-2.7
				c-0.7-0.7-1.6-1.1-2.6-1.1c-1.1,0-1.9,0.4-2.7,1.2C1272.2,32.4,1271.8,33.4,1271.7,34.5z"/>
		</g>
	</g>
</g>
<g>
	<path class="st0" d="M36.2,149.7c-2.6-0.8-10.5-5.9-13.6-13.5c0.1,2.8,0.2,10.8,0.2,13.2c0,2.5-2.5,2.6-3,2.6
		c-2.1,0-2.1-1.1-2.1-1.7c0-0.1,0-0.4,0-0.6c0.2-3.6,0.3-8.6,0.4-10.2c-3.3,3.5-9.7,8.3-17.5,10.3l-0.1-0.4
		c6.3-3.3,12.9-10.2,14.7-13.7h-3.7c0.1,2.4-1.8,2.8-3,2.8c-1.7,0-1.7-1.1-1.7-1.8c0-1.2,0.3-6.7,0.3-8c0-2.4,0-6-0.5-8.2l5.5,2h6.2
		c0-1,0-3.2-0.1-4.3H6.3c-2.7,0-3.6,0.1-4.7,0.3l-0.7-1.6c2.7,0.2,5.7,0.3,6.2,0.3h11.1c0-1-0.1-3.7-0.9-5.9l6.1,1.4
		c0.6,0.1,0.8,0.3,0.8,0.6c0,0.3-0.1,0.5-1.5,1.4c0,0.2,0,2.2,0,2.6h10l2.2-2.7c0.4-0.4,0.5-0.6,0.7-0.6s0.4,0.2,0.8,0.5l3.7,2.7
		c0.2,0.2,0.4,0.4,0.4,0.7c0,0.4-0.4,0.5-0.7,0.5H22.7v4.3h6.3l1.5-1.8c0.2-0.2,0.4-0.4,0.7-0.4c0.2,0,0.5,0.2,0.7,0.4l3.1,2.1
		c0.3,0.2,0.6,0.4,0.6,0.8c0,0.3-0.1,0.6-1.5,1.4c0,1.8,0,4.2,0.1,7.3c0,0.6,0.1,3,0.1,3.5c0,1.6-1.8,2.2-3.2,2.2
		c-1.8,0-1.8-1.1-1.7-2.4h-6.1c3.7,4.1,10.2,7.8,18.1,8.8v0.3C40,145.4,37.6,146.4,36.2,149.7z M18.2,123.7h-6.7v4.9h6.7V123.7z
		 M18.2,129.6h-6.7v5.1h6.7V129.6z M29.3,123.7h-6.7l0,4.9h6.7V123.7z M29.3,129.6h-6.7v5.1h6.7V129.6z"/>
	<path class="st0" d="M58.5,142.1c-3.2,3.4-8.2,6.8-13.4,8.8l-0.2-0.3c3.9-3.1,8.6-8.8,9.8-12.3l4.9,2.3c0.2,0.1,0.6,0.4,0.6,0.8
		C60.2,141.9,60,141.9,58.5,142.1z M84.1,119.2H50.8c-2.7,0-3.6,0.1-4.7,0.3l-0.7-1.6c2.7,0.2,5.7,0.3,6.2,0.3h11.2
		c0-2.8,0-4-0.8-6.7l6.3,1.2c0.3,0.1,0.9,0.3,0.9,0.6c0,0.5-0.7,0.9-1.7,1.5c0,2.3,0,2.7,0,3.3H77l2.1-2.7c0.1-0.2,0.4-0.5,0.7-0.5
		c0.2,0,0.6,0.3,0.9,0.5l3.7,2.6c0.1,0.1,0.4,0.4,0.4,0.7C84.7,119.1,84.4,119.2,84.1,119.2z M77.4,126.9c0,0.9,0,2.3,0,3.5
		c0,0.6,0.1,3.4,0.1,3.9c0,2.5-2.5,2.8-2.9,2.8c-1.8,0-1.8-1-1.8-2.5h-5.3c0,1.9,0.1,10.3,0.1,12c0,1.8,0,4.4-6,5.4
		c-0.3-2.8-2.2-4.7-4.8-5.9l0.1-0.4c3.4,0.5,3.9,0.6,5.1,0.6c0.6,0,0.9-0.2,0.9-1.1c0-1.7,0.1-9.2,0-10.7h-5.8c0,0.7,0.1,3.2-3,3.2
		c-1.8,0-1.8-1.3-1.8-1.9c0-1,0.1-5.2,0.1-6c0-5-0.2-6.1-0.5-8.1l5.5,2.1h15.1l1.5-1.7c0.3-0.3,0.4-0.4,0.7-0.4c0.1,0,0.3,0,0.7,0.4
		l2.8,2.2c0.2,0.2,0.7,0.5,0.7,0.9C79,125.7,78.5,126.1,77.4,126.9z M72.9,124.9H57.3v8.6h15.7V124.9z M80.2,149.7
		c-1.4,0-1.5-0.3-3.4-3.3c-0.2-0.3-2.9-4.7-6.7-7.3l0-0.3c5.1,0.8,12.8,3.6,12.8,8.1C83,148,82.1,149.7,80.2,149.7z"/>
	<path class="st0" d="M128.4,144h-19.6c-0.8,0.6-2.4,1.8-4.7,3.1c2.1,0,9.5-0.2,13.7-0.5c-1.3-1-2.1-1.4-2.9-1.9v-0.4
		c5.2,0.4,11.9,2.7,11.9,5.6c0,0.9-1,2-2.2,2c-0.8,0-1.4-0.5-2.2-1.2c-0.5-0.4-2.8-2.7-3.4-3.1c-13.4,2.4-19.1,3.4-23,3.7
		c-0.1,0.6-0.2,1-0.6,1c-0.4,0-0.8-0.7-1-1.1l-2.1-4.4c2.4,0.6,6.8,0.5,9.3,0.5c0.5-0.9,1-2.4,1.2-3.2h-7.6c-3,0-3.9,0.1-4.7,0.3
		l-0.7-1.6c2.1,0.2,4.2,0.3,6.2,0.3h26.6l1.4-2.4c0.2-0.3,0.4-0.6,0.7-0.6c0.2,0,0.5,0.2,0.8,0.4l3.1,2.4c0.2,0.1,0.4,0.4,0.4,0.7
		C129,144,128.6,144,128.4,144z M128.6,116.9h-10.9c0,0.7,0,1.8,0,2.1c0,0.2-0.1,0.3-0.3,0.5l1.8,0.4c0.4,0.1,1,0.5,1,0.9
		c0,0.4-0.7,0.8-1.1,1c-0.1,0.9-0.2,1.1-0.3,1.4h1.9l0.8-1.1c0.2-0.3,0.5-0.6,0.7-0.6c0.3,0,0.7,0.3,0.8,0.4l1.9,1.4
		c0.4,0.3,0.6,0.4,0.6,0.8c0,0.4-0.1,0.5-1.4,1.4c0,0.6-0.1,1.1-0.1,2c0,2,0.5,5.3,1.4,5.3c0.7,0,2-2.5,2.5-3.4l0.4,0.2
		c-0.3,1.8-0.6,4.6-0.6,5.2c0,0.4,0.4,2.2,0.4,2.6c0,0.7-0.3,1.6-1.5,1.6c-1.8,0-6-2.5-6-11.4c0-1.4,0.1-2.7,0.1-3.2h-2
		c-0.4,2.1-1,3.7-1.5,4.9c1,0.7,2.3,2,2.3,3.4c0,1-0.7,2.1-1.8,2.1c-1.1,0-1.2-0.3-2.2-2.2c-2.5,3.9-5.6,5.5-6.9,6.1l-0.2-0.3
		c3.5-2.8,5.1-7.4,5.4-8.2c-1.1-1.3-2.1-2.3-2.8-2.9l0.1-0.3c2.1,0.6,2.7,0.8,3.4,1.1c0.4-1.8,0.6-2.8,0.7-3.6c-1.4,0-2.4,0-3.7,0.3
		l-0.7-1.6c1.6,0.2,3.6,0.3,4.5,0.3c0-1.2,0-1.9,0-2.9c-0.8,0-1.4-0.2-1.4-1.1c0-0.3,0.1-1.8,0.1-2.1H106c0,0.9,0,2.2-0.3,2.7
		c0.1,0.1,0.2,0.1,0.4,0.3l2.2,1.6c0.3,0.2,0.4,0.4,0.4,0.7c0,0.4-0.4,0.4-0.7,0.4h-6.5c0,0.3,0,2.2-0.1,2.4h3.3l1-1.7
		c0.1-0.2,0.5-0.6,0.7-0.6s0.6,0.3,0.8,0.4l2.5,1.8c0.2,0.1,0.4,0.4,0.4,0.7c0,0.4-0.4,0.5-0.7,0.5h-5.1v2.1c0,0.4,0.7,0.4,1.9,0.4
		c1.5,0,1.8-0.7,2.3-1.9h0.4c0,0.4,0.2,1,0.5,1.3c0.2,0.2,1.4,1.1,1.4,1.4c0,1.9-3.6,2-4.6,2l1.6,1.4c0.3,0.2,0.5,0.4,0.5,0.7
		c0,0.4-0.4,0.5-0.7,0.5h-6.3c0,0.3,0,1.7,0,2.1c3.2-0.2,5.8-0.4,7.7-0.8v0.5c-3.1,1.4-14,3.9-15,4c0,0.7-0.4,0.9-0.6,0.9
		c-0.6,0-0.7-0.3-1-0.8l-2.1-4c0.8,0.2,1.4,0.3,3,0.3c0.7,0,3.5-0.1,4.4-0.1c0-0.4,0-2,0-2.3h-0.9c-2.7,0-3.6,0.1-4.7,0.3l-0.7-1.6
		c2.6,0.2,5.6,0.3,6.4,0.3c0-1.8,0-2.1-0.6-3.9l3.7,0.8c-0.1-0.7-0.1-1.8-0.1-2.2V126h-4.4l2.3,0.6c0.2,0,0.7,0.2,0.7,0.6
		c0,0.5-1,0.7-1.7,0.7c-3,3-6.2,3.9-7.7,4.4L90,132c2.8-1.8,4.8-5,4.9-6c-1.9,0-2.6,0-3.8,0.2l-0.7-1.5c2,0.2,4,0.2,4.9,0.2h2.6
		c0-0.4,0.1-2,0.1-2.4c-2.7,0-3.8,0-5.3,0.3l-0.7-1.6c2,0.2,3.2,0.2,6,0.3c0-1.9-0.2-2.5-0.7-3.6l4.4,0.9l0.2,0c0-0.3,0.1-1.8,0.1-2
		h-6.1c-2.7,0-3.6,0.1-4.7,0.3l-0.7-1.6c2.6,0.3,5.7,0.3,6.2,0.3h5.4c0-2.5-0.3-3.2-0.7-4.3l5.1,1c0.5,0.1,0.8,0.4,0.8,0.8
		c0,0.4-0.9,1-1.2,1.2c0,0.6,0,0.7,0,1.3h7.7c0-2.8-0.4-3.6-0.7-4.4l4.9,1c0.4,0.1,0.9,0.3,0.9,0.7c0,0.5-1,1-1.2,1.2
		c0,0.3,0,1.4,0,1.5h4.8l1.5-2.5c0.2-0.3,0.4-0.6,0.7-0.6s0.5,0.2,0.8,0.4l3.3,2.5c0.2,0.2,0.4,0.4,0.4,0.7
		C129.2,116.8,128.9,116.9,128.6,116.9z M121.1,140.5h-17.4c-2.7,0-3.6,0.1-4.7,0.3l-0.7-1.6c2.6,0.3,5.7,0.3,6.2,0.3h11.1l1.5-2.3
		c0.2-0.4,0.4-0.6,0.7-0.6c0.2,0,0.5,0.2,0.8,0.4l2.8,2.3c0.2,0.2,0.4,0.4,0.4,0.7C121.8,140.4,121.4,140.5,121.1,140.5z
		 M102.5,130.9c-0.3,0.2-0.3,0.2-0.9,0.4v1.5h2.3l1-1.4c0,0,0.1-0.1,0.1-0.2C104.7,131.2,103.2,131.1,102.5,130.9z M102.2,120.1
		l-0.4,0.3c0,0.5,0,0.7,0,1.2h2l0.7-1.1C102.9,120.6,102.5,120.3,102.2,120.1z"/>
	<path class="st0" d="M133.7,138.3c3.3-4,7.8-12.8,8.6-16.6l5,2.7c0.2,0.1,0.4,0.4,0.4,0.5c0,0.6-0.5,0.7-1.6,0.8
		c-0.6,0.9-1.1,1.7-2.1,3l0.8,0.3c0.2,0.1,0.5,0.3,0.5,0.6c0,0.5-0.2,0.7-1.1,1.2c0,2.9,0,15.9,0,18.6c0,1.4-1,2.1-2.6,2.1
		c-1.3,0-1.7-0.7-1.7-1.5c0-1.4,0.3-7.9,0.3-9.2c0-0.7,0-4.6,0-7.5c-1.3,1.4-3.9,4-6.2,5.3L133.7,138.3z M134.6,123.7
		c3.4-3.7,7-9.1,7.7-11.9l4.8,3.1c0.2,0.1,0.3,0.4,0.3,0.6c0,0.6-0.7,0.6-1.4,0.7c-3.9,3.8-7.3,6.2-11.3,7.7L134.6,123.7z
		 M164.1,121.2c0.2,0.1,0.4,0.4,0.4,0.7c0,0.4-0.4,0.4-0.7,0.4h-7.7c0,9.9,0.1,16.2,0.1,16.9c0,1.5,0.2,8.2,0.2,9.6
		c0,1.5-1.1,2-2.8,2c-1.4,0-1.6-0.6-1.6-1.4c0-1.7,0.2-9.4,0.2-10.9c0.1-5.6,0.1-6.2,0.1-8.5c-0.2,0.2-0.3,0.2-1.2,0.6
		c-0.7,3.1-2.5,10.3-6,14.5l-0.3-0.1c2.4-6.9,2.5-16.5,2.4-17.2l4.9,1.3l0.2,0c0-1.1,0-5.7,0-6.7h-1.8c-2.7,0-3.6,0.1-4.7,0.3
		l-0.7-1.6c2.1,0.3,3.5,0.3,6.2,0.3h1c0-2.2-0.2-7.8-0.8-9.7l5.5,1.3c0.3,0.1,0.6,0.4,0.6,0.7c0,0.3-0.1,0.4-0.2,0.5
		c0.5,0,5.1,0.6,5.1,3.9c0,1-0.4,1.3-0.7,1.6L164.1,121.2z M159.8,120c-0.8-0.4-0.9-0.6-1.3-2.6c-0.2-1-0.7-2.1-1.4-2.9
		c-0.3,0.2-0.4,0.2-1,0.4v6.5h2.6L159.8,120z M157.4,126.8c5.8,5.4,5.9,10.6,5.9,11.3c0,1.6-0.7,3.1-2.5,3.1c-0.9,0-2.1-0.3-2.1-2.5
		c0-3.8-0.1-7.6-1.7-11.7L157.4,126.8z M163.3,127.6c-0.2,0-1.1,0-2,0.1l-0.7-1.3c1.8,0.1,3.4,0.1,3.5,0.1h4.7l1.5-2.8
		c0.1-0.2,0.4-0.5,0.7-0.5c0.3,0,0.6,0.2,0.8,0.4l2.7,2.8c0.2,0.2,0.4,0.4,0.4,0.7c0,0.4-0.4,0.5-0.7,0.5h-4.5v10.5
		c0,1.3,0.2,8.1,0.2,8.2c0,2.3-0.3,4.6-5.7,5.3c-0.2-1.8-0.7-3.5-4.1-5.6l0-0.3c3,0.4,3,0.4,4.3,0.4c1.3,0,1.3-0.3,1.3-1.4v-17
		H163.3z M168.4,115.7l1.2-2.2c0.2-0.3,0.3-0.5,0.7-0.5c0.3,0,0.6,0.3,0.8,0.4l2.6,2.2c0.2,0.2,0.4,0.4,0.4,0.7
		c0,0.4-0.4,0.5-0.7,0.5h-7.4c-0.2,0-1.1,0-2,0.1l-0.7-1.3c1.8,0.1,3.4,0.1,3.5,0.1H168.4z"/>
	<path class="st0" d="M214.3,151.1c-9.8-5.2-12.4-14.6-13.7-22.5c-2.2,18.2-16.1,21.6-21.4,22.8l-0.2-0.4
		c12.5-5.5,16.1-15.6,16.8-25.6h-9.9c-3,0-3.9,0.1-4.7,0.3l-0.7-1.6c2.1,0.2,4.1,0.3,6.2,0.3h9.2c0.1-0.8,0.2-2,0.2-3.9
		c0-2.8-0.3-5.8-0.9-8.5l6.7,1.7c0.7,0.2,0.8,0.4,0.8,0.6c0,0.5-0.5,0.9-1.5,1.5c0,1.2-0.3,7.2-0.4,8.6h10.4l2.4-3.2
		c0.2-0.3,0.4-0.5,0.7-0.5s0.5,0.2,0.9,0.5l3.8,3.1c0.2,0.1,0.4,0.4,0.4,0.7c0,0.4-0.4,0.5-0.7,0.5H201c3,12.5,9.7,18.1,19,20.7v0.4
		C218.7,146.8,215.9,147.5,214.3,151.1z"/>
	<path class="st0" d="M263.3,138.3h-17.1v8c0,1.6,0,4.9-6.3,5.6c-0.6-3.6-2.4-4.6-5.3-6l0-0.4c1.7,0.1,4.2,0.4,5.9,0.4
		c1.2,0,1.2-0.3,1.2-1.4v-6.2h-12.1c-3,0-3.9,0.1-4.7,0.3l-0.7-1.6c2.1,0.2,4.2,0.3,6.2,0.3h11.3c0-3-0.3-4.2-0.7-5.6l4.4,1
		c1.1-1.3,1.8-2.3,2.9-3.9h-10.8c-3,0-3.9,0.1-4.7,0.3l-0.7-1.6c2.1,0.2,4.2,0.3,6.2,0.3h10.1l2.1-1.8c0.3-0.3,0.5-0.4,0.7-0.4
		c0.2,0,0.4,0.1,0.7,0.4l3.5,3.2c0.2,0.2,0.3,0.4,0.3,0.6c0,0.8-0.9,0.8-1.8,0.8c-1,0-1.2,0-1.6,0.2c-3.1,1.4-3.4,1.6-5.5,2.3
		c0.1,0,0.3,0.2,0.3,0.4c0,0.6-0.6,1-1,1.3v2.5h9.7l2.1-2.9c0.2-0.3,0.4-0.7,0.8-0.7c0.2,0,0.5,0.2,0.8,0.4l3.9,3
		c0.2,0.1,0.4,0.4,0.4,0.7C264,138.2,263.6,138.3,263.3,138.3z M261.2,125.3c-0.4,0-0.4,0-1,0.4c-1.9,1.1-3.9,2-5.2,2.6l-0.3-0.3
		c0.6-1.3,1.6-4.4,1.8-5.4h-25.3c0.2,4-1.7,7.6-4.3,7.6c-0.8,0-2.5-0.5-2.5-2.4c0-1.3,0.7-1.9,1.9-2.9c2.6-2.2,3.3-4.2,3.9-6h0.3
		c0.2,0.7,0.4,1.4,0.6,2.7h16.6c2.2-3.9,3.7-8,3.6-10l5.3,2.7c0.4,0.2,0.6,0.3,0.6,0.7c0,0.6-0.9,0.8-1.7,0.9
		c-3.5,3.5-5,4.7-6.5,5.7h7.6l1.8-1.8c0.3-0.3,0.5-0.4,0.6-0.4c0.2,0,0.4,0.1,0.7,0.5l3.4,3.5c0.3,0.4,0.4,0.4,0.4,0.7
		C263.6,125.1,262.9,125.2,261.2,125.3z M235.4,120.6c-1.4,0-1.6-0.6-2.3-2.5c-1.2-3.5-2.1-4.4-2.8-4.9l0.1-0.4
		c3.9,0.6,7.3,2.5,7.3,5.4C237.8,119.9,236.5,120.6,235.4,120.6z M243.9,120.2c-1.7,0-2.1-1.4-2.4-2.5c-0.7-2.5-1.7-3.9-2.9-5.4
		l0.2-0.3c2.3,0.6,7.6,2.2,7.6,5.6C246.3,119,245.5,120.2,243.9,120.2z"/>
	<path class="st0" d="M314.6,151.1c-9.8-5.2-12.4-14.6-13.7-22.5c-2.2,18.2-16.1,21.6-21.4,22.8l-0.2-0.4
		c12.5-5.5,16.1-15.6,16.8-25.6h-9.9c-3,0-3.9,0.1-4.7,0.3l-0.7-1.6c2.1,0.2,4.1,0.3,6.2,0.3h9.2c0.1-0.8,0.2-2,0.2-3.9
		c0-2.8-0.3-5.8-0.9-8.5l6.7,1.7c0.7,0.2,0.8,0.4,0.8,0.6c0,0.5-0.5,0.9-1.5,1.5c0,1.2-0.3,7.2-0.4,8.6h10.4l2.4-3.2
		c0.2-0.3,0.4-0.5,0.7-0.5s0.5,0.2,0.9,0.5l3.8,3.1c0.2,0.1,0.4,0.4,0.4,0.7c0,0.4-0.4,0.5-0.7,0.5h-17.7c3,12.5,9.7,18.1,19,20.7
		v0.4C319,146.8,316.3,147.5,314.6,151.1z"/>
	<path class="st0" d="M363.7,138.3h-17.1v8c0,1.6,0,4.9-6.3,5.6c-0.6-3.6-2.4-4.6-5.3-6l0-0.4c1.7,0.1,4.2,0.4,5.9,0.4
		c1.2,0,1.2-0.3,1.2-1.4v-6.2H330c-3,0-3.9,0.1-4.7,0.3l-0.7-1.6c2.1,0.2,4.2,0.3,6.2,0.3h11.3c0-3-0.3-4.2-0.7-5.6l4.4,1
		c1.1-1.3,1.8-2.3,2.9-3.9H338c-3,0-3.9,0.1-4.7,0.3l-0.7-1.6c2.1,0.2,4.2,0.3,6.2,0.3h10.1l2.1-1.8c0.3-0.3,0.5-0.4,0.7-0.4
		c0.2,0,0.4,0.1,0.7,0.4l3.5,3.2c0.2,0.2,0.3,0.4,0.3,0.6c0,0.8-0.9,0.8-1.8,0.8c-1,0-1.2,0-1.6,0.2c-3.1,1.4-3.4,1.6-5.5,2.3
		c0.1,0,0.3,0.2,0.3,0.4c0,0.6-0.6,1-1,1.3v2.5h9.7l2.1-2.9c0.2-0.3,0.4-0.7,0.8-0.7c0.2,0,0.5,0.2,0.8,0.4l3.9,3
		c0.2,0.1,0.4,0.4,0.4,0.7C364.4,138.2,363.9,138.3,363.7,138.3z M361.5,125.3c-0.4,0-0.4,0-1,0.4c-1.9,1.1-3.9,2-5.2,2.6L355,128
		c0.6-1.3,1.6-4.4,1.8-5.4h-25.3c0.2,4-1.7,7.6-4.3,7.6c-0.8,0-2.5-0.5-2.5-2.4c0-1.3,0.7-1.9,1.9-2.9c2.6-2.2,3.3-4.2,3.9-6h0.3
		c0.2,0.7,0.4,1.4,0.6,2.7h16.6c2.2-3.9,3.7-8,3.6-10l5.3,2.7c0.4,0.2,0.6,0.3,0.6,0.7c0,0.6-0.9,0.8-1.7,0.9
		c-3.5,3.5-5,4.7-6.5,5.7h7.6l1.8-1.8c0.3-0.3,0.5-0.4,0.6-0.4c0.2,0,0.4,0.1,0.7,0.5l3.4,3.5c0.3,0.4,0.4,0.4,0.4,0.7
		C363.9,125.1,363.2,125.2,361.5,125.3z M335.8,120.6c-1.4,0-1.6-0.6-2.3-2.5c-1.2-3.5-2.1-4.4-2.8-4.9l0.1-0.4
		c3.9,0.6,7.3,2.5,7.3,5.4C338.2,119.9,336.9,120.6,335.8,120.6z M344.2,120.2c-1.7,0-2.1-1.4-2.4-2.5c-0.7-2.5-1.7-3.9-2.9-5.4
		l0.2-0.3c2.3,0.6,7.6,2.2,7.6,5.6C346.7,119,345.9,120.2,344.2,120.2z"/>
	<path class="st0" d="M383.1,117.5c-0.8,1.6-3.8,6.9-5,8.8c1.2,1.1,5.2,4.5,5.2,9.5c0,4.5-4.1,5.7-5.2,6c-0.4-2.6-1-3.9-2.6-5.1
		c0,1.8,0.2,9.4,0.2,12c0,1.2,0,1.7-0.4,2.1c-0.5,0.5-1.6,1-2.6,1c-1.5,0-1.5-1-1.5-1.9c0-4.3,0.4-11.2,0.4-15.5
		c0-5.7,0-14.9-0.2-18.4c0,0,0-1.3-0.4-3.3l5.1,1.8h3.1l1-0.9c0.1-0.1,0.5-0.4,0.7-0.4s0.6,0.3,0.7,0.4l2.8,2.3
		c0.2,0.2,0.5,0.5,0.5,0.8C384.7,116.9,384.2,117.1,383.1,117.5z M377.1,126.3c0.9-3.4,1.7-8.4,1.9-11h-3.4c-0.1,1-0.1,8.5-0.1,10.1
		v11.1l0.1-0.3c0.4,0.1,1,0.2,1.9,0.2c1.8,0,1.9-0.5,1.9-2.3C379.4,133.2,379.4,129.8,377.1,126.3z M400.6,150.5c-3,0-4.9,0-4.9-3.9
		c0-1.2,0.1-6.7,0.1-7.9v-4.5h-5.1l2.5,0.7c0.7,0.2,1.3,0.4,1.3,0.9c0,0.6-1.1,0.8-1.6,0.9c-1.1,6.2-3.4,10.7-14,14.3l-0.2-0.4
		c2.2-1.1,9.7-4.9,10.2-16.5c-3,0.1-3.2,0.1-4.4,0.3l-0.7-1.6c2.6,0.3,5.7,0.3,6.2,0.3h11.8l1.8-2.7c0.1-0.2,0.4-0.6,0.7-0.6
		c0.3,0,0.6,0.3,0.8,0.4l2.9,2.8c0.3,0.4,0.4,0.5,0.4,0.7c0,0.4-0.4,0.4-0.7,0.4h-7.8v11c0.1,0.7,0.4,0.9,2.3,0.9
		c2.4,0,2.6-0.6,4-5.7h0.4c0.1,1.8,0.3,4.7,1.6,5.5c0.6,0.4,0.9,0.6,0.9,1.3C408.9,150.5,405,150.5,400.6,150.5z M406.3,121.5
		c-1.5,0.8-3.1,1.7-4.7,2.5l-0.4-0.4c0.8-2.1,1-3.2,1.2-4.5h-14.9c0.3,3.8-1.2,6.2-3.4,6.2c-1.3,0-2.2-1.1-2.2-2
		c0-1,0.4-1.4,2.3-3.2c1.9-1.9,2.1-3.1,2.3-4.1h0.4c0.2,0.6,0.3,1.2,0.5,2.1h4.9c0-3.5,0-4.4-0.5-6.3l5.6,1.3
		c0.6,0.1,0.7,0.2,0.7,0.5c0,0.5-0.2,0.5-1.5,1.2v3.3h5.7l1.4-1.4c0.1-0.1,0.5-0.5,0.7-0.5c0.3,0,0.6,0.2,0.8,0.5l3.1,3
		c0.3,0.2,0.4,0.5,0.4,0.8C408.9,121.5,407,121.5,406.3,121.5z M402.1,126.9h-10.3c-2.7,0-3.6,0.1-4.7,0.3l-0.7-1.6
		c2.7,0.3,5.8,0.3,6.3,0.3h4.2l1.6-2.5c0.1-0.2,0.4-0.6,0.7-0.6s0.6,0.3,0.8,0.5l2.5,2.5c0.3,0.3,0.4,0.4,0.4,0.7
		C402.7,126.8,402.4,126.9,402.1,126.9z"/>
	<path class="st0" d="M449.2,151.5c-4.9-2.9-8.3-8.6-9.5-15.1c-3.2,11.8-13.5,14-19,15v-0.3c5.2-2.4,13.1-6.1,15.2-16.6h-4.2
		c-2.7,0-3.6,0.1-4.7,0.3l-0.1-0.3c0,0.4,0.1,5.4,0.1,5.5c0,1.1,0,2.7-2.8,2.7c-1.3,0-1.4-0.5-1.3-2.3h-3.5c0.1,3.5,0.1,5.1-2.6,5.1
		c-1.8,0-2-0.7-2-1.7c0-0.8,0.2-4.1,0.2-4.8c0.1-3,0.2-9.3,0.2-12c0-2.3,0-6.9-0.6-11.4l4.8,2.1h3.2l1.3-1.7
		c0.1-0.1,0.3-0.3,0.6-0.3s0.5,0.1,0.9,0.4l2.6,2.1c0.2,0.2,0.3,0.4,0.3,0.7c0,0.5-0.2,0.6-1.4,1.3c0,4.7,0,6.3,0.1,13.1
		c1.1,0.1,1.4,0.1,2.8,0.1c-0.2-12-0.2-13.7-0.5-15.7l4.7,2.1h2.8c-0.1-3.6-0.2-4.9-1-8.1l6,1.3c0.3,0,0.7,0.2,0.7,0.6
		c0,0.5-0.6,0.9-1.4,1.4c0,1.4,0,1.7,0,4.9h2.5l1.4-1.8c0.2-0.3,0.3-0.4,0.6-0.4s0.5,0.2,0.7,0.4l3.1,2.3c0.3,0.2,0.3,0.4,0.3,0.5
		c0,0.5-0.2,0.6-1.6,1.3c0,2.8,0,7.6-0.1,11.4h0.1l1.8-2.7c0.1-0.2,0.4-0.6,0.7-0.6c0.3,0,0.6,0.3,0.8,0.5l2.3,2.7
		c0.3,0.3,0.4,0.5,0.4,0.7c0,0.4-0.4,0.5-0.7,0.5h-13c2.5,6.7,8.6,11.2,13.8,12.2v0.4C451.9,147.8,451.2,148.2,449.2,151.5z
		 M422.9,118.6h-3.5v9.6h3.5V118.6z M422.9,129.3h-3.5v10h3.5V129.3z M433.6,120.9v12.6h2.6c0.5-3.7,0.5-7.3,0.5-12.6H433.6z
		 M443.9,120.9h-3c-0.2,9.3-0.2,10.3-0.6,12.6h3.5V120.9z"/>
	<path class="st0" d="M470.1,115.8c-1.7,3.5-3,5.8-4.3,7.8l1.4,0.6c0.2,0.1,0.8,0.5,0.8,0.9c0,0.6-1,1.1-1.3,1.4
		c0,3.5,0.1,19.4,0.1,22.6c0,0.8,0,1.7-1,2.4c-0.6,0.4-1.4,0.7-2.2,0.7c-1.7,0-1.7-1-1.7-1.6c0-1.1,0.3-5.6,0.4-6.5
		c0.3-6.7,0.3-11.9,0.3-15.9c-2.2,2.6-4.2,4.1-5.2,4.9l-0.2-0.2c1.3-2.2,7.9-13.1,9.1-21.5l5.1,2.7c0.3,0.1,0.6,0.4,0.6,0.7
		C471.9,115.1,471.7,115.2,470.1,115.8z M499.8,146c-2.2,1.1-3.1,2.3-4.2,4.2c-2.8-2.1-5.1-5.3-5.5-5.8c-3.5-4.7-4.9-9.9-4.9-15.2
		c-0.7,0.8-1.6,1.8-3.9,3.5c1.6,1.4,6,5.3,6,11.8c0,7-5.4,7.7-7.6,8c-0.3-1.6-0.6-3.5-2.9-5.2l0.1-0.3c1.3,0.2,2.7,0.4,3.4,0.4
		c1.4,0,2.3-0.4,2.9-2.9c0.1-0.6,0.3-1.6,0.2-3.2c-4,3.9-8.9,6.8-14.3,8.5l-0.2-0.3c7.7-5.5,11.8-9.9,13.6-12.1
		c-0.1-0.4-0.2-0.6-0.3-0.8c-4.1,3.7-8.9,6.6-14.3,7.7l-0.2-0.3c5.9-3.3,10.7-8.3,12.6-10.5l-0.1-0.1c-2.6,1.8-6.7,3.9-12.9,5.3
		l-0.1-0.3c2.2-1.2,10.2-5.6,13.5-9.8h-4.1c-0.1,2-2,2.2-2.9,2.2c-1.4,0-1.4-1-1.4-1.6c0-0.2,0.2-4.9,0.2-5.8c-1.9,1.4-2.9,2-4,2.6
		l-0.2-0.3c6.7-8.7,8-11.7,8.8-14.7l4.6,1.9c0.3,0.1,0.7,0.4,0.7,0.7c0,0.5-0.9,0.8-1.8,1.1c-0.3,0.4-0.5,0.6-0.7,0.9h4.9l1.8-1.4
		c0.4-0.3,0.7-0.5,0.8-0.5c0.3,0,0.6,0.2,0.8,0.4l2.8,1.8c0.2,0.1,0.6,0.6,0.6,0.9c0,0.7-0.7,1-2.5,1.3c-1.4,1.1-2.7,1.9-4.4,2.9
		h6.8l1.3-1.2c0.4-0.4,0.6-0.6,0.9-0.6s0.5,0.2,0.9,0.5l2.3,1.8c0.4,0.3,0.5,0.5,0.5,0.7c0,0.6-0.7,1-1.4,1.4c0,0.7,0.2,3.7,0.2,4.4
		c0,2.2-2.7,2.2-2.9,2.2c-1.5,0-1.5-0.8-1.5-1.7h-6c0.7,3.3,1.5,5.4,2.6,7.4c1.6-1.6,3-3.3,3.9-5.4l4.1,2.8c0.1,0,0.6,0.4,0.6,0.9
		c0,0.8-1.3,0.8-2.6,0.8c-1.4,0.6-3,1.4-5.3,2c1.9,2.9,5.1,7,10.6,8.6L499.8,146z M479.3,116.7c-1.1,1.3-2.2,2.6-3.3,3.8l0.9,0.4
		h6.2c1.1-2.1,1.2-2.4,2-4.2H479.3z M481.9,121.9h-5.1v5.6h5.1V121.9z M492,121.9h-5.8v5.6h5.8V121.9z"/>
	<path class="st0" d="M514.9,126.8l1.3-1.5c0.2-0.3,0.4-0.6,0.7-0.6c0.2,0,0.4,0.1,0.5,0.3l2.7,2.1c0.2,0.1,0.4,0.3,0.4,0.5
		c1.4,0.1,2.5,0.1,4.5,0.2c0-3.5,0-4.3,0-11.8c-0.7,0-1.7,0.1-2.8,0.3l-0.7-1.6c2.5,0.2,4.6,0.3,5.6,0.3h8.9l1.7-2.3
		c0.3-0.4,0.5-0.6,0.7-0.6s0.4,0.1,0.8,0.5l2.8,2.4c0.2,0.2,0.4,0.4,0.4,0.7c0,0.4-0.4,0.5-0.7,0.5h-5.1v11.8h0.7l1.5-2.5
		c0.2-0.3,0.3-0.6,0.7-0.6c0.3,0,0.6,0.3,0.7,0.5l2.5,2.5c0.2,0.2,0.4,0.4,0.4,0.7c0,0.4-0.4,0.5-0.7,0.5h-5.8v3.8
		c0,2.5,0.4,13.9,0.4,16.2c0,0.7,0,2.8-2.8,2.8c-2.1,0-2.1-1.1-2.1-1.7c0-1.1,0.2-5.8,0.2-6.7c0-2.1,0.1-5.4,0.1-10.5v-3.9h-3
		c-0.3,7.5-0.5,11.3-3.2,15.8c-2.3,3.7-5.3,5.9-9.6,7.3l-0.2-0.3c7.7-6,8.4-12.4,8.6-22.8c-2.8,0-3.8,0.2-4.6,0.3l-0.2-0.5
		c-0.3,0.3-0.4,0.3-0.8,0.7c0,2.2,0.2,11.8,0.2,13.7c0,2.9-2.5,2.9-2.9,2.9c-1,0-1.6-0.4-1.6-1.5c0-0.3,0-1.6,0-1.8h-4.2
		c0,0.6,0.1,3.3,0.1,3.9c0,0.6,0,2.6-2.8,2.6c-1.6,0-1.8-0.7-1.8-1.5c0-0.6,0.2-3.5,0.2-4.1c0-2.5,0.1-3.1,0.2-10.5
		c-2.6,3.9-4.4,5.2-5.3,5.8l-0.3-0.3c4.4-6.2,6.5-17.2,7.1-22c-1.5,0-3.1,0-4.5,0.3l-0.7-1.6c2.7,0.3,5.5,0.3,6.2,0.3h5l1.5-2.3
		c0.1-0.2,0.4-0.6,0.7-0.6c0.3,0,0.5,0.2,0.8,0.4l2.9,2.4c0.2,0.2,0.4,0.4,0.4,0.7c0,0.4-0.3,0.5-0.7,0.5h-6.8c-0.3,1.9-0.9,5-3,9.9
		l0.8,0.4H514.9z M511.1,127.8v13.6h4.2v-13.6H511.1z M532.4,127.7v-11.8h-2.9c0,9.2,0,10.3,0,11.8H532.4z"/>
	<path class="st0" d="M584.4,120.9c-0.5,0-1.2,0-1.7-0.1c-1.4,0.7-2.9,1.4-5.5,2.4L577,123c0.4-0.8,1.3-2.6,2.2-4.8h-5.7v6
		c0,0.6,0.1,1.4,0.7,1.4c0.4,0.1,4.6,0.1,4.9,0.1c1.7,0,2.5-0.2,3.5-4.4h0.4c0.6,2.2,0.9,3.2,1.8,3.9s1,0.8,1,1.1
		c0,0.8-0.6,2.4-2.1,3c-1.5,0.7-5.4,0.7-7.5,0.7c-4.4,0-6.5,0-6.9-2.7c-0.1-0.7-0.1-7.4-0.1-9.1h-8.9l4.5,1.9
		c0.5,0.2,0.7,0.4,0.7,0.7c0,0.5-0.7,1-1.6,1.2c-2.9,5.2-6,8.5-14.2,9.9l-0.1-0.4c4.2-2.4,8.3-5.8,9.5-11.2c0.1-0.3,0.3-1.2,0.3-2.1
		h-5.1c0,0.3,0.1,0.7,0.1,1.4c0,3.2-1.6,5.6-3.8,5.6c-1.6,0-2.5-1.3-2.5-2.5c0-1,0.3-1.2,1.8-2.3c1.5-1.1,2.8-2.4,3.3-5h0.4
		c0.3,0.6,0.4,1,0.6,1.7H565c0-1.6-0.1-3.8-0.8-5.6l6,1.1c0.6,0.1,0.9,0.2,0.9,0.7c0,0.4-0.2,0.6-1.5,1.4v2.5h9.8l1.3-1.6
		c0.2-0.2,0.5-0.5,0.7-0.5c0.3,0,0.5,0.2,0.7,0.4l3.5,3.6c0.1,0.1,0.4,0.5,0.4,0.9C586,120.9,585.1,120.9,584.4,120.9z M584.1,150.5
		c-0.7,0.2-1.4,0.4-6.4,0.4c-4.4,0-7,0-7-4.4c0-1.7,0.4-9.2,0.4-10.8l-5.5,0.1c-1,3.6-3.8,14-17.3,15.8l-0.1-0.3
		c6.8-3.3,11.2-8.3,12.7-15.4l-6.1,0.2c-2,0-3.2,0.1-4.7,0.4l-0.7-1.6c2.5,0.2,5.7,0.1,6.3,0.1l5.5-0.1c0.1-0.7,0.2-1.6,0.2-3.2
		c0-1.8-0.2-2.8-0.4-3.8l5.9,1.5c0.4,0.1,0.8,0.2,0.8,0.7c0,0.4-0.4,0.8-1.3,1.4c-0.2,1.1-0.3,1.8-0.6,3.2l4.9-0.1l1.7-1.9
		c0.2-0.2,0.4-0.5,0.6-0.5c0.2,0,0.7,0.3,0.8,0.4l3,2.2c0.2,0.2,0.5,0.4,0.5,0.8c0,0.7-0.6,1-1.6,1.6c-0.2,2.5-0.4,6.2-0.4,7.7
		c0,1.4,0.9,1.4,3.9,1.4c2.5,0,3.5-0.3,4.8-7.8h0.3c0.7,5.9,1,6.2,2.2,7.4c0.4,0.4,0.5,0.6,0.5,1.1
		C587.1,148.2,586.4,149.7,584.1,150.5z"/>
	<path class="st0" d="M610.2,125.5h-5.9v3.4c1.9,0.5,6.1,1.5,6.1,4.5c0,1.3-1,2.1-2.2,2.1c-1.5,0-1.8-0.7-2.6-3
		c-0.2-0.5-0.6-1.7-1.3-2.6c0,0.6,0,3,0,3.5c0,2.2,0.1,14.2,0.1,15.1c0,1.5,0,3.3-2.8,3.3c-1.9,0-2-1.2-2-2.1c0-0.5,0.2-3,0.2-3.5
		c0.1-1.9,0.2-10.5,0.3-12.2c-1.5,2.3-4.9,6.6-8.6,8.8l-0.2-0.2c2.9-3.6,6.8-11.8,8.3-17.2h-2.5c-2.7,0-3.6,0.1-4.7,0.3l-0.7-1.6
		c2.6,0.2,5.7,0.3,6.2,0.3h2.2v-6.8c-2.7,0.4-5.6,0.8-8.2,0.7v-0.4c4.7-1.4,11.9-4.6,13.6-6.7l4.3,3.5c0.2,0.2,0.3,0.4,0.3,0.6
		c0,0.3-0.2,0.6-0.8,0.6c-0.4,0-0.7-0.1-1.1-0.2c-0.9,0.3-1.7,0.5-3.9,1.1l0,7.6h0.5l1.4-2.6c0.1-0.3,0.4-0.6,0.7-0.6
		c0.2,0,0.6,0.3,0.8,0.5l2.8,2.6c0.2,0.2,0.4,0.4,0.4,0.7C610.8,125.4,610.5,125.5,610.2,125.5z M631.7,134.7l-7,1.8
		c0,2.1,0.2,11.5,0.2,12.6c0,1.2-0.4,2.9-3.1,2.9c-1.8,0-1.8-1.1-1.8-2.7c0-1.7,0.1-9.3,0.1-11.7l-8.2,2.1c-2.8,0.7-3.6,1-4.6,1.4
		l-1.1-1.4c1.8-0.3,4.2-0.8,6.1-1.3l7.7-1.9c0-3.1,0.1-6.1,0.1-9.1c0-12.4-0.4-13.4-1.1-15.8l6.4,1.5c0.4,0.1,0.8,0.2,0.8,0.7
		c0,0.4-0.1,0.5-1.7,1.5c-0.1,7.1-0.1,11.4-0.1,11.8c0,2.6,0,4.4,0.1,8.2l1.8-0.4l1-3.2c0.1-0.3,0.3-0.7,0.7-0.7
		c0.2,0,0.5,0.2,0.7,0.3l2.7,2.3c0.3,0.3,0.6,0.4,0.6,0.7C632.3,134.4,632.1,134.6,631.7,134.7z M614.9,133c-1.4,0-1.6-0.7-2.2-2.8
		c-0.7-2.4-2-3.8-2.5-4.3l0-0.2c4.9,0.7,7.3,2.6,7.3,4.9C617.6,132.2,616.3,133,614.9,133z M615.9,123.1c-1.4,0-1.8-0.9-2.7-3
		c-1-2.5-1.6-3.2-2.5-4l0.1-0.3c1.4,0.3,3.9,0.7,5.3,1.5c1.7,1.1,2.3,2.6,2.3,3.5C618.3,122.2,617,123.1,615.9,123.1z"/>
	<path class="st0" d="M677.2,122.3c-0.7,0.6-0.9,1.1-1.2,1.6c-2.3,4.6-2.3,4.6-3.7,6.8c1.4,1.1,5.2,4,5.2,7.4c0,1.3-1,2.6-2.3,2.6
		c-1.1,0-1.5-0.7-2.7-2.2c-1-1.3-2.6-3.7-2.9-4c-4.9,6.6-11.7,11.4-19.6,13.5l-0.2-0.4c4.6-2.4,12.2-9.1,16.9-16.3
		c-3-2.8-6.6-4.8-9.6-6.4c1.7,0.1,6,0.5,11.4,3.4c1.3-2.3,3.7-7.7,3.7-8.8c0-1.5-2.5-2.4-3.2-2.6c0.7-0.4,1.6-0.9,2.9-0.9
		c3,0,6.4,3.4,6.4,4.7C678.4,121.2,678.1,121.4,677.2,122.3z"/>
	<path class="st0" d="M720.2,129.4c-0.5,0-1,0-2.9-0.3c-1.7-0.2-3.2-0.4-5.3-0.4c-0.7,0-2.8,0-5.6,0.3c2.5,1.6,2.7,1.8,2.7,2.1
		c0,0.3,0,0.4-0.7,1c-0.3,0.3-0.5,0.7-0.8,1.7c-4.9,12.9-11.4,15.3-14.6,16.3l-0.1-0.4c7.1-5.3,10.4-16.5,10.4-18.2
		c0-1.2-0.2-1.5-0.7-2.1c-2.1,0.3-5.6,0.9-7.4,1.7c-1.8,0.8-2,0.9-2.5,0.9c-1.3,0-4.2-2.6-4.2-5.5c0-0.8,0.2-1.4,0.4-1.9
		c1.4,2.5,2.9,2.9,4.6,2.9c1.3,0,9.1-1,10.9-1.2c1.8-0.1,8.8-0.7,10-1.1c2-0.6,2.2-0.7,2.7-0.7c0.8,0,4.9,1.3,4.9,3.4
		C721.8,129.3,720.5,129.4,720.2,129.4z M710.5,120.4c-2.8,0-5.7,0.4-10,1c-0.7,0.1-1.4,0.2-2.2,0.2c-2.3,0-3.7-2.9-3.7-4.5
		c0-0.3,0-0.5,0.2-0.9c1.1,1.6,3.2,1.9,4.4,1.9c2.4,0,6.5-0.4,8.8-1.1c2.1-0.6,2.3-0.7,2.7-0.7c1.1,0,3.8,0.6,3.8,2.2
		C714.5,120.3,713.3,120.3,710.5,120.4z M721.8,124.2c-0.6,0-0.7-0.1-1.9-1.6c-2.2-2.6-3.7-3.5-4.4-4c3.1,0,7.7,0.7,7.7,4
		C723.2,123.8,722.5,124.2,721.8,124.2z M725.2,121.3c-0.6,0-0.8-0.3-1.7-1.4c-1.8-2.3-2.7-2.8-4.9-4.2c3.4,0.1,7.9,0.7,7.9,3.9
		C726.5,120,726.4,121.3,725.2,121.3z"/>
	<path class="st0" d="M748.5,124.9c-0.7,0.3-1.2,0.8-1.4,1c-3.5,3.7-3.9,4.1-4.9,5.2c1.3,0.7,1.9,1,1.9,1.5c0,0.2-0.3,1.2-0.3,1.4
		c0,0.2-0.2,2.2-0.2,3.7c0,1.5,0.3,8.4,0.3,9.8c0,0.7,0,2.7-1.8,2.7c-1.4,0-2.2-2.7-2.2-3.2c0-0.4,0.3-1.9,0.3-2.2
		c0.3-2.4,0.3-7.7,0.3-9.2c0-1.2,0-1.7-0.3-2.6c-4.3,3.6-8.2,6.2-12.2,7.4l-0.1-0.4c7.7-4.9,16.7-15.8,16.7-17.7
		c0-0.8-0.5-1.2-1.8-2.1c0.5-0.1,0.8-0.2,1.2-0.2c2.8,0,5.8,3.2,5.8,3.9C749.7,124.2,749.4,124.4,748.5,124.9z"/>
	<path class="st0" d="M789.8,123.2c-0.5,0.1-1,0.4-1.3,0.6c-5.6,3.5-6.1,3.8-9.4,5.4c-2.1,8.5-4.1,16-13,20.5l-0.2-0.3
		c6.9-6.7,8.7-19.5,8.7-20.7c0-1.6-0.5-2-3-2.7c0.7-0.4,1.3-0.8,2.8-0.8c1.4,0,4.7,0.7,5,2.3c2.6-2.8,5-5.4,5-6.3
		c0-0.4-0.2-0.4-0.5-0.4c-1.4,0-13.7,1.7-16.9,2.8c-0.4,0.2-2.1,1-2.5,1c-0.9,0-4.2-2.1-4.2-4.6c0-1.4,0.3-2.2,0.5-2.9
		c1.4,2.3,2.3,2.9,4.1,2.9c3,0,20.2-1.9,20.4-2s1.7-1.1,2.1-1.1c0.5,0,2.6,1.8,3.5,2.6c0.4,0.4,1.7,1.5,1.7,2.4
		C792.7,122.6,792.5,122.7,789.8,123.2z"/>
	<path class="st0" d="M835.8,151.5c-4.9-2.9-8.3-8.6-9.5-15.1c-3.2,11.8-13.5,14-19,15v-0.3c5.2-2.4,13.1-6.1,15.2-16.6h-4.2
		c-2.7,0-3.6,0.1-4.7,0.3l-0.1-0.3c0,0.4,0.1,5.4,0.1,5.5c0,1.1,0,2.7-2.8,2.7c-1.3,0-1.4-0.5-1.3-2.3H806c0.1,3.5,0.1,5.1-2.6,5.1
		c-1.8,0-2-0.7-2-1.7c0-0.8,0.2-4.1,0.2-4.8c0.1-3,0.2-9.3,0.2-12c0-2.3,0-6.9-0.6-11.4l4.8,2.1h3.2l1.3-1.7
		c0.1-0.1,0.3-0.3,0.6-0.3s0.5,0.1,0.9,0.4l2.6,2.1c0.2,0.2,0.3,0.4,0.3,0.7c0,0.5-0.2,0.6-1.4,1.3c0,4.7,0,6.3,0.1,13.1
		c1.1,0.1,1.4,0.1,2.8,0.1c-0.2-12-0.2-13.7-0.5-15.7l4.7,2.1h2.8c-0.1-3.6-0.2-4.9-1-8.1l6,1.3c0.3,0,0.7,0.2,0.7,0.6
		c0,0.5-0.6,0.9-1.4,1.4c0,1.4,0,1.7,0,4.9h2.5l1.4-1.8c0.2-0.3,0.4-0.4,0.6-0.4s0.5,0.2,0.7,0.4l3.1,2.3c0.3,0.2,0.3,0.4,0.3,0.5
		c0,0.5-0.2,0.6-1.6,1.3c0,2.8,0,7.6-0.1,11.4h0.1l1.8-2.7c0.1-0.2,0.4-0.6,0.7-0.6c0.4,0,0.6,0.3,0.8,0.5l2.3,2.7
		c0.3,0.3,0.4,0.5,0.4,0.7c0,0.4-0.4,0.5-0.7,0.5h-13c2.5,6.7,8.6,11.2,13.8,12.2v0.4C838.4,147.8,837.7,148.2,835.8,151.5z
		 M809.5,118.6H806v9.6h3.5V118.6z M809.5,129.3H806v10h3.5V129.3z M820.1,120.9v12.6h2.6c0.5-3.7,0.5-7.3,0.5-12.6H820.1z
		 M830.5,120.9h-3c-0.2,9.3-0.2,10.3-0.6,12.6h3.5V120.9z"/>
	<path class="st0" d="M856.6,115.8c-1.7,3.5-3,5.8-4.3,7.8l1.4,0.6c0.2,0.1,0.8,0.5,0.8,0.9c0,0.6-1,1.1-1.3,1.4
		c0,3.5,0.1,19.4,0.1,22.6c0,0.8,0,1.7-1.1,2.4c-0.6,0.4-1.4,0.7-2.2,0.7c-1.7,0-1.7-1-1.7-1.6c0-1.1,0.3-5.6,0.4-6.5
		c0.3-6.7,0.3-11.9,0.3-15.9c-2.2,2.6-4.2,4.1-5.2,4.9l-0.2-0.2c1.3-2.2,7.9-13.1,9.1-21.5l5.1,2.7c0.3,0.1,0.6,0.4,0.6,0.7
		C858.4,115.1,858.3,115.2,856.6,115.8z M886.4,146c-2.2,1.1-3.1,2.3-4.2,4.2c-2.8-2.1-5.1-5.3-5.5-5.8c-3.5-4.7-4.9-9.9-4.9-15.2
		c-0.7,0.8-1.6,1.8-3.9,3.5c1.6,1.4,6,5.3,6,11.8c0,7-5.4,7.7-7.6,8c-0.3-1.6-0.6-3.5-2.9-5.2l0.1-0.3c1.3,0.2,2.7,0.4,3.4,0.4
		c1.4,0,2.3-0.4,2.9-2.9c0.1-0.6,0.3-1.6,0.2-3.2c-4,3.9-8.9,6.8-14.3,8.5l-0.2-0.3c7.7-5.5,11.8-9.9,13.6-12.1
		c-0.1-0.4-0.2-0.6-0.3-0.8c-4.1,3.7-8.9,6.6-14.3,7.7l-0.2-0.3c5.9-3.3,10.7-8.3,12.6-10.5l-0.1-0.1c-2.6,1.8-6.7,3.9-12.9,5.3
		l-0.1-0.3c2.2-1.2,10.2-5.6,13.5-9.8h-4.1c-0.1,2-2,2.2-2.9,2.2c-1.4,0-1.4-1-1.4-1.6c0-0.2,0.2-4.9,0.2-5.8c-1.9,1.4-2.9,2-4,2.6
		l-0.2-0.3c6.7-8.7,8-11.7,8.8-14.7l4.6,1.9c0.3,0.1,0.7,0.4,0.7,0.7c0,0.5-0.9,0.8-1.8,1.1c-0.3,0.4-0.5,0.6-0.7,0.9h4.9l1.8-1.4
		c0.4-0.3,0.7-0.5,0.8-0.5c0.3,0,0.6,0.2,0.8,0.4l2.8,1.8c0.2,0.1,0.6,0.6,0.6,0.9c0,0.7-0.7,1-2.5,1.3c-1.4,1.1-2.7,1.9-4.4,2.9
		h6.8l1.3-1.2c0.3-0.4,0.6-0.6,0.9-0.6s0.5,0.2,0.9,0.5l2.3,1.8c0.4,0.3,0.5,0.5,0.5,0.7c0,0.6-0.7,1-1.4,1.4c0,0.7,0.2,3.7,0.2,4.4
		c0,2.2-2.7,2.2-2.9,2.2c-1.5,0-1.5-0.8-1.5-1.7h-6c0.7,3.3,1.5,5.4,2.6,7.4c1.6-1.6,3-3.3,3.9-5.4l4.1,2.8c0.1,0,0.6,0.4,0.6,0.9
		c0,0.8-1.3,0.8-2.6,0.8c-1.4,0.6-3,1.4-5.3,2c1.9,2.9,5.1,7,10.6,8.6L886.4,146z M865.8,116.7c-1.1,1.3-2.2,2.6-3.3,3.8l0.9,0.4
		h6.2c1.1-2.1,1.2-2.4,2-4.2H865.8z M868.5,121.9h-5.1v5.6h5.1V121.9z M878.6,121.9h-5.8v5.6h5.8V121.9z"/>
	<path class="st0" d="M928.2,139.6h-10c0,1.8,0,4.8,0,6.6c0,1.5-0.1,2.8-1.6,4c-1.8,1.5-3.9,1.6-4.9,1.7c-0.5-2.5-1.2-3.8-4.8-5.7
		l0-0.2c0.7,0,4,0.2,4.7,0.2c1.3,0,1.8-0.1,1.8-0.9v-5.7h-18.6c-2.7,0-3.6,0.1-4.7,0.3l-0.7-1.6c2.7,0.2,5.7,0.3,6.2,0.3h17.9
		c0-1.5,0-2.7-0.6-4.5l5.7,1.1c0.4,0.1,0.8,0.4,0.8,0.7c0,0.5-0.7,0.9-1.2,1.2v1.4h4.1l1.8-2.6c0.2-0.2,0.4-0.6,0.7-0.6
		c0.3,0,0.6,0.2,0.8,0.5l2.9,2.7c0.2,0.2,0.4,0.4,0.4,0.6C928.9,139.6,928.6,139.6,928.2,139.6z M927,117.9h-15.6v3.9h7l1.4-1.8
		c0.1-0.2,0.4-0.4,0.6-0.4c0.2,0,0.5,0.2,0.7,0.3l3.4,2.2c0.3,0.2,0.5,0.4,0.5,0.6c0,0.4-0.8,0.9-1.8,1.6c0,1.4,0.2,7.3,0.2,8.5
		c0,1.2-0.1,1.6-0.8,2.1c-0.8,0.7-1.9,0.8-2.5,0.8c-1.6,0-1.5-1-1.4-2h-18.3c0.1,2.2-1.5,2.5-2.8,2.5c-1.2,0-1.8-0.4-1.8-1.5
		c0-0.4,0.1-2.1,0.1-2.5c0-1.2,0-2.5,0-3.7c0-3.9,0-6.3-0.5-8.5l4.9,1.8h6.9c0-0.6,0-3.4,0-3.9h-10.3c-2.7,0-3.7,0.1-4.8,0.3
		l-0.7-1.6c2.7,0.2,5.7,0.3,6.3,0.3h9.5c-0.1-3-0.2-3.7-0.8-5.4l5.3,1.1c1,0.2,1.3,0.4,1.3,0.8c0,0.5-1,1.1-1.4,1.3
		c0,0.4,0,0.9,0,2.2h8.9l2-2.6c0.3-0.3,0.4-0.6,0.7-0.6s0.5,0.2,0.8,0.5l3.4,2.6c0.2,0.1,0.4,0.4,0.4,0.7
		C927.7,117.8,927.3,117.9,927,117.9z M903.5,148.6c-1.7,0-2-0.9-2.5-2.7c-0.2-0.7-1.2-3.7-2.9-5.3l0.1-0.2c7.8,1.1,7.9,5.4,7.9,5.5
		C906.1,147,905.3,148.6,903.5,148.6z M907.2,122.8h-6.8v4.2h6.8V122.8z M907.2,128h-6.8v4.5h6.8V128z M918.7,122.8h-7.2v4.2h7.2
		V122.8z M918.7,128h-7.2c0,2.2,0,2.9,0,4.5h7.2V128z"/>
	<path class="st0" d="M938.2,144.4c-0.1,0.7-0.3,1.4-1,1.4c-0.4,0-0.6-0.4-0.7-0.5l-2.8-5.9c0.5,0,1.1,0.1,1.9,0.1
		c1.3,0,2.5-0.2,5.1-0.7v-19.1h-0.9c-3,0-3.9,0.2-4.7,0.3l-0.7-1.6c2.1,0.2,4.2,0.3,6.2,0.3h4.6l1.9-2.8c0.1-0.2,0.4-0.6,0.7-0.6
		c0.2,0,0.6,0.3,0.8,0.4l3.3,2.9c0.1,0.1,0.4,0.4,0.4,0.7c0,0.5-0.4,0.5-0.7,0.5H945V138c1-0.2,5.6-1.2,6.7-1.4
		c0.6-0.1,1-0.2,1.8-0.4l0.1,0.3C949.3,139.3,939.7,143.8,938.2,144.4z M969.9,151.5c-4.1-2-7.9-4.6-10.5-8.4
		c-4.1,4.7-9.8,7.8-17.4,8.8l0-0.3c2.6-1.1,9.7-4,15.3-12.3c-2.1-4.4-2.9-9.2-3-14.3c-2.8,4.1-5.3,6.3-6.6,7.4l-0.3-0.3
		c2.9-4.9,5-10.4,6.4-15.9c0.6-2.1,0.6-3.2,0.6-4.9l6,2.5c0.3,0.1,0.6,0.4,0.6,0.7c0,0.4-0.2,0.5-1.7,1.1c-0.8,2.1-1.7,3.8-2.9,6
		h9.9l2-3c0.3-0.4,0.5-0.6,0.7-0.6c0.3,0,0.5,0.2,0.9,0.5l3.5,3c0.2,0.2,0.4,0.4,0.4,0.7c0,0.4-0.4,0.5-0.7,0.5h-7.5l3.3,1.7
		c0.4,0.2,0.6,0.5,0.6,0.8c0,0.4-0.2,0.4-1.6,1c-2,7-4.2,10.9-6.1,13.8c2.6,2.6,6.3,5.2,12.6,6.8v0.3
		C972,148,971.1,149.1,969.9,151.5z M955.8,122.8c-0.2,0.4-0.4,0.7-0.7,1.2c0.4,4.5,1.6,8.8,3.9,12.4c2.9-5.6,3.9-11.1,4.1-13.7
		H955.8z"/>
	<path class="st0" d="M1032.8,139.2h-14.8c0,2.5,0,3.9,0.2,7.3c0,1.3,0.1,2.6,0.1,2.7c0,1.9-1.2,2.9-3.3,2.9c-1.5,0-2-0.7-2-2.2
		c0-0.6,0.2-5.7,0.2-6.7c0-0.2,0-3.8,0-3.9h-13.5c-2.7,0-3.6,0.1-4.7,0.3l-0.7-1.6c2.6,0.3,5.7,0.3,6.2,0.3h2.1
		c0-10.3,0-10.6-0.5-12.7l5.3,1.9h5.9c0-2.1,0-5.4,0-8.1h-7.3c-2.3,3-6.6,7.8-11,10l-0.2-0.3c5.2-5.7,8.6-12.6,9.4-17.9l5.7,2.5
		c0.2,0.1,0.6,0.3,0.6,0.6c0,0.3,0,0.6-2,1.2c-0.4,0.8-0.9,1.5-1.8,2.8h17.4l2-3c0.2-0.2,0.4-0.6,0.7-0.6c0.2,0,0.4,0.1,0.8,0.5
		l3.8,3c0.3,0.2,0.4,0.4,0.4,0.7c0,0.4-0.4,0.5-0.7,0.5h-13.2c0,1.3,0,6.9,0,8.1h4.9l1.9-3c0.1-0.2,0.3-0.6,0.7-0.6
		c0.3,0,0.5,0.3,0.8,0.5l3.5,3c0.3,0.2,0.4,0.4,0.4,0.7c0,0.4-0.4,0.5-0.7,0.5H1018c0,3.1,0,6.5,0,9.8h7.7l2.3-3.2
		c0.1-0.1,0.4-0.6,0.7-0.6s0.6,0.3,0.8,0.5l3.6,3.2c0.3,0.3,0.4,0.4,0.4,0.7C1033.5,139.2,1033.2,139.2,1032.8,139.2z M1013.4,128.4
		h-6.3v9.8h6.3c0-2.3,0-3.9,0-7.4V128.4z"/>
	<path class="st0" d="M1050,129.1c-0.6,1.3-3.2,7-3.6,8.2c-0.1,0.4-0.2,0.8-0.2,1.2c0,0.9,0.4,1.8,0.7,2.5c0.7,1.5,0.9,2.5,0.9,3.5
		c0,2.3-1.1,3.3-2.8,3.3c-2.8,0-2.8-2.8-2.8-4.3c0-0.4,0.2-1.8,0.2-2.1c0-1.6-0.1-3.4-3-5.4v-0.2c0.9,0.1,2.9,0,3.6-0.6
		c2.3-1.9,9.1-12.8,10.2-14.8l0.3,0.1C1053,121.8,1050.4,128.1,1050,129.1z M1046.8,124c-1.5,0-1.8-0.8-3.1-4
		c-1-2.6-2.4-4.1-3.3-4.9l0-0.2c3.8,0.3,9,2.4,9,6.2C1049.5,122.8,1048.3,124,1046.8,124z M1074.3,151.3c-4-2.8-6.5-8.6-7.3-10.6
		c-1.5-3.9-2.1-7.4-2.5-14c-0.2,1.2-1,6.6-1.2,7.5c-1.1,5.3-6.3,15.6-19.2,17.2l-0.1-0.3c5.4-1.8,10.3-6.6,13-11.7
		c2.6-5.1,3.4-11.5,3.4-16.8h-1.5c-1.1,2.1-4.2,7.7-8.6,10.7l-0.3-0.2c2-3,6.7-12.3,7.4-21.7l5.8,2.3c0.3,0.1,0.7,0.4,0.7,0.7
		c0,0.5-0.4,0.7-1.7,1c-0.7,1.5-1.5,3.3-2.9,6.1h11.4l1.7-2c0.2-0.3,0.5-0.3,0.6-0.3c0.3,0,0.5,0.3,0.7,0.4l4.1,3.7
		c0.3,0.3,0.3,0.6,0.3,0.7c0,1-1.3,1.3-2.8,1.3c-1.6,1.7-4.5,3.8-6.9,5.5l-0.3-0.2c1-2,2.5-6.3,2.8-8h-5.8
		c0.8,13.9,8.4,21.9,14,24.4l0,0.3C1077.3,148,1075.6,148.4,1074.3,151.3z"/>
	<path class="st0" d="M1119.8,150.9c-1.5,0-7-1.9-11-8.1c-4.7,4.3-9.9,6.3-14.4,7.4l-0.1-0.3c2.1-1,7.1-3.5,12.7-10.5
		c-2.7-5.5-3.5-11.6-3.9-17.7h-11c0,1.1-0.1,6.2-0.1,7.3h4.3l1.3-1.8c0.2-0.3,0.5-0.7,0.8-0.7c0.3,0,0.6,0.3,0.9,0.5l2.8,2.3
		c0.2,0.2,0.4,0.5,0.4,0.7c0,0.3-0.1,0.6-1.4,1.3c-0.1,1.1-0.3,6.2-0.4,7.2c-0.2,2.1-0.6,4.1-2.6,5.6c-1.8,1.3-3,1.5-3.7,1.6
		c-0.6-2.8-1.1-3.3-3.6-5.3c-2.1,6.3-6,9.3-7.2,10.4l-0.3-0.2c3.1-4.8,4.4-12.9,4.4-21.3c0-1.1,0-7.1-1.1-11.6l6,2.8h10.6
		c-0.4-6.1-0.4-6.2-1.1-9.4l6.1,1.4c0.4,0.1,0.9,0.2,0.9,0.8c0,0.5-0.1,0.6-1.4,1.3c0,3.6,0,4.9,0.1,5.9h7.1l2.2-2.8
		c0.3-0.3,0.4-0.6,0.7-0.6s0.6,0.3,0.8,0.5l3.2,2.8c0.2,0.2,0.4,0.4,0.4,0.7c0,0.4-0.4,0.5-0.7,0.5h-13.7c0.3,4.6,0.6,9.1,2.1,13.4
		c1.8-3.2,3.2-6.6,3.4-10.2l5.4,3.2c0.3,0.2,0.7,0.5,0.7,0.9c0,0.6-0.7,0.7-1.9,0.9c-2.1,4.7-3.8,7.4-5.6,9.5
		c2.7,4.4,4.8,4.9,5.4,4.9c0.8,0,1.3-0.5,1.9-1.5c0.7-1.1,1.8-3.4,2.1-4.6l0.3,0.1c-0.1,1.2-0.6,6.6-0.6,7.4c0,0.3,0,0.8,0.4,1.4
		c0.7,1,1,1.2,1,1.8C1122.4,150.9,1120.2,150.9,1119.8,150.9z M1092,130.1c-0.3,6.7-0.6,8.1-1.1,9.9c1.1,0.2,2.8,0.4,3.7,0.4
		c1.2,0,1.6-0.5,1.8-2.5c0.4-4,0.3-6.3,0.2-7.7H1092z M1113.9,119.1c-1.1,0-1.6-0.7-2.1-1.8c-1-2.4-1.2-2.9-2.4-4.2l0-0.4
		c2.1,0.1,6.8,0.4,6.8,4.2C1116.4,118.6,1114.9,119.1,1113.9,119.1z"/>
	<path class="st0" d="M1163.5,149.4c-5.3-2.4-10.9-8.8-13.2-13.7c0,2.1,0.2,11.5,0.2,13.4c0,0.7,0,1.4-0.8,2
		c-0.6,0.5-1.4,0.8-2.2,0.8c-2,0-2.2-1-2.2-2.1c0-0.2,0.3-9.9,0.3-11c-1.9,2.2-8,8.4-17.1,11.1l-0.2-0.3
		c5.8-3.5,11.8-10.5,14.2-14.4h-8.8c-2.7,0-3.6,0.1-4.7,0.3l-0.7-1.6c2.6,0.2,5.7,0.3,6.2,0.3h11.2v-4.9h-6c0,0.7,0,1-0.6,1.5
		c-0.7,0.6-1.6,0.8-2.4,0.8c-0.8,0-1.8-0.3-1.8-1.6c0-1.2,0.1-2.8,0.1-4.3c0.1-2.4,0.1-4.9,0.1-7.3c0-3.6-0.3-4.7-0.6-5.7l5.6,2
		h15.9l1.4-1.9c0.2-0.3,0.4-0.5,0.7-0.5c0.2,0,0.4,0.1,0.7,0.4l3.1,2.3c0.2,0.2,0.5,0.4,0.5,0.7c0,0.4-0.3,0.7-1.6,1.7
		c0,1.8,0.2,10.2,0.2,11c0,2.4-2.4,2.5-2.8,2.5c-0.5,0-2,0-1.9-1.6h-6.1v4.9h9.8l2.3-3.1c0.3-0.4,0.4-0.5,0.7-0.5
		c0.2,0,0.4,0.2,0.8,0.4l3.7,3.1c0.3,0.3,0.4,0.4,0.4,0.7c0,0.4-0.4,0.5-0.7,0.5H1151c3.1,3.5,9.8,8.1,17.5,9.1v0.4
		C1165.2,145.9,1164.2,147.9,1163.5,149.4z M1145.6,115.8h-6v5.5h6V115.8z M1145.6,122.3h-6v6h6V122.3z M1156.4,115.8h-6.1v5.5h6.1
		V115.8z M1156.4,122.3h-6.1v6h6.1V122.3z"/>
	<path class="st0" d="M1209.4,149.6c-1.6,1.3-3.9,1.3-5.5,1.3c-8.2,0-10.5,0-10.5-5v-8.1h-4.3c-0.8,8.7-5.8,12.6-15,14.1l-0.1-0.4
		c8.8-3.5,10-9,10.5-13.7h-4.7c-3,0-3.9,0.1-4.7,0.3l-0.7-1.6c2.1,0.2,4.2,0.3,6.2,0.3h4c0-1.2,0.1-2.6,0.1-6.8
		c-0.3,0-1.9,0-3.5,0.3l-0.4-0.9c-2,1.4-4.9,3.2-8.8,4.2l-0.2-0.3c3.8-2.4,7.4-5.9,9.5-8.5c-0.2,0-0.3,0.1-0.6,0.1
		c-1,0-1.2-0.3-2.4-2c-0.3-0.4-1.8-2.8-3.6-4.2l0.1-0.4c5.2-0.1,8.2,1.5,8.3,4c2.1-3.1,3.2-5.6,3.5-6.8h-4.9c-3.1,0-3.9,0.2-4.7,0.3
		l-0.7-1.6c2.1,0.2,4.2,0.3,6.3,0.3h4.1l1.4-1.4c0.3-0.3,0.5-0.5,0.7-0.5c0.2,0,0.4,0.1,0.7,0.4l3,3.1c0.2,0.2,0.4,0.5,0.4,0.8
		c0,0.7-0.7,1-1.8,1.2c-2.2,3.5-5.3,7.6-9.5,10.8c1.4,0.1,3.5,0.1,5,0.1h7.9l1.8-2.5c0.2-0.3,0.4-0.6,0.7-0.6c0.2,0,0.6,0.3,0.8,0.5
		l2.9,2.5c0.2,0.1,0.4,0.4,0.4,0.7c0,0.4-0.4,0.4-0.7,0.4h-2.6v6.9h4.2l2-2.9c0.2-0.3,0.4-0.6,0.7-0.6c0.2,0,0.5,0.2,0.8,0.5
		l3.6,2.9c0.2,0.1,0.4,0.4,0.4,0.7c0,0.4-0.4,0.5-0.7,0.5h-11v6.6c0,1.9,0.4,2.1,4.2,2.1c2.6,0,3.1-0.4,3.4-0.6
		c0.7-0.6,2-4.8,2.4-6.2h0.4c0.2,2.1,0.6,5.3,1.6,6.1c0.8,0.6,1,0.8,1,1.3C1210.8,147.5,1210.4,148.7,1209.4,149.6z M1193.4,129.8
		h-4.1c0,4.9,0,5.5-0.1,6.9h4.2V129.8z M1208.7,132.3c-8.1-3.2-15.2-12.5-16.3-19.8l0.3-0.1c1,2.2,2.5,4.2,3.9,5.7
		c0.8-1.1,2.5-4,3.2-6.6l4.4,2.9c0.3,0.2,0.5,0.4,0.5,0.7c0,0.7-0.9,0.7-1.6,0.6c-2.3,1.6-5.2,3-5.6,3.2c1.6,1.8,2.7,2.6,3.4,3.2
		c0.5-0.6,2.5-3.1,3.6-5.9l4.7,2.9c0.2,0.1,0.6,0.4,0.6,0.7c0,0.6-0.6,0.6-1.9,0.7c-3.2,1.5-4.3,2-5.9,2.5c3.4,2.3,7.3,3.9,11.3,4.4
		v0.4C1212.2,128.3,1209.8,129.4,1208.7,132.3z"/>
	<path class="st0" d="M1253.9,151c-5.2-1.6-8.7-5.9-10.2-7.8c-3.9,2.5-12.6,6.4-18.4,8.1c0,0.5-0.1,1.1-0.7,1.1
		c-0.4,0-0.6-0.3-0.7-0.5l-3.4-5.3c0.5,0.1,1.1,0.1,1.9,0.1c1.1,0,3.5-0.4,6.7-0.8v-6.9c-5.5,3.1-9.9,3.9-11.7,4.3v-0.4
		c5.5-2.4,11.6-7.6,15.2-11.9h-9.3c-2.7,0-3.6,0.1-4.7,0.3l-0.7-1.6c2.7,0.3,5.7,0.3,6.2,0.3h11v-5.4h-6.9c-2.7,0-3.6,0.1-4.7,0.3
		l-0.7-1.6c2.6,0.3,5.7,0.3,6.2,0.3h6.1c0-0.8,0-4.3,0-5h-9.6c-2.7,0-3.6,0.1-4.7,0.3l-0.7-1.6c2.7,0.2,5.7,0.3,6.2,0.3h8.8
		c0-1-0.1-3.9-1.1-6.1l6.6,1.4c0.4,0.1,0.7,0.1,0.7,0.5c0,0.6-0.9,1-1.7,1.4c0,0.5,0,0.7,0,2.8h8.8l1.8-2.6c0.2-0.3,0.4-0.5,0.7-0.5
		c0.2,0,0.5,0.2,0.8,0.4l3.5,2.6c0.2,0.2,0.5,0.4,0.5,0.7c0,0.4-0.4,0.5-0.7,0.5h-15.4v5h6l1.5-2.7c0.1-0.2,0.3-0.6,0.7-0.6
		c0.2,0,0.7,0.3,0.8,0.4l3.5,2.7c0.3,0.2,0.4,0.4,0.4,0.7c0,0.4-0.4,0.4-0.7,0.4h-12.2v5.4h10.3l2.1-3c0.2-0.3,0.4-0.5,0.7-0.5
		c0.2,0,0.6,0.3,0.8,0.4l3.5,3c0.2,0.2,0.4,0.4,0.4,0.7c0,0.4-0.3,0.4-0.7,0.4H1239l-0.1,0.1c0.2,0.6,1.1,3.4,4.4,7
		c1.7-2.1,3.5-4.5,4.2-6.3l4.7,3.4c0.3,0.2,0.4,0.3,0.4,0.6c0,0.6-0.5,0.7-2,0.7c-2.8,1.3-3.3,1.5-6.3,2.5c3.6,3.6,8.2,6.3,14.3,7
		v0.2C1255.9,147.5,1255.3,148.6,1253.9,151z M1238.5,131.6c-0.3,0.3-2.2,2.4-5.1,4.5v9c1.2-0.2,3-0.6,5-1.1c0.7-0.1,4.2-1,4.9-1.2
		C1239.7,137.8,1238.9,133.8,1238.5,131.6z"/>
	<path class="st0" d="M1298,130c-6.8-2.8-12.2-8.3-15.2-15.1c-4.4,6.9-12.7,13.8-20.7,16.5l-0.2-0.3c9.1-6.4,15.4-16,16.4-20.3
		l5.7,1.8c0.4,0.1,0.9,0.4,0.9,0.7c0,0.5-0.5,0.7-1.4,0.9c2.5,3.8,9.2,9,18.8,10.5v0.3C1299.3,126.7,1298.7,128.1,1298,130z
		 M1299.2,135.8h-17.9c-2,3.6-5.5,7.8-6.6,9.1c10.3-0.5,12.5-0.6,15.4-1.1c-1.6-2.5-3.2-4.2-4.7-5.6l0.2-0.3
		c2,0.6,12.1,4.1,12.1,10.3c0,1.4-1.1,2.8-2.8,2.8c-1.6,0-2.3-1.2-2.8-2.7c-0.6-1.7-0.8-2.4-1.6-3.8c-4.1,1.4-14.7,4.5-21.2,5.6
		c-0.2,0.7-0.4,1.1-0.8,1.1c-0.4,0-0.6-0.4-0.8-0.7l-2.7-5.9c1.4,0.3,2.4,0.4,3.9,0.4c0.3,0,2.4-0.1,3.9-0.2c1-2.4,2-6.6,2.5-9.2
		h-6.1c-3,0-3.9,0.1-4.7,0.3l-0.7-1.6c2.1,0.2,4.2,0.3,6.3,0.3h21.7l2.4-3c0.3-0.4,0.5-0.6,0.7-0.6s0.4,0.2,0.8,0.5l3.8,3
		c0.3,0.2,0.4,0.4,0.4,0.7C1299.8,135.8,1299.4,135.8,1299.2,135.8z M1289.6,128.4h-12.8c-2.7,0-3.6,0.1-4.7,0.3l-0.7-1.6
		c2.6,0.2,5.7,0.3,6.2,0.3h5.4l2.2-2.8c0.2-0.3,0.4-0.5,0.7-0.5c0.3,0,0.6,0.3,0.8,0.5l3.2,2.8c0.3,0.2,0.4,0.4,0.4,0.7
		C1290.2,128.3,1289.8,128.4,1289.6,128.4z"/>
</g>
</svg>
