<?xml version="1.0" encoding="utf-8"?>
<!-- Generator: Adobe Illustrator 22.1.0, SVG Export Plug-In . SVG Version: 6.00 Build 0)  -->
<svg version="1.1" id="レイヤー_1" xmlns="http://www.w3.org/2000/svg" xmlns:xlink="http://www.w3.org/1999/xlink" x="0px"
	 y="0px" viewBox="0 0 428 428" style="enable-background:new 0 0 428 428;" xml:space="preserve">
<style type="text/css">
	.st0{fill:#A9AAAA;}
</style>
<g>
	<path class="st0" d="M213.9,214.2"/>
	<path class="st0" d="M213.9,214.2"/>
	<path class="st0" d="M213.9,214.2"/>
	<path class="st0" d="M213.9,214.2"/>
	<path class="st0" d="M213.9,214.2"/>
	<path class="st0" d="M213.9,214.2"/>
	<path class="st0" d="M213.9,214.2"/>
	<path class="st0" d="M213.9,214.2"/>
	<path class="st0" d="M213.9,214.2"/>
	<path class="st0" d="M213.9,214.2"/>
	<path class="st0" d="M213.9,214.2"/>
	<path class="st0" d="M213.9,214.2"/>
	<path class="st0" d="M213.9,214.2"/>
	<path class="st0" d="M213.9,214.2"/>
	<path class="st0" d="M213.9,214.2"/>
	<path class="st0" d="M213.9,214.2"/>
	<path class="st0" d="M213.9,214.2"/>
	<path class="st0" d="M213.9,214.2"/>
	<path class="st0" d="M213.9,214.2"/>
	<path class="st0" d="M213.9,214.2"/>
	<path class="st0" d="M213.9,214.2"/>
	<path class="st0" d="M213.9,214.2"/>
	<path class="st0" d="M213.9,214.2"/>
	<path class="st0" d="M213.9,214.2"/>
	<path class="st0" d="M213.9,214.2"/>
	<path class="st0" d="M213.9,214.2"/>
	<path class="st0" d="M213.9,214.2"/>
	<path class="st0" d="M213.9,214.2"/>
	<path class="st0" d="M213.9,214.2"/>
	<path class="st0" d="M213.9,214.2"/>
	<path class="st0" d="M213.9,214.2"/>
	<path class="st0" d="M213.9,214.2"/>
	<path class="st0" d="M213.9,214.2"/>
	<path class="st0" d="M213.9,214.2"/>
	<path class="st0" d="M213.9,214.2"/>
	<path class="st0" d="M213.9,214.2"/>
	<path class="st0" d="M213.9,214.2"/>
	<path class="st0" d="M213.9,214.2"/>
	<path class="st0" d="M213.9,214.2"/>
	<path class="st0" d="M213.9,214.2"/>
	<path class="st0" d="M213.9,214.2"/>
	<path class="st0" d="M213.9,214.2"/>
	<path class="st0" d="M213.9,214.2"/>
	<path class="st0" d="M213.9,214.2"/>
	<path class="st0" d="M213.9,214.2"/>
	<path class="st0" d="M213.9,214.2"/>
	<path class="st0" d="M213.9,214.2"/>
	<path class="st0" d="M213.9,214.2"/>
	<path class="st0" d="M213.9,214.2"/>
	<path class="st0" d="M213.9,214.2"/>
	<path class="st0" d="M213.9,214.2"/>
	<path class="st0" d="M213.9,214.2"/>
	<path class="st0" d="M213.9,214.2"/>
	<path class="st0" d="M213.9,214.2"/>
	<path class="st0" d="M213.9,214.2"/>
	<path class="st0" d="M213.9,214.2"/>
	<path class="st0" d="M213.9,214.2"/>
	<path class="st0" d="M213.9,214.2"/>
	<path class="st0" d="M213.9,214.2"/>
	<path class="st0" d="M213.9,214.2"/>
	<path class="st0" d="M213.9,214.2"/>
	<path class="st0" d="M213.9,214.2"/>
	<path class="st0" d="M213.9,214.2"/>
	<path class="st0" d="M213.9,214.2"/>
	<path class="st0" d="M213.9,214.2"/>
	<path class="st0" d="M213.9,214.2"/>
	<path class="st0" d="M213.9,214.2"/>
	<path class="st0" d="M213.9,214.2"/>
	<path class="st0" d="M213.9,214.2"/>
	<path class="st0" d="M213.9,214.2"/>
	<path class="st0" d="M213.9,214.2"/>
	<path class="st0" d="M213.9,214.2"/>
	<path class="st0" d="M213.9,214.2"/>
	<path class="st0" d="M213.9,214.2"/>
	<path class="st0" d="M213.9,214.2"/>
	<path class="st0" d="M213.9,214.2"/>
	<path class="st0" d="M213.9,214.2"/>
	<path class="st0" d="M213.9,214.2"/>
	<path class="st0" d="M213.9,214.2"/>
	<path class="st0" d="M213.9,214.2"/>
	<path class="st0" d="M213.9,214.2"/>
	<path class="st0" d="M213.9,214.2"/>
	<path class="st0" d="M213.9,214.2"/>
	<path class="st0" d="M213.9,214.2"/>
	<path class="st0" d="M213.9,214.2"/>
	<path class="st0" d="M213.9,214.2"/>
	<path class="st0" d="M213.9,214.2"/>
	<path class="st0" d="M213.9,214.2"/>
	<path class="st0" d="M213.9,214.2"/>
	<path class="st0" d="M213.9,214.2"/>
	<path class="st0" d="M213.9,214.2"/>
	<path class="st0" d="M213.9,214.2"/>
	<path class="st0" d="M213.9,214.2"/>
	<path class="st0" d="M213.9,214.2"/>
	<path class="st0" d="M213.9,214.2"/>
	<path class="st0" d="M213.9,214.2"/>
	<path class="st0" d="M213.9,214.2"/>
	<path class="st0" d="M213.9,214.2"/>
	<path class="st0" d="M213.9,214.2"/>
	<path class="st0" d="M213.9,214.2"/>
	<path class="st0" d="M213.9,214.2"/>
	<path class="st0" d="M213.9,214.2"/>
	<path class="st0" d="M213.9,214.2"/>
	<path class="st0" d="M213.9,214.2"/>
	<path class="st0" d="M213.9,214.2"/>
	<path class="st0" d="M213.9,214.2"/>
	<path class="st0" d="M213.9,214.2"/>
	<path class="st0" d="M213.9,214.2"/>
	<path class="st0" d="M213.9,214.2"/>
	<path class="st0" d="M213.9,214.2"/>
	<path class="st0" d="M213.9,214.2"/>
	<path class="st0" d="M213.9,214.2"/>
	<path class="st0" d="M213.9,214.2"/>
	<path class="st0" d="M213.9,214.2"/>
	<path class="st0" d="M213.9,214.2"/>
	<path class="st0" d="M213.9,214.2"/>
	<path class="st0" d="M213.9,214.2"/>
	<path class="st0" d="M213.9,214.2"/>
	<path class="st0" d="M213.9,214.2"/>
	<path class="st0" d="M213.9,214.2"/>
	<path class="st0" d="M213.9,214.2"/>
	<path class="st0" d="M213.9,214.2"/>
	<path class="st0" d="M213.9,214.2"/>
	<path class="st0" d="M213.9,214.2"/>
	<path class="st0" d="M213.9,214.2"/>
	<path class="st0" d="M213.9,214.2"/>
	<path class="st0" d="M213.9,214.2"/>
	<path class="st0" d="M213.9,214.2"/>
	<path class="st0" d="M213.9,214.2"/>
	<path class="st0" d="M213.9,214.2"/>
	<path class="st0" d="M213.9,214.2"/>
	<path class="st0" d="M213.9,214.2"/>
	<path class="st0" d="M213.9,214.2"/>
	<path class="st0" d="M213.9,214.2"/>
	<path class="st0" d="M213.9,214.2"/>
	<path class="st0" d="M213.9,214.2"/>
	<path class="st0" d="M213.9,214.2"/>
	<path class="st0" d="M213.9,214.2"/>
	<path class="st0" d="M213.9,214.2"/>
	<path class="st0" d="M213.9,214.2"/>
	<path class="st0" d="M213.9,214.2"/>
	<path class="st0" d="M213.9,214.2"/>
	<path class="st0" d="M213.9,214.2"/>
	<path class="st0" d="M213.9,214.2"/>
	<path class="st0" d="M213.9,214.2"/>
	<path class="st0" d="M213.9,214.2"/>
	<path class="st0" d="M213.9,214.2"/>
	<path class="st0" d="M213.9,214.2"/>
	<path class="st0" d="M213.9,214.2"/>
	<path class="st0" d="M213.9,214.2"/>
	<path class="st0" d="M213.9,214.2"/>
	<path class="st0" d="M213.9,214.2"/>
	<path class="st0" d="M213.9,214.2"/>
	<path class="st0" d="M213.9,214.2"/>
	<path class="st0" d="M213.9,214.2"/>
	<path class="st0" d="M213.9,214.2"/>
	<path class="st0" d="M213.9,214.2"/>
	<path class="st0" d="M213.9,214.2"/>
	<path class="st0" d="M213.9,214.2"/>
	<path class="st0" d="M213.9,214.2"/>
	<path class="st0" d="M213.9,214.2"/>
	<path class="st0" d="M213.9,214.2"/>
	<path class="st0" d="M213.9,214.2"/>
	<path class="st0" d="M213.9,214.2"/>
	<path class="st0" d="M213.9,214.2"/>
	<path class="st0" d="M213.9,214.2"/>
	<path class="st0" d="M213.9,214.2"/>
	<path class="st0" d="M213.9,214.2"/>
	<path class="st0" d="M213.9,214.2"/>
	<path class="st0" d="M213.9,214.2"/>
	<path class="st0" d="M213.9,214.2"/>
	<path class="st0" d="M213.9,214.2"/>
	<path class="st0" d="M213.9,214.2"/>
	<path class="st0" d="M213.9,214.2"/>
	<path class="st0" d="M213.9,214.2"/>
	<path class="st0" d="M213.9,214.2"/>
	<path class="st0" d="M213.9,214.2"/>
	<path class="st0" d="M213.9,214.2"/>
	<path class="st0" d="M213.9,214.2"/>
	<path class="st0" d="M213.9,214.2"/>
	<path class="st0" d="M213.9,214.2"/>
	<path class="st0" d="M213.9,214.2"/>
	<path class="st0" d="M213.9,214.2"/>
	<path class="st0" d="M213.9,214.2"/>
	<path class="st0" d="M213.9,214.2"/>
	<path class="st0" d="M213.9,214.2"/>
	<path class="st0" d="M213.9,214.2"/>
	<path class="st0" d="M213.9,214.2"/>
	<path class="st0" d="M213.9,214.2"/>
	<path class="st0" d="M213.9,214.2"/>
	<path class="st0" d="M213.9,214.2"/>
	<path class="st0" d="M213.9,214.2"/>
	<path class="st0" d="M213.9,214.2"/>
	<path class="st0" d="M213.9,214.2"/>
	<path class="st0" d="M213.9,214.2"/>
	<path class="st0" d="M213.9,214.2"/>
	<path class="st0" d="M213.9,214.2"/>
	<path class="st0" d="M213.9,214.2"/>
	<path class="st0" d="M213.9,214.2"/>
	<path class="st0" d="M213.9,214.2"/>
	<path class="st0" d="M213.9,214.2"/>
	<path class="st0" d="M213.9,214.2"/>
	<path class="st0" d="M213.9,214.2"/>
	<path class="st0" d="M213.9,214.2"/>
	<path class="st0" d="M213.9,214.2"/>
	<path class="st0" d="M213.9,214.2"/>
	<path class="st0" d="M213.9,214.2"/>
	<path class="st0" d="M213.9,214.2"/>
	<path class="st0" d="M213.9,214.2"/>
	<path class="st0" d="M213.9,214.2"/>
	<path class="st0" d="M213.9,214.2"/>
	<path class="st0" d="M213.9,214.2"/>
	<path class="st0" d="M213.9,214.2"/>
	<path class="st0" d="M213.9,214.2"/>
	<path class="st0" d="M213.9,214.2"/>
	<path class="st0" d="M213.9,214.2"/>
	<path class="st0" d="M213.9,214.2"/>
	<path class="st0" d="M213.9,214.2"/>
	<path class="st0" d="M213.9,214.2"/>
	<path class="st0" d="M213.9,214.2"/>
	<path class="st0" d="M213.9,214.2"/>
	<path class="st0" d="M213.9,214.2"/>
	<path class="st0" d="M213.9,214.2"/>
	<path class="st0" d="M213.9,214.2"/>
	<path class="st0" d="M213.9,214.2"/>
	<path class="st0" d="M213.9,214.2"/>
	<path class="st0" d="M213.9,214.2"/>
	<path class="st0" d="M213.9,214.2"/>
	<path class="st0" d="M213.9,214.2"/>
	<path class="st0" d="M213.9,214.2"/>
	<path class="st0" d="M213.9,214.2"/>
	<path class="st0" d="M213.9,214.2"/>
	<path class="st0" d="M213.9,214.2"/>
	<path class="st0" d="M213.9,214.2"/>
	<path class="st0" d="M213.9,214.2"/>
	<path class="st0" d="M213.9,214.2"/>
	<path class="st0" d="M213.9,214.2"/>
	<path class="st0" d="M213.9,214.2"/>
	<path class="st0" d="M213.9,214.2"/>
	<path class="st0" d="M213.9,214.2"/>
	<path class="st0" d="M213.9,214.2"/>
	<path class="st0" d="M213.9,214.2"/>
	<path class="st0" d="M213.9,214.2"/>
	<path class="st0" d="M213.9,214.2"/>
	<path class="st0" d="M213.9,214.2"/>
	<path class="st0" d="M213.9,214.2"/>
	<path class="st0" d="M213.9,214.2"/>
	<path class="st0" d="M213.9,214.2"/>
	<path class="st0" d="M213.9,214.2"/>
	<path class="st0" d="M213.9,214.2"/>
	<path class="st0" d="M213.9,214.2"/>
	<path class="st0" d="M213.9,214.2"/>
	<path class="st0" d="M213.9,214.2"/>
	<path class="st0" d="M213.9,214.2"/>
	<path class="st0" d="M213.9,214.2"/>
	<path class="st0" d="M213.9,214.2"/>
	<path class="st0" d="M213.9,214.2"/>
	<path class="st0" d="M213.9,214.2"/>
	<path class="st0" d="M213.9,214.2"/>
	<path class="st0" d="M213.9,214.2"/>
	<path class="st0" d="M213.9,214.2"/>
	<path class="st0" d="M213.9,214.2"/>
	<path class="st0" d="M213.9,214.2"/>
	<path class="st0" d="M213.9,214.2"/>
	<path class="st0" d="M213.9,214.2"/>
	<path class="st0" d="M213.9,214.2"/>
	<path class="st0" d="M213.9,214.2"/>
	<path class="st0" d="M213.9,214.2"/>
	<path class="st0" d="M213.9,214.2"/>
	<path class="st0" d="M213.9,214.2"/>
	<path class="st0" d="M213.9,214.2"/>
	<path class="st0" d="M213.9,214.2"/>
	<path class="st0" d="M213.9,214.2"/>
	<path class="st0" d="M213.9,214.2"/>
	<path class="st0" d="M213.9,214.2"/>
	<path class="st0" d="M213.9,214.2"/>
	<path class="st0" d="M213.9,214.2"/>
	<path class="st0" d="M213.9,214.2"/>
	<path class="st0" d="M213.9,214.2"/>
	<path class="st0" d="M213.9,214.2"/>
	<path class="st0" d="M213.9,214.2"/>
	<path class="st0" d="M213.9,214.2"/>
	<path class="st0" d="M213.9,214.2"/>
	<path class="st0" d="M213.9,214.2"/>
	<path class="st0" d="M213.9,214.2"/>
	<path class="st0" d="M213.9,214.2"/>
	<path class="st0" d="M213.9,214.2"/>
	<path class="st0" d="M213.9,214.2"/>
	<path class="st0" d="M213.9,214.2"/>
	<path class="st0" d="M213.9,214.2"/>
	<path class="st0" d="M213.9,214.2"/>
	<path class="st0" d="M213.9,214.2"/>
	<path class="st0" d="M213.9,214.2"/>
	<path class="st0" d="M213.9,213.8c48.1,60.1,133.4,76.2,205.4,56c0.6-6.1,1.1-12.3,3.7-18.2C352.5,278.1,266.6,270.2,213.9,213.8
		L213.9,213.8z"/>
	<path class="st0" d="M213.9,213.8c35.1,67.2,116.6,101.5,192.2,87.8c4.1,0.4,7.1-9.7,7.6-15.8c-50.8,13.9-103.5,2.9-148.7-21.9
		c-5.8-4.7-11.5-9.3-17.5-11.9c-5.8-4.7-11.5-9.3-15.2-13.8c-3.5-6.5-7.2-11-13-15.6C217.5,220.3,215.8,216,213.9,213.8L213.9,213.8
		z"/>
	<path class="st0" d="M213.9,214.2"/>
	<path class="st0" d="M213.9,214.2"/>
	<path class="st0" d="M213.9,214.2"/>
	<path class="st0" d="M213.9,214.2"/>
	<path class="st0" d="M213.9,214.2"/>
	<path class="st0" d="M213.9,214.2"/>
	<path class="st0" d="M213.9,214.2"/>
	<path class="st0" d="M213.9,214.2"/>
	<path class="st0" d="M213.9,214.2"/>
	<path class="st0" d="M213.9,214.2"/>
	<path class="st0" d="M213.9,214.2"/>
	<path class="st0" d="M213.9,214.2"/>
	<path class="st0" d="M213.9,214.2"/>
	<path class="st0" d="M213.9,214.2"/>
	<path class="st0" d="M213.9,214.2"/>
	<path class="st0" d="M213.9,214.2"/>
	<path class="st0" d="M213.9,214.2"/>
	<path class="st0" d="M213.9,214.2"/>
	<path class="st0" d="M213.9,214.2"/>
	<path class="st0" d="M213.9,214.2"/>
	<path class="st0" d="M213.9,214.2"/>
	<path class="st0" d="M213.9,214.2"/>
	<path class="st0" d="M213.9,214.2"/>
	<path class="st0" d="M213.9,214.2"/>
	<path class="st0" d="M213.9,214.2"/>
	<path class="st0" d="M213.9,214.2"/>
	<path class="st0" d="M213.9,214.2"/>
	<path class="st0" d="M213.9,214.2"/>
	<path class="st0" d="M213.9,214.2"/>
	<path class="st0" d="M213.9,214.2"/>
	<path class="st0" d="M213.9,214.2"/>
	<path class="st0" d="M213.9,214.2"/>
	<path class="st0" d="M213.9,214.2"/>
	<path class="st0" d="M213.9,214.2"/>
	<path class="st0" d="M424.8,233.1c0.6-6.1,1.1-12.3,1.7-18.4c-63.3,37.5-150.8,46-212.5-0.9c40,36.7,94.7,47.9,147,40.3
		C384,250,403.4,241.4,424.8,233.1L424.8,233.1z"/>
	<path class="st0" d="M213.9,214.2"/>
	<path class="st0" d="M213.9,214.2"/>
	<path class="st0" d="M213.9,214.2"/>
	<path class="st0" d="M213.9,214.2"/>
	<path class="st0" d="M213.9,214.2"/>
	<path class="st0" d="M213.9,214.2"/>
	<path class="st0" d="M213.9,214.2"/>
	<path class="st0" d="M213.9,213.8c-75.4,11.7-137,76.2-148,151.6c-0.4,4.1,7.6,6.9,11.3,11.4C88.1,303.4,139.9,233.8,213.9,213.8
		L213.9,213.8z"/>
	<path class="st0" d="M213.9,213.8c-22.9,2-47.8,3.9-69.4,14.3c-6.5,3.5-12.8,5-19.4,8.5c-39.5,25.3-69.3,57.6-85.5,99.5
		c3.7,4.5,7.4,8.9,11,15.5c13.6-35.9,30.9-67.3,60.2-93.6C140.1,231.7,176.5,216.5,213.9,213.8L213.9,213.8z"/>
	<path class="st0" d="M124.1,405.7c6,2.6,11.9,5.2,17.9,7.8c-18-73.9,10-153.9,72-199.8c-6.5,3.5-13,7.1-17.5,10.8
		c-4.7,5.8-9.1,9.5-15.6,13C135.6,280.9,115.2,345.1,124.1,405.7L124.1,405.7z"/>
	<path class="st0" d="M213.9,213.8c-72.6,26.4-118.4,98.5-121.3,174.6c6,2.6,9.7,7.1,15.6,9.7c-4.4-41.7,9.5-81.7,29.3-117
		c4.7-5.8,9.3-11.5,11.9-17.5C166.1,240.3,189.9,228.1,213.9,213.8L213.9,213.8z"/>
	<path class="st0" d="M213.9,213.8c-49.1-27.2-108.5-32.6-162.3-8.7c-6.5,3.5-12.8,5-19.4,8.5c-10.8,5.2-23.6,10.2-28.7,20.1
		C1.2,237.6,2.5,246,4,252.3c2.4-3.9,4.8-7.8,9.1-9.5c6.5-3.5,13-7.1,19.7-12.6c48.4-32.7,107-41.8,163.2-24.3
		C202,208.5,207.8,213.2,213.9,213.8L213.9,213.8z"/>
	<path class="st0" d="M213.9,213.8c-32.7-25.7-72.5-41.7-113.8-41.4c-33.1,1.1-68.5,4-95.3,26.4c-4.3,1.7-3,10-3.5,16.2
		C64.9,173.3,152,168.9,213.9,213.8L213.9,213.8z"/>
	<path class="st0" d="M213.9,213.8c-75.2-13.1-153,25.2-189.9,89.9c-2.4,3.9,3,12.7,6.7,17.1C65.8,253.8,138.2,206.8,213.9,213.8
		L213.9,213.8z"/>
	<path class="st0" d="M213.9,213.8c-27.9-10.8-60.7-13.8-90.1-8.3c-25.3,5.9-48.6,12.1-70.5,26.6c-15.6,13-29,24.2-44.7,37.2
		c1.5,6.3,5.2,10.8,6.7,17.1C60,226.5,141.4,194.7,213.9,213.8L213.9,213.8z"/>
	<path class="st0" d="M336.3,388c4.5-3.7,8.9-7.4,13.4-11.2c-5.8-4.7-14-5.4-22-8.2c-61.4-28.3-109.7-86.4-113.8-154.9
		c0.3,41.3,13.2,81.7,41,115.2C277.5,353.7,304.4,374.8,336.3,388L336.3,388z"/>
	<path class="st0" d="M213.9,213.8c-13.1,75.2,25,155,89.9,189.9c3.9,2.4,12.7-3,17.1-6.7c-13.8-7.5-27.7-12.9-39.1-24.2
		c-5.6-6.7-11.3-11.4-17.1-16c-5.4-8.8-15.2-13.8-20.5-24.6c-7.1-13-14.1-26.1-19.1-38.9C215.2,267.5,211.5,240.4,213.9,213.8
		L213.9,213.8z"/>
	<path class="st0" d="M213.9,213.8c11.7,75.4,78.4,135.2,151.4,150.1c4.5-3.7,7.1-9.7,11.6-13.4c-11.9-5.2-24.6-2.3-34.4-7.3
		c-8-2.8-14-5.4-22-8.2C268.8,313.7,227.5,268.7,213.9,213.8L213.9,213.8z"/>
	<path class="st0" d="M213.9,213.8c24.3,72.4,100.4,120.7,174.6,121.3c2.6-6,7.1-9.7,9.7-15.6C323.5,324.9,244.6,284.7,213.9,213.8
		L213.9,213.8z"/>
	<path class="st0" d="M213.9,213.8c-32.4,38.3-47.1,86.5-39.4,136.7c1.7,27,5.4,54.2,22.3,72.2c3.7,4.5,12.1,3.2,18.2,3.7
		C171.2,364.6,171.1,275.9,213.9,213.8L213.9,213.8z"/>
	<path class="st0" d="M213.9,213.8c-58.1,48.3-80.5,135-51.9,205.8c1.7,4.3,10.1,3,16.2,3.5c-20.8-43.2-22.3-94.9-7.7-141.1
		c2.6-6,5.2-11.9,7.8-17.9C186.4,244.2,200.2,229,213.9,213.8L213.9,213.8z"/>
	<path class="st0" d="M213.9,213.8c-27.2,71.8,0.1,156.9,55.5,205.3c6.3-1.5,10.8-5.2,17.1-6.7C226.7,367.7,192.7,288.2,213.9,213.8
		L213.9,213.8z"/>
	<path class="st0" d="M213.9,213.8c-39.1,66.6-30.6,154.1,22,210.5c1.9,2.2,8.2,0.8,14.5-0.7C201.9,367.5,180.8,283,213.9,213.8
		L213.9,213.8z"/>
	<path class="st0" d="M231.2,2.8c-6.1-0.6-12.3-1.1-18.4-1.7c41.6,63.7,46,150.8,1.1,212.7c11.4-11.3,19-27.2,26.6-43
		c2.6-6,5.2-11.9,7.8-17.9c6.3-24.2,8.6-48.7,6.8-73.7c-1.3-8.4-2.8-14.7-4.1-23.1C246.6,37.2,240,20.1,231.2,2.8L231.2,2.8z"/>
	<path class="st0" d="M8.4,159.8c-0.6,6.1-1.1,12.3-3.7,18.2c68.9-30.8,154.3-16.8,209.3,35.7c-9.5-9.1-16.7-20.1-28.4-27.4
		c-6-2.6-11.7-7.3-17.5-11.9c-27.5-14.9-57.5-25.9-90.6-24.8C54.7,149.6,31.6,153.7,8.4,159.8L8.4,159.8z"/>
	<path class="st0" d="M213.9,213.8c16.9-4.6,32-11.5,45.4-22.7c4.7-5.8,9.1-9.5,15.6-13c38.4-35.7,57.6-87.6,60.2-139
		c-6-2.6-9.7-7.1-15.6-9.7C323.1,104,284.9,183.1,213.9,213.8L213.9,213.8z"/>
	<path class="st0" d="M213.9,213.8c33.5-5.2,65.9-20.8,90.8-45.3c29.4-28.3,49.2-63.6,59.1-104c-5.8-4.6-9.5-9.1-13.2-13.6
		C341.8,124.3,289.9,195.9,213.9,213.8L213.9,213.8z"/>
	<path class="st0" d="M213.9,213.8c67.4-37.2,99.6-118.8,89.8-192c-6.1-0.6-12.1-3.2-17.9-7.8C303.9,87.8,277.8,170.1,213.9,213.8
		L213.9,213.8z"/>
	<path class="st0" d="M213.9,213.8c60.1-48.1,76.4-135.4,53.9-205.6c-6.1-0.6-12.3-1.1-18.2-3.7C280.5,73.3,270.4,161.1,213.9,213.8
		L213.9,213.8z"/>
	<path class="st0" d="M213.9,213.8c71.8,27.2,154.8-0.3,205.3-55.5c-1.5-6.3-5.2-10.8-6.7-17.1C367.8,201,286.3,234.8,213.9,213.8
		L213.9,213.8z"/>
	<path class="st0" d="M213.9,213.8c58.8,34.3,133.4,30.8,192.4-5.1c6.7-5.6,13-7.1,17.7-12.8c4.5-3.7,1.1-12.3-0.4-18.6
		c-38,31.6-81.2,52.4-130.9,54.1C266,230.9,237.4,228.3,213.9,213.8L213.9,213.8z"/>
	<path class="st0" d="M213.9,213.8c10,3,20.7-0.2,31.1-1.3c6.3-1.5,12.7-3,19-4.5c57.3-17.4,102.8-62.8,124.2-116.6
		c-3.7-4.5-7.4-8.9-11.2-13.4c-13.2,31.8-28.3,61.4-53.3,85.9c-20.5,20.8-44.3,33.1-70,43.1c-6.3,1.5-12.7,3-19,4.5
		C228.5,213,220.3,212.3,213.9,213.8L213.9,213.8z"/>
	<path class="st0" d="M213.9,213.8c75,15.1,155-25,189.9-89.9c2.4-3.9-3-12.7-6.7-17.1C364.1,173.9,289.5,222.7,213.9,213.8
		L213.9,213.8z"/>
	<path class="st0" d="M213.9,213.8C200.2,138.2,135.3,80.6,62.6,63.7c-2.6,5.9-7.3,11.7-11.7,15.4c26.6,2.4,52.7,11,76.3,23.5
		c5.8,4.7,11.5,9.3,17.5,11.9C179.6,138.4,201.1,173.4,213.9,213.8L213.9,213.8z"/>
	<path class="st0" d="M39.3,92.5c-2.6,6-7.1,9.7-9.7,15.6c74.6-3.5,151.4,36.6,184.3,105.6c-5-12.8-10-25.7-17.3-36.7
		c-3.7-4.5-9.5-9.1-13-15.6c-1.9-2.2-5.8-4.7-7.6-6.9c-1.9-2.2-3.5-6.5-5.4-8.8C132.3,113.4,88.6,94.9,39.3,92.5L39.3,92.5z"/>
	<path class="st0" d="M21.8,126c-4.5,3.7-7.1,9.7-7.6,15.8c8.2,0.8,14.7-2.8,23.1-4.1c68.9-8.1,138.6,18.9,176.7,76.1
		C176.6,148.4,97.3,112.3,21.8,126L21.8,126z"/>
	<path class="st0" d="M213.9,213.8c0-45.4-16.7-88.2-48.7-122.1c-20.8-20.5-43.5-43.2-74-48.1c-4.1-0.4-8.7,5.4-13.2,9.1
		C150.4,73.8,206.4,138.8,213.9,213.8L213.9,213.8z"/>
	<path class="st0" d="M213.9,213.8c28.9-44.8,30-102.5,13.9-151.5c-3.5-6.5-7.1-13-8.5-19.4c-4.8-14.9-13.7-30.2-25.5-37.4
		c-3.9-2.4-10.2-0.9-16.6,0.5C226,60.1,247.1,144.6,213.9,213.8L213.9,213.8z"/>
	<path class="st0" d="M213.9,213.8c29.3-71.6-0.3-154.8-55.5-205.3c-6.3,1.5-10.8,5.2-17.1,6.7C201.2,59.8,235.2,139.3,213.9,213.8
		L213.9,213.8z"/>
	<path class="st0" d="M213.9,213.8c5.2-34.6,2.1-67.9-11.5-100.1c-3.5-6.5-5-12.9-8.5-19.4c-17.8-30.5-40.3-55.3-69.7-72.4
		c-4.5,3.7-11,7.2-17.3,8.7C174,63.6,220.9,138,213.9,213.8L213.9,213.8z"/>
	<path class="st0" d="M213.9,214.2"/>
	<path class="st0" d="M213.9,214.2"/>
	<path class="st0" d="M213.9,214.2"/>
	<path class="st0" d="M213.9,214.2"/>
	<path class="st0" d="M213.9,214.2"/>
	<path class="st0" d="M213.9,214.2"/>
	<path class="st0" d="M213.9,214.2"/>
	<path class="st0" d="M213.9,214.2"/>
	<path class="st0" d="M213.9,214.2"/>
	<path class="st0" d="M213.9,214.2"/>
	<path class="st0" d="M213.9,214.2"/>
	<path class="st0" d="M213.9,214.2"/>
	<path class="st0" d="M213.9,214.2"/>
	<path class="st0" d="M213.9,214.2"/>
	<path class="st0" d="M213.9,214.2"/>
	<path class="st0" d="M213.9,214.2"/>
	<path class="st0" d="M213.9,214.2"/>
	<path class="st0" d="M213.9,214.2"/>
	<path class="st0" d="M213.9,214.2"/>
	<path class="st0" d="M213.9,214.2"/>
	<path class="st0" d="M213.9,214.2"/>
	<path class="st0" d="M213.9,214.2"/>
	<path class="st0" d="M213.9,214.2"/>
	<path class="st0" d="M213.9,214.2"/>
	<path class="st0" d="M213.9,214.2"/>
	<path class="st0" d="M213.9,214.2"/>
	<path class="st0" d="M213.9,214.2"/>
	<path class="st0" d="M213.9,214.2"/>
	<path class="st0" d="M213.9,214.2"/>
	<path class="st0" d="M213.9,214.2"/>
	<path class="st0" d="M213.9,214.2"/>
	<path class="st0" d="M213.9,214.2"/>
	<path class="st0" d="M213.9,214.2"/>
	<path class="st0" d="M213.9,214.2"/>
	<path class="st0" d="M213.9,214.2"/>
	<path class="st0" d="M213.9,214.2"/>
	<path class="st0" d="M213.9,214.2"/>
	<path class="st0" d="M213.9,214.2"/>
	<path class="st0" d="M213.9,214.2"/>
	<path class="st0" d="M213.9,214.2"/>
	<path class="st0" d="M213.9,214.2"/>
	<path class="st0" d="M213.9,214.2"/>
	<path class="st0" d="M213.9,214.2"/>
	<path class="st0" d="M213.9,214.2"/>
	<path class="st0" d="M213.9,214.2"/>
	<path class="st0" d="M213.9,214.2"/>
	<path class="st0" d="M213.9,214.2"/>
	<path class="st0" d="M213.9,214.2"/>
	<path class="st0" d="M213.9,214.2"/>
	<path class="st0" d="M213.9,214.2"/>
	<path class="st0" d="M213.9,214.2"/>
	<path class="st0" d="M213.9,214.2"/>
	<path class="st0" d="M213.9,214.2"/>
	<path class="st0" d="M213.9,214.2"/>
	<path class="st0" d="M213.9,214.2"/>
	<path class="st0" d="M213.9,214.2"/>
	<path class="st0" d="M213.9,214.2"/>
	<path class="st0" d="M213.9,214.2"/>
	<path class="st0" d="M213.9,214.2"/>
	<path class="st0" d="M213.9,214.2"/>
	<path class="st0" d="M213.9,214.2"/>
	<path class="st0" d="M213.9,214.2"/>
	<path class="st0" d="M213.9,214.2"/>
	<path class="st0" d="M213.9,214.2"/>
	<path class="st0" d="M213.9,214.2"/>
	<path class="st0" d="M213.9,214.2"/>
	<path class="st0" d="M213.9,214.2"/>
	<path class="st0" d="M213.9,214.2"/>
	<path class="st0" d="M213.9,214.2"/>
	<path class="st0" d="M213.9,214.2"/>
	<path class="st0" d="M213.9,214.2"/>
	<path class="st0" d="M213.9,214.2"/>
	<path class="st0" d="M213.9,214.2"/>
	<path class="st0" d="M213.9,214.2"/>
	<path class="st0" d="M213.9,214.2"/>
	<path class="st0" d="M213.9,214.2"/>
	<path class="st0" d="M213.9,214.2"/>
	<path class="st0" d="M213.9,214.2"/>
	<path class="st0" d="M213.9,214.2"/>
	<path class="st0" d="M213.9,214.2"/>
	<path class="st0" d="M213.9,214.2"/>
	<path class="st0" d="M213.9,214.2"/>
	<path class="st0" d="M213.9,214.2"/>
	<path class="st0" d="M213.9,214.2"/>
	<path class="st0" d="M213.9,214.2"/>
	<path class="st0" d="M213.9,214.2"/>
	<path class="st0" d="M213.9,214.2"/>
	<path class="st0" d="M213.9,214.2"/>
	<path class="st0" d="M213.9,214.2"/>
	<path class="st0" d="M213.9,214.2"/>
	<path class="st0" d="M213.9,214.2"/>
	<path class="st0" d="M213.9,214.2"/>
	<path class="st0" d="M213.9,214.2"/>
	<path class="st0" d="M213.9,214.2"/>
	<path class="st0" d="M213.9,214.2"/>
	<path class="st0" d="M213.9,214.2"/>
	<path class="st0" d="M213.9,214.2"/>
	<path class="st0" d="M213.9,214.2"/>
	<path class="st0" d="M213.9,214.2"/>
	<path class="st0" d="M213.9,214.2"/>
	<path class="st0" d="M213.9,214.2"/>
	<path class="st0" d="M213.9,214.2"/>
	<path class="st0" d="M213.9,214.2"/>
	<path class="st0" d="M213.9,214.2"/>
	<path class="st0" d="M213.9,214.2"/>
	<path class="st0" d="M213.9,214.2"/>
	<path class="st0" d="M213.9,214.2"/>
	<path class="st0" d="M213.9,214.2"/>
	<path class="st0" d="M213.9,214.2"/>
	<path class="st0" d="M213.9,214.2"/>
	<path class="st0" d="M213.9,214.2"/>
	<path class="st0" d="M213.9,214.2"/>
	<path class="st0" d="M213.9,214.2"/>
	<path class="st0" d="M213.9,214.2"/>
	<path class="st0" d="M213.9,214.2"/>
	<path class="st0" d="M213.9,214.2"/>
	<path class="st0" d="M213.9,214.2"/>
	<path class="st0" d="M213.9,214.2"/>
	<path class="st0" d="M213.9,214.2"/>
	<path class="st0" d="M213.9,214.2"/>
	<path class="st0" d="M213.9,214.2"/>
	<path class="st0" d="M213.9,214.2"/>
	<path class="st0" d="M213.9,214.2"/>
	<path class="st0" d="M213.9,214.2"/>
	<path class="st0" d="M213.9,214.2"/>
	<path class="st0" d="M213.9,214.2"/>
	<path class="st0" d="M213.9,214.2"/>
	<path class="st0" d="M213.9,214.2"/>
	<path class="st0" d="M213.9,214.2"/>
	<path class="st0" d="M213.9,214.2"/>
	<path class="st0" d="M213.9,214.2"/>
	<path class="st0" d="M213.9,214.2"/>
	<path class="st0" d="M213.9,214.2"/>
	<path class="st0" d="M213.9,214.2"/>
	<path class="st0" d="M213.9,214.2"/>
</g>
</svg>
