<?xml version="1.0" encoding="utf-8"?>
<!-- Generator: Adobe Illustrator 19.2.1, SVG Export Plug-In . SVG Version: 6.00 Build 0)  -->
<svg version="1.1" id="レイヤー_1" xmlns="http://www.w3.org/2000/svg" xmlns:xlink="http://www.w3.org/1999/xlink" x="0px"
	 y="0px" viewBox="0 0 1413.1 311.2" style="enable-background:new 0 0 1413.1 311.2;" xml:space="preserve">
<style type="text/css">
	.st0{fill:#FCFCFC;}
</style>
<g>
	<path class="st0" d="M590,32.8h-26c-1.5,0-2.8-1.2-2.8-2.8V5.4c0-1.5,1.2-2.8,2.8-2.8h61.6c1.5,0,2.8,1.2,2.8,2.8v171.4
		c0,1.5-1.2,2.8-2.8,2.8h-30.1c-1.5,0-2.8-1.2-2.8-2.8V35.5C592.8,34,591.5,32.8,590,32.8z"/>
	<path class="st0" d="M1117.8,32.8h-26c-1.5,0-2.8-1.2-2.8-2.8V5.4c0-1.5,1.2-2.8,2.8-2.8h61.6c1.5,0,2.8,1.2,2.8,2.8v171.4
		c0,1.5-1.2,2.8-2.8,2.8h-30.1c-1.5,0-2.8-1.2-2.8-2.8V35.5C1120.5,34,1119.3,32.8,1117.8,32.8z"/>
	<path class="st0" d="M1296.4,5.4V30c0,1.5-1.2,2.8-2.8,2.8H1233c-1.3,0-2.5,1-2.7,2.3l-4.8,26.8c-0.5,2.9,1.2,4.3,3.9,3
		c4.8-2.4,11.5-4.5,22.6-4.5c39.9,0,59,33.2,59,59.3c0,28.9-22.2,63.3-65.7,63.3c-32.9,0-58.5-19.7-64.6-48.5
		c-0.4-1.8,0.9-3.3,2.8-3.3l30.6,0c1.1,0,2.2,0.8,2.5,1.8c4.4,11.2,15.8,18.7,27.8,18.7c16.7,0,31.1-14.1,31.1-31.1
		c0-16.3-12.4-31.1-31.3-31.1c-8,0-18.6,2.6-26.4,15c-0.6,0.9-1.9,1.5-3,1.3l-24.5-6.1c-1.4-0.3-2.3-1.7-2.1-3.1L1202.8,5
		c0.2-1.3,1.4-2.3,2.7-2.3h88.1C1295.1,2.6,1296.4,3.9,1296.4,5.4z"/>
	<g>
		<g>
			<path class="st0" d="M693.6,179.4l-3.7-9.9c1.3,0.2,3,0.4,6,0.4c2.2,0,2.8-0.6,2.8-2.3v-12.5h-22.7c-2.5,10.7-5.8,16.6-14.5,23.3
				l-7.5-6.2c5.4-4.3,14-11.2,14-28v-28.2h39.4v55.7C707.4,178.8,701.3,179.4,693.6,179.4z M698.6,139.4h-21.5
				c0,4.2-0.1,6.2-0.3,7.9h21.8V139.4z M698.6,124h-21.5v7.9h21.5V124z"/>
		</g>
	</g>
	<g>
		<g>
			<path class="st0" d="M522.6,164.5v14.9H513v-14.9h-32.2v-8h10.9v-18H513v-9.1h-17.4c-4.3,6.9-6.6,9.4-8.5,11.3l-8.2-4.3
				c7-7.1,11.9-15.3,14.7-23l9.3,3.5c0.4,0.2,0.5,0.5,0.5,0.7c0,0.2-0.2,0.5-0.4,0.7c-0.2,0.1-1.4,0.4-1.6,0.6
				c-0.2,0-1.5,2.6-1.7,2.9h41.8v7.6h-19.5v9.1h13.1v7.8h-13.1v10.2h23.1v8H522.6z M513,146.3h-12.2v10.2H513V146.3z"/>
		</g>
	</g>
	<g>
		<g>
			<path class="st0" d="M991.3,181.6c-3.6-4.4-11.4-13.8-11.4-29.5c0-15.8,7.7-25.2,11.4-29.5l4.7,4.1c-3.2,3.9-9.6,11.9-9.6,25.4
				c0,13.5,6.5,21.5,9.6,25.4L991.3,181.6z"/>
			<path class="st0" d="M1001,176.5v-6.7h22.6v-20.5h-18.2v-7h18.2v-16.5l7.2,0.8c0.9,0.1,1.5,0.4,1.5,1c0,0.2-0.1,0.4-0.7,0.8
				c-0.5,0.3-0.8,0.5-0.8,0.7v13.2h18.8v7h-18.8v20.5h22.7v6.7H1001z"/>
			<path class="st0" d="M1063.7,181.6l-4.7-4.1c3.2-3.9,9.6-11.9,9.6-25.4c0-13.5-6.5-21.5-9.6-25.4l4.7-4.1
				c3.6,4.4,11.4,13.8,11.4,29.5C1075,167.8,1067.3,177.2,1063.7,181.6z"/>
		</g>
	</g>
	<g>
		<g>
			<path class="st0" d="M1338.1,181.6c-3.6-4.4-11.4-13.8-11.4-29.5c0-15.8,7.7-25.2,11.4-29.5l4.7,4.1c-3.2,3.9-9.6,11.9-9.6,25.4
				c0,13.5,6.5,21.5,9.6,25.4L1338.1,181.6z"/>
			<path class="st0" d="M1382.1,176.4v-3.2h-23.4v3.5h-7.3v-47.9h37.9v47.6H1382.1z M1382.1,135.6h-23.4v11.7h23.4V135.6z
				 M1382.1,153.8h-23.4v12.7h23.4V153.8z"/>
			<path class="st0" d="M1401.8,181.6l-4.7-4.1c3.2-3.9,9.6-11.9,9.6-25.4c0-13.5-6.5-21.5-9.6-25.4l4.7-4.1
				c3.6,4.4,11.4,13.8,11.4,29.5C1413.1,167.8,1405.4,177.2,1401.8,181.6z"/>
		</g>
	</g>
	<g>
		<path class="st0" d="M760.6,32.8h-26.1c-1.5,0-2.8-1.2-2.8-2.8V5.4c0-1.5,1.2-2.8,2.8-2.8h61.7c1.5,0,2.8,1.2,2.8,2.8v171.4
			c0,1.5-1.2,2.8-2.8,2.8h-30.1c-1.5,0-2.8-1.2-2.8-2.8V35.5C763.3,34,762.1,32.8,760.6,32.8z"/>
		<path class="st0" d="M901.8,147.5h-76.3c-1.5,0-2.8-1.2-2.8-2.8v-21.1c0-1.2,0.6-3,1.2-4L904,3.8c0.5-0.7,1.4-1.2,2.3-1.2H936
			c1.5,0,2.8,1.2,2.8,2.8v111.4c0,1.5,1.2,2.8,2.8,2.8h13.6c1.5,0,2.8,1.2,2.8,2.8v22.5c0,1.5-1.2,2.8-2.8,2.8h-13.6
			c-1.5,0-2.8,1.2-2.8,2.8v26.5c0,1.5-1.2,2.8-2.8,2.8h-28.7c-1.5,0-2.8-1.2-2.8-2.8v-26.5C904.6,148.8,903.3,147.5,901.8,147.5z
			 M906.7,116.8V55.2c0-2.7-3.6-3.8-5.1-1.5l-40,61.6c-1.2,1.8,0.1,4.3,2.3,4.3h40C905.5,119.6,906.7,118.3,906.7,116.8z"/>
	</g>
	<g>
		<path class="st0" d="M0.6,152.4c0-0.7,0.4-1.6,0.9-2c16.8-15.1,33.6-30.1,50.3-45.2c17.6-15.4,31.6-27.5,31.8-47.7
			c0-17.3-10.9-26.3-25.4-26.3c-16.2,0-23.5,14-24.4,30.8c-0.1,1.4-1.3,2.6-2.7,2.6l-28.5,0c-1.6,0-2.8-1.3-2.7-2.9
			C0.7,49,3.2,35.6,12.2,23.5C26,3.8,48.8,0,61.3,0C98.1,0,119,25.4,119,54.3c-0.2,20.4-7.6,34.9-28.2,54.6
			c-12.2,11.7-24.5,23.5-36.9,35.4c-2.7,2.6-1.8,4.7,1.9,4.7h61.4c1.5,0,2.7,1.2,2.7,2.7v24.4c0,1.5-1.2,2.7-2.7,2.7H3.3
			c-1.5,0-2.7-1.2-2.7-2.7V152.4z"/>
		<path class="st0" d="M143.9,64.5c0-50.8,41.5-64.5,63.4-64.5c24.7,0,62.9,16.6,62.9,64.1v54.1c0,47.9-38,64.1-62.4,64.1
			c-24.7,0-63.8-16.1-63.8-64.1V64.5z M179.3,119.1c0,15.9,8.5,32,27.8,32c19.7,0,27.8-18.5,27.8-32v-56c0-10-3.8-32-28-32
			c-19.7,0-27.5,16.8-27.5,32.3V119.1z"/>
		<path class="st0" d="M318,33.2h-25.9c-1.5,0-2.7-1.2-2.7-2.7V6.1c0-1.5,1.2-2.7,2.7-2.7h61.2c1.5,0,2.7,1.2,2.7,2.7v170.1
			c0,1.5-1.2,2.7-2.7,2.7h-29.9c-1.5,0-2.7-1.2-2.7-2.7V36C320.7,34.4,319.5,33.2,318,33.2z"/>
		<path class="st0" d="M493.9,6.1v24c0,0.3-0.1,0.8-0.2,1.1l-64.8,146.1c-0.4,0.9-1.5,1.6-2.5,1.6h-32.8c-2.4,0-3.5-1.8-2.5-3.9
			l64.5-137.9c1-2.1-0.1-3.9-2.5-3.9h-65.3c-1.5,0-2.7-1.2-2.7-2.7V6.1c0-1.5,1.2-2.7,2.7-2.7h103.4C492.7,3.3,493.9,4.5,493.9,6.1z
			"/>
	</g>
</g>
<g>
	<g>
		<g>
			<path class="st0" d="M0,309.2v-3.8h13.2v-7.4H3.7v-3.7h9.5v-6.2H0.8v-3.8H15c-1.6-1.7-3.8-3.4-4.9-4.1l2.5-3.1
				c1.7,1.1,4.5,3.1,6.4,5.1l-1.7,2H30v3.8H17.6v6.2h9.6v3.7h-9.6v7.4h13.2v3.8H0z"/>
			<path class="st0" d="M52.7,308.8v0.8h-4v-13.2c-0.6,0.7-0.7,0.7-1,1.1l-2-1.9v14h-4v-18.3c-0.4,0.5-0.8,1.1-1.8,2.2l-3.6-2.8
				c4-4.1,5.9-7.6,7.3-12.8l3.3,1.1c1,0.3,1.2,0.4,1.5,0.7v-0.7l3.2,0.2c1.2,0.1,1.5,0.1,1.5,0.5c0,0.2-0.2,0.4-0.4,0.4
				c-0.3,0.3-0.4,0.3-0.4,0.5v3.3h3.9v-6.1l3.2,0.2c0.5,0,1.5,0.1,1.5,0.5c0,0.1-0.1,0.3-0.3,0.3c-0.5,0.3-0.6,0.4-0.6,0.6v4.5h4.1
				v-5l3.3,0.2c0.5,0,1.4,0.1,1.4,0.5c0,0.2-0.1,0.3-0.4,0.5c-0.3,0.3-0.4,0.3-0.4,0.5v6.5h-8.4l2,0.9c0.6,0.3,0.8,0.5,0.8,0.7
				c0,0.3-0.2,0.3-0.5,0.4c-0.4,0-0.5,0.1-0.6,0.2c-0.3,0.3-0.6,1-0.9,1.4h9.2v3.2h-8.6v1.9h6.4v2.9h-6.4v1.9h6.4v2.9h-6.4v2.1h8.6
				v3.2H52.7z M48.5,287.2v-6.7c-0.1,0.1-0.1,0.1-0.4,0.2c-0.3,0.1-0.4,0.2-0.5,0.4c-0.7,1.7-1,2.4-1.9,3.8c0.5,0.2,1,0.5,1,0.9
				c0,0.3-0.2,0.4-0.4,0.6c-0.4,0.3-0.5,0.4-0.5,0.6v6.9c3-2.9,4-4.7,5-6.7H48.5z M57.2,293.9h-4.5v1.9h4.5V293.9z M57.2,298.8h-4.5
				v1.9h4.5V298.8z M57.2,303.6h-4.5v2.1h4.5V303.6z M53.4,287.2l1.4,0.8c0.1,0.1,0.6,0.3,0.6,0.7c0,0.1-0.1,0.3-0.2,0.3
				c-0.1,0.1-0.9,0.3-1,0.3c-0.3,0.1-0.9,1.2-1.1,1.4h3.1c0.4-0.6,1.2-1.5,2.3-3.6H53.4z"/>
			<path class="st0" d="M84.9,311.2l-2.9-1.4l7.3-16l-7.3-16l2.9-1.4l7.9,17.4L84.9,311.2z M89.9,311.2l-2.9-1.4l7.4-16l-7.4-16
				l2.9-1.4l7.9,17.4L89.9,311.2z"/>
			<path class="st0" d="M137.7,308.9c-4.5-2.3-7.1-4.1-10.5-7.8v8.5h-4.4v-8.6c-1.9,2.1-4.8,5.2-10.7,8.1l-3.2-2.9
				c4-1.4,6.7-3,11-7.5h-6.7v-12.1h9.6v-1.9h-13.4v-3.5h13.4v-3l4.4,0.3c0.4,0,0.5,0.2,0.5,0.4c0,0.1-0.1,0.3-0.2,0.3
				c-0.3,0.3-0.4,0.3-0.4,0.5v1.5h13.4v3.5h-13.4v1.9h9.7v12.1h-7.1c2.4,2.5,4.9,4.3,10.8,7.1L137.7,308.9z M122.8,289.3h-5.4v1.7
				h5.4V289.3z M122.8,293.9h-5.4v1.8h5.4V293.9z M132.6,289.3h-5.5v1.7h5.5V289.3z M132.6,293.9h-5.5v1.8h5.5V293.9z"/>
			<path class="st0" d="M147.7,284.7v-3.4h13.6v-3.2l5,0.6c0.2,0,0.5,0.1,0.5,0.4c0,0.1-0.1,0.2-0.3,0.3c-0.4,0.3-0.7,0.4-0.7,0.5
				v1.4h13.3v3.4H147.7z M159.1,301.1c-0.5,0.1-0.5,0.1-0.6,0.3c-3,3.7-3.6,4.6-6.3,7l-3.9-2.2c3.5-2.9,5.4-5.5,7.1-8.2l3.9,2.5
				c0.1,0.1,0.2,0.3,0.2,0.4C159.5,300.9,159.3,301,159.1,301.1z M165.5,297.2v8.6c0,1.2-0.3,2.7-1.6,3.1c-0.8,0.3-2.3,0.5-4.7,0.6
				l-1.8-4.2c0.9,0.1,1.5,0.2,2.3,0.2c1,0,1.3-0.4,1.3-1.1v-7.3H152v-10.4h23v10.4H165.5z M170.5,290.2h-14.1v3.7h14.1V290.2z
				 M174.2,308.4c-1.9-3-4.1-5.3-6.8-7.5l2.9-3c2.9,2.4,5.1,4.8,7.4,7.7L174.2,308.4z"/>
			<path class="st0" d="M217.5,298.9c-0.5,0.9-1,1-1.5,1c-0.7,0-2.9-0.4-4.2-4.4l-1.5,2.7c-0.7-0.7-1.5-1.2-2.2-1.6
				c-0.7,0.9-1.2,1.5-2.2,2h5.6v2.6H192v-1.3c-1.4,0.1-2.4,0.1-3.7,0.2c-0.1,0-0.3,0-0.5,0.2c-0.3,0.3-0.3,0.3-0.4,0.3
				c-0.3,0-0.4-0.2-0.5-0.8l-0.3-2.6c2.3,0,4.9-0.1,6.7-0.3v-1h-3.6v-1.3c-0.5,0.3-0.7,0.4-1.9,0.9L186,293c1-0.2,2.3-0.8,3.3-2.2
				h-3.2v-2.3h6.7v-0.9H188v-2.3h4.7V284h1.7v-1.3h-8.3v-3.1h8.3v-1.9l4.1,0.3c0.5,0,1,0.1,1,0.5c0,0.2,0,0.2-0.4,0.5
				c-0.1,0.1-0.1,0.1-0.1,0.5h6.1v-1.8l4.3,0.1c0.7,0,0.9,0.2,0.9,0.4c0,0.2-0.1,0.3-0.4,0.4c-0.4,0.2-0.4,0.2-0.4,0.7h8.1v3.1h-8.1
				v2l1.3,0.2c0.6,0.1,0.9,0.1,0.9,0.5c0,0.1-0.1,0.3-0.3,0.5c-0.3,0.2-0.3,0.3-0.4,1.4h4.5c-0.3,1.4-0.6,3.1-0.6,4.6
				c0,0.8,0.1,2.7,0.6,2.7c0.3,0,0.6-0.7,0.8-1.6l2.6,2.2C218.5,297.1,217.7,298.4,217.5,298.9z M212.7,305.1
				c1.3,0.8,2.5,1.6,3.6,2.6l-2.3,2.6c-1-1-2.4-1.9-3.3-2.5c-1.9,0.3-10.2,1.3-20.9,1.9c-0.5,0-0.7,0-1,0.3
				c-0.3,0.3-0.3,0.4-0.5,0.4c-0.3,0-0.3-0.2-0.4-0.7l-0.5-3c2.1,0,6.8-0.2,8.9-0.3c0.4-0.6,0.6-1.1,0.8-1.4h-10.9v-2.7h31.6v2.7
				H212.7z M196.2,290.8H191l1.6,0.9c0.1,0.1,0.4,0.2,0.4,0.4c0,0.2-0.4,0.3-0.8,0.3c-0.2,0.2-0.4,0.5-0.6,0.7h1.8V292l2.8,0.2
				V290.8z M205,284.9v-2.1h-6.1v1.5l-2.2,0v0.9h4.4v2.3h-4.4v0.9h5.7v2.3h-3v1.2c0,0.2,0,0.6,0.5,0.6c0.4,0,0.7-0.3,0.8-1.1
				l2.5,1.2c-0.1,1.8-1,2.4-2.3,2.4h-1.3v1h-2.3v0.7c1.6-0.1,2.6-0.2,3.6-0.3l-1,2.2h3.3l-2.1-1.5c1.8-0.5,2.9-1,4.1-2.3
				c-0.6-0.3-1.2-0.6-1.9-0.9l1.8-2.7c0.6,0.3,0.9,0.4,1.7,0.7c0.3-0.7,0.3-0.7,0.5-1.7h-2.9v-3h3.2c0-0.5,0-1.8,0-2.4H205z
				 M205.8,305.1h-4.7c-0.3,0.8-0.3,0.8-0.5,1.2c4-0.2,4.8-0.3,6.7-0.5C207.1,305.7,206.1,305.2,205.8,305.1z M210.6,290.3
				c-0.3,1.7-0.5,2.4-0.9,3.2c1.1,0.5,1.4,0.8,1.8,1c0-0.1-0.1-0.9-0.1-1.5c0-0.7,0.1-1.4,0.2-2.6H210.6z"/>
			<path class="st0" d="M254.3,291v14.3c0,3.3-1,4.3-4.2,4.3h-2.3l-1.3-3.9c0.6,0,2.7,0,3,0c0.4,0,0.7-0.1,0.7-1.1V291h-4.3v-2.3
				H242v21h-3.9v-21h-4.6V288c-0.3,0.4-0.5,1-1.6,2.5c0.2,0.1,0.7,0.3,0.7,0.7c0,0.2-0.1,0.3-0.3,0.4c-0.5,0.4-0.5,0.5-0.5,0.8v9.9
				c1.1-3.6,1.5-6.4,1.6-10.9l3.7,0.5c0.4,0,0.7,0.3,0.7,0.5c0,0.3-0.5,0.5-0.7,0.6c-0.2,3.9-0.8,8.5-1.7,10.7l-3.7-0.8v6.8h-4.1
				v-13.9c-0.6,0.6-0.6,0.7-1.2,1.3l-3.3-2.5c3-2.7,5.5-6.1,7.3-9.7l3,1.5v-1.6h4.6v-6.8l3.8,0.2c0.4,0,0.8,0.2,0.8,0.5
				c0,0.1,0,0.3-0.3,0.4c-0.3,0.3-0.5,0.4-0.5,0.7v5h4.1v2.6h10.1v3.7H254.3z M233.3,281.3c-0.4,0-0.5,0-0.8,0.3
				c-2.2,2.2-3.8,3.5-5.8,4.9l-3-2.9c2.4-1.6,4.7-3.3,6.6-5.5l2.7,2.1c0.5,0.4,0.6,0.5,0.6,0.7C233.8,281.2,233.5,281.3,233.3,281.3
				z M243.5,284.1c-0.5-2.4-0.9-3.4-1.2-3.9l2.7-0.8c0.7,1.4,1.1,2.5,1.5,4L243.5,284.1z M243.9,303.1c0-2.5-0.1-6.1-0.9-11.3
				l3.5-0.4c0.6,3.7,0.9,6.9,1,10.9L243.9,303.1z M247,283v-3.6h8.9v3.6H247z"/>
			<path class="st0" d="M291.3,309.8c-7.4-4.5-10-7.8-12.5-13.6c-3.4,7.1-6.8,10.7-13.2,13.8l-3.6-3.2c8.5-3.4,11.8-8.3,13.7-16H263
				v-4h13.1c0.1-1.6,0.1-3.5,0.1-4c0-2.1-0.1-3.7-0.1-4.9l4.9,0.3c0.3,0,0.6,0,0.6,0.4c0,0.3-0.4,0.6-0.7,0.9
				c-0.1,0.8-0.1,0.3-0.1,2.1c0,0.3-0.1,3.4-0.1,5.2h13.8v4h-13.4c2.2,7,5.1,11.1,14,15.4L291.3,309.8z"/>
			<path class="st0" d="M328,293.6v-4.4h-21.7v4.6h-4v-8h18.2c1.8-2.1,3.4-4.4,4.5-6.9l3.6,1.2c0.2,0.1,0.6,0.3,0.6,0.6
				c0,0.1-0.1,0.2-0.1,0.2c-0.1,0.1-0.9,0.3-1.1,0.4c-0.8,1.4-1.5,2.6-2.9,4.4h6.9v7.8H328z M319.5,301.4v5.5c0,2.6-2.1,3.2-4.4,3.2
				h-2.3l-1.6-3.9c0.4,0,2.5,0.2,2.9,0.2c0.6,0,0.9-0.6,0.9-1.1v-4h-12.6v-3.6H315v-2.3l1.8,0.3c0.8-0.7,1.1-1.1,1.4-1.5h-9.8v-3.4
				h16.6l1,1.6c-1.6,1.5-4.5,3.9-6.5,5.3h12.4v3.6H319.5z M308,285.5c-0.9-1.8-1.7-3.1-3.1-4.9l3.4-2c1.2,1.4,2.3,2.8,3.3,4.7
				L308,285.5z M316.3,284.7c-0.9-1.9-1.9-3.4-3.4-5.3l3.3-2c1.7,2,2.7,3.7,3.6,5.4L316.3,284.7z"/>
			<path class="st0" d="M368.2,309.8c-7.4-4.5-10-7.8-12.5-13.6c-3.4,7.1-6.8,10.7-13.2,13.8l-3.6-3.2c8.5-3.4,11.8-8.3,13.7-16
				h-12.7v-4H353c0.1-1.6,0.1-3.5,0.1-4c0-2.1-0.1-3.7-0.1-4.9l4.9,0.3c0.3,0,0.6,0,0.6,0.4c0,0.3-0.4,0.6-0.7,0.9
				c-0.1,0.8-0.1,0.3-0.1,2.1c0,0.3-0.1,3.4-0.1,5.2h13.8v4h-13.4c2.2,7,5.1,11.1,14,15.4L368.2,309.8z"/>
			<path class="st0" d="M404.9,293.6v-4.4h-21.7v4.6h-4v-8h18.2c1.8-2.1,3.4-4.4,4.5-6.9l3.6,1.2c0.2,0.1,0.6,0.3,0.6,0.6
				c0,0.1-0.1,0.2-0.1,0.2c-0.1,0.1-0.9,0.3-1.1,0.4c-0.8,1.4-1.5,2.6-2.9,4.4h6.9v7.8H404.9z M396.3,301.4v5.5
				c0,2.6-2.1,3.2-4.4,3.2h-2.3l-1.6-3.9c0.4,0,2.5,0.2,2.9,0.2c0.6,0,0.9-0.6,0.9-1.1v-4h-12.6v-3.6h12.6v-2.3l1.8,0.3
				c0.8-0.7,1.1-1.1,1.4-1.5h-9.8v-3.4h16.6l1,1.6c-1.6,1.5-4.5,3.9-6.5,5.3h12.4v3.6H396.3z M384.8,285.5c-0.9-1.8-1.7-3.1-3.1-4.9
				l3.4-2c1.2,1.4,2.3,2.8,3.3,4.7L384.8,285.5z M393.1,284.7c-0.9-1.9-1.9-3.4-3.4-5.3l3.3-2c1.7,2,2.7,3.7,3.6,5.4L393.1,284.7z"
				/>
			<path class="st0" d="M443.9,289.3v-4h-12v4H428v-6.3l-3.1,6.7c1.2,1.5,3.3,4.1,3.3,8.5c0,4.6-3.8,5.5-6,6l-1.3-2.9v8.3H417V279
				h10.2l1.7,2l-0.4,0.8h6.5v-3.8l4.6,0.3c0.3,0,0.8,0.1,0.8,0.4c0,0.4-0.4,0.5-0.8,0.9v2.3h8v7.5H443.9z M421.1,290.4l2.7-7.7h-2.9
				v17c0.1,0,0.8,0.1,1.2,0.1c1.5,0,2.4-0.8,2.4-2.5C424.5,293.8,422.1,291.5,421.1,290.4z M444.7,309.6h-4.5
				c-1.6,0-2.2-1.2-2.2-2.5v-10.3h-4.7l2.9,1c0.3,0.1,0.9,0.3,0.9,0.8c0,0.2-0.1,0.4-0.9,0.8c-0.5,5.4-2.4,8.3-8.6,10.5l-3.3-3.4
				c1.5-0.3,5-1,6.5-3c1.4-1.8,1.5-5.5,1.5-6.6h-4.1v-3.6H448v3.6h-6v7.7c0,0.6,0.2,0.8,0.7,0.8h0.7c1,0,1-2,1-3.5l3.9,1.9
				C447.9,307.1,447.3,309.6,444.7,309.6z M432.9,290.9v-3.5h9.7v3.5H432.9z"/>
			<path class="st0" d="M459.1,302.1v3.4h-3.5v-24.7h9.5v21.3H459.1z M461.6,284.7h-2.5v4.9h2.5V284.7z M461.6,293.4h-2.5v4.9h2.5
				V293.4z M483.8,310c-3.5-2.2-6.6-5.1-8.5-8.7c-0.5,0.9-1.7,3-4.1,5.1c-2.4,2.2-4.7,3.1-5.6,3.6l-2.9-3.2c1.6-0.5,4.1-1.3,6.7-3.8
				c2.3-2.3,2.9-4.5,3.3-5.7h-6.6v-3.7h1.4v-9.7h6.1v-5.7l4.5,0.2c0.3,0,0.5,0.1,0.5,0.4c0,0.3-0.2,0.4-0.3,0.5
				c-0.5,0.5-0.6,0.6-0.6,0.8v3.7h6.7v9.7h2v3.7h-9c1.8,4.2,4.5,7,9.8,9.5L483.8,310z M473.6,287.7h-2.5v5.9h2.3
				c0.1-0.7,0.2-1.6,0.2-3.3V287.7z M480.5,287.7h-2.7c0,0.8,0,3.7-0.2,5.9h2.9V287.7z"/>
			<path class="st0" d="M525,296.7c0.4,0.4,0.5,0.5,0.5,0.7c0,0.4-0.1,0.4-1.5,0.4c-0.2,0-1.1,0.7-1.4,0.9c-0.2,0.1-0.8,0.6-1.5,1.1
				c2.2,3.6,4.6,5.1,5.6,5.6l-3,2.6c-4.8-3.6-7.7-9.1-8.4-15c-0.5,0.5-1,0.9-2.2,1.8c3.5,3.2,4,7.4,4,9.3c0,4.6-1.8,5.6-5.7,5.7
				l-1.6-3.3c2.6,0.1,3.9-0.1,3.8-3c-3.4,2.6-6.4,4.3-8.9,5.5l-2.1-2.6c5.2-1.9,8.4-4.3,10.3-6.1c-0.2-0.4-0.4-0.8-0.5-1
				c-2.3,2-4.1,3.3-8.5,5.4l-2.4-2.4c1.6-0.6,5.7-2,9.4-5.1c-0.3-0.3-0.3-0.4-0.5-0.5c-3.2,1.9-4.8,2.7-6.4,3.4l-2.7-2.6
				c3-0.8,5.8-1.9,8.9-4.4h-5.7v-5.3c0,0-0.5,0.4-0.7,0.6l-2.2-1.9c0,0.3-0.1,0.4-0.5,0.7c-0.1,0.1-0.4,0.3-0.4,0.6v22.1h-4.1v-17.6
				c-0.8,1.1-1.1,1.5-1.6,2.1l-3.2-2.4c2.6-3,5.6-7.2,6.8-13.6l3.6,0.5c1.1,0.2,1.4,0.4,1.4,0.7c0,0.2-0.1,0.3-0.3,0.5
				c-0.2,0.1-0.8,0.6-0.8,0.6c-0.2,0.2-1.6,4.1-1.9,4.8c0.3,0.1,0.4,0.2,0.7,0.4c2.8-2.4,4.5-4.4,6.6-8.1l3.2,0.3
				c1,0.1,1.1,0.3,1.1,0.5c0,0.4-0.5,0.6-0.8,0.8l-0.1,0.3h8.5l1.3,1c-1.3,1.9-1.6,2.3-3.2,4.1h6.8v8.2h-5.6c0.1,1.5,0.4,2.6,0.9,4
				c1.7-1.3,2.2-2,2.6-2.5L525,296.7z M509.1,282.6c-0.7,0.9-0.9,1.2-1.7,2.1h5.6c0.2-0.3,1.3-1.8,1.5-2.1H509.1z M512.2,290.2v-2.7
				h-3.9v2.7H512.2z M516.3,290.2h4.2v-2.7h-4.2V290.2z"/>
			<path class="st0" d="M541.5,282.6c-0.5,3.1-1,4.9-1.8,7.4h6.4V305h-6.8v3.8h-3.7v-10.9c-0.8,1.1-1.4,1.7-2.2,2.5l-3.4-2.5
				c4.6-4.5,6.6-8.7,7.4-15.3h-5v-3.7h14.4v3.7H541.5z M542.7,293.6h-3.4v7.9h3.4V293.6z M560.5,293.9v15.6h-3.9v-15.6h-2.9
				c-0.2,3.1-0.4,6.3-1.7,9.8c-1.2,3.3-2.8,4.8-4.3,6.2l-3.5-2.4c1.6-1.3,2.8-2.3,3.9-4.4c1.6-3,1.8-6.3,1.9-9.3H547v-3.6h2.9v-7.7
				h-1.8V279h14.9v3.5h-2.6v7.7h3v3.6H560.5z M556.6,282.5h-2.6v7.7h2.6V282.5z"/>
			<path class="st0" d="M597.8,309.4H593c-1.8,0-3.4-0.7-3.4-2.7c0-0.7,0.8-7.7,0.9-8.6l-4.3,0.1c-1.5,5.4-6.1,9.8-13.4,11.5
				l-3.2-4.1c7.3-0.8,11.3-4.2,12.2-7.3l-9.4,0.3v-4l10.2-0.3c0-0.6,0.1-1.7,0.1-3.8l4.1,0.2v-1.2v-5.8h-5.2l3,1.4
				c0.3,0.1,0.4,0.3,0.4,0.4c0,0.1-0.1,0.3-0.2,0.4c-0.1,0.1-0.8,0.3-0.9,0.4c-2.2,3.9-4.5,5.7-8.7,7.1l-2.6-3.3
				c1.6-0.4,3.6-0.8,5.6-2.7c1.6-1.5,1.9-2.7,2.3-3.7h-5.1v4.2h-4v-7.9h12.7V278l4.9,0.3c0.1,0,0.7,0,0.7,0.4c0,0.1,0,0.2-0.1,0.3
				c-0.1,0.1-0.7,0.4-0.7,0.5v0.6h12.7v7.6h-2.6c-1,4.1-2,4.7-4.5,4.7h-5.8c-0.4,0-0.9-0.1-1.4-0.4c-0.1,0.9-0.1,1.4-0.2,2.2
				l8.3-0.3c-0.7,5.1-1.2,9.7-1.2,9.9c0,1.2,0.9,1.3,1.1,1.3h1.7c1.2,0,1.4-1,1.7-3.4l3.9,1.6C601.8,307.4,601,309.4,597.8,309.4z
				 M597.3,283.8h-6.6v4c0,0.5,0.3,0.9,1,0.9h1.7c0.9,0,1.1-0.8,1.6-2.4l2.3,0.7V283.8z"/>
			<path class="st0" d="M637.4,299.9v9.6h-4.1v-8.7l-11.1,2.2l-0.8-3.5c-1.2-0.8-1.8-1.4-2.6-2.2v12.3h-4.2v-9.1
				c-0.7,1.2-1.4,2.5-2.3,3.5l-3.4-2.3c3.2-4.5,4.2-7,5.2-10.5h-5.1v-3.8h5.6v-3.1c-1.9,0.4-3.1,0.6-4.6,0.7l-1.6-3.6
				c1.4,0.1,7.2-0.1,12.4-3l2.6,2.8c0.1,0.1,0.3,0.4,0.3,0.7c0,0.3-0.3,0.3-0.4,0.3c-0.1,0-0.8-0.1-1-0.1c-0.3,0-0.4,0-0.7,0.2
				c-0.5,0.2-1.5,0.6-2.8,1v4.2h4.8v3.8h-4.8v0.4c1.9,2.7,3.6,3.8,5.3,4.7l-2.3,2.8l11.4-2.3V278l3.9,0.3c0.5,0,0.9,0.1,0.9,0.6
				c0,0.2-0.1,0.3-0.2,0.4c-0.4,0.3-0.5,0.4-0.5,0.6v16.1l3.3-0.7l0.7,3.9L637.4,299.9z M628.8,295.8c-1.1-1.1-2.8-2.7-5.2-4
				l2.6-3.2c2.3,1.3,3.9,2.7,5.4,4.2L628.8,295.8z M629.7,288.3c-1-1-2.9-2.8-5.3-4.3l2.7-3.1c2,1.2,3.7,2.5,5.5,4.6L629.7,288.3z"
				/>
			<path class="st0" d="M683,289.8v1.9h7.1v11.9h-4.8c1.6,1.3,4.2,2.6,6.3,3.2l-2,2.7c-2.5-0.9-4.8-2.1-7.1-4.1l1.7-1.8h-5.9
				l1.3,1.3c0.3,0.3,0.5,0.5,0.5,0.8c0,0.3-0.3,0.3-0.7,0.3c-0.1,0-0.2,0-0.4,0.2c-1.9,1.7-4.8,3.2-5.9,3.7l-2.5-2.7
				c2.7-0.9,5.1-2.2,6.3-3.5h-4.3v-11.9h6.7v-1.9H671l0-2.6h-3v2c0,0.7,1.3,2.6,1.8,3.4c0.5,0.7,1.1,1.5,1.6,2.2l-2.2,2.6
				c-0.9-1.2-1.1-1.5-1.2-1.8v13.9h-3.6v-12.4c-0.5,1.1-1.3,2.4-2.2,3.4l-3.1-1.9c2.4-2.8,4.5-6.7,5.3-11.4h-3.8v-3.5h3.8v-5.5
				l3.4,0.3c0.3,0,0.8,0.1,0.8,0.3c0,0.1-0.1,0.2-0.3,0.4c-0.3,0.3-0.4,0.3-0.4,0.4v4h3v3.2h4.7v-2.7h-3.2v-2.8h3.2v-3.1l3.6,0.3
				c0.3,0,0.7,0.1,0.7,0.4c0,0.1-0.1,0.3-0.3,0.4c-0.3,0.2-0.3,0.2-0.3,0.3v1.8h3.4v-3.2l3.5,0.2c0.6,0,0.8,0.1,0.8,0.4
				c0,0.1-0.1,0.2-0.3,0.3c-0.1,0.1-0.3,0.2-0.3,0.3v2h4.7v2.8h-4.7v2.7h5.5v2.9H683z M679.2,294.3h-2.9v2.1h2.9V294.3z
				 M679.2,298.6h-2.9v2.3h2.9V298.6z M682.7,284.3h-3.4v2.7h3.4V284.3z M686.3,294.3H683v2.1h3.3V294.3z M686.3,298.6H683v2.3h3.3
				V298.6z"/>
			<path class="st0" d="M704.1,293.9c-1.1-0.7-2.5-1.7-6.3-3.1l2.1-3.6c2.2,0.8,4.2,1.9,6.1,3.3L704.1,293.9z M704.6,303.9
				c-0.3,0.7-2,3.9-2.1,4.2c0,0.1,0,0.6,0,0.7c0,0.1,0,0.4-0.3,0.4c-0.1,0-0.5-0.1-0.7-0.3l-3.6-2.1c2.3-3.1,4.2-6.7,5.9-10.9l3.3,2
				C706.4,299.9,705.6,301.9,704.6,303.9z M706.2,285.3c-2.1-1.6-4.3-2.7-5.9-3.4l2.2-3.4c1.9,0.8,4,2,5.9,3.4L706.2,285.3z
				 M714.3,299.7l3.2,2.7c0.2,0.2,0.4,0.4,0.4,0.7c0,0.5-0.7,0.4-1.2,0.4c-0.5,0.6-3.7,3.9-7,6l-3.8-2.9c1.4-0.6,2.8-1.3,4.7-2.9
				c2.1-1.8,2.7-3,3.4-4.1h-5.7v-4h2.6v-16c1.5,0.4,2.4,0.5,3.1,0.5c1.2,0,2.9-0.3,3.3-0.3c5.4-0.9,6.6-1.4,8.9-2.4l2.1,3.3
				c0.1,0.2,0.4,0.7,0.4,0.9c0,0.2-0.3,0.3-0.4,0.3c-0.1,0-0.8-0.1-1-0.1c-0.2,0-2.4,0.4-2.7,0.5c-1.5,0.3-6,0.9-9.3,1v2.8h14.3v3.8
				h-5.6v5.6h6.8v4H714.3z M719.6,290.1H715v5.6h4.6V290.1z M728.4,309.6c-4-2.4-6.7-5.2-8.4-7.4l3.2-2.4c2.2,2.9,5.2,5,8.5,6.7
				L728.4,309.6z"/>
			<path class="st0" d="M755.4,286.1v3.5h10.3v12.8c0,3.3-2.1,4.1-6.8,4.2l-1.6-4.1c0.7,0.1,1.3,0.1,2.1,0.1c1.6,0,1.9-0.3,1.9-1.4
				v-7.8h-5.9v17h-4.5v-17h-6.1v13.2h-4.4v-17.1h10.5v-3.5h-13.5v-3.9h13.5v-4.1l4.7,0.3c0.2,0,0.5,0.1,0.5,0.3c0,0.1,0,0.2-0.2,0.4
				c-0.4,0.4-0.5,0.5-0.5,0.6v2.4h13.4v3.9H755.4z"/>
			<path class="st0" d="M804.2,309.8c-4.9-1.4-8.1-3-12.5-6.6c-3.7,2.9-6.7,4.5-13.7,6.8l-3.3-3.5c1.9-0.4,4.1-0.9,7.6-2.4
				c3.6-1.6,4.9-2.7,6.3-3.9c-1.4-1.5-3.2-3.6-5.5-7.9c-1.3-2.5-1.8-4-2.5-5.9h-4.6v-3.8h13.1V278l4.4,0.3c0.2,0,0.9,0.1,0.9,0.5
				c0,0.2-0.2,0.3-0.4,0.4c-0.1,0.1-0.4,0.3-0.4,0.6v2.9h13v3.8h-5.1c-1.7,5.1-3.3,9.3-7,13.8c4.2,3.1,7.3,4.4,12.2,5.5L804.2,309.8
				z M785.2,286.4c2,5.4,3.8,8,6.3,10.9c3.1-3.8,4.5-8.1,5.3-10.9H785.2z"/>
			<path class="st0" d="M827.2,281.2c-0.7,0.3-0.7,0.3-0.8,0.5c-0.7,1.4-1,2-2.7,4.9c0.3,0.2,0.5,0.4,0.5,0.7c0,0.2,0,0.4-0.2,0.6
				c-0.4,0.5-0.5,0.6-0.5,0.9v20.7h-4.3v-16.7c-0.8,1.2-1.3,1.8-2.3,2.9l-3.6-2.5c5.1-5.5,7.6-10.5,9.5-15.2l3.9,2.1
				c0.3,0.1,0.7,0.4,0.7,0.7C827.5,281,827.3,281.1,827.2,281.2z M846.2,286c-0.1,0-0.9,0-1.1,0.1c-0.2,0.1-2.7,2.8-3.3,3.3
				c-2.6,2.4-5.4,4.7-8.3,6.7v6.9c0,1.5,0.3,2,1.6,2h5.1c1.4,0,1.8-0.9,2.2-3.9l3.7,2.6c-1,4.9-2.3,5.4-5.2,5.4h-7.9
				c-2.5,0-3.5-1-3.5-3.5v-27.5l3.9,0.3c0.5,0,1.2,0.1,1.2,0.5c0,0.2-0.3,0.4-0.4,0.5c-0.1,0.1-0.5,0.4-0.5,0.7v11
				c4-3.2,6.4-5.6,8.6-8.7l3.6,2.2c0.1,0.1,0.8,0.5,0.8,0.8C846.5,285.7,846.3,285.9,846.2,286z"/>
			<path class="st0" d="M881.7,309.7h-3c-1.1,0-2.6-0.3-2.6-2v-9.6h-2.7l1.5,0.4c0.2,0.1,0.6,0.2,0.6,0.5c0,0.2,0,0.2-0.6,0.8
				c-0.1,0.1-0.1,0.1-0.2,0.7c-1.5,6.9-4.6,8.9-5.8,9.7l-3.7-2c0.7-0.4,1.1-0.7,1.5-0.9h-8.1v2.3H855v-14.1l-3-2.5
				c2.2-1.2,3.5-2.4,5.1-4.8h-4.5v-3h3.3l-3.3-1.5c1.7-1.8,2.9-3.9,3.7-6.1l3.5,1c0.2,0,0.4,0.1,0.4,0.4c0,0.2-0.1,0.3-0.4,0.4
				c-0.3,0.1-0.4,0.2-0.6,0.7h9.5v3.1h-5.5c-0.3,1-0.3,1.2-0.6,2h6.3v3h-3.7l1.4,0.7c0.2,0.1,0.6,0.3,0.6,0.6c0,0.2-0.2,0.3-0.4,0.4
				c-0.4,0.1-0.4,0.2-0.6,0.5c-0.2,0.3-0.6,0.7-0.7,0.9h3.4v2.9h-4.1v1.7h3v2.4h-3v1.8h3.1v2.5h-3.1v2h4v0.9
				c1.9-2.4,2.5-6.5,2.6-7.2h-1.5v-19.2h14.7v19.2H880v6.7c0,0.5,0.3,0.8,0.7,0.8h0.5c0.5,0,1.1-0.2,1.1-2.2l3.2,1.3
				C885,309.7,883.3,309.7,881.7,309.7z M857.4,283.2c-0.4,0.7-0.8,1.3-1.3,2h2.4c0.4-1.1,0.5-1.6,0.6-2H857.4z M861.4,294.1h-2.9
				v1.7h2.9V294.1z M861.4,298.1h-2.9v1.8h2.9V298.1z M861.4,302.4h-2.9v2h2.9V302.4z M861.2,288.2c-0.7,1.3-1.4,2.2-2,3h2.5
				c0.9-1,1.4-1.9,1.9-3H861.2z M880.7,282.3h-7.3v1.9h7.3V282.3z M880.7,287.1h-7.3v2.1h7.3V287.1z M880.7,292.3h-7.3v2.2h7.3
				V292.3z"/>
			<path class="st0" d="M918,309.5h-7.4c-1.9,0-3-0.8-3-2.7v-13.1h-6.3l3.5,0.7c0.4,0.1,0.9,0.2,0.9,0.6c0,0.3-0.3,0.4-0.8,0.7
				c-0.3,5.6-2.2,10.7-10.5,14.6l-3.8-3.7c8.2-2.9,10-6.3,10-12.9h-9.4v-4.2h13.3v-11.3l4.5,0.1c0.3,0,1,0,1,0.5
				c0,0.1,0,0.3-0.3,0.5c-0.3,0.3-0.4,0.4-0.4,0.7v9.5h13.3v4.2H912v10.2c0,0.8,0.5,1.4,1.4,1.4h3.6c1.4,0,1.6-1.6,1.7-3.7l3.8,2.1
				C921.7,308,921.4,309.5,918,309.5z M898.2,289.3c-1.1-2.3-2.6-4.7-5.1-7.6l3.8-2.4c1.5,1.5,3,3.5,5.3,7.7L898.2,289.3z
				 M919,282.5c-0.7,0.1-0.8,0.3-1.1,0.7c-1.1,2.4-1.8,3.8-3.6,6.3l-4.3-2.2c1.3-1.9,2.8-4.4,4.4-7.9l4.3,1.7
				c0.3,0.1,0.8,0.4,0.8,0.8C919.6,282.2,919.5,282.3,919,282.5z"/>
			<path class="st0" d="M960.4,296.8c-0.1,3.2-0.1,4.9-0.6,7.5c-0.7,4.2-2.8,5-7.2,5.1l-1.9-3.9c1.7,0.1,3.1,0.1,3.2,0.1
				c0.8,0,1.9-0.1,2.2-3.3c0.2-1.4,0.2-4.6,0.2-8.7h-19.2c-0.2,2.1-0.6,5.1-1.8,9.6c-1,3.5-1.7,4.8-2.6,6.4l-4.1-1.5
				c1.1-1.8,1.9-3,2.7-5.7c1.9-5.9,1.9-10.8,1.9-13.9c0-3.2,0-6.4-0.2-9.6h25.2v9.4h-20.9v2.1h23.3
				C960.5,292,960.5,293.4,960.4,296.8z M953.3,282.3h-16.1v2.7h16.1V282.3z M942,304.5v1.7h-4v-10.3h14.8v8.6H942z M948.7,299H942
				v2.1h6.7V299z"/>
		</g>
	</g>
	<g>
		<g>
			<path class="st0" d="M1023,309.1h-15.2c-6.2,0-7.5-1.7-9-3.5c-1.4,1.4-3,2.7-3.4,3c-0.5,0.4-0.6,0.5-0.7,0.7
				c-0.1,0.6-0.1,0.7-0.3,0.7c-0.3,0-0.4-0.3-0.5-0.4l-2-3.6c1.7-0.7,3.1-1.4,4.9-2.3v-8.7h-4.1v-3.7h7.9v10.6c0,3.6,3.6,4,7.6,4
				c2.3,0,8.1-0.1,16.6-0.7L1023,309.1z M997.7,286c-1.2-1.9-2.3-3.2-4.4-4.7l2.7-2.2c1.8,1.4,3.1,2.7,4.5,4.7L997.7,286z
				 M1014.4,283.2v1.8h7.2v11.7h-7.2v1.9h9.2v3.2h-9.2v2.9h-3.9v-2.9h-8.3v-3.2h8.3v-1.9h-7V285h7v-1.8h-8.8v-2.8h8.8v-2.4l3.6,0.3
				c0.6,0,1,0.1,1,0.4c0,0.2-0.1,0.3-0.2,0.4c-0.3,0.2-0.4,0.3-0.4,0.4v0.9h9.3v2.8H1014.4z M1010.5,287.7h-3.2v1.8h3.2V287.7z
				 M1010.5,292.1h-3.2v1.9h3.2V292.1z M1017.8,287.7h-3.4v1.8h3.4V287.7z M1017.8,292.1h-3.4v1.9h3.4V292.1z"/>
			<path class="st0" d="M1043.8,296.1v-7c-0.2,0.3-0.7,1-1.2,1.4l-3.6-1.8c0.6-0.5,0.8-0.7,1.4-1.3h-2v4.4c1.1-0.4,2.6-0.8,3.3-1.1
				l0.1,3.6c-0.7,0.3-1.1,0.5-3.4,1.6v9.7c0,3.2-0.8,4-5.3,4l-2.3-4.5c1.3,0.1,1.8,0.2,2.4,0.2c0.8,0,1.1-0.3,1.1-1v-6.6
				c-1.9,0.8-2.2,0.9-2.3,1.1c-0.3,0.4-0.4,0.6-0.6,0.6c-0.4,0-0.4-0.6-0.4-0.9l-0.4-4.4c1.6-0.4,2.2-0.6,3.8-1.1v-5.7h-3.4v-4.1
				h3.4V278l4.2,0.3c0.6,0,0.8,0.2,0.8,0.4c0,0.3-0.3,0.4-0.4,0.6c-0.4,0.3-0.5,0.4-0.5,0.6v3.4h3.7v2.2c1.4-2.1,2.2-3.7,3.5-7.4
				l4.1,1.2c0.2,0,0.7,0.2,0.7,0.5c0,0.3-0.3,0.4-0.4,0.4c-0.6,0.2-0.9,0.3-1,0.4c0,0-0.6,1.2-0.7,1.4h3c1.2-1.9,1.7-3.2,2.1-4
				l4.2,1c0.2,0.1,0.6,0.2,0.6,0.5c0,0.4-0.3,0.4-0.6,0.4c-0.2,0-0.5,0.1-0.6,0.2c-0.3,0.4-0.7,1.1-1.2,1.8h6.3v2.7h-6.8v1.3h4.9
				v2.2h-4.9v1.4h4.8v2.2h-4.8v1.6h7v2.7H1043.8z M1053.4,309.5l-2.3-4.2c1,0.3,1.9,0.5,3.2,0.5c3,0,3.1-1.4,3.2-2.2h-1.5l-0.4,0.9
				l-4.1-0.4l1.4-3.8h-3.1c-0.7,5.1-3.7,8-6.7,9.6l-4.4-2.4c3.9-1.7,6.1-3.5,6.8-7.2h-4.2v-3.3h15.6l1,1l-0.8,2.4h5.1
				C1061.8,309.1,1059,309.4,1053.4,309.5z M1051.3,284.8h-3.6v1.3h3.6V284.8z M1051.3,288.3h-3.6v1.4h3.6V288.3z M1051.3,291.8
				h-3.6v1.6h3.6V291.8z"/>
			<path class="st0" d="M1076.2,311.2l-2.9-1.4l7.3-16l-7.3-16l2.9-1.4l7.9,17.4L1076.2,311.2z M1081.2,311.2l-2.9-1.4l7.4-16
				l-7.4-16l2.9-1.4l7.9,17.4L1081.2,311.2z"/>
			<path class="st0" d="M1124.6,286.3c-1.6,4.3-3.4,8.9-7.4,13.7c-3.8,4.6-7.8,6.8-10,8l-4-3.2c6.3-3,12.8-7.7,16.6-18.7h-19.5v-4.3
				h20.7c0.4,0,0.8-0.3,1.2-0.6l3.6,3.3C1125.2,285.1,1124.9,285.5,1124.6,286.3z"/>
			<path class="st0" d="M1147.6,294.1l0.2,12.3c0,2.9-3.3,3.1-4.4,3.1c-0.6,0-1.5,0-1.7-0.1l-1.4-3.6c1,0.1,1.3,0.1,1.9,0.1
				c0.8,0,2-0.1,2-0.8l-0.2-8c-2,2.5-5.1,5.9-9.7,8.5l-2.6-2.5c1.5-0.7,3.1-1.4,6.1-4.1c2.7-2.4,3.8-4.1,4.6-5.1h-9.6v-3.2h11.1
				l-0.1-5.7l3.3,0.3c0.2,0,0.9,0.1,0.9,0.5c0,0.3-0.4,0.6-0.6,0.8l0.1,4.2h5.9v3.2H1147.6z"/>
			<path class="st0" d="M1178.6,299.7c-2.7-2.5-6.4-5.5-10.8-7.3v15.8h-4.3v-29l4.4,0.8c0.1,0,0.9,0.1,0.9,0.6c0,0.2-0.9,0.8-0.9,1
				v9.6l1.7-2.7c1.9,0.8,3.1,1.3,6.2,3.3c2.9,1.9,4.2,3.1,5.7,4.4L1178.6,299.7z"/>
			<path class="st0" d="M1207.3,307.1v-1.6h-19.1v-3.8h19.1v-6.2h-18.4v-3.7h18.4v-6.2h-18.8v-3.8h23v25.3H1207.3z"/>
			<path class="st0" d="M1239,305.4v-1.3h-19.1v-4h19.1v-12.7h-19.1v-4.1h23.4v22.1H1239z"/>
			<path class="st0" d="M1264.7,285.2c-0.1,0-0.6,0.4-0.7,0.4c-0.2,0.2-0.8,2.6-0.9,3.1c-2.6,8.4-5.9,13.1-8.1,16.2l-4.7-2
				c4.8-4.9,8.1-12.8,9.3-19.7l4.4,1c0.1,0,0.9,0.2,0.9,0.6C1264.9,285,1264.9,285.1,1264.7,285.2z M1278.6,303.9
				c-1.4-6.1-5.1-13.8-8.6-18.7l3.8-2.2c3.4,4.4,7,11.7,9.3,18.8L1278.6,303.9z"/>
			<path class="st0" d="M1318.1,288.2c-0.9,0.9-6.1,6.1-10.7,10.9c1.4,1.6,2.1,2.6,3.1,4.1l-3.7,3c-2.7-5.1-6.3-8.6-9.2-11l2.9-2.9
				c1.4,1.1,2.5,2,4,3.6c2.9-2.9,4.9-5,7.4-7.7h-20.6v-4.1h23.7c0.5,0,1.1-0.4,1.7-0.8l3,3.6
				C1319.1,287.4,1318.6,287.9,1318.1,288.2z"/>
			<path class="st0" d="M1326.6,304.6c3.3-3.4,5.7-6.1,7.6-8.2c3.2-3.3,4.3-5,4.3-7.4c0-2.7-1.7-4.1-3.6-4.1c-1.9,0-3.7,1.1-3.8,4.9
				h-4.7c0-3.3,1-5.7,2.5-7.3c1.6-1.6,3.7-2.3,6-2.3c4.9,0,8.3,3.6,8.3,8.8c0,2.5-0.7,4.7-2.6,7.2c-1.9,2.3-4.5,5-7.9,8.5h10.7v4.3
				h-16.8V304.6z"/>
			<path class="st0" d="M1349.9,289.8c0-6,3.6-9.5,8.7-9.5s8.7,3.5,8.7,9.5v10.3c0,6-3.6,9.5-8.7,9.5s-8.7-3.5-8.7-9.5V289.8z
				 M1354.3,299.9c0,4,2.1,5.5,4.3,5.5s4.3-1.6,4.3-5.5v-9.8c0-4-2.2-5.5-4.3-5.5s-4.3,1.6-4.3,5.5V299.9z"/>
			<path class="st0" d="M1377.4,284.9h-4.4v-4.1h8.8v28.4h-4.4V284.9z"/>
			<path class="st0" d="M1405.5,280.8v3.8l-9,24.6h-5l9-24.3h-11.4v-4.1H1405.5z"/>
		</g>
	</g>
	<g>
		<g>
			<g>
				<g>
					<g>
						<path class="st0" d="M294.8,219.8c-0.2-7.6-2.1-12.3-10.5-12.3c-6.7,0-10.9,2.3-10.9,9.6c0,9.2,4.6,9.4,11.7,14.5
							c7.6,5.5,15.4,7.1,15.4,19.1c0,11.1-5.7,16.4-16.4,16.4c-12.1,0-17.5-6.5-17-18.6h5.7c0,6.9,0.5,14,11.6,14
							c7.2,0,10.7-3.9,10.7-11c0-8.4-5.6-10.8-14.5-16.3c-12-7.4-12.5-11.1-12.6-17.2c-0.1-10.7,6.7-15.2,16.8-15.2
							c12.8,0,15.6,8,15.6,16.9H294.8z"/>
						<path class="st0" d="M301.9,226v-4.2h7.1v-9.1l5.2-2.3v11.4h8.9v4.2h-8.9v28.3c0,5.9,0.6,7.3,4.8,7.3c1.8,0,3-0.1,4.1-0.3v4.5
							c-1.6,0.2-3.3,0.3-5,0.3c-7.1,0-9.2-3.2-9.2-8.6V226H301.9z"/>
						<path class="st0" d="M354.9,221.8V266h-4.5v-4.9h-0.2c-3.1,3.8-6.2,5.8-11.1,5.8c-9.1,0-11.6-6.6-11.6-13.8v-31.2h5.2v30.3
							c0,1.2-0.3,10.5,7.3,10.5c7.1,0,9.6-6.6,9.6-9.7v-31.1H354.9z"/>
						<path class="st0" d="M383.8,260.4l-0.2,0.1c-2.7,4.2-6,6.4-11.2,6.4c-12.8,0-13.5-12.7-13.5-23c0-8.5,0-22.9,13.6-22.9
							c4,0,8,1.8,10.7,5.2l0.2,0.1v-23.4h5.2v54.4c0,4.4,0.3,7.3,0.5,8.7h-5.1L383.8,260.4z M383.6,247.9V240c0-2.6,0-14.9-9.9-14.9
							c-9.4,0-9.4,8.6-9.4,18.9c0,16.4,3.9,18.6,9.6,18.6C378.8,262.7,383.6,258.6,383.6,247.9"/>
						<path class="st0" d="M394,209.5h6.5v6.6H394V209.5z M394.7,221.8h5.2V266h-5.2V221.8z"/>
						<path class="st0" d="M404.6,248.7v-9.5c0-11.5,4.9-18.2,15.2-18.2c10.3,0,15.2,6.7,15.2,18.2v9.5c0,11.5-4.9,18.2-15.2,18.2
							C409.5,266.9,404.6,260.1,404.6,248.7 M409.9,243.9c0,11.5,1.3,18.8,10,18.8c8.7,0,10-7.3,10-18.8c0-11.5-1.3-18.7-10-18.7
							C411.2,225.2,409.9,232.4,409.9,243.9"/>
					</g>
				</g>
				<path class="st0" d="M5.9,230.9v-23.3H17c4.5,0,10.2,0.2,10.2,10.7c0,7.1-2.5,12.6-10.6,12.6H5.9z M18.1,265.9
					c10.5,0,16-6.2,16-17.5c0-7.9-2.2-13.4-10.5-15.2V233c7.9-2.2,9.2-7.4,9.2-15c0-11.1-5.1-15.1-14.9-15.1H0.3v63H18.1z
					 M5.9,235.7h11.3c9.6,0,11.2,7.6,11.2,13.2c0,9.2-4.4,12.4-13.7,12.4H5.9V235.7z"/>
				<path class="st0" d="M61.9,251.4c0,5.7-4.9,11.2-10.9,11.2c-5.4,0-7.9-4.1-7.9-9.1c0-10.7,11.3-9.9,18.8-10.1V251.4z
					 M62.2,265.9h5.4c-0.5-5.1-0.5-7.9-0.5-11.1v-22.2c0-11.2-9.2-11.7-13.7-11.7c-7.7,0-14.2,3.3-14.7,11.8h5.6
					c0-5.2,3.8-7.6,8.7-7.6c7,0,8.9,4,8.9,10.4v3.6c-8.9,0.7-24.4-0.9-24.4,14.6c0,7.7,4.3,13,12.1,13c5.4,0,9.7-2.1,12.5-6.3h0.2
					V265.9z"/>
				<path class="st0" d="M78,265.9h-5.2v-44H78v5.4h0.2c2.5-3.7,6-6.3,10.6-6.3c10.9,0,12,8.1,12,13.9v31h-5.2v-30.8
					c0-5.1-2-10-8.1-10c-4.7,0-9.5,3.3-9.5,13.1V265.9z"/>
				<polygon class="st0" points="106.6,202.9 111.8,202.9 111.8,241.3 112,241.3 127.2,221.9 133.3,221.9 117.7,241.5 134.3,265.9 
					127.7,265.9 112,241.9 111.8,241.9 111.8,265.9 106.6,265.9 				"/>
				<path class="st0" d="M142.6,244.6l10.6-35.6h0.2l10.7,35.6H142.6z M150.3,202.9l-19.9,63h5.6l5-16.6h24.7l5,16.6h5.9l-19.6-63
					H150.3z"/>
				<path class="st0" d="M185.8,207.6h11.4c6.5,0,10,1.7,10,10.3c0,10.5-3.9,12.7-12.3,12.7h-9.1V207.6z M196.3,235.4
					c12.1,0,10.3,12.1,10.4,14.8c0.1,3.4,0.4,13.9,0.9,15.7h5.3c-0.2-2.4-0.6-4.9-0.6-7.3c0-22.5-0.5-23.6-9.3-25.4V233
					c8.4-1.9,9.8-7.1,9.8-15c0-11.1-3-15.1-15.2-15.1h-17.4v63h5.6v-30.5H196.3z"/>
				<polygon class="st0" points="231.7,207.6 216.4,207.6 216.4,202.9 252.7,202.9 252.7,207.6 237.3,207.6 237.3,265.9 
					231.7,265.9 				"/>
				<path class="st0" d="M483.2,203.6v46.3H483c0,0-17.5-45.5-17.8-46.3h-16.1v61.9h10.7v-48.8h0.2c0,0,17.9,48,18.3,48.8H494v-61.9
					H483.2z"/>
				<path class="st0" d="M530.2,203.6c-0.3,0.8-10.6,28.1-10.6,28.1s-9.7-27.2-10-28.1h-12.7c0.7,1.8,16.1,40.2,16.1,40.2
					s0,20.4,0,21.7h11.6v-21.6c0,0,16.5-38.5,17.3-40.3H530.2z"/>
				<path class="st0" d="M571.3,203.6c-0.4,0.7-15.1,26.6-15.1,26.6h-0.2v-26.7h-11.6v61.9h11.6v-31.7h0.2c0,0,14.5,30.9,14.8,31.7
					h13c-0.9-1.8-17.4-34.1-17.4-34.1s16.1-25.8,17.3-27.7H571.3z"/>
			</g>
		</g>
		<path class="st0" d="M688.9,261c-8.3-4.2-13.1-7.6-19.3-14.3v15.6h-8v-15.9c-3.5,3.8-8.8,9.5-19.7,14.9l-5.9-5.4
			c7.3-2.6,12.3-5.5,20.2-13.8h-12.2v-22.2h17.6v-3.6h-24.6V210h24.6v-5.6l8.1,0.5c0.8,0.1,1,0.4,1,0.7c0,0.2-0.3,0.5-0.4,0.6
			c-0.6,0.5-0.7,0.6-0.7,0.9v2.8h24.6v6.4h-24.6v3.6h17.8v22.2h-13.1c4.4,4.6,9,7.9,19.9,13.1L688.9,261z M661.6,225h-9.9v3.1h9.9
			V225z M661.6,233.5h-9.9v3.2h9.9V233.5z M679.7,225h-10v3.1h10V225z M679.7,233.5h-10v3.2h10V233.5z"/>
		<path class="st0" d="M700.7,216.6v-6.3h25v-5.9l9.2,1.1c0.4,0.1,0.9,0.2,0.9,0.7c0,0.2-0.2,0.4-0.5,0.5c-0.8,0.5-1.2,0.8-1.2,1
			v2.6h24.4v6.3H700.7z M721.6,246.7c-0.9,0.2-1,0.3-1.1,0.5c-5.4,6.9-6.7,8.4-11.6,12.8l-7.1-4.1c6.5-5.3,10-10,13-15.1l7.2,4.5
			c0.2,0.1,0.3,0.5,0.3,0.7C722.2,246.5,721.8,246.7,721.6,246.7z M733.3,239.7v15.9c0,2.2-0.5,5-3,5.8c-1.5,0.5-4.2,1-8.5,1.1
			l-3.3-7.7c1.6,0.2,2.8,0.4,4.3,0.4c1.8,0,2.4-0.7,2.4-2v-13.5h-16.8v-19.1h42.2v19.1H733.3z M742.4,226.7h-25.8v6.8h25.8V226.7z
			 M749.3,260.2c-3.6-5.5-7.5-9.8-12.4-13.9l5.2-5.5c5.3,4.4,9.4,8.7,13.5,14.1L749.3,260.2z"/>
		<path class="st0" d="M822.1,242.6c-1,1.6-1.8,1.9-2.8,1.9c-1.3,0-5.3-0.7-7.7-8l-2.8,4.9c-1.3-1.2-2.8-2.2-4-3
			c-1.3,1.7-2.3,2.7-4,3.8h10.3v4.8h-35.9v-2.4c-2.6,0.2-4.4,0.3-6.8,0.3c-0.2,0.1-0.6,0.1-0.9,0.4c-0.5,0.5-0.5,0.5-0.7,0.5
			c-0.5,0-0.7-0.3-0.9-1.5l-0.5-4.8c4.3,0,8.9-0.3,12.4-0.5v-1.8h-6.6v-2.4c-0.9,0.6-1.2,0.7-3.6,1.7l-3.5-4.7
			c1.8-0.4,4.3-1.5,6.1-4.1h-5.9v-4.3h12.2v-1.7H768v-4.3h8.7v-2.1h3.1V213h-15.3v-5.6h15.3v-3.4l7.6,0.6c0.9,0.1,1.7,0.2,1.7,0.9
			c0,0.3-0.1,0.4-0.8,0.9c-0.3,0.2-0.3,0.3-0.3,1h11.2v-3.2l7.9,0.3c1.3,0.1,1.7,0.4,1.7,0.8c0,0.3-0.1,0.5-0.7,0.8
			c-0.7,0.4-0.7,0.4-0.7,1.3h14.9v5.6h-14.9v3.8l2.4,0.3c1.1,0.1,1.6,0.3,1.6,0.9c0,0.3-0.1,0.5-0.6,0.9c-0.6,0.4-0.6,0.6-0.7,2.5
			h8.3c-0.5,2.6-1.1,5.8-1.1,8.4c0,1.4,0.3,5,1.1,5c0.5,0,1.1-1.3,1.4-3l4.7,4C824,239.3,822.6,241.8,822.1,242.6z M813.4,254
			c2.4,1.4,4.6,2.9,6.6,4.8l-4.3,4.8c-1.8-1.7-4.4-3.5-6-4.5c-3.5,0.5-18.8,2.4-38.4,3.4c-0.9,0.1-1.2,0-1.7,0.5
			c-0.5,0.6-0.6,0.7-1,0.7c-0.5,0-0.6-0.4-0.7-1.3l-1-5.4c3.8,0.1,12.4-0.3,16.3-0.5c0.7-1,1.1-2,1.4-2.6h-20v-4.9h58.1v4.9H813.4z
			 M783.1,227.7h-9.6l3,1.7c0.3,0.1,0.7,0.4,0.7,0.8c0,0.4-0.7,0.6-1.4,0.6c-0.3,0.3-0.8,0.9-1.1,1.2h3.2v-2l5.2,0.4V227.7z
			 M799.3,216.9V213H788v2.8l-4,0v1.6h8v4.3h-8v1.7h10.4v4.3h-5.6v2.2c0,0.4,0.1,1,0.9,1c0.8,0,1.2-0.6,1.5-2.1l4.5,2.2
			c-0.2,3.4-1.9,4.5-4.2,4.5h-2.4v1.8h-4.2v1.3c2.9-0.2,4.8-0.4,6.6-0.5l-1.9,4.1h6.1l-3.8-2.8c3.3-0.9,5.3-1.9,7.6-4.2
			c-1.1-0.5-2.2-1.1-3.5-1.6l3.2-4.9c1.1,0.5,1.7,0.7,3.2,1.3c0.5-1.3,0.5-1.3,0.9-3.1h-5.4v-5.6h5.9c0-1,0.1-3.4,0.1-4.4H799.3z
			 M800.8,254h-8.7c-0.5,1.4-0.6,1.6-0.9,2.2c7.3-0.4,8.8-0.5,12.2-0.9C803,255.1,801.2,254.3,800.8,254z M809.6,226.9
			c-0.5,3.2-0.9,4.4-1.6,5.9c2,0.9,2.6,1.4,3.2,1.8c0-0.3-0.2-1.7-0.2-2.8c0-1.3,0.1-2.5,0.3-4.8H809.6z"/>
		<path class="st0" d="M883,228.2v26.4c0,6-1.7,7.9-7.7,7.9h-4.2l-2.4-7.2c1.1,0,5,0.1,5.6,0c0.7-0.1,1.3-0.3,1.3-2v-25.1h-7.9v-4.3
			h-7.2v38.7h-7.1v-38.7H845v-1.3c-0.5,0.7-1,1.8-2.9,4.5c0.4,0.2,1.3,0.6,1.3,1.3c0,0.3-0.2,0.5-0.5,0.7c-0.9,0.8-1,0.9-1,1.5v18.2
			c2-6.7,2.8-11.8,3-20l6.8,0.9c0.7,0.1,1.3,0.5,1.3,1c0,0.6-0.9,0.9-1.3,1.1c-0.3,7.1-1.5,15.6-3.1,19.6l-6.7-1.5v12.4h-7.5V237
			c-1,1.1-1.1,1.3-2.2,2.4l-6.1-4.6c5.5-5,10-11.2,13.4-17.9l5.5,2.7v-3h8.4v-12.6l7,0.3c0.7,0,1.5,0.3,1.5,0.9
			c0,0.1-0.1,0.5-0.5,0.7c-0.6,0.5-0.9,0.7-0.9,1.3v9.3h7.5v4.7h18.5v6.8H883z M844.5,210.3c-0.7,0.1-0.9,0.1-1.4,0.5
			c-4,4-7.1,6.4-10.7,8.9l-5.5-5.3c4.4-2.9,8.7-6.1,12.2-10.1l5,3.8c0.9,0.7,1.1,1,1.1,1.3C845.4,210.2,844.9,210.3,844.5,210.3z
			 M863.2,215.6c-0.9-4.4-1.7-6.2-2.2-7.2l5-1.5c1.3,2.6,2,4.6,2.7,7.3L863.2,215.6z M864.1,250.4c-0.1-4.6-0.3-11.2-1.7-20.7
			l6.4-0.7c1.1,6.7,1.6,12.6,1.7,20L864.1,250.4z M869.6,213.6v-6.7h16.3v6.7H869.6z"/>
		<path class="st0" d="M944.4,262.8c-13.5-8.3-18.3-14.4-23-25c-6.3,13.1-12.6,19.7-24.3,25.4l-6.6-5.9
			c15.5-6.3,21.7-15.2,25.2-29.3h-23.3v-7.3h24.1c0.3-3,0.3-6.4,0.3-7.4c0-3.9-0.1-6.8-0.3-8.9l9,0.5c0.5,0,1.1,0.1,1.1,0.8
			c0,0.5-0.7,1.1-1.3,1.7c-0.1,1.4-0.1,0.5-0.1,3.9c0,0.6-0.1,6.3-0.3,9.5h25.3v7.3h-24.6c4.1,12.9,9.4,20.4,25.8,28.3L944.4,262.8z
			"/>
		<path class="st0" d="M1005.1,232.9v-8.1h-39.9v8.4H958v-14.7h33.4c3.2-3.9,6.2-8,8.2-12.6l6.7,2.2c0.4,0.1,1.1,0.6,1.1,1.1
			c0,0.3-0.1,0.3-0.3,0.4c-0.2,0.2-1.7,0.5-2,0.8c-1.4,2.6-2.8,4.8-5.2,8.1h12.6v14.3H1005.1z M989.4,247.3v10.2
			c0,4.7-3.9,5.8-8,5.8h-4.2l-3-7.1c0.8,0.1,4.6,0.4,5.4,0.4c1.1,0,1.6-1,1.6-2v-7.3H958v-6.6h23.2v-4.2l3.2,0.5
			c1.5-1.3,2-2,2.6-2.8h-18V228h30.5l1.9,3c-3,2.8-8.3,7.1-12,9.8h22.8v6.6H989.4z M968.3,218c-1.6-3.3-3.2-5.8-5.8-8.9l6.2-3.8
			c2.2,2.6,4.2,5.1,6,8.7L968.3,218z M983.5,216.7c-1.7-3.4-3.4-6.3-6.3-9.7l6.1-3.6c3.2,3.7,5,6.8,6.6,9.9L983.5,216.7z"/>
		<g>
			<path class="st0" d="M1110.8,248.9c-1.2,4.6-2.8,9.1-5.5,13l-8-3c2.2-3,5-7,6.9-14.5l7.1,2c0.4,0.1,1.1,0.5,1.1,1
				S1112.1,248.2,1110.8,248.9z M1154.4,252.3c-2.5,9.1-6.3,9.5-13.9,9.7l-3.5-8.1c2.2,0.3,3.9,0.5,5.1,0.5c1.7,0,3.3-0.2,4.6-4.6
				c0.9-3.2,1.1-6.9,1.1-8.2h-34.8v2.2h-7.9V206h48.6v6.2h-20.5v3.4h16v6.1h-16v3.5h16v6.2h-16v3.8h23.5
				C1156.6,238.1,1156.3,245.6,1154.4,252.3z M1114.2,258.9c-0.1-4.5-0.5-8.4-1.8-12.4l7-1.1c1.7,4.8,2.3,8.5,2.5,12.4L1114.2,258.9
				z M1124.9,212.2h-11.8v3.4h11.8V212.2z M1124.9,221.8h-11.8v3.5h11.8V221.8z M1124.9,231.4h-11.8v3.8h11.8V231.4z M1125.2,256.9
				c-1.3-6.3-2.7-9.5-3.4-11l7-1.1c2.4,5.1,2.9,8.1,3.2,10.2L1125.2,256.9z M1135.7,253.8c-1.1-3.4-2-5.6-3.6-8.8l6.7-1.6
				c1,2,2.6,5,3.3,8.1L1135.7,253.8z"/>
			<path class="st0" d="M1195.3,252.2v10.2h-7.8v-10.2h-25v-6.2h25v-3.4h-16.9V219h16.9v-3.2h-22.9v-6h22.9v-5.4l8.1,0.5
				c0.5,0,0.9,0.3,0.9,0.7c0,0.3-0.3,0.5-0.5,0.8c-0.3,0.3-0.7,0.7-0.7,0.9v2.6h23.8v6h-23.8v3.2h17.3v23.6h-17.3v3.4h25.2v6.2
				H1195.3z M1187.5,225h-9.6v3.1h9.6V225z M1187.5,233.5h-9.6v3.1h9.6V233.5z M1205.3,225h-10v3.1h10V225z M1205.3,233.5h-10v3.1
				h10V233.5z"/>
			<path class="st0" d="M1282.7,260.8h-27.5c-4.2,0-8.6-0.3-12-1.5c-3.6-1.3-5-3.5-5.7-4.7c-0.9,0.9-2.4,2.4-5,4.4
				c-2.1,1.7-2.2,1.8-2.4,2.4c-0.3,0.9-0.3,1.1-0.6,1.1c-0.1,0-0.5-0.2-0.9-0.8l-3.5-7.1c5.5-2.2,7.3-3.3,8.5-4v-15h-6.9v-7.2h14.6
				v21c0,4.2,3.8,5.1,13.9,5.1c10.3,0,20.6-0.3,30.7-1.5L1282.7,260.8z M1235.9,219.1c-3-3.8-5.7-6.1-9.1-8.1l5.4-5.5
				c3,2,5.7,4,9.3,8.3L1235.9,219.1z M1266.9,217.1c-1.3,2-2.1,3-3,4h15.7v30.1h-7.4v-1.6h-16.3v1.6h-7.3v-30.1h8.1
				c1-1.3,1.5-2.2,2.4-4h-14.9v-5.6h8.3c-1.3-2.8-2.5-4.2-3.4-5.5l6.3-2.8c1.9,2.6,3.2,4.5,4.3,7.2l-2.4,1.1h9.4
				c1.5-2.8,2.4-4.6,3.5-7.6l7.6,2c0.2,0.1,1.1,0.3,1.1,0.7c0,0.1-0.1,0.3-0.6,0.5c-0.6,0.1-0.7,0.2-0.8,0.3c-1.1,1.5-1.7,2.3-3.2,4
				h10v5.6H1266.9z M1272.2,225.8h-16.3v3.1h16.3V225.8z M1272.2,233.6h-16.3v3.1h16.3V233.6z M1272.2,241.1h-16.3v3.2h16.3V241.1z"
				/>
			<path class="st0" d="M1308.5,240c-1-1.1-2.4-2.6-3.6-4.2v26.7h-7V243c-1.1,2.6-2.9,5.4-4.4,7.5l-5.9-3.4
				c5.5-6.5,8.7-16.3,9.8-23.8h-7.1v-6.5h7.6v-12l6.6,0.5c0.5,0.1,1.5,0.1,1.5,0.7c0,0.3-0.1,0.5-0.5,0.8c-0.4,0.3-0.7,0.5-0.7,0.7
				v9.4h7.4v6.5h-7.4c0.9,3.1,4,8.2,8.3,11.6L1308.5,240z M1345.2,262.1c-6.5-3-10.4-5.7-15.6-11.5c-3.4,3.4-7.3,7-16.5,11.5
				l-5.2-5.2c3.6-1.5,12.1-5.2,17.7-11.6c-1.2-1.9-3.2-5-6-11.3c-0.3,0.5-0.7,1.2-1.3,2l-6.3-2.6c4-5.3,6.3-10.2,7.9-14.9l5.5,2.2
				c0.5,0.2,1.3,0.6,1.3,1.1c0,0.3-0.5,0.5-0.7,0.6c-0.7,0.3-0.7,0.3-0.9,0.6c-1.4,3.4-2.2,5.3-4.2,8.8l4.2-2.3
				c2,5.7,3.6,8.4,4.7,10.4c2.4-4.2,3.5-7,4.6-11.6l4.4,0.9c-1.7-2.2-3.6-4.6-6.9-7.5l5.6-3.8c5.1,4.9,9.6,10.4,11.8,13.8l-6.5,3.8
				c-1-2-1.8-3.3-2.3-4c-1.5,5.3-3.1,8.9-6.5,14.1c5.4,5.9,10,8.4,16.5,10.8L1345.2,262.1z M1313.5,217.3v-6.6h13v-6.4l6.8,0.3
				c1,0.1,1.5,0.2,1.5,0.8c0,0.3-0.1,0.4-0.4,0.6c-0.9,0.7-1,0.7-1,1v3.7h15v6.6H1313.5z"/>
			<path class="st0" d="M1407.1,227.6c-2.8-1.1-5.5-2.4-9-4.4v4.6h-11.4v3.5h22.5v6.5h-52.1v-6.5h21.9v-3.5h-11v-5.2
				c-3.6,2.3-6,3.6-9.5,4.8l-6.1-5.6c10.1-3.6,19.3-9.5,25.8-17.6l8.1,0.9c0.7,0.1,1.4,0.5,1.4,1c0,0.1-0.1,0.3-0.1,0.4
				c7.3,7.3,16.8,11.9,26.7,14.8L1407.1,227.6z M1394.3,262.7v-2.3h-22.7v2.3h-7.5v-21h38v21H1394.3z M1382.4,211.2
				c-4.2,4.4-7.3,6.9-12.2,10.1h9v-5.1l7.3,0.2c0.7,0,1.5,0.1,1.5,0.9c0,0.3-0.1,0.5-0.5,0.9c-0.5,0.5-0.7,0.7-0.7,1v2.1h8.3
				C1389.6,217.7,1385.9,215.1,1382.4,211.2z M1394.3,247.9h-22.7v6.3h22.7V247.9z"/>
		</g>
		<g>
			<path class="st0" d="M619.1,204.2h5.9l-22,61h-5.9L619.1,204.2z"/>
		</g>
		<g>
			<path class="st0" d="M1045.7,214.2v1.6h6.2v10.5h-4.2c1.4,1.2,3.7,2.3,5.5,2.8l-1.8,2.4c-2.2-0.8-4.3-1.8-6.3-3.6l1.5-1.6h-5.2
				l1.2,1.1c0.3,0.3,0.5,0.5,0.5,0.7c0,0.2-0.2,0.2-0.6,0.2c-0.1,0-0.2,0-0.4,0.2c-1.7,1.5-4.2,2.8-5.2,3.2l-2.2-2.4
				c2.4-0.8,4.5-2,5.6-3.1h-3.8v-10.5h5.9v-1.6h-7.2V212h-2.6v1.8c0,0.7,1.1,2.3,1.6,3c0.4,0.6,0.9,1.3,1.4,1.9l-1.9,2.3
				c-0.8-1.1-1-1.4-1.1-1.6v12.3h-3.2v-10.9c-0.5,1-1.2,2.1-1.9,3l-2.8-1.7c2.1-2.5,4-5.9,4.7-10.1h-3.4v-3.1h3.4v-4.8l3,0.3
				c0.2,0,0.7,0.1,0.7,0.3c0,0.1-0.1,0.2-0.2,0.4c-0.3,0.3-0.3,0.3-0.3,0.4v3.5h2.6v2.8h4.1v-2.4h-2.8v-2.5h2.8v-2.8l3.2,0.2
				c0.3,0,0.6,0.1,0.6,0.3c0,0.1-0.1,0.2-0.3,0.3c-0.2,0.2-0.3,0.2-0.3,0.3v1.6h3v-2.8l3.1,0.2c0.5,0,0.7,0.1,0.7,0.3
				c0,0.1-0.1,0.2-0.2,0.2c-0.1,0.1-0.2,0.2-0.2,0.3v1.8h4.2v2.5h-4.2v2.4h4.9v2.5H1045.7z M1042.3,218.2h-2.6v1.8h2.6V218.2z
				 M1042.3,222h-2.6v2h2.6V222z M1045.4,209.3h-3v2.4h3V209.3z M1048.6,218.2h-2.9v1.8h2.9V218.2z M1048.6,222h-2.9v2h2.9V222z"/>
			<path class="st0" d="M1034.5,254c-0.5-0.5-1.2-1.2-1.7-2v12.8h-3.4v-9.4c-0.5,1.2-1.4,2.6-2.1,3.6l-2.8-1.6
				c2.6-3.1,4.2-7.8,4.7-11.4h-3.4v-3.1h3.7V237l3.2,0.2c0.3,0,0.7,0.1,0.7,0.3c0,0.1,0,0.2-0.2,0.4c-0.2,0.1-0.3,0.3-0.3,0.4v4.5
				h3.6v3.1h-3.6c0.4,1.5,1.9,3.9,4,5.6L1034.5,254z M1052.1,264.6c-3.1-1.4-5-2.7-7.5-5.5c-1.6,1.6-3.5,3.4-7.9,5.5l-2.5-2.5
				c1.7-0.7,5.8-2.5,8.5-5.6c-0.6-0.9-1.5-2.4-2.9-5.4c-0.1,0.2-0.4,0.6-0.6,0.9l-3-1.3c1.9-2.6,3-4.9,3.8-7.2l2.6,1.1
				c0.3,0.1,0.6,0.3,0.6,0.5c0,0.2-0.3,0.3-0.4,0.3c-0.3,0.1-0.4,0.2-0.4,0.3c-0.7,1.6-1,2.5-2,4.2l2-1.1c1,2.7,1.7,4,2.3,5
				c1.2-2,1.7-3.4,2.2-5.6l2.1,0.5c-0.8-1-1.7-2.2-3.3-3.6l2.7-1.8c2.5,2.4,4.6,5,5.7,6.6l-3.1,1.8c-0.5-1-0.9-1.6-1.1-1.9
				c-0.7,2.6-1.5,4.3-3.1,6.8c2.6,2.8,4.8,4,7.9,5.2L1052.1,264.6z M1036.9,243.1V240h6.2v-3.1l3.3,0.1c0.5,0,0.7,0.1,0.7,0.4
				c0,0.1-0.1,0.2-0.2,0.3c-0.4,0.3-0.5,0.4-0.5,0.5v1.8h7.2v3.2H1036.9z"/>
			<path class="st0" d="M1062.8,217.8c-0.9-0.6-2.2-1.5-5.6-2.7l1.8-3.2c1.9,0.7,3.7,1.7,5.4,2.9L1062.8,217.8z M1063.3,226.7
				c-0.3,0.6-1.8,3.5-1.8,3.7c0,0.1,0,0.5,0,0.6c0,0.1,0,0.4-0.3,0.4c-0.1,0-0.4-0.1-0.6-0.3l-3.1-1.9c2-2.7,3.7-5.9,5.2-9.6
				l2.9,1.7C1064.9,223.1,1064.1,224.9,1063.3,226.7z M1064.7,210.2c-1.8-1.5-3.8-2.4-5.2-3l2-3c1.7,0.7,3.6,1.8,5.2,3L1064.7,210.2
				z M1071.8,222.9l2.8,2.4c0.2,0.2,0.4,0.4,0.4,0.6c0,0.4-0.6,0.4-1.1,0.3c-0.5,0.5-3.3,3.5-6.2,5.3l-3.4-2.6
				c1.2-0.5,2.5-1.1,4.2-2.6c1.9-1.6,2.4-2.6,3-3.6h-5.1v-3.5h2.3v-14.1c1.3,0.3,2.1,0.5,2.7,0.5c1.1,0,2.6-0.2,2.9-0.3
				c4.8-0.8,5.9-1.2,7.8-2.1l1.8,2.9c0.1,0.2,0.4,0.6,0.4,0.8c0,0.2-0.2,0.2-0.4,0.2c-0.1,0-0.7-0.1-0.9-0.1c-0.2,0-2.1,0.4-2.4,0.4
				c-1.3,0.3-5.3,0.8-8.2,0.9v2.5h12.7v3.4h-5v5h6v3.5H1071.8z M1076.5,214.5h-4v5h4V214.5z M1084.2,231.7c-3.6-2.1-5.9-4.6-7.4-6.5
				l2.8-2.1c1.9,2.6,4.6,4.4,7.5,5.9L1084.2,231.7z"/>
			<path class="st0" d="M1068.6,259.1c-1.9,0.7-3.9,1.3-5.9,1.9c-0.3,0.1-1.9,0.5-2.2,0.6c-0.7,0.2-1,0.3-1.3,0.6
				c-0.2,0.2-0.3,0.4-0.5,0.4c-0.1,0-0.3-0.1-0.3-0.2l-0.6-4c1.3-0.2,2.7-0.6,3.8-0.8v-9.7h-3.5v-3.6h3.5V237l3.8,0.2
				c0.2,0,0.4,0.1,0.4,0.3c0,0.2-0.3,0.3-0.3,0.4c-0.2,0.1-0.4,0.2-0.4,0.4v6h3.1v3.6h-3.1v8.8c1.8-0.5,2.5-0.7,3.5-1L1068.6,259.1z
				 M1082.3,264.4h-7c-2.6,0-4.8-1.3-4.8-4v-8.5l-3,1.2l-1-3.3l4.1-1.6v-9.3l3.7,0.4c0.2,0,0.4,0.1,0.4,0.3c0,0.2-0.1,0.3-0.2,0.4
				c-0.2,0.2-0.4,0.3-0.4,0.5v6.4l2.1-0.8v-9.1l3.7,0.3c0.2,0,0.4,0.1,0.4,0.3c0,0.1-0.1,0.3-0.2,0.4c-0.2,0.2-0.5,0.4-0.5,0.5v6.3
				l4.6-1.8l1.7,0.9v10.9c0,2.9-2.5,3.1-4.3,3.1l-1.9-3.3c0.6,0.1,1.2,0.2,1.7,0.2c0.9,0,1-0.9,1-1.2v-6.1l-2.8,1.1v9.6h-3.5v-8.2
				l-2.1,0.8v8.5c0,1.6,0.5,1.9,1.5,1.9h5.7c1.4,0,1.7-1.2,2-2.5l3.4,1.3C1086.1,261.6,1085.2,264.4,1082.3,264.4z"/>
		</g>
	</g>
</g>
</svg>
