<?xml version="1.0" encoding="utf-8"?>
<!-- Generator: Adobe Illustrator 22.1.0, SVG Export Plug-In . SVG Version: 6.00 Build 0)  -->
<svg version="1.1" id="レイヤー_1" xmlns="http://www.w3.org/2000/svg" xmlns:xlink="http://www.w3.org/1999/xlink" x="0px"
	 y="0px" viewBox="0 0 1200 312" style="enable-background:new 0 0 1200 312;" xml:space="preserve">
<style type="text/css">
	.st0{display:none;}
	.st1{display:inline;}
	.st2{fill:#FFFFFF;}
	.st3{fill:none;stroke:#FFFFFF;stroke-width:2.5022;stroke-miterlimit:10;}
</style>
<g class="st0">
	<path class="st1" d="M483.5,33.2h-26c-1.5,0-2.8-1.2-2.8-2.8V5.8c0-1.5,1.2-2.8,2.8-2.8H519c1.5,0,2.8,1.2,2.8,2.8v171.4
		c0,1.5-1.2,2.8-2.8,2.8h-30c-1.5,0-2.8-1.2-2.8-2.8V35.9C486.2,34.4,485,33.2,483.5,33.2z"/>
	<path class="st1" d="M1011.3,33.2h-26c-1.5,0-2.8-1.2-2.8-2.8V5.8c0-1.5,1.2-2.8,2.8-2.8h61.6c1.5,0,2.8,1.2,2.8,2.8v171.4
		c0,1.5-1.2,2.8-2.8,2.8h-30.1c-1.5,0-2.8-1.2-2.8-2.8V35.9C1014,34.4,1012.8,33.2,1011.3,33.2z"/>
	<path class="st1" d="M1189.9,5.8v24.6c0,1.5-1.2,2.8-2.8,2.8h-60.6c-1.3,0-2.5,1-2.7,2.3l-4.8,26.8c-0.5,2.9,1.2,4.3,3.9,3
		c4.8-2.4,11.5-4.5,22.6-4.5c39.9,0,59,33.2,59,59.3c0,28.9-22.2,63.3-65.7,63.3c-32.9,0-58.5-19.7-64.6-48.5
		c-0.4-1.8,0.9-3.3,2.8-3.3h30.6c1.1,0,2.2,0.8,2.5,1.8c4.4,11.2,15.8,18.7,27.8,18.7c16.7,0,31.1-14.1,31.1-31.1
		c0-16.3-12.4-31.1-31.3-31.1c-8,0-18.6,2.6-26.4,15c-0.6,0.9-1.9,1.5-3,1.3l-24.5-6.1c-1.4-0.3-2.3-1.7-2.1-3.1l14.6-91.6
		c0.2-1.3,1.4-2.3,2.7-2.3h88.1C1188.6,3,1189.9,4.3,1189.9,5.8z"/>
	<g class="st1">
		<g>
			<path d="M587,179.8l-3.7-9.9c1.3,0.2,3,0.4,6,0.4c2.2,0,2.8-0.6,2.8-2.3v-12.5h-22.7c-2.5,10.7-5.8,16.6-14.5,23.3l-7.5-6.2
				c5.4-4.3,14-11.2,14-28v-28.2h39.4v55.7C600.9,179.2,594.8,179.8,587,179.8z M592,139.8h-21.5c0,4.2-0.1,6.2-0.3,7.9H592V139.8z
				 M592,124.4h-21.5v7.9H592V124.4z"/>
		</g>
	</g>
	<g class="st1">
		<g>
			<path d="M416,164.9v14.9h-9.6v-14.9h-32.2v-8h10.9v-18h21.3v-9.1H389c-4.3,6.9-6.6,9.4-8.5,11.3l-8.2-4.3
				c7-7.1,11.9-15.3,14.7-23l9.3,3.5c0.4,0.2,0.5,0.5,0.5,0.7s-0.2,0.5-0.4,0.7c-0.2,0.1-1.4,0.4-1.6,0.6c-0.2,0-1.5,2.6-1.7,2.9
				H435v7.6h-19.5v9.1h13.1v7.8h-13.1v10.2h23.1v8H416z M406.5,146.7h-12.2v10.2h12.2V146.7z"/>
		</g>
	</g>
	<g class="st1">
		<g>
			<path d="M884.8,182c-3.6-4.4-11.4-13.8-11.4-29.5c0-15.8,7.7-25.2,11.4-29.5l4.7,4.1c-3.2,3.9-9.6,11.9-9.6,25.4
				s6.5,21.5,9.6,25.4L884.8,182z"/>
			<path d="M894.5,176.9v-6.7H917v-20.5h-18.2v-7H917v-16.5l7.2,0.8c0.9,0.1,1.5,0.4,1.5,1c0,0.2-0.1,0.4-0.7,0.8
				c-0.5,0.3-0.8,0.5-0.8,0.7v13.2H943v7h-18.8v20.5h22.7v6.7H894.5z"/>
			<path d="M957.1,182l-4.7-4.1c3.2-3.9,9.6-11.9,9.6-25.4s-6.5-21.5-9.6-25.4l4.7-4.1c3.6,4.4,11.4,13.8,11.4,29.5
				S960.8,177.6,957.1,182z"/>
		</g>
	</g>
	<g class="st1">
		<g>
			<path d="M1231.6,182c-3.6-4.4-11.4-13.8-11.4-29.5c0-15.8,7.7-25.2,11.4-29.5l4.7,4.1c-3.2,3.9-9.6,11.9-9.6,25.4
				s6.5,21.5,9.6,25.4L1231.6,182z"/>
			<path d="M1275.6,176.8v-3.2h-23.4v3.5h-7.3v-47.9h37.9v47.6L1275.6,176.8L1275.6,176.8z M1275.6,136h-23.4v11.7h23.4V136z
				 M1275.6,154.2h-23.4v12.7h23.4V154.2z"/>
			<path d="M1295.2,182l-4.7-4.1c3.2-3.9,9.6-11.9,9.6-25.4s-6.5-21.5-9.6-25.4l4.7-4.1c3.6,4.4,11.4,13.8,11.4,29.5
				S1298.9,177.6,1295.2,182z"/>
		</g>
	</g>
	<g class="st1">
		<path d="M654,33.2h-26c-1.5,0-2.8-1.2-2.8-2.8V5.8c0-1.5,1.2-2.8,2.8-2.8h61.7c1.5,0,2.8,1.2,2.8,2.8v171.4c0,1.5-1.2,2.8-2.8,2.8
			h-30.1c-1.5,0-2.8-1.2-2.8-2.8V35.9C656.8,34.4,655.5,33.2,654,33.2z"/>
		<path d="M795.2,147.9H719c-1.5,0-2.8-1.2-2.8-2.8V124c0-1.2,0.6-3,1.2-4L797.5,4.2c0.5-0.7,1.4-1.2,2.3-1.2h29.7
			c1.5,0,2.8,1.2,2.8,2.8v111.4c0,1.5,1.2,2.8,2.8,2.8h13.6c1.5,0,2.8,1.2,2.8,2.8v22.5c0,1.5-1.2,2.8-2.8,2.8H835
			c-1.5,0-2.8,1.2-2.8,2.8v26.5c0,1.5-1.2,2.8-2.8,2.8h-28.7c-1.5,0-2.8-1.2-2.8-2.8v-26.5C798,149.2,796.8,147.9,795.2,147.9z
			 M800.2,117.2V55.6c0-2.7-3.6-3.8-5.1-1.5l-40,61.6c-1.2,1.8,0.1,4.3,2.3,4.3h40C799,120,800.2,118.7,800.2,117.2z"/>
	</g>
	<g class="st1">
		<path d="M-105.9,152.8c0-0.7,0.4-1.6,0.9-2c16.8-15.1,33.6-30.1,50.3-45.2c17.6-15.4,31.6-27.5,31.8-47.7
			c0-17.3-10.9-26.3-25.4-26.3c-16.2,0-23.5,14-24.4,30.8c-0.1,1.4-1.3,2.6-2.7,2.6h-28.5c-1.6,0-2.8-1.3-2.7-2.9
			c0.8-12.7,3.3-26.1,12.3-38.2C-80.5,4.2-57.7,0.4-45.2,0.4c36.8,0,57.7,25.4,57.7,54.3c-0.2,20.4-7.6,34.9-28.2,54.6
			c-12.2,11.7-24.5,23.5-36.9,35.4c-2.7,2.6-1.8,4.7,1.9,4.7h61.4c1.5,0,2.7,1.2,2.7,2.7v24.4c0,1.5-1.2,2.7-2.7,2.7h-113.9
			c-1.5,0-2.7-1.2-2.7-2.7C-105.9,176.5-105.9,152.8-105.9,152.8z"/>
		<path d="M37.4,64.9c0-50.8,41.5-64.5,63.4-64.5c24.7,0,62.9,16.6,62.9,64.1v54.1c0,47.9-38,64.1-62.4,64.1
			c-24.7,0-63.8-16.1-63.8-64.1L37.4,64.9L37.4,64.9z M72.8,119.5c0,15.9,8.5,32,27.8,32c19.7,0,27.8-18.5,27.8-32v-56
			c0-10-3.8-32-28-32c-19.7,0-27.5,16.8-27.5,32.3v55.7C72.9,119.5,72.8,119.5,72.8,119.5z"/>
		<path d="M211.5,33.6h-25.9c-1.5,0-2.7-1.2-2.7-2.7V6.5c0-1.5,1.2-2.7,2.7-2.7h61.2c1.5,0,2.7,1.2,2.7,2.7v170.1
			c0,1.5-1.2,2.7-2.7,2.7h-29.9c-1.5,0-2.7-1.2-2.7-2.7V36.4C214.2,34.8,213,33.6,211.5,33.6z"/>
		<path d="M387.4,6.5v24c0,0.3-0.1,0.8-0.2,1.1l-64.8,146.1c-0.4,0.9-1.5,1.6-2.5,1.6H287c-2.4,0-3.5-1.8-2.5-3.9L349,37.5
			c1-2.1-0.1-3.9-2.5-3.9h-65.3c-1.5,0-2.7-1.2-2.7-2.7V6.5c0-1.5,1.2-2.7,2.7-2.7h103.4C386.2,3.7,387.4,4.9,387.4,6.5z"/>
	</g>
</g>
<g class="st0">
	<g>
		<g class="st1">
			<path d="M-106.5,309.6v-3.8h13.2v-7.4h-9.5v-3.7h9.5v-6.2h-12.4v-3.8h14.2c-1.6-1.7-3.8-3.4-4.9-4.1l2.5-3.1
				c1.7,1.1,4.5,3.1,6.4,5.1l-1.7,2h12.7v3.8h-12.4v6.2h9.6v3.7h-9.6v7.4h13.2v3.8h-30.8L-106.5,309.6L-106.5,309.6z"/>
			<path d="M-53.8,309.2v0.8h-4v-13.2c-0.6,0.7-0.7,0.7-1,1.1l-2-1.9v14h-4v-18.3c-0.4,0.5-0.8,1.1-1.8,2.2l-3.6-2.8
				c4-4.1,5.9-7.6,7.3-12.8l3.3,1.1c1,0.3,1.2,0.4,1.5,0.7v-0.7l3.2,0.2c1.2,0.1,1.5,0.1,1.5,0.5c0,0.2-0.2,0.4-0.4,0.4
				c-0.3,0.3-0.4,0.3-0.4,0.5v3.3h3.9v-6.1l3.2,0.2c0.5,0,1.5,0.1,1.5,0.5c0,0.1-0.1,0.3-0.3,0.3c-0.5,0.3-0.6,0.4-0.6,0.6v4.5h4.1
				v-5l3.3,0.2c0.5,0,1.4,0.1,1.4,0.5c0,0.2-0.1,0.3-0.4,0.5c-0.3,0.3-0.4,0.3-0.4,0.5v6.5h-8.4l2,0.9c0.6,0.3,0.8,0.5,0.8,0.7
				c0,0.3-0.2,0.3-0.5,0.4c-0.4,0-0.5,0.1-0.6,0.2c-0.3,0.3-0.6,1-0.9,1.4h9.2v3.2h-8.6v1.9h6.4v2.9h-6.4v1.9h6.4v2.9h-6.4v2.1h8.6
				v3.2L-53.8,309.2L-53.8,309.2z M-58,287.6v-6.7c-0.1,0.1-0.1,0.1-0.4,0.2c-0.3,0.1-0.4,0.2-0.5,0.4c-0.7,1.7-1,2.4-1.9,3.8
				c0.5,0.2,1,0.5,1,0.9c0,0.3-0.2,0.4-0.4,0.6c-0.4,0.3-0.5,0.4-0.5,0.6v6.9c3-2.9,4-4.7,5-6.7L-58,287.6L-58,287.6z M-49.3,294.3
				h-4.5v1.9h4.5V294.3z M-49.3,299.2h-4.5v1.9h4.5V299.2z M-49.3,304h-4.5v2.1h4.5V304z M-53.1,287.6l1.4,0.8
				c0.1,0.1,0.6,0.3,0.6,0.7c0,0.1-0.1,0.3-0.2,0.3c-0.1,0.1-0.9,0.3-1,0.3c-0.3,0.1-0.9,1.2-1.1,1.4h3.1c0.4-0.6,1.2-1.5,2.3-3.6
				h-5.1V287.6z"/>
			<path d="M-21.6,311.6l-2.9-1.4l7.3-16l-7.3-16l2.9-1.4l7.9,17.4L-21.6,311.6z M-16.6,311.6l-2.9-1.4l7.4-16l-7.4-16l2.9-1.4
				l7.9,17.4L-16.6,311.6z"/>
			<path d="M31.2,309.3c-4.5-2.3-7.1-4.1-10.5-7.8v8.5h-4.4v-8.6c-1.9,2.1-4.8,5.2-10.7,8.1l-3.2-2.9c4-1.4,6.7-3,11-7.5H6.7V287
				h9.6v-1.9H2.9v-3.5h13.4v-3l4.4,0.3c0.4,0,0.5,0.2,0.5,0.4c0,0.1-0.1,0.3-0.2,0.3c-0.3,0.3-0.4,0.3-0.4,0.5v1.5H34v3.5H20.6v1.9
				h9.7v12.1h-7.1c2.4,2.5,4.9,4.3,10.8,7.1L31.2,309.3z M16.3,289.7h-5.4v1.7h5.4V289.7z M16.3,294.3h-5.4v1.8h5.4V294.3z
				 M26.1,289.7h-5.5v1.7h5.5V289.7z M26.1,294.3h-5.5v1.8h5.5V294.3z"/>
			<path d="M41.2,285.1v-3.4h13.6v-3.2l5,0.6c0.2,0,0.5,0.1,0.5,0.4c0,0.1-0.1,0.2-0.3,0.3c-0.4,0.3-0.7,0.4-0.7,0.5v1.4h13.3v3.4
				L41.2,285.1L41.2,285.1z M52.6,301.5c-0.5,0.1-0.5,0.1-0.6,0.3c-3,3.7-3.6,4.6-6.3,7l-3.9-2.2c3.5-2.9,5.4-5.5,7.1-8.2l3.9,2.5
				c0.1,0.1,0.2,0.3,0.2,0.4C53,301.3,52.8,301.4,52.6,301.5z M59,297.6v8.6c0,1.2-0.3,2.7-1.6,3.1c-0.8,0.3-2.3,0.5-4.7,0.6
				l-1.8-4.2c0.9,0.1,1.5,0.2,2.3,0.2c1,0,1.3-0.4,1.3-1.1v-7.3h-9v-10.4h23v10.4L59,297.6L59,297.6z M64,290.6H49.9v3.7H64V290.6z
				 M67.7,308.8c-1.9-3-4.1-5.3-6.8-7.5l2.9-3c2.9,2.4,5.1,4.8,7.4,7.7L67.7,308.8z"/>
			<path d="M111,299.3c-0.5,0.9-1,1-1.5,1c-0.7,0-2.9-0.4-4.2-4.4l-1.5,2.7c-0.7-0.7-1.5-1.2-2.2-1.6c-0.7,0.9-1.2,1.5-2.2,2h5.6
				v2.6H85.5v-1.3c-1.4,0.1-2.4,0.1-3.7,0.2c-0.1,0-0.3,0-0.5,0.2C81,301,81,301,80.9,301c-0.3,0-0.4-0.2-0.5-0.8l-0.3-2.6
				c2.3,0,4.9-0.1,6.7-0.3v-1h-3.6V295c-0.5,0.3-0.7,0.4-1.9,0.9l-1.8-2.5c1-0.2,2.3-0.8,3.3-2.2h-3.2v-2.3h6.7V288h-4.8v-2.3h4.7
				v-1.3h1.7v-1.3h-8.3V280h8.3v-1.9l4.1,0.3c0.5,0,1,0.1,1,0.5c0,0.2,0,0.2-0.4,0.5c-0.1,0.1-0.1,0.1-0.1,0.5h6.1v-1.8l4.3,0.1
				c0.7,0,0.9,0.2,0.9,0.4c0,0.2-0.1,0.3-0.4,0.4c-0.4,0.2-0.4,0.2-0.4,0.7h8.1v3.1H103v2l1.3,0.2c0.6,0.1,0.9,0.1,0.9,0.5
				c0,0.1-0.1,0.3-0.3,0.5c-0.3,0.2-0.3,0.3-0.4,1.4h4.5c-0.3,1.4-0.6,3.1-0.6,4.6c0,0.8,0.1,2.7,0.6,2.7c0.3,0,0.6-0.7,0.8-1.6
				l2.6,2.2C112,297.5,111.2,298.8,111,299.3z M106.2,305.5c1.3,0.8,2.5,1.6,3.6,2.6l-2.3,2.6c-1-1-2.4-1.9-3.3-2.5
				c-1.9,0.3-10.2,1.3-20.9,1.9c-0.5,0-0.7,0-1,0.3s-0.3,0.4-0.5,0.4c-0.3,0-0.3-0.2-0.4-0.7l-0.5-3c2.1,0,6.8-0.2,8.9-0.3
				c0.4-0.6,0.6-1.1,0.8-1.4H79.7v-2.7h31.6v2.7h-5.1V305.5L106.2,305.5z M89.7,291.2h-5.2l1.6,0.9c0.1,0.1,0.4,0.2,0.4,0.4
				c0,0.2-0.4,0.3-0.8,0.3c-0.2,0.2-0.4,0.5-0.6,0.7h1.8v-1.1l2.8,0.2C89.7,292.6,89.7,291.2,89.7,291.2z M98.5,285.3v-2.1h-6.1v1.5
				h-2.2v0.9h4.4v2.3h-4.4v0.9h5.7v2.3h-3v1.2c0,0.2,0,0.6,0.5,0.6c0.4,0,0.7-0.3,0.8-1.1l2.5,1.2c-0.1,1.8-1,2.4-2.3,2.4h-1.3v1
				h-2.3v0.7c1.6-0.1,2.6-0.2,3.6-0.3l-1,2.2h3.3l-2.1-1.5c1.8-0.5,2.9-1,4.1-2.3c-0.6-0.3-1.2-0.6-1.9-0.9l1.8-2.7
				c0.6,0.3,0.9,0.4,1.7,0.7c0.3-0.7,0.3-0.7,0.5-1.7h-2.9v-3h3.2c0-0.5,0-1.8,0-2.4L98.5,285.3L98.5,285.3z M99.3,305.5h-4.7
				c-0.3,0.8-0.3,0.8-0.5,1.2c4-0.2,4.8-0.3,6.7-0.5C100.6,306.1,99.6,305.6,99.3,305.5z M104.1,290.7c-0.3,1.7-0.5,2.4-0.9,3.2
				c1.1,0.5,1.4,0.8,1.8,1c0-0.1-0.1-0.9-0.1-1.5c0-0.7,0.1-1.4,0.2-2.6h-1V290.7z"/>
			<path d="M147.8,291.4v14.3c0,3.3-1,4.3-4.2,4.3h-2.3l-1.3-3.9c0.6,0,2.7,0,3,0c0.4,0,0.7-0.1,0.7-1.1v-13.6h-4.3v-2.3h-3.9v21
				h-3.9v-21H127v-0.7c-0.3,0.4-0.5,1-1.6,2.5c0.2,0.1,0.7,0.3,0.7,0.7c0,0.2-0.1,0.3-0.3,0.4c-0.5,0.4-0.5,0.5-0.5,0.8v9.9
				c1.1-3.6,1.5-6.4,1.6-10.9l3.7,0.5c0.4,0,0.7,0.3,0.7,0.5c0,0.3-0.5,0.5-0.7,0.6c-0.2,3.9-0.8,8.5-1.7,10.7l-3.7-0.8v6.8h-4.1
				v-13.9c-0.6,0.6-0.6,0.7-1.2,1.3l-3.3-2.5c3-2.7,5.5-6.1,7.3-9.7l3,1.5v-1.6h4.6v-6.8l3.8,0.2c0.4,0,0.8,0.2,0.8,0.5
				c0,0.1,0,0.3-0.3,0.4c-0.3,0.3-0.5,0.4-0.5,0.7v5h4.1v2.6h10.1v3.7h-1.7L147.8,291.4L147.8,291.4z M126.8,281.7
				c-0.4,0-0.5,0-0.8,0.3c-2.2,2.2-3.8,3.5-5.8,4.9l-3-2.9c2.4-1.6,4.7-3.3,6.6-5.5l2.7,2.1c0.5,0.4,0.6,0.5,0.6,0.7
				C127.3,281.6,127,281.7,126.8,281.7z M137,284.5c-0.5-2.4-0.9-3.4-1.2-3.9l2.7-0.8c0.7,1.4,1.1,2.5,1.5,4L137,284.5z
				 M137.4,303.5c0-2.5-0.1-6.1-0.9-11.3l3.5-0.4c0.6,3.7,0.9,6.9,1,10.9L137.4,303.5z M140.5,283.4v-3.6h8.9v3.6H140.5z"/>
			<path d="M184.8,310.2c-7.4-4.5-10-7.8-12.5-13.6c-3.4,7.1-6.8,10.7-13.2,13.8l-3.6-3.2c8.5-3.4,11.8-8.3,13.7-16h-12.7v-4h13.1
				c0.1-1.6,0.1-3.5,0.1-4c0-2.1-0.1-3.7-0.1-4.9l4.9,0.3c0.3,0,0.6,0,0.6,0.4c0,0.3-0.4,0.6-0.7,0.9c-0.1,0.8-0.1,0.3-0.1,2.1
				c0,0.3-0.1,3.4-0.1,5.2H188v4h-13.4c2.2,7,5.1,11.1,14,15.4L184.8,310.2z"/>
			<path d="M221.5,294v-4.4h-21.7v4.6h-4v-8H214c1.8-2.1,3.4-4.4,4.5-6.9l3.6,1.2c0.2,0.1,0.6,0.3,0.6,0.6c0,0.1-0.1,0.2-0.1,0.2
				c-0.1,0.1-0.9,0.3-1.1,0.4c-0.8,1.4-1.5,2.6-2.9,4.4h6.9v7.8L221.5,294L221.5,294z M213,301.8v5.5c0,2.6-2.1,3.2-4.4,3.2h-2.3
				l-1.6-3.9c0.4,0,2.5,0.2,2.9,0.2c0.6,0,0.9-0.6,0.9-1.1v-4h-12.6v-3.6h12.6v-2.3l1.8,0.3c0.8-0.7,1.1-1.1,1.4-1.5h-9.8v-3.4h16.6
				l1,1.6c-1.6,1.5-4.5,3.9-6.5,5.3h12.4v3.6L213,301.8L213,301.8z M201.5,285.9c-0.9-1.8-1.7-3.1-3.1-4.9l3.4-2
				c1.2,1.4,2.3,2.8,3.3,4.7L201.5,285.9z M209.8,285.1c-0.9-1.9-1.9-3.4-3.4-5.3l3.3-2c1.7,2,2.7,3.7,3.6,5.4L209.8,285.1z"/>
			<path d="M261.7,310.2c-7.4-4.5-10-7.8-12.5-13.6c-3.4,7.1-6.8,10.7-13.2,13.8l-3.6-3.2c8.5-3.4,11.8-8.3,13.7-16h-12.7v-4h13.1
				c0.1-1.6,0.1-3.5,0.1-4c0-2.1-0.1-3.7-0.1-4.9l4.9,0.3c0.3,0,0.6,0,0.6,0.4c0,0.3-0.4,0.6-0.7,0.9c-0.1,0.8-0.1,0.3-0.1,2.1
				c0,0.3-0.1,3.4-0.1,5.2h13.8v4h-13.4c2.2,7,5.1,11.1,14,15.4L261.7,310.2z"/>
			<path d="M298.4,294v-4.4h-21.7v4.6h-4v-8h18.2c1.8-2.1,3.4-4.4,4.5-6.9l3.6,1.2c0.2,0.1,0.6,0.3,0.6,0.6c0,0.1-0.1,0.2-0.1,0.2
				c-0.1,0.1-0.9,0.3-1.1,0.4c-0.8,1.4-1.5,2.6-2.9,4.4h6.9v7.8L298.4,294L298.4,294z M289.8,301.8v5.5c0,2.6-2.1,3.2-4.4,3.2h-2.3
				l-1.6-3.9c0.4,0,2.5,0.2,2.9,0.2c0.6,0,0.9-0.6,0.9-1.1v-4h-12.6v-3.6h12.6v-2.3l1.8,0.3c0.8-0.7,1.1-1.1,1.4-1.5h-9.8v-3.4h16.6
				l1,1.6c-1.6,1.5-4.5,3.9-6.5,5.3h12.4v3.6L289.8,301.8L289.8,301.8z M278.2,285.9c-0.9-1.8-1.7-3.1-3.1-4.9l3.4-2
				c1.2,1.4,2.3,2.8,3.3,4.7L278.2,285.9z M286.6,285.1c-0.9-1.9-1.9-3.4-3.4-5.3l3.3-2c1.7,2,2.7,3.7,3.6,5.4L286.6,285.1z"/>
			<path d="M337.4,289.7v-4h-12v4h-3.9v-6.3l-3.1,6.7c1.2,1.5,3.3,4.1,3.3,8.5c0,4.6-3.8,5.5-6,6l-1.3-2.9v8.3h-3.9v-30.6h10.2
				l1.7,2l-0.4,0.8h6.5v-3.8l4.6,0.3c0.3,0,0.8,0.1,0.8,0.4c0,0.4-0.4,0.5-0.8,0.9v2.3h8v7.5L337.4,289.7L337.4,289.7z M314.6,290.8
				l2.7-7.7h-2.9v17c0.1,0,0.8,0.1,1.2,0.1c1.5,0,2.4-0.8,2.4-2.5C318,294.2,315.6,291.9,314.6,290.8z M338.2,310h-4.5
				c-1.6,0-2.2-1.2-2.2-2.5v-10.3h-4.7l2.9,1c0.3,0.1,0.9,0.3,0.9,0.8c0,0.2-0.1,0.4-0.9,0.8c-0.5,5.4-2.4,8.3-8.6,10.5l-3.3-3.4
				c1.5-0.3,5-1,6.5-3c1.4-1.8,1.5-5.5,1.5-6.6h-4.1v-3.6h19.8v3.6h-6v7.7c0,0.6,0.2,0.8,0.7,0.8h0.7c1,0,1-2,1-3.5l3.9,1.9
				C341.4,307.5,340.8,310,338.2,310z M326.4,291.3v-3.5h9.7v3.5H326.4z"/>
			<path d="M352.6,302.5v3.4h-3.5v-24.7h9.5v21.3L352.6,302.5L352.6,302.5z M355.1,285.1h-2.5v4.9h2.5V285.1z M355.1,293.8h-2.5v4.9
				h2.5V293.8z M377.2,310.4c-3.5-2.2-6.6-5.1-8.5-8.7c-0.5,0.9-1.7,3-4.1,5.1c-2.4,2.2-4.7,3.1-5.6,3.6l-2.9-3.2
				c1.6-0.5,4.1-1.3,6.7-3.8c2.3-2.3,2.9-4.5,3.3-5.7h-6.6V294h1.4v-9.7h6.1v-5.7l4.5,0.2c0.3,0,0.5,0.1,0.5,0.4s-0.2,0.4-0.3,0.5
				c-0.5,0.5-0.6,0.6-0.6,0.8v3.7h6.7v9.7h2v3.7h-9c1.8,4.2,4.5,7,9.8,9.5L377.2,310.4z M367.1,288.1h-2.5v5.9h2.3
				c0.1-0.7,0.2-1.6,0.2-3.3V288.1z M374,288.1h-2.7c0,0.8,0,3.7-0.2,5.9h2.9L374,288.1L374,288.1z"/>
			<path d="M418.5,297.1c0.4,0.4,0.5,0.5,0.5,0.7c0,0.4-0.1,0.4-1.5,0.4c-0.2,0-1.1,0.7-1.4,0.9c-0.2,0.1-0.8,0.6-1.5,1.1
				c2.2,3.6,4.6,5.1,5.6,5.6l-3,2.6c-4.8-3.6-7.7-9.1-8.4-15c-0.5,0.5-1,0.9-2.2,1.8c3.5,3.2,4,7.4,4,9.3c0,4.6-1.8,5.6-5.7,5.7
				l-1.6-3.3c2.6,0.1,3.9-0.1,3.8-3c-3.4,2.6-6.4,4.3-8.9,5.5l-2.1-2.6c5.2-1.9,8.4-4.3,10.3-6.1c-0.2-0.4-0.4-0.8-0.5-1
				c-2.3,2-4.1,3.3-8.5,5.4l-2.4-2.4c1.6-0.6,5.7-2,9.4-5.1c-0.3-0.3-0.3-0.4-0.5-0.5c-3.2,1.9-4.8,2.7-6.4,3.4l-2.7-2.6
				c3-0.8,5.8-1.9,8.9-4.4H398v-5.3c0,0-0.5,0.4-0.7,0.6l-2.2-1.9c0,0.3-0.1,0.4-0.5,0.7c-0.1,0.1-0.4,0.3-0.4,0.6v22.1H390v-17.6
				c-0.8,1.1-1.1,1.5-1.6,2.1l-3.2-2.4c2.6-3,5.6-7.2,6.8-13.6l3.6,0.5c1.1,0.2,1.4,0.4,1.4,0.7c0,0.2-0.1,0.3-0.3,0.5
				c-0.2,0.1-0.8,0.6-0.8,0.6c-0.2,0.2-1.6,4.1-1.9,4.8c0.3,0.1,0.4,0.2,0.7,0.4c2.8-2.4,4.5-4.4,6.6-8.1l3.2,0.3
				c1,0.1,1.1,0.3,1.1,0.5c0,0.4-0.5,0.6-0.8,0.8l-0.1,0.3h8.5l1.3,1c-1.3,1.9-1.6,2.3-3.2,4.1h6.8v8.2h-5.6c0.1,1.5,0.4,2.6,0.9,4
				c1.7-1.3,2.2-2,2.6-2.5L418.5,297.1z M402.6,283c-0.7,0.9-0.9,1.2-1.7,2.1h5.6c0.2-0.3,1.3-1.8,1.5-2.1H402.6z M405.7,290.6v-2.7
				h-3.9v2.7H405.7z M409.8,290.6h4.2v-2.7h-4.2V290.6z"/>
			<path d="M435,283c-0.5,3.1-1,4.9-1.8,7.4h6.4v15h-6.8v3.8h-3.7v-10.9c-0.8,1.1-1.4,1.7-2.2,2.5l-3.4-2.5
				c4.6-4.5,6.6-8.7,7.4-15.3h-5v-3.7h14.4v3.7H435z M436.2,294h-3.4v7.9h3.4V294z M454,294.3v15.6h-4v-15.6h-2.9
				c-0.2,3.1-0.4,6.3-1.7,9.8c-1.2,3.3-2.8,4.8-4.3,6.2l-3.5-2.4c1.6-1.3,2.8-2.3,3.9-4.4c1.6-3,1.8-6.3,1.9-9.3h-3v-3.6h2.9v-7.7
				h-1.8v-3.5h14.9v3.5h-2.6v7.7h3v3.6L454,294.3L454,294.3z M450,282.9h-2.6v7.7h2.6V282.9z"/>
			<path d="M491.2,309.8h-4.8c-1.8,0-3.4-0.7-3.4-2.7c0-0.7,0.8-7.7,0.9-8.6l-4.3,0.1c-1.5,5.4-6.1,9.8-13.4,11.5L463,306
				c7.3-0.8,11.3-4.2,12.2-7.3l-9.4,0.3v-4l10.2-0.3c0-0.6,0.1-1.7,0.1-3.8l4.1,0.2v-1.2v-5.8H475l3,1.4c0.3,0.1,0.4,0.3,0.4,0.4
				s-0.1,0.3-0.2,0.4s-0.8,0.3-0.9,0.4c-2.2,3.9-4.5,5.7-8.7,7.1l-2.6-3.3c1.6-0.4,3.6-0.8,5.6-2.7c1.6-1.5,1.9-2.7,2.3-3.7h-5.1
				v4.2h-4v-7.9h12.7v-2l4.9,0.3c0.1,0,0.7,0,0.7,0.4c0,0.1,0,0.2-0.1,0.3c-0.1,0.1-0.7,0.4-0.7,0.5v0.6H495v7.6h-2.6
				c-1,4.1-2,4.7-4.5,4.7h-5.8c-0.4,0-0.9-0.1-1.4-0.4c-0.1,0.9-0.1,1.4-0.2,2.2l8.3-0.3c-0.7,5.1-1.2,9.7-1.2,9.9
				c0,1.2,0.9,1.3,1.1,1.3h1.7c1.2,0,1.4-1,1.7-3.4l3.9,1.6C495.2,307.8,494.5,309.8,491.2,309.8z M490.8,284.2h-6.6v4
				c0,0.5,0.3,0.9,1,0.9h1.7c0.9,0,1.1-0.8,1.6-2.4l2.3,0.7V284.2z"/>
			<path d="M530.9,300.3v9.6h-4.1v-8.7l-11.1,2.2l-0.8-3.5c-1.2-0.8-1.8-1.4-2.6-2.2V310h-4.2v-9.1c-0.7,1.2-1.4,2.5-2.3,3.5
				l-3.4-2.3c3.2-4.5,4.2-7,5.2-10.5h-5.1v-3.8h5.6v-3.1c-1.9,0.4-3.1,0.6-4.6,0.7l-1.6-3.6c1.4,0.1,7.2-0.1,12.4-3l2.6,2.8
				c0.1,0.1,0.3,0.4,0.3,0.7c0,0.3-0.3,0.3-0.4,0.3c-0.1,0-0.8-0.1-1-0.1c-0.3,0-0.4,0-0.7,0.2c-0.5,0.2-1.5,0.6-2.8,1v4.2h4.8v3.8
				h-4.8v0.4c1.9,2.7,3.6,3.8,5.3,4.7l-2.3,2.8l11.4-2.3v-18.9l3.9,0.3c0.5,0,0.9,0.1,0.9,0.6c0,0.2-0.1,0.3-0.2,0.4
				c-0.4,0.3-0.5,0.4-0.5,0.6v16.1l3.3-0.7l0.7,3.9L530.9,300.3z M522.2,296.2c-1.1-1.1-2.8-2.7-5.2-4l2.6-3.2
				c2.3,1.3,3.9,2.7,5.4,4.2L522.2,296.2z M523.2,288.7c-1-1-2.9-2.8-5.3-4.3l2.7-3.1c2,1.2,3.7,2.5,5.5,4.6L523.2,288.7z"/>
			<path d="M576.5,290.2v1.9h7.1V304h-4.8c1.6,1.3,4.2,2.6,6.3,3.2l-2,2.7c-2.5-0.9-4.8-2.1-7.1-4.1l1.7-1.8h-5.9l1.3,1.3
				c0.3,0.3,0.5,0.5,0.5,0.8s-0.3,0.3-0.7,0.3c-0.1,0-0.2,0-0.4,0.2c-1.9,1.7-4.8,3.2-5.9,3.7l-2.5-2.7c2.7-0.9,5.1-2.2,6.3-3.5H566
				v-11.9h6.7v-1.9h-8.3v-2.6h-3v2c0,0.7,1.3,2.6,1.8,3.4c0.5,0.7,1.1,1.5,1.6,2.2l-2.2,2.6c-0.9-1.2-1.1-1.5-1.2-1.8V310h-3.6
				v-12.4c-0.5,1.1-1.3,2.4-2.2,3.4l-3.1-1.9c2.4-2.8,4.5-6.7,5.3-11.4H554v-3.5h3.8v-5.5l3.4,0.3c0.3,0,0.8,0.1,0.8,0.3
				c0,0.1-0.1,0.2-0.3,0.4c-0.3,0.3-0.4,0.3-0.4,0.4v4h3v3.2h4.7v-2.7h-3.2v-2.8h3.2v-3.1l3.6,0.3c0.3,0,0.7,0.1,0.7,0.4
				c0,0.1-0.1,0.3-0.3,0.4c-0.3,0.2-0.3,0.2-0.3,0.3v1.8h3.4v-3.2l3.5,0.2c0.6,0,0.8,0.1,0.8,0.4c0,0.1-0.1,0.2-0.3,0.3
				c-0.1,0.1-0.3,0.2-0.3,0.3v2h4.7v2.8h-4.7v2.7h5.5v2.9L576.5,290.2L576.5,290.2z M572.7,294.7h-2.9v2.1h2.9V294.7z M572.7,299
				h-2.9v2.3h2.9V299z M576.2,284.7h-3.4v2.7h3.4V284.7z M579.8,294.7h-3.3v2.1h3.3V294.7z M579.8,299h-3.3v2.3h3.3V299z"/>
			<path d="M597.5,294.3c-1.1-0.7-2.5-1.7-6.3-3.1l2.1-3.6c2.2,0.8,4.2,1.9,6.1,3.3L597.5,294.3z M598,304.3c-0.3,0.7-2,3.9-2.1,4.2
				c0,0.1,0,0.6,0,0.7s0,0.4-0.3,0.4c-0.1,0-0.5-0.1-0.7-0.3l-3.6-2.1c2.3-3.1,4.2-6.7,5.9-10.9l3.3,2
				C599.9,300.3,599,302.3,598,304.3z M599.7,285.7c-2.1-1.6-4.3-2.7-5.9-3.4l2.2-3.4c1.9,0.8,4,2,5.9,3.4L599.7,285.7z
				 M607.8,300.1l3.2,2.7c0.2,0.2,0.4,0.4,0.4,0.7c0,0.5-0.7,0.4-1.2,0.4c-0.5,0.6-3.7,3.9-7,6l-3.8-2.9c1.4-0.6,2.8-1.3,4.7-2.9
				c2.1-1.8,2.7-3,3.4-4.1h-5.7v-4h2.6v-16c1.5,0.4,2.4,0.5,3.1,0.5c1.2,0,2.9-0.3,3.3-0.3c5.4-0.9,6.6-1.4,8.9-2.4l2.1,3.3
				c0.1,0.2,0.4,0.7,0.4,0.9c0,0.2-0.3,0.3-0.4,0.3c-0.1,0-0.8-0.1-1-0.1s-2.4,0.4-2.7,0.5c-1.5,0.3-6,0.9-9.3,1v2.8H623v3.8h-5.6
				v5.6h6.8v4h-16.5L607.8,300.1L607.8,300.1z M613,290.5h-4.6v5.6h4.6V290.5z M621.9,310c-4-2.4-6.7-5.2-8.4-7.4l3.2-2.4
				c2.2,2.9,5.2,5,8.5,6.7L621.9,310z"/>
			<path d="M648.9,286.5v3.5h10.3v12.8c0,3.3-2.1,4.1-6.8,4.2l-1.6-4.1c0.7,0.1,1.3,0.1,2.1,0.1c1.6,0,1.9-0.3,1.9-1.4v-7.8h-5.9v17
				h-4.5v-17h-6.1V307h-4.4v-17.1h10.5v-3.5h-13.5v-3.9h13.5v-4.1l4.7,0.3c0.2,0,0.5,0.1,0.5,0.3c0,0.1,0,0.2-0.2,0.4
				c-0.4,0.4-0.5,0.5-0.5,0.6v2.4h13.4v3.9h-13.4V286.5z"/>
			<path d="M697.7,310.2c-4.9-1.4-8.1-3-12.5-6.6c-3.7,2.9-6.7,4.5-13.7,6.8l-3.3-3.5c1.9-0.4,4.1-0.9,7.6-2.4
				c3.6-1.6,4.9-2.7,6.3-3.9c-1.4-1.5-3.2-3.6-5.5-7.9c-1.3-2.5-1.8-4-2.5-5.9h-4.6V283h13.1v-4.6l4.4,0.3c0.2,0,0.9,0.1,0.9,0.5
				c0,0.2-0.2,0.3-0.4,0.4c-0.1,0.1-0.4,0.3-0.4,0.6v2.9h13v3.8H695c-1.7,5.1-3.3,9.3-7,13.8c4.2,3.1,7.3,4.4,12.2,5.5L697.7,310.2z
				 M678.7,286.8c2,5.4,3.8,8,6.3,10.9c3.1-3.8,4.5-8.1,5.3-10.9H678.7z"/>
			<path d="M720.7,281.6c-0.7,0.3-0.7,0.3-0.8,0.5c-0.7,1.4-1,2-2.7,4.9c0.3,0.2,0.5,0.4,0.5,0.7c0,0.2,0,0.4-0.2,0.6
				c-0.4,0.5-0.5,0.6-0.5,0.9v20.7h-4.3v-16.7c-0.8,1.2-1.3,1.8-2.3,2.9l-3.6-2.5c5.1-5.5,7.6-10.5,9.5-15.2l3.9,2.1
				c0.3,0.1,0.7,0.4,0.7,0.7C721,281.4,720.8,281.5,720.7,281.6z M739.7,286.4c-0.1,0-0.9,0-1.1,0.1c-0.2,0.1-2.7,2.8-3.3,3.3
				c-2.6,2.4-5.4,4.7-8.3,6.7v6.9c0,1.5,0.3,2,1.6,2h5.1c1.4,0,1.8-0.9,2.2-3.9l3.7,2.6c-1,4.9-2.3,5.4-5.2,5.4h-7.9
				c-2.5,0-3.5-1-3.5-3.5v-27.5l3.9,0.3c0.5,0,1.2,0.1,1.2,0.5c0,0.2-0.3,0.4-0.4,0.5c-0.1,0.1-0.5,0.4-0.5,0.7v11
				c4-3.2,6.4-5.6,8.6-8.7l3.6,2.2c0.1,0.1,0.8,0.5,0.8,0.8C740,286.1,739.8,286.3,739.7,286.4z"/>
			<path d="M775.2,310.1h-3c-1.1,0-2.6-0.3-2.6-2v-9.6h-2.7l1.5,0.4c0.2,0.1,0.6,0.2,0.6,0.5c0,0.2,0,0.2-0.6,0.8
				c-0.1,0.1-0.1,0.1-0.2,0.7c-1.5,6.9-4.6,8.9-5.8,9.7l-3.7-2c0.7-0.4,1.1-0.7,1.5-0.9h-8.1v2.3h-3.6v-14.1l-3-2.5
				c2.2-1.2,3.5-2.4,5.1-4.8H746v-3h3.3l-3.3-1.5c1.7-1.8,2.9-3.9,3.7-6.1l3.5,1c0.2,0,0.4,0.1,0.4,0.4c0,0.2-0.1,0.3-0.4,0.4
				c-0.3,0.1-0.4,0.2-0.6,0.7h9.5v3.1h-5.5c-0.3,1-0.3,1.2-0.6,2h6.3v3h-3.7l1.4,0.7c0.2,0.1,0.6,0.3,0.6,0.6c0,0.2-0.2,0.3-0.4,0.4
				c-0.4,0.1-0.4,0.2-0.6,0.5c-0.2,0.3-0.6,0.7-0.7,0.9h3.4v2.9h-4.1v1.7h3v2.4h-3v1.8h3.1v2.5h-3.1v2h4v0.9
				c1.9-2.4,2.5-6.5,2.6-7.2h-1.5v-19.2H778v19.2h-4.6v6.7c0,0.5,0.3,0.8,0.7,0.8h0.5c0.5,0,1.1-0.2,1.1-2.2l3.2,1.3
				C778.5,310.1,776.8,310.1,775.2,310.1z M750.9,283.6c-0.4,0.7-0.8,1.3-1.3,2h2.4c0.4-1.1,0.5-1.6,0.6-2H750.9z M754.9,294.5H752
				v1.7h2.9V294.5z M754.9,298.5H752v1.8h2.9V298.5z M754.9,302.8H752v2h2.9V302.8z M754.7,288.6c-0.7,1.3-1.4,2.2-2,3h2.5
				c0.9-1,1.4-1.9,1.9-3H754.7z M774.2,282.7h-7.3v1.9h7.3V282.7z M774.2,287.5h-7.3v2.1h7.3V287.5z M774.2,292.7h-7.3v2.2h7.3
				V292.7z"/>
			<path d="M811.5,309.9H804c-1.9,0-3-0.8-3-2.7v-13.1h-6.3l3.5,0.7c0.4,0.1,0.9,0.2,0.9,0.6c0,0.3-0.3,0.4-0.8,0.7
				c-0.3,5.6-2.2,10.7-10.5,14.6L784,307c8.2-2.9,10-6.3,10-12.9h-9.4v-4.2H798v-11.3l4.5,0.1c0.3,0,1,0,1,0.5c0,0.1,0,0.3-0.3,0.5
				c-0.3,0.3-0.4,0.4-0.4,0.7v9.5H816v4.2h-10.6v10.2c0,0.8,0.5,1.4,1.4,1.4h3.6c1.4,0,1.6-1.6,1.7-3.7l3.8,2.1
				C815.2,308.4,814.9,309.9,811.5,309.9z M791.7,289.7c-1.1-2.3-2.6-4.7-5.1-7.6l3.8-2.4c1.5,1.5,3,3.5,5.3,7.7L791.7,289.7z
				 M812.5,282.9c-0.7,0.1-0.8,0.3-1.1,0.7c-1.1,2.4-1.8,3.8-3.6,6.3l-4.3-2.2c1.3-1.9,2.8-4.4,4.4-7.9l4.3,1.7
				c0.3,0.1,0.8,0.4,0.8,0.8C813,282.6,813,282.7,812.5,282.9z"/>
			<path d="M853.9,297.2c-0.1,3.2-0.1,4.9-0.6,7.5c-0.7,4.2-2.8,5-7.2,5.1l-1.9-3.9c1.7,0.1,3.1,0.1,3.2,0.1c0.8,0,1.9-0.1,2.2-3.3
				c0.2-1.4,0.2-4.6,0.2-8.7h-19.2c-0.2,2.1-0.6,5.1-1.8,9.6c-1,3.5-1.7,4.8-2.6,6.4l-4.1-1.5c1.1-1.8,1.9-3,2.7-5.7
				c1.9-5.9,1.9-10.8,1.9-13.9c0-3.2,0-6.4-0.2-9.6h25.2v9.4h-20.9v2.1h23.3C854,292.4,854,293.8,853.9,297.2z M846.8,282.7h-16.1
				v2.7h16.1V282.7z M835.5,304.9v1.7h-4v-10.3h14.8v8.6L835.5,304.9L835.5,304.9z M842.2,299.4h-6.7v2.1h6.7V299.4z"/>
		</g>
	</g>
	<g>
		<g class="st1">
			<path d="M916.5,309.5h-15.2c-6.2,0-7.5-1.7-9-3.5c-1.4,1.4-3,2.7-3.4,3c-0.5,0.4-0.6,0.5-0.7,0.7c-0.1,0.6-0.1,0.7-0.3,0.7
				c-0.3,0-0.4-0.3-0.5-0.4l-2-3.6c1.7-0.7,3.1-1.4,4.9-2.3v-8.7h-4.1v-3.7h7.9v10.6c0,3.6,3.6,4,7.6,4c2.3,0,8.1-0.1,16.6-0.7
				L916.5,309.5z M891.2,286.4c-1.2-1.9-2.3-3.2-4.4-4.7l2.7-2.2c1.8,1.4,3.1,2.7,4.5,4.7L891.2,286.4z M907.9,283.6v1.8h7.2v11.7
				h-7.2v1.9h9.2v3.2h-9.2v2.9H904v-2.9h-8.3V299h8.3v-1.9h-7v-11.7h7v-1.8h-8.8v-2.8h8.8v-2.4l3.6,0.3c0.6,0,1,0.1,1,0.4
				c0,0.2-0.1,0.3-0.2,0.4c-0.3,0.2-0.4,0.3-0.4,0.4v0.9h9.3v2.8L907.9,283.6L907.9,283.6z M904,288.1h-3.2v1.8h3.2V288.1z
				 M904,292.5h-3.2v1.9h3.2V292.5z M911.2,288.1h-3.4v1.8h3.4V288.1z M911.2,292.5h-3.4v1.9h3.4V292.5z"/>
			<path d="M937.3,296.5v-7c-0.2,0.3-0.7,1-1.2,1.4l-3.6-1.8c0.6-0.5,0.8-0.7,1.4-1.3h-2v4.4c1.1-0.4,2.6-0.8,3.3-1.1l0.1,3.6
				c-0.7,0.3-1.1,0.5-3.4,1.6v9.7c0,3.2-0.8,4-5.3,4l-2.3-4.5c1.3,0.1,1.8,0.2,2.4,0.2c0.8,0,1.1-0.3,1.1-1v-6.6
				c-1.9,0.8-2.2,0.9-2.3,1.1c-0.3,0.4-0.4,0.6-0.6,0.6c-0.4,0-0.4-0.6-0.4-0.9l-0.4-4.4c1.6-0.4,2.2-0.6,3.8-1.1v-5.7h-3.4v-4.1
				h3.4v-5.2l4.2,0.3c0.6,0,0.8,0.2,0.8,0.4c0,0.3-0.3,0.4-0.4,0.6c-0.4,0.3-0.5,0.4-0.5,0.6v3.4h3.7v2.2c1.4-2.1,2.2-3.7,3.5-7.4
				l4.1,1.2c0.2,0,0.7,0.2,0.7,0.5s-0.3,0.4-0.4,0.4c-0.6,0.2-0.9,0.3-1,0.4c0,0-0.6,1.2-0.7,1.4h3c1.2-1.9,1.7-3.2,2.1-4l4.2,1
				c0.2,0.1,0.6,0.2,0.6,0.5c0,0.4-0.3,0.4-0.6,0.4c-0.2,0-0.5,0.1-0.6,0.2c-0.3,0.4-0.7,1.1-1.2,1.8h6.3v2.7h-6.8v1.3h4.9v2.2h-4.9
				v1.4h4.8v2.2h-4.8v1.6h7v2.7L937.3,296.5L937.3,296.5z M946.9,309.9l-2.3-4.2c1,0.3,1.9,0.5,3.2,0.5c3,0,3.1-1.4,3.2-2.2h-1.5
				l-0.4,0.9l-4.1-0.4l1.4-3.8h-3.1c-0.7,5.1-3.7,8-6.7,9.6l-4.4-2.4c3.9-1.7,6.1-3.5,6.8-7.2h-4.2v-3.3h15.6l1,1l-0.8,2.4h5.1
				C955.3,309.5,952.5,309.8,946.9,309.9z M944.8,285.2h-3.6v1.3h3.6V285.2z M944.8,288.7h-3.6v1.4h3.6V288.7z M944.8,292.2h-3.6
				v1.6h3.6V292.2z"/>
			<path d="M969.6,311.6l-2.9-1.4l7.3-16l-7.3-16l2.9-1.4l7.9,17.4L969.6,311.6z M974.6,311.6l-2.9-1.4l7.4-16l-7.4-16l2.9-1.4
				l7.9,17.4L974.6,311.6z"/>
			<path d="M1018,286.7c-1.6,4.3-3.4,8.9-7.4,13.7c-3.8,4.6-7.8,6.8-10,8l-4-3.2c6.3-3,12.8-7.7,16.6-18.7h-19.5v-4.3h20.7
				c0.4,0,0.8-0.3,1.2-0.6l3.6,3.3C1018.6,285.5,1018.4,285.9,1018,286.7z"/>
			<path d="M1041.1,294.5l0.2,12.3c0,2.9-3.3,3.1-4.4,3.1c-0.6,0-1.5,0-1.7-0.1l-1.4-3.6c1,0.1,1.3,0.1,1.9,0.1c0.8,0,2-0.1,2-0.8
				l-0.2-8c-2,2.5-5.1,5.9-9.7,8.5l-2.6-2.5c1.5-0.7,3.1-1.4,6.1-4.1c2.7-2.4,3.8-4.1,4.6-5.1h-9.6v-3.2h11.1l-0.1-5.7l3.3,0.3
				c0.2,0,0.9,0.1,0.9,0.5c0,0.3-0.4,0.6-0.6,0.8l0.1,4.2h5.9v3.2h-5.8L1041.1,294.5L1041.1,294.5z"/>
			<path d="M1072.1,300.1c-2.7-2.5-6.4-5.5-10.8-7.3v15.8h-4.3v-29l4.4,0.8c0.1,0,0.9,0.1,0.9,0.6c0,0.2-0.9,0.8-0.9,1v9.6l1.7-2.7
				c1.9,0.8,3.1,1.3,6.2,3.3c2.9,1.9,4.2,3.1,5.7,4.4L1072.1,300.1z"/>
			<path d="M1100.8,307.5v-1.6h-19.1v-3.8h19.1v-6.2h-18.4v-3.7h18.4V286H1082v-3.8h23v25.3H1100.8L1100.8,307.5z"/>
			<path d="M1132.4,305.8v-1.3h-19.1v-4h19.1v-12.7h-19.1v-4.1h23.4v22.1H1132.4z"/>
			<path d="M1158.1,285.6c-0.1,0-0.6,0.4-0.7,0.4c-0.2,0.2-0.8,2.6-0.9,3.1c-2.6,8.4-5.9,13.1-8.1,16.2l-4.7-2
				c4.8-4.9,8.1-12.8,9.3-19.7l4.4,1c0.1,0,0.9,0.2,0.9,0.6C1158.4,285.4,1158.4,285.5,1158.1,285.6z M1172.1,304.3
				c-1.4-6.1-5.1-13.8-8.6-18.7l3.8-2.2c3.4,4.4,7,11.7,9.3,18.8L1172.1,304.3z"/>
			<path d="M1211.6,288.6c-0.9,0.9-6.1,6.1-10.7,10.9c1.4,1.6,2.1,2.6,3.1,4.1l-3.7,3c-2.7-5.1-6.3-8.6-9.2-11l2.9-2.9
				c1.4,1.1,2.5,2,4,3.6c2.9-2.9,4.9-5,7.4-7.7h-20.6v-4.1h23.7c0.5,0,1.1-0.4,1.7-0.8l3,3.6
				C1212.6,287.8,1212.1,288.3,1211.6,288.6z"/>
			<path d="M1220.1,305c3.3-3.4,5.7-6.1,7.6-8.2c3.2-3.3,4.3-5,4.3-7.4c0-2.7-1.7-4.1-3.6-4.1s-3.7,1.1-3.8,4.9h-4.7
				c0-3.3,1-5.7,2.5-7.3c1.6-1.6,3.7-2.3,6-2.3c4.9,0,8.3,3.6,8.3,8.8c0,2.5-0.7,4.7-2.6,7.2c-1.9,2.3-4.5,5-7.9,8.5h10.7v4.3h-16.8
				V305z"/>
			<path d="M1243.4,290.2c0-6,3.6-9.5,8.7-9.5s8.7,3.5,8.7,9.5v10.3c0,6-3.6,9.5-8.7,9.5s-8.7-3.5-8.7-9.5V290.2z M1247.8,300.3
				c0,4,2.1,5.5,4.3,5.5c2.2,0,4.3-1.6,4.3-5.5v-9.8c0-4-2.2-5.5-4.3-5.5s-4.3,1.6-4.3,5.5V300.3z"/>
			<path d="M1270.9,285.3h-4.4v-4.1h8.8v28.4h-4.4V285.3z"/>
			<path d="M1298.9,281.2v3.8l-9,24.6h-5l9-24.3h-11.4v-4.1H1298.9z"/>
		</g>
	</g>
	<g>
		<g class="st1">
			<g>
				<g>
					<g>
						<path d="M188.2,220.2c-0.2-7.6-2.1-12.3-10.5-12.3c-6.7,0-10.9,2.3-10.9,9.6c0,9.2,4.6,9.4,11.7,14.5
							c7.6,5.5,15.4,7.1,15.4,19.1c0,11.1-5.7,16.4-16.4,16.4c-12.1,0-17.5-6.5-17-18.6h5.7c0,6.9,0.5,14,11.6,14
							c7.2,0,10.7-3.9,10.7-11c0-8.4-5.6-10.8-14.5-16.3c-12-7.4-12.5-11.1-12.6-17.2c-0.1-10.7,6.7-15.2,16.8-15.2
							c12.8,0,15.6,8,15.6,16.9h-5.6V220.2L188.2,220.2z"/>
						<path d="M195.4,226.4v-4.2h7.1v-9.1l5.2-2.3v11.4h8.9v4.2h-8.9v28.3c0,5.9,0.6,7.3,4.8,7.3c1.8,0,3-0.1,4.1-0.3v4.5
							c-1.6,0.2-3.3,0.3-5,0.3c-7.1,0-9.2-3.2-9.2-8.6v-31.5L195.4,226.4L195.4,226.4z"/>
						<path d="M248.4,222.2v44.2h-4.5v-4.9h-0.2c-3.1,3.8-6.2,5.8-11.1,5.8c-9.1,0-11.6-6.6-11.6-13.8v-31.2h5.2v30.3
							c0,1.2-0.3,10.5,7.3,10.5c7.1,0,9.6-6.6,9.6-9.7v-31.1L248.4,222.2L248.4,222.2L248.4,222.2z"/>
						<path d="M277.2,260.8l-0.2,0.1c-2.7,4.2-6,6.4-11.2,6.4c-12.8,0-13.5-12.7-13.5-23c0-8.5,0-22.9,13.6-22.9c4,0,8,1.8,10.7,5.2
							l0.2,0.1v-23.4h5.2v54.4c0,4.4,0.3,7.3,0.5,8.7h-5.1L277.2,260.8z M277.1,248.3v-7.9c0-2.6,0-14.9-9.9-14.9
							c-9.4,0-9.4,8.6-9.4,18.9c0,16.4,3.9,18.6,9.6,18.6C272.2,263.1,277.1,259,277.1,248.3"/>
						<path d="M287.5,209.9h6.5v6.6h-6.5V209.9z M288.2,222.2h5.2v44.2h-5.2V222.2z"/>
						<path d="M298.1,249.1v-9.5c0-11.5,4.9-18.2,15.2-18.2c10.3,0,15.2,6.7,15.2,18.2v9.5c0,11.5-4.9,18.2-15.2,18.2
							S298.1,260.5,298.1,249.1 M303.4,244.3c0,11.5,1.3,18.8,10,18.8s10-7.3,10-18.8s-1.3-18.7-10-18.7
							C304.7,225.6,303.4,232.8,303.4,244.3"/>
					</g>
				</g>
				<path d="M-100.6,231.3V208h11.1c4.5,0,10.2,0.2,10.2,10.7c0,7.1-2.5,12.6-10.6,12.6H-100.6z M-88.4,266.3c10.5,0,16-6.2,16-17.5
					c0-7.9-2.2-13.4-10.5-15.2v-0.2c7.9-2.2,9.2-7.4,9.2-15c0-11.1-5.1-15.1-14.9-15.1h-17.6v63H-88.4z M-100.6,236.1h11.3
					c9.6,0,11.2,7.6,11.2,13.2c0,9.2-4.4,12.4-13.7,12.4h-8.8V236.1z"/>
				<path d="M-44.6,251.8c0,5.7-4.9,11.2-10.9,11.2c-5.4,0-7.9-4.1-7.9-9.1c0-10.7,11.3-9.9,18.8-10.1
					C-44.6,243.8-44.6,251.8-44.6,251.8z M-44.3,266.3h5.4c-0.5-5.1-0.5-7.9-0.5-11.1V233c0-11.2-9.2-11.7-13.7-11.7
					c-7.7,0-14.2,3.3-14.7,11.8h5.6c0-5.2,3.8-7.6,8.7-7.6c7,0,8.9,4,8.9,10.4v3.6c-8.9,0.7-24.4-0.9-24.4,14.6
					c0,7.7,4.3,13,12.1,13c5.4,0,9.7-2.1,12.5-6.3h0.2L-44.3,266.3L-44.3,266.3z"/>
				<path d="M-28.5,266.3h-5.2v-44h5.2v5.4h0.2c2.5-3.7,6-6.3,10.6-6.3c10.9,0,12,8.1,12,13.9v31h-5.2v-30.8c0-5.1-2-10-8.1-10
					c-4.7,0-9.5,3.3-9.5,13.1V266.3z"/>
				<polygon points="0.1,203.3 5.3,203.3 5.3,241.7 5.5,241.7 20.7,222.3 26.8,222.3 11.2,241.9 27.8,266.3 21.2,266.3 5.5,242.3 
					5.3,242.3 5.3,266.3 0.1,266.3 				"/>
				<path d="M36.1,245l10.6-35.6h0.2L57.6,245H36.1z M43.8,203.3l-19.9,63h5.6l5-16.6h24.7l5,16.6h5.9l-19.6-63L43.8,203.3
					L43.8,203.3z"/>
				<path d="M79.3,208h11.4c6.5,0,10,1.7,10,10.3c0,10.5-3.9,12.7-12.3,12.7h-9.1V208L79.3,208z M89.8,235.8
					c12.1,0,10.3,12.1,10.4,14.8c0.1,3.4,0.4,13.9,0.9,15.7h5.3c-0.2-2.4-0.6-4.9-0.6-7.3c0-22.5-0.5-23.6-9.3-25.4v-0.2
					c8.4-1.9,9.8-7.1,9.8-15c0-11.1-3-15.1-15.2-15.1H73.7v63h5.6v-30.5L89.8,235.8L89.8,235.8z"/>
				<polygon points="125.2,208 109.9,208 109.9,203.3 146.2,203.3 146.2,208 130.8,208 130.8,266.3 125.2,266.3 				"/>
				<path d="M376.7,204v46.3h-0.2c0,0-17.5-45.5-17.8-46.3h-16.1v61.9h10.7v-48.8h0.2c0,0,17.9,48,18.3,48.8h15.7V204H376.7z"/>
				<path d="M423.7,204c-0.3,0.8-10.6,28.1-10.6,28.1s-9.7-27.2-10-28.1h-12.7c0.7,1.8,16.1,40.2,16.1,40.2s0,20.4,0,21.7H418v-21.6
					c0,0,16.5-38.5,17.3-40.3L423.7,204L423.7,204z"/>
				<path d="M464.8,204c-0.4,0.7-15.1,26.6-15.1,26.6h-0.2v-26.7h-11.6v61.9h11.6v-31.7h0.2c0,0,14.5,30.9,14.8,31.7h13
					c-0.9-1.8-17.4-34.1-17.4-34.1s16.1-25.8,17.3-27.7L464.8,204L464.8,204z"/>
			</g>
		</g>
		<path class="st1" d="M582.4,261.4c-8.3-4.2-13.1-7.6-19.3-14.3v15.6h-8v-15.9c-3.5,3.8-8.8,9.5-19.7,14.9l-5.9-5.4
			c7.3-2.6,12.3-5.5,20.2-13.8h-12.2v-22.2H555v-3.6h-24.6v-6.3H555v-5.6l8.1,0.5c0.8,0.1,1,0.4,1,0.7c0,0.2-0.3,0.5-0.4,0.6
			c-0.6,0.5-0.7,0.6-0.7,0.9v2.8h24.6v6.4H563v3.6h17.8v22.2h-13.1c4.4,4.6,9,7.9,19.9,13.1L582.4,261.4z M555,225.4h-9.9v3.1h9.9
			V225.4z M555,233.9h-9.9v3.2h9.9V233.9z M573.2,225.4h-10v3.1h10V225.4z M573.2,233.9h-10v3.2h10V233.9z"/>
		<path class="st1" d="M594.2,217v-6.3h25v-5.9l9.2,1.1c0.4,0.1,0.9,0.2,0.9,0.7c0,0.2-0.2,0.4-0.5,0.5c-0.8,0.5-1.2,0.8-1.2,1v2.6
			H652v6.3L594.2,217L594.2,217z M615,247.1c-0.9,0.2-1,0.3-1.1,0.5c-5.4,6.9-6.7,8.4-11.6,12.8l-7.1-4.1c6.5-5.3,10-10,13-15.1
			l7.2,4.5c0.2,0.1,0.3,0.5,0.3,0.7C615.7,246.9,615.2,247.1,615,247.1z M626.8,240.1V256c0,2.2-0.5,5-3,5.8c-1.5,0.5-4.2,1-8.5,1.1
			l-3.3-7.7c1.6,0.2,2.8,0.4,4.3,0.4c1.8,0,2.4-0.7,2.4-2v-13.5h-16.8V221h42.2v19.1H626.8z M635.9,227.1h-25.8v6.8h25.8V227.1z
			 M642.8,260.6c-3.6-5.5-7.5-9.8-12.4-13.9l5.2-5.5c5.3,4.4,9.4,8.7,13.5,14.1L642.8,260.6z"/>
		<path class="st1" d="M715.5,243c-1,1.6-1.8,1.9-2.8,1.9c-1.3,0-5.3-0.7-7.7-8l-2.8,4.9c-1.3-1.2-2.8-2.2-4-3
			c-1.3,1.7-2.3,2.7-4,3.8h10.3v4.8h-35.9V245c-2.6,0.2-4.4,0.3-6.8,0.3c-0.2,0.1-0.6,0.1-0.9,0.4c-0.5,0.5-0.5,0.5-0.7,0.5
			c-0.5,0-0.7-0.3-0.9-1.5l-0.5-4.8c4.3,0,8.9-0.3,12.4-0.5v-1.8h-6.6v-2.4c-0.9,0.6-1.2,0.7-3.6,1.7l-3.5-4.7
			c1.8-0.4,4.3-1.5,6.1-4.1h-5.9v-4.3h12.2v-1.7h-8.5v-4.3h8.7v-2.1h3.1v-2.3H658v-5.6h15.3v-3.4l7.6,0.6c0.9,0.1,1.7,0.2,1.7,0.9
			c0,0.3-0.1,0.4-0.8,0.9c-0.3,0.2-0.3,0.3-0.3,1h11.2v-3.2l7.9,0.3c1.3,0.1,1.7,0.4,1.7,0.8c0,0.3-0.1,0.5-0.7,0.8
			c-0.7,0.4-0.7,0.4-0.7,1.3h14.9v5.6h-14.9v3.8l2.4,0.3c1.1,0.1,1.6,0.3,1.6,0.9c0,0.3-0.1,0.5-0.6,0.9c-0.6,0.4-0.6,0.6-0.7,2.5
			h8.3c-0.5,2.6-1.1,5.8-1.1,8.4c0,1.4,0.3,5,1.1,5c0.5,0,1.1-1.3,1.4-3l4.7,4C717.5,239.7,716,242.2,715.5,243z M706.9,254.4
			c2.4,1.4,4.6,2.9,6.6,4.8l-4.3,4.8c-1.8-1.7-4.4-3.5-6-4.5c-3.5,0.5-18.8,2.4-38.4,3.4c-0.9,0.1-1.2,0-1.7,0.5
			c-0.5,0.6-0.6,0.7-1,0.7c-0.5,0-0.6-0.4-0.7-1.3l-1-5.4c3.8,0.1,12.4-0.3,16.3-0.5c0.7-1,1.1-2,1.4-2.6h-20v-4.9h58.1v4.9h-9.3
			L706.9,254.4L706.9,254.4z M676.5,228.1H667l3,1.7c0.3,0.1,0.7,0.4,0.7,0.8c0,0.4-0.7,0.6-1.4,0.6c-0.3,0.3-0.8,0.9-1.1,1.2h3.2
			v-2l5.2,0.4L676.5,228.1L676.5,228.1z M692.8,217.3v-3.9h-11.3v2.8h-4v1.6h8v4.3h-8v1.7h10.4v4.3h-5.6v2.2c0,0.4,0.1,1,0.9,1
			c0.8,0,1.2-0.6,1.5-2.1l4.5,2.2c-0.2,3.4-1.9,4.5-4.2,4.5h-2.4v1.8h-4.2v1.3c2.9-0.2,4.8-0.4,6.6-0.5l-1.9,4.1h6.1l-3.8-2.8
			c3.3-0.9,5.3-1.9,7.6-4.2c-1.1-0.5-2.2-1.1-3.5-1.6l3.2-4.9c1.1,0.5,1.7,0.7,3.2,1.3c0.5-1.3,0.5-1.3,0.9-3.1h-5.4v-5.6h5.9
			c0-1,0.1-3.4,0.1-4.4L692.8,217.3L692.8,217.3z M694.2,254.4h-8.7c-0.5,1.4-0.6,1.6-0.9,2.2c7.3-0.4,8.8-0.5,12.2-0.9
			C696.5,255.5,694.7,254.7,694.2,254.4z M703,227.3c-0.5,3.2-0.9,4.4-1.6,5.9c2,0.9,2.6,1.4,3.2,1.8c0-0.3-0.2-1.7-0.2-2.8
			c0-1.3,0.1-2.5,0.3-4.8L703,227.3L703,227.3z"/>
		<path class="st1" d="M776.5,228.6V255c0,6-1.7,7.9-7.7,7.9h-4.2l-2.4-7.2c1.1,0,5,0.1,5.6,0c0.7-0.1,1.3-0.3,1.3-2v-25.1h-7.9
			v-4.3H754V263h-7.1v-38.7h-8.4V223c-0.5,0.7-1,1.8-2.9,4.5c0.4,0.2,1.3,0.6,1.3,1.3c0,0.3-0.2,0.5-0.5,0.7c-0.9,0.8-1,0.9-1,1.5
			v18.2c2-6.7,2.8-11.8,3-20l6.8,0.9c0.7,0.1,1.3,0.5,1.3,1c0,0.6-0.9,0.9-1.3,1.1c-0.3,7.1-1.5,15.6-3.1,19.6l-6.7-1.5v12.4h-7.5
			v-25.3c-1,1.1-1.1,1.3-2.2,2.4l-6.1-4.6c5.5-5,10-11.2,13.4-17.9l5.5,2.7v-3h8.4v-12.6l7,0.3c0.7,0,1.5,0.3,1.5,0.9
			c0,0.1-0.1,0.5-0.5,0.7c-0.6,0.5-0.9,0.7-0.9,1.3v9.3h7.5v4.7H780v6.8h-3.5V228.6z M738,210.7c-0.7,0.1-0.9,0.1-1.4,0.5
			c-4,4-7.1,6.4-10.7,8.9l-5.5-5.3c4.4-2.9,8.7-6.1,12.2-10.1l5,3.8c0.9,0.7,1.1,1,1.1,1.3C738.9,210.6,738.4,210.7,738,210.7z
			 M756.7,216c-0.9-4.4-1.7-6.2-2.2-7.2l5-1.5c1.3,2.6,2,4.6,2.7,7.3L756.7,216z M757.5,250.8c-0.1-4.6-0.3-11.2-1.7-20.7l6.4-0.7
			c1.1,6.7,1.6,12.6,1.7,20L757.5,250.8z M763,214v-6.7h16.3v6.7H763z"/>
		<path class="st1" d="M837.9,263.2c-13.5-8.3-18.3-14.4-23-25c-6.3,13.1-12.6,19.7-24.3,25.4l-6.6-5.9
			c15.5-6.3,21.7-15.2,25.2-29.3h-23.3v-7.3H810c0.3-3,0.3-6.4,0.3-7.4c0-3.9-0.1-6.8-0.3-8.9l9,0.5c0.5,0,1.1,0.1,1.1,0.8
			c0,0.5-0.7,1.1-1.3,1.7c-0.1,1.4-0.1,0.5-0.1,3.9c0,0.6-0.1,6.3-0.3,9.5h25.3v7.3h-24.6c4.1,12.9,9.4,20.4,25.8,28.3L837.9,263.2z
			"/>
		<path class="st1" d="M898.5,233.3v-8.1h-39.9v8.4h-7.2v-14.7h33.4c3.2-3.9,6.2-8,8.2-12.6l6.7,2.2c0.4,0.1,1.1,0.6,1.1,1.1
			c0,0.3-0.1,0.3-0.3,0.4c-0.2,0.2-1.7,0.5-2,0.8c-1.4,2.6-2.8,4.8-5.2,8.1H906v14.3h-7.4L898.5,233.3L898.5,233.3z M882.9,247.7
			v10.2c0,4.7-3.9,5.8-8,5.8h-4.2l-3-7.1c0.8,0.1,4.6,0.4,5.4,0.4c1.1,0,1.6-1,1.6-2v-7.3h-23.2v-6.6h23.2v-4.2l3.2,0.5
			c1.5-1.3,2-2,2.6-2.8h-18v-6.2H893l1.9,3c-3,2.8-8.3,7.1-12,9.8h22.8v6.6L882.9,247.7L882.9,247.7z M861.8,218.4
			c-1.6-3.3-3.2-5.8-5.8-8.9l6.2-3.8c2.2,2.6,4.2,5.1,6,8.7L861.8,218.4z M877,217.1c-1.7-3.4-3.4-6.3-6.3-9.7l6.1-3.6
			c3.2,3.7,5,6.8,6.6,9.9L877,217.1z"/>
		<g class="st1">
			<path d="M1004.3,249.3c-1.2,4.6-2.8,9.1-5.5,13l-8-3c2.2-3,5-7,6.9-14.5l7.1,2c0.4,0.1,1.1,0.5,1.1,1S1005.5,248.6,1004.3,249.3z
				 M1047.9,252.7c-2.5,9.1-6.3,9.5-13.9,9.7l-3.5-8.1c2.2,0.3,3.9,0.5,5.1,0.5c1.7,0,3.3-0.2,4.6-4.6c0.9-3.2,1.1-6.9,1.1-8.2
				h-34.8v2.2h-7.9v-37.8h48.6v6.2h-20.5v3.4h16v6.1h-16v3.5h16v6.2h-16v3.8h23.5C1050.1,238.5,1049.8,246,1047.9,252.7z
				 M1007.6,259.3c-0.1-4.5-0.5-8.4-1.8-12.4l7-1.1c1.7,4.8,2.3,8.5,2.5,12.4L1007.6,259.3z M1018.4,212.6h-11.8v3.4h11.8V212.6z
				 M1018.4,222.2h-11.8v3.5h11.8V222.2z M1018.4,231.8h-11.8v3.8h11.8V231.8z M1018.6,257.3c-1.3-6.3-2.7-9.5-3.4-11l7-1.1
				c2.4,5.1,2.9,8.1,3.2,10.2L1018.6,257.3z M1029.1,254.2c-1.1-3.4-2-5.6-3.6-8.8l6.7-1.6c1,2,2.6,5,3.3,8.1L1029.1,254.2z"/>
			<path d="M1088.8,252.6v10.2h-7.8v-10.2h-25v-6.2h25V243h-16.9v-23.6h16.9v-3.2h-22.9v-6h22.9v-5.4l8.1,0.5c0.5,0,0.9,0.3,0.9,0.7
				c0,0.3-0.3,0.5-0.5,0.8c-0.3,0.3-0.7,0.7-0.7,0.9v2.6h23.8v6h-23.8v3.2h17.3v23.6h-17.3v3.4h25.2v6.2L1088.8,252.6L1088.8,252.6z
				 M1080.9,225.4h-9.6v3.1h9.6V225.4z M1080.9,233.9h-9.6v3.1h9.6V233.9z M1098.8,225.4h-10v3.1h10V225.4z M1098.8,233.9h-10v3.1
				h10V233.9z"/>
			<path d="M1176.1,261.2h-27.5c-4.2,0-8.6-0.3-12-1.5c-3.6-1.3-5-3.5-5.7-4.7c-0.9,0.9-2.4,2.4-5,4.4c-2.1,1.7-2.2,1.8-2.4,2.4
				c-0.3,0.9-0.3,1.1-0.6,1.1c-0.1,0-0.5-0.2-0.9-0.8l-3.5-7.1c5.5-2.2,7.3-3.3,8.5-4v-15h-6.9v-7.2h14.6v21c0,4.2,3.8,5.1,13.9,5.1
				c10.3,0,20.6-0.3,30.7-1.5L1176.1,261.2z M1129.4,219.5c-3-3.8-5.7-6.1-9.1-8.1l5.4-5.5c3,2,5.7,4,9.3,8.3L1129.4,219.5z
				 M1160.4,217.5c-1.3,2-2.1,3-3,4h15.7v30.1h-7.4V250h-16.3v1.6h-7.3v-30.1h8.1c1-1.3,1.5-2.2,2.4-4h-14.9v-5.6h8.3
				c-1.3-2.8-2.5-4.2-3.4-5.5l6.3-2.8c1.9,2.6,3.2,4.5,4.3,7.2l-2.4,1.1h9.4c1.5-2.8,2.4-4.6,3.5-7.6l7.6,2c0.2,0.1,1.1,0.3,1.1,0.7
				c0,0.1-0.1,0.3-0.6,0.5c-0.6,0.1-0.7,0.2-0.8,0.3c-1.1,1.5-1.7,2.3-3.2,4h10v5.6h-17.4L1160.4,217.5L1160.4,217.5z M1165.6,226.2
				h-16.3v3.1h16.3V226.2z M1165.6,234h-16.3v3.1h16.3V234z M1165.6,241.5h-16.3v3.2h16.3V241.5z"/>
			<path d="M1201.9,240.4c-1-1.1-2.4-2.6-3.6-4.2v26.7h-7v-19.5c-1.1,2.6-2.9,5.4-4.4,7.5l-5.9-3.4c5.5-6.5,8.7-16.3,9.8-23.8h-7.1
				v-6.5h7.6v-12l6.6,0.5c0.5,0.1,1.5,0.1,1.5,0.7c0,0.3-0.1,0.5-0.5,0.8s-0.7,0.5-0.7,0.7v9.4h7.4v6.5h-7.4c0.9,3.1,4,8.2,8.3,11.6
				L1201.9,240.4z M1238.6,262.5c-6.5-3-10.4-5.7-15.6-11.5c-3.4,3.4-7.3,7-16.5,11.5l-5.2-5.2c3.6-1.5,12.1-5.2,17.7-11.6
				c-1.2-1.9-3.2-5-6-11.3c-0.3,0.5-0.7,1.2-1.3,2l-6.3-2.6c4-5.3,6.3-10.2,7.9-14.9l5.5,2.2c0.5,0.2,1.3,0.6,1.3,1.1
				c0,0.3-0.5,0.5-0.7,0.6c-0.7,0.3-0.7,0.3-0.9,0.6c-1.4,3.4-2.2,5.3-4.2,8.8l4.2-2.3c2,5.7,3.6,8.4,4.7,10.4
				c2.4-4.2,3.5-7,4.6-11.6l4.4,0.9c-1.7-2.2-3.6-4.6-6.9-7.5l5.6-3.8c5.1,4.9,9.6,10.4,11.8,13.8l-6.5,3.8c-1-2-1.8-3.3-2.3-4
				c-1.5,5.3-3.1,8.9-6.5,14.1c5.4,5.9,10,8.4,16.5,10.8L1238.6,262.5z M1206.9,217.7v-6.6h13v-6.4l6.8,0.3c1,0.1,1.5,0.2,1.5,0.8
				c0,0.3-0.1,0.4-0.4,0.6c-0.9,0.7-1,0.7-1,1v3.7h15v6.6L1206.9,217.7L1206.9,217.7z"/>
			<path d="M1300.6,228c-2.8-1.1-5.5-2.4-9-4.4v4.6h-11.4v3.5h22.5v6.5h-52.1v-6.5h21.9v-3.5h-11V223c-3.6,2.3-6,3.6-9.5,4.8
				l-6.1-5.6c10.1-3.6,19.3-9.5,25.8-17.6l8.1,0.9c0.7,0.1,1.4,0.5,1.4,1c0,0.1-0.1,0.3-0.1,0.4c7.3,7.3,16.8,11.9,26.7,14.8
				L1300.6,228z M1287.8,263.1v-2.3h-22.7v2.3h-7.5v-21h38v21H1287.8z M1275.9,211.6c-4.2,4.4-7.3,6.9-12.2,10.1h9v-5.1l7.3,0.2
				c0.7,0,1.5,0.1,1.5,0.9c0,0.3-0.1,0.5-0.5,0.9c-0.5,0.5-0.7,0.7-0.7,1v2.1h8.3C1283.1,218.1,1279.4,215.5,1275.9,211.6z
				 M1287.8,248.3h-22.7v6.3h22.7V248.3z"/>
		</g>
		<g class="st1">
			<path d="M512.5,204.6h5.9l-22,61h-5.9L512.5,204.6z"/>
		</g>
		<g class="st1">
			<path d="M939.1,214.6v1.6h6.2v10.5h-4.2c1.4,1.2,3.7,2.3,5.5,2.8l-1.8,2.4c-2.2-0.8-4.3-1.8-6.3-3.6l1.5-1.6h-5.2l1.2,1.1
				c0.3,0.3,0.5,0.5,0.5,0.7s-0.2,0.2-0.6,0.2c-0.1,0-0.2,0-0.4,0.2c-1.7,1.5-4.2,2.8-5.2,3.2l-2.2-2.4c2.4-0.8,4.5-2,5.6-3.1h-3.8
				v-10.5h5.9v-1.6h-7.2v-2.1H926v1.8c0,0.7,1.1,2.3,1.6,3c0.4,0.6,0.9,1.3,1.4,1.9l-1.9,2.3c-0.8-1.1-1-1.4-1.1-1.6v12.3h-3.2
				v-10.9c-0.5,1-1.2,2.1-1.9,3l-2.8-1.7c2.1-2.5,4-5.9,4.7-10.1h-3.4v-3.1h3.4v-4.8l3,0.3c0.2,0,0.7,0.1,0.7,0.3
				c0,0.1-0.1,0.2-0.2,0.4c-0.3,0.3-0.3,0.3-0.3,0.4v3.5h2.6v2.8h4.1v-2.4h-2.8v-2.5h2.8v-2.8l3.2,0.2c0.3,0,0.6,0.1,0.6,0.3
				c0,0.1-0.1,0.2-0.3,0.3c-0.2,0.2-0.3,0.2-0.3,0.3v1.6h3v-2.8l3.1,0.2c0.5,0,0.7,0.1,0.7,0.3c0,0.1-0.1,0.2-0.2,0.2
				c-0.1,0.1-0.2,0.2-0.2,0.3v1.8h4.2v2.5h-4.2v2.4h4.9v2.5L939.1,214.6L939.1,214.6z M935.8,218.6h-2.6v1.8h2.6V218.6z
				 M935.8,222.4h-2.6v2h2.6V222.4z M938.9,209.7h-3v2.4h3V209.7z M942,218.6h-2.9v1.8h2.9V218.6z M942,222.4h-2.9v2h2.9V222.4z"/>
			<path d="M928,254.4c-0.5-0.5-1.2-1.2-1.7-2v12.8h-3.4v-9.4c-0.5,1.2-1.4,2.6-2.1,3.6l-2.8-1.6c2.6-3.1,4.2-7.8,4.7-11.4h-3.4
				v-3.1h3.7v-5.9l3.2,0.2c0.3,0,0.7,0.1,0.7,0.3c0,0.1,0,0.2-0.2,0.4c-0.2,0.1-0.3,0.3-0.3,0.4v4.5h3.6v3.1h-3.6
				c0.4,1.5,1.9,3.9,4,5.6L928,254.4z M945.5,265c-3.1-1.4-5-2.7-7.5-5.5c-1.6,1.6-3.5,3.4-7.9,5.5l-2.5-2.5
				c1.7-0.7,5.8-2.5,8.5-5.6c-0.6-0.9-1.5-2.4-2.9-5.4c-0.1,0.2-0.4,0.6-0.6,0.9l-3-1.3c1.9-2.6,3-4.9,3.8-7.2l2.6,1.1
				c0.3,0.1,0.6,0.3,0.6,0.5s-0.3,0.3-0.4,0.3c-0.3,0.1-0.4,0.2-0.4,0.3c-0.7,1.6-1,2.5-2,4.2l2-1.1c1,2.7,1.7,4,2.3,5
				c1.2-2,1.7-3.4,2.2-5.6l2.1,0.5c-0.8-1-1.7-2.2-3.3-3.6l2.7-1.8c2.5,2.4,4.6,5,5.7,6.6l-3.1,1.8c-0.5-1-0.9-1.6-1.1-1.9
				c-0.7,2.6-1.5,4.3-3.1,6.8c2.6,2.8,4.8,4,7.9,5.2L945.5,265z M930.4,243.5v-3.1h6.2v-3.1l3.3,0.1c0.5,0,0.7,0.1,0.7,0.4
				c0,0.1-0.1,0.2-0.2,0.3c-0.4,0.3-0.5,0.4-0.5,0.5v1.8h7.2v3.2L930.4,243.5L930.4,243.5z"/>
			<path d="M956.3,218.2c-0.9-0.6-2.2-1.5-5.6-2.7l1.8-3.2c1.9,0.7,3.7,1.7,5.4,2.9L956.3,218.2z M956.8,227.1
				c-0.3,0.6-1.8,3.5-1.8,3.7c0,0.1,0,0.5,0,0.6s0,0.4-0.3,0.4c-0.1,0-0.4-0.1-0.6-0.3l-3.1-1.9c2-2.7,3.7-5.9,5.2-9.6l2.9,1.7
				C958.4,223.5,957.5,225.3,956.8,227.1z M958.1,210.6c-1.8-1.5-3.8-2.4-5.2-3l2-3c1.7,0.7,3.6,1.8,5.2,3L958.1,210.6z
				 M965.3,223.3l2.8,2.4c0.2,0.2,0.4,0.4,0.4,0.6c0,0.4-0.6,0.4-1.1,0.3c-0.5,0.5-3.3,3.5-6.2,5.3l-3.4-2.6
				c1.2-0.5,2.5-1.1,4.2-2.6c1.9-1.6,2.4-2.6,3-3.6h-5.1v-3.5h2.3v-14.1c1.3,0.3,2.1,0.5,2.7,0.5c1.1,0,2.6-0.2,2.9-0.3
				c4.8-0.8,5.9-1.2,7.8-2.1l1.8,2.9c0.1,0.2,0.4,0.6,0.4,0.8s-0.2,0.2-0.4,0.2c-0.1,0-0.7-0.1-0.9-0.1s-2.1,0.4-2.4,0.4
				c-1.3,0.3-5.3,0.8-8.2,0.9v2.5h12.7v3.4h-5v5h6v3.5h-14.3V223.3L965.3,223.3z M970,214.9h-4v5h4V214.9z M977.6,232.1
				c-3.6-2.1-5.9-4.6-7.4-6.5l2.8-2.1c1.9,2.6,4.6,4.4,7.5,5.9L977.6,232.1z"/>
			<path d="M962,259.5c-1.9,0.7-3.9,1.3-5.9,1.9c-0.3,0.1-1.9,0.5-2.2,0.6c-0.7,0.2-1,0.3-1.3,0.6c-0.2,0.2-0.3,0.4-0.5,0.4
				c-0.1,0-0.3-0.1-0.3-0.2l-0.6-4c1.3-0.2,2.7-0.6,3.8-0.8v-9.7h-3.5v-3.6h3.5v-7.3l3.8,0.2c0.2,0,0.4,0.1,0.4,0.3
				s-0.3,0.3-0.3,0.4c-0.2,0.1-0.4,0.2-0.4,0.4v6h3.1v3.6h-3.1v8.8c1.8-0.5,2.5-0.7,3.5-1V259.5z M975.8,264.8h-7
				c-2.6,0-4.8-1.3-4.8-4v-8.5l-3,1.2l-1-3.3l4.1-1.6v-9.3l3.7,0.4c0.2,0,0.4,0.1,0.4,0.3s-0.1,0.3-0.2,0.4
				c-0.2,0.2-0.4,0.3-0.4,0.5v6.4l2.1-0.8v-9.1l3.7,0.3c0.2,0,0.4,0.1,0.4,0.3c0,0.1-0.1,0.3-0.2,0.4c-0.2,0.2-0.5,0.4-0.5,0.5v6.3
				l4.6-1.8l1.7,0.9v10.9c0,2.9-2.5,3.1-4.3,3.1l-1.9-3.3c0.6,0.1,1.2,0.2,1.7,0.2c0.9,0,1-0.9,1-1.2v-6.1L973,249v9.6h-3.5v-8.2
				l-2.1,0.8v8.5c0,1.6,0.5,1.9,1.5,1.9h5.7c1.4,0,1.7-1.2,2-2.5l3.4,1.3C979.5,262,978.6,264.8,975.8,264.8z"/>
		</g>
	</g>
</g>
<g>
	<g>
		<path class="st2" d="M3.4,145.6c2.3-16.3,7.9-26,28.5-41.2c13.4-9.8,17.4-14.8,17.4-22.8c0-8.6-6-15.1-14.3-15.1
			c-12.6,0-13,13.1-13.1,19.9H6.1c0.3-8.1,1.3-33.8,29.5-33.8c18.8,0,30.9,13,30.9,29c0,14.6-10.4,22.9-22.3,31.2
			c-12.3,8.5-15.4,12-19.3,19.6h42.3v13.1H3.4z"/>
		<path class="st2" d="M109.9,147.3c-29,0-31.8-34-31.8-45.8c0-15,2.6-48.9,31.8-48.9c11.5,0,19.1,5.6,24,13.4
			c6.3,10,7.8,22.1,7.8,33.9C141.7,111.4,139.8,147.3,109.9,147.3z M109.7,66.1c-8.4,0-14.4,6.1-14.4,33.8
			c-0.1,28.9,6.5,33.9,14.6,33.9c9.1,0,14.5-7,14.5-33.9C124.4,71,117.9,66.1,109.7,66.1z"/>
		<path class="st2" d="M179.1,145.6V82h-24.8V70.1h7.3c6.6,0,17.1-4,19.9-15.9H195v91.3H179.1z"/>
		<path class="st2" d="M241.7,147.3c-7.4,0-14.1-2.8-19.4-7.6c-5-4.8-6.6-8.8-8.1-17.1h16.5c0.4,5.8,4.5,10.9,11.4,10.9
			c13.5,0,15.5-16.1,17-28.4c-4.9,8.3-13.8,9.9-18.6,9.9c-15.4,0-27.7-12.8-27.7-29.7c0-14.9,10.5-32.7,30.4-32.7
			c25.3,0,32.2,24.3,32.2,43.2C275.3,105.3,274.3,147.3,241.7,147.3z M243.9,67.5c-7.8,0-14.1,5.8-14.1,16.5c0,9.6,5.3,17,13.4,17
			c10,0,15.1-8.8,15.1-17.3C258.3,74.3,252.4,67.5,243.9,67.5z"/>
		<path class="st2" d="M331.6,135.4V149h-8.7v-13.6h-29.3v-7.3h9.9v-16.4h19.4v-8.3h-15.8c-3.9,6.3-6.1,8.5-7.7,10.3l-7.4-3.9
			c6.4-6.5,10.9-14,13.3-20.9l8.5,3.2c0.3,0.1,0.5,0.4,0.5,0.6c0,0.2-0.1,0.5-0.3,0.6c-0.2,0.1-1.3,0.3-1.4,0.6
			c-0.1,0-1.4,2.3-1.5,2.6h38.1v6.9h-17.8v8.3h12v7.1h-12v9.3h21.1v7.3H331.6z M322.9,118.8h-11.1v9.3h11.1V118.8z"/>
		<path class="st2" d="M400.9,146.9V46.5h-39.1V27.7h11.5c10.5,0,27.1-6.3,31.4-25.1H426v144.3H400.9z"/>
		<path class="st2" d="M483.6,149l-3.4-9c1.2,0.2,2.8,0.4,5.4,0.4c2,0,2.5-0.6,2.5-2.1v-11.4h-20.7c-2.3,9.8-5.3,15.1-13.2,21.2
			l-6.8-5.6c4.9-3.9,12.8-10.2,12.8-25.5V91.3h35.9V142C496.2,148.5,490.6,149,483.6,149z M488.2,112.6h-19.5c0,3.9-0.1,5.6-0.3,7.2
			h19.8V112.6z M488.2,98.5h-19.5v7.2h19.5V98.5z"/>
		<path class="st2" d="M540.6,146.9V46.5h-39.1V27.7H513c10.5,0,27.1-6.3,31.4-25.1h21.3v144.3H540.6z"/>
		<path class="st2" d="M639.5,149.6c-11.7,0-22.3-4.3-30.6-12.1c-7.9-7.5-10.5-13.8-12.8-27.1h26.1c0.6,9.1,7.1,17.2,18,17.2
			c21.3,0,24.5-25.5,26.9-44.9c-7.7,13-21.7,15.6-29.5,15.6c-24.3,0-43.7-20.2-43.7-46.9c0-23.5,16.6-51.6,48-51.6
			c39.9,0,50.8,38.4,50.8,68.2C692.7,83.2,691.1,149.6,639.5,149.6z M643,23.5c-12.3,0-22.3,9.1-22.3,26.1
			c0,15.2,8.3,26.9,21.2,26.9c15.8,0,23.9-13.8,23.9-27.3C665.8,34.2,656.5,23.5,643,23.5z"/>
		<path class="st2" d="M718.4,152.2c-4.1-5-12.7-15.4-12.7-32.9c0-17.5,8.6-28,12.7-32.9l5.2,4.6c-3.5,4.3-10.7,13.3-10.7,28.3
			c0,15.1,7.2,23.9,10.7,28.3L718.4,152.2z"/>
		<path class="st2" d="M733.9,146.5v-7.4H759v-22.8h-20.3v-7.8H759V90.1l8.1,0.9c1,0.1,1.7,0.4,1.7,1.1c0,0.3-0.1,0.5-0.8,0.9
			c-0.5,0.3-0.9,0.5-0.9,0.8v14.7h21v7.8h-21v22.8h25.3v7.4H733.9z"/>
		<path class="st2" d="M809.4,152.2l-5.2-4.6c3.5-4.3,10.7-13.2,10.7-28.3c0-15-7.2-23.9-10.7-28.3l5.2-4.6
			c4.1,5,12.7,15.4,12.7,32.9C822.1,136.8,813.5,147.3,809.4,152.2z"/>
		<path class="st2" d="M851.7,146.9c3.6-25.7,12.5-41.1,45.1-65c21.2-15.4,27.5-23.3,27.5-36c0-13.6-9.5-23.9-22.5-23.9
			c-20,0-20.6,20.8-20.8,31.4h-25.1c0.4-12.8,2-53.4,46.7-53.4c29.7,0,48.8,20.6,48.8,45.9c0,23.1-16.4,36.2-35.2,49.2
			c-19.4,13.4-24.3,19-30.4,31h66.8v20.8H851.7z"/>
		<path class="st2" d="M1016,149.6c-45.9,0-50.2-53.8-50.2-72.3c0-23.7,4.2-77.3,50.2-77.3c18.2,0,30.2,8.9,38,21.2
			c9.9,15.8,12.3,35,12.3,53.6C1066.2,92.9,1063.2,149.6,1016,149.6z M1015.6,21.3c-13.2,0-22.7,9.7-22.7,53.4
			c-0.2,45.7,10.3,53.6,23.1,53.6c14.4,0,22.9-11.1,22.9-53.6C1038.9,29.1,1028.7,21.3,1015.6,21.3z"/>
		<path class="st2" d="M1095.2,152.2c-4.1-5-12.7-15.4-12.7-32.9c0-17.5,8.6-28,12.7-32.9l5.2,4.6c-3.5,4.3-10.7,13.3-10.7,28.3
			c0,15.1,7.2,23.9,10.7,28.3L1095.2,152.2z"/>
		<path class="st2" d="M1148.9,146.5v-3.6h-26v3.9h-8.2V93.5h42.2v53H1148.9z M1148.9,101.1h-26v13.1h26V101.1z M1148.9,121.3h-26
			v14.1h26V121.3z"/>
		<path class="st2" d="M1177.9,152.2l-5.2-4.6c3.5-4.3,10.7-13.2,10.7-28.3c0-15-7.2-23.9-10.7-28.3l5.2-4.6
			c4.1,5,12.7,15.4,12.7,32.9C1190.5,136.8,1181.9,147.3,1177.9,152.2z"/>
		<path class="st2" d="M53.5,214.2c-3.1-1-5.2-2.2-7-3.2v5.2H16.9v-5c-3.1,1.9-5,2.8-7.7,4l-4.7-5.4C15,205.6,21.4,199.9,27,191
			l8.8,1.5c0.5,0.1,0.9,0.4,0.9,0.8c0,0.4-0.2,0.7-0.6,0.8c3,3.4,6.5,6.4,10.4,8.8c2.1,1.3,7,4,11.9,5.4L53.5,214.2z M49.5,244.9
			c-0.6-0.9-1.3-2.3-4-5.5c-8.4,1-22.2,2.6-24,2.8c-1.3,0.1-7.8,0.7-9.3,0.9c-0.3,0.1-0.5,0.2-0.6,0.4c-0.4,0.7-0.6,0.9-0.7,0.9
			c-0.2,0-0.5-0.2-0.6-0.6l-2-8c3.9,0,5.6-0.1,8.6-0.2c1.5-2.5,2.8-4.6,5.6-9.9H8.7v-5.9h45.1v5.9H40.8c5.3,4.2,10.7,9.8,14.3,14.5
			L49.5,244.9z M31.3,198.1c-4.4,5.4-7.7,8.4-12.7,12H45C39.7,206.7,36.1,203.9,31.3,198.1z M35.7,230.3l4.4-4.5h-9.2
			c-2.9,5.1-4.7,7.8-5.8,9.4c5.1-0.2,10.2-0.6,15.3-1.2C39.6,233.3,38.1,231.9,35.7,230.3z"/>
		<path class="st2" d="M94.6,219.5c-0.3,0.7-0.7,1.6-1.1,2.2h22.3c-0.1,6.3-1.2,15.3-3.4,18.6c-1.8,2.9-4.8,3.7-9.7,3.8l-2.5-6
			c-1.8,1.9-3.9,4-7.5,6.4l-4.6-3.1c6.7-3.9,11.8-10.5,14-14.7H99c-0.9,1.5-2.7,4.8-6,8c-2.9,2.9-6.2,5.4-9.6,7.6l-4.8-3.4
			c8.1-3.7,13.4-10.4,14.6-12.3h-2.8c-3.1,3.7-5.6,5.8-8.2,7.8l-4.8-3.2c1.7-1,3-2,5.4-4c-4.2,1.6-10.9,3.9-12.7,4.3
			c-2.3,0.6-2.5,0.6-2.9,1c-0.7,0.7-0.9,1-1.2,1c-0.1,0-0.4-0.1-0.4-0.4l-1.1-6.9c2-0.4,4.7-1,6.8-1.6v-14.3h-5.9v-6.3h5.9v-12.2
			l7.1,0.6c0.4,0.1,0.8,0.2,0.8,0.7c0,0.4-0.3,0.7-0.7,1c-0.3,0.2-0.8,0.5-0.8,0.9v9.1h6.4v6.3h-6.4v12.5c2.1-0.6,4.2-1.2,6.2-2v5.1
			c2.1-2.3,3.2-4,4.5-6.6h-5.8v-5h34v5H94.6z M87.1,212.2v-19.3H112v19.3H87.1z M106,198H93v2.6h13V198z M106,205H93v2.6h13V205z
			 M107.8,226.8c-1.1,2.6-2.5,5.6-7,10.7c1.8,0.4,3.1,0.4,3.3,0.4c1.6,0,2.6-0.4,3.2-1.7c1.5-2.9,1.8-6.1,2-9.4H107.8z"/>
		<path class="st2" d="M126.6,247.3l-4.8-2.3l12.3-26.8l-12.3-26.8l4.8-2.3l13.2,29.1L126.6,247.3z M135,247.3l-4.8-2.3l12.3-26.8
			l-12.3-26.8l4.8-2.3l13.2,29.1L135,247.3z"/>
		<path class="st2" d="M211.6,243.3c-7.6-3.8-12-6.9-17.6-13.1v14.2h-7.3V230c-3.2,3.5-8,8.6-18,13.5l-5.3-4.9
			c6.7-2.4,11.2-5,18.5-12.6h-11.2v-20.2h16v-3.2h-22.4v-5.8h22.4v-5.1l7.4,0.5c0.7,0.1,0.9,0.4,0.9,0.6c0,0.2-0.2,0.4-0.4,0.6
			c-0.6,0.4-0.7,0.6-0.7,0.9v2.6h22.4v5.8H194v3.2h16.2v20.2h-11.9c4,4.2,8.2,7.2,18.1,12L211.6,243.3z M186.7,210.5h-9v2.8h9V210.5
			z M186.7,218.2h-9v2.9h9V218.2z M203.1,210.5H194v2.8h9.1V210.5z M203.1,218.2H194v2.9h9.1V218.2z"/>
		<path class="st2" d="M223.6,202.9v-5.8h22.7v-5.4l8.4,1c0.4,0.1,0.8,0.2,0.8,0.6c0,0.2-0.2,0.4-0.4,0.5c-0.7,0.5-1.1,0.7-1.1,0.9
			v2.4h22.3v5.8H223.6z M242.7,230.3c-0.8,0.2-0.9,0.2-1,0.4c-5,6.3-6.1,7.7-10.5,11.6l-6.5-3.7c5.9-4.8,9.1-9.1,11.8-13.7l6.6,4.1
			c0.2,0.1,0.3,0.4,0.3,0.7C243.3,230,242.9,230.2,242.7,230.3z M253.4,223.8v14.5c0,2-0.5,4.5-2.7,5.3c-1.4,0.5-3.9,0.9-7.8,1l-3-7
			c1.5,0.2,2.6,0.4,3.9,0.4c1.7,0,2.2-0.7,2.2-1.8v-12.3h-15.3v-17.4h38.4v17.4H253.4z M261.7,212.1h-23.5v6.2h23.5V212.1z
			 M267.9,242.5c-3.2-5-6.9-8.9-11.3-12.6l4.8-5c4.8,4,8.6,8,12.3,12.8L267.9,242.5z"/>
		<path class="st2" d="M335.7,226.5c-0.9,1.5-1.7,1.7-2.5,1.7c-1.2,0-4.8-0.7-7-7.3l-2.5,4.5c-1.2-1.1-2.5-2-3.7-2.7
			c-1.2,1.6-2.1,2.5-3.6,3.4h9.4v4.4H293v-2.2c-2.4,0.2-4,0.2-6.2,0.3c-0.2,0.1-0.6,0.1-0.8,0.4c-0.4,0.4-0.4,0.4-0.7,0.4
			c-0.4,0-0.7-0.3-0.8-1.3l-0.5-4.4c3.9,0,8.2-0.2,11.3-0.4v-1.6h-6v-2.2c-0.9,0.6-1.1,0.7-3.2,1.5l-3.2-4.3
			c1.7-0.4,3.9-1.3,5.6-3.7h-5.4v-3.9h11.2v-1.5h-7.9v-3.9h7.9v-1.9h2.8v-2.1h-13.9v-5.1H297v-3.1l6.9,0.6c0.9,0.1,1.6,0.2,1.6,0.8
			c0,0.3-0.1,0.4-0.7,0.9c-0.2,0.2-0.2,0.2-0.2,0.9h10.2v-2.9l7.2,0.2c1.2,0.1,1.5,0.4,1.5,0.7c0,0.3-0.1,0.5-0.6,0.7
			c-0.7,0.4-0.7,0.4-0.7,1.2h13.6v5.1h-13.6v3.4l2.1,0.3c1,0.1,1.5,0.2,1.5,0.8c0,0.2-0.1,0.4-0.6,0.8c-0.6,0.4-0.6,0.6-0.6,2.3h7.5
			c-0.5,2.3-1,5.3-1,7.7c0,1.3,0.2,4.5,1,4.5c0.4,0,1-1.2,1.3-2.7l4.3,3.7C337.3,223.5,336.1,225.8,335.7,226.5z M327.7,237
			c2.2,1.3,4.2,2.6,6,4.4l-3.9,4.4c-1.7-1.6-4-3.2-5.5-4.1c-3.2,0.4-17.1,2.2-35,3.1c-0.9,0.1-1.1,0-1.6,0.5
			c-0.5,0.6-0.6,0.6-0.9,0.6c-0.5,0-0.6-0.4-0.7-1.2l-0.9-5c3.5,0.1,11.3-0.3,14.9-0.4c0.7-0.9,1-1.8,1.3-2.3h-18.2v-4.5h52.9v4.5
			H327.7z M300,213h-8.8l2.8,1.5c0.2,0.1,0.6,0.4,0.6,0.7s-0.6,0.6-1.3,0.6c-0.3,0.3-0.7,0.8-1,1.1h2.9v-1.8l4.7,0.4V213z
			 M314.8,203.1v-3.6h-10.2v2.6h-3.7v1.5h7.3v3.9h-7.3v1.5h9.5v3.9h-5.1v2c0,0.4,0.1,0.9,0.8,0.9s1.1-0.6,1.4-1.9l4.1,2
			c-0.2,3.1-1.7,4.1-3.9,4.1h-2.2v1.6h-3.9v1.2c2.6-0.2,4.4-0.4,6-0.5l-1.7,3.7h5.5l-3.5-2.5c3-0.9,4.8-1.7,6.9-3.9
			c-1-0.5-2-1-3.2-1.5l2.9-4.5c1,0.4,1.5,0.6,2.9,1.2c0.4-1.2,0.4-1.2,0.8-2.8h-4.9v-5.1h5.3c0-0.9,0.1-3.1,0.1-4H314.8z M316.2,237
			h-7.9c-0.5,1.3-0.6,1.4-0.9,2c6.6-0.4,8-0.5,11.2-0.8C318.2,237.9,316.5,237.1,316.2,237z M324.2,212.3c-0.5,2.9-0.9,4-1.5,5.3
			c1.8,0.9,2.4,1.3,2.9,1.7c0-0.2-0.2-1.5-0.2-2.6c0-1.2,0.1-2.3,0.3-4.4H324.2z"/>
		<path class="st2" d="M392.5,213.4v24c0,5.5-1.6,7.2-7,7.2h-3.8l-2.1-6.6c1,0,4.5,0.1,5.1,0c0.7-0.1,1.2-0.2,1.2-1.8v-22.9h-7.2
			v-3.9h-6.6v35.2h-6.5v-35.2h-7.7v-1.2c-0.4,0.7-0.9,1.6-2.6,4.1c0.4,0.2,1.2,0.6,1.2,1.2c0,0.3-0.2,0.5-0.4,0.7
			c-0.8,0.7-0.9,0.9-0.9,1.3v16.6c1.8-6.1,2.5-10.7,2.8-18.2l6.2,0.9c0.6,0.1,1.2,0.5,1.2,0.9c0,0.6-0.8,0.9-1.2,1
			c-0.3,6.5-1.3,14.2-2.8,17.9l-6.1-1.4v11.3h-6.8v-23.3c-0.9,1-1,1.2-2,2.2l-5.6-4.2c5-4.6,9.1-10.2,12.2-16.3l5,2.5v-2.7h7.7
			v-11.5l6.4,0.3c0.6,0,1.3,0.3,1.3,0.9c0,0.1-0.1,0.4-0.4,0.7c-0.6,0.4-0.8,0.7-0.8,1.2v8.5h6.8v4.3h16.9v6.2H392.5z M357.4,197.1
			c-0.7,0.1-0.9,0.1-1.3,0.5c-3.6,3.6-6.4,5.8-9.7,8.2l-5-4.8c4-2.6,7.9-5.6,11.1-9.2l4.6,3.5c0.9,0.6,1,0.9,1,1.2
			C358.2,197,357.7,197.1,357.4,197.1z M374.5,201.9c-0.8-4-1.6-5.6-2-6.6l4.5-1.3c1.2,2.3,1.8,4.2,2.5,6.6L374.5,201.9z
			 M375.2,233.6c-0.1-4.2-0.2-10.2-1.5-18.9l5.8-0.7c1,6.1,1.5,11.5,1.6,18.2L375.2,233.6z M380.3,200.1V194h14.8v6.1H380.3z"/>
		<path class="st2" d="M449.7,244.9c-12.3-7.5-16.7-13.1-21-22.7c-5.7,12-11.5,18-22.1,23.2l-6-5.4c14.2-5.7,19.8-13.9,22.9-26.7
			h-21.3v-6.6h22c0.2-2.7,0.2-5.8,0.2-6.7c0-3.6-0.1-6.2-0.2-8.2l8.2,0.4c0.4,0,1,0.1,1,0.7c0,0.5-0.6,1-1.2,1.5
			c-0.1,1.3-0.1,0.5-0.1,3.6c0,0.6-0.1,5.8-0.2,8.6h23v6.6h-22.4c3.7,11.8,8.5,18.6,23.5,25.8L449.7,244.9z"/>
		<path class="st2" d="M506.4,217.7v-7.4h-36.4v7.7h-6.6v-13.4h30.4c2.9-3.6,5.6-7.3,7.5-11.5l6.1,2c0.4,0.1,1,0.6,1,1
			c0,0.2-0.1,0.3-0.2,0.4c-0.2,0.2-1.5,0.5-1.8,0.7c-1.3,2.4-2.5,4.4-4.8,7.4h11.5v13.1H506.4z M492.1,230.8v9.3
			c0,4.3-3.6,5.3-7.3,5.3h-3.9l-2.7-6.5c0.7,0.1,4.2,0.4,4.9,0.4c1,0,1.5-0.9,1.5-1.8v-6.6h-21.1v-6h21.1V221l2.9,0.5
			c1.3-1.2,1.8-1.8,2.3-2.6h-16.4v-5.7h27.8l1.7,2.7c-2.8,2.5-7.6,6.5-10.9,8.9h20.8v6H492.1z M472.9,204.1c-1.5-3-2.9-5.3-5.3-8.2
			l5.6-3.4c2,2.3,3.8,4.7,5.5,7.9L472.9,204.1z M486.8,202.9c-1.5-3.1-3.1-5.7-5.7-8.8l5.6-3.3c2.9,3.4,4.6,6.2,6,9L486.8,202.9z"/>
		<path class="st2" d="M570.6,211.4v3.1h11.8v19.9h-8c2.6,2.2,7,4.3,10.5,5.3l-3.4,4.6c-4.1-1.5-8.1-3.4-11.9-6.9l2.9-3.1h-9.9
			l2.2,2.1c0.5,0.5,0.9,0.9,0.9,1.3c0,0.4-0.4,0.4-1.2,0.4c-0.2,0-0.4,0.1-0.7,0.4c-3.2,2.9-8,5.3-9.9,6.1l-4.1-4.5
			c4.6-1.5,8.5-3.7,10.5-5.9H553v-19.9h11.2v-3.1h-13.7v-4.3h-5v3.4c0,1.2,2.1,4.4,3,5.6c0.8,1.2,1.8,2.5,2.7,3.6l-3.6,4.4
			c-1.5-2-1.8-2.6-2.1-3.1v23.4h-6.1v-20.7c-0.9,1.9-2.2,4-3.6,5.7l-5.3-3.2c4-4.7,7.6-11.3,8.9-19.1h-6.4v-5.8h6.4v-9.1l5.7,0.5
			c0.4,0.1,1.4,0.1,1.4,0.6c0,0.2-0.1,0.4-0.4,0.7c-0.6,0.5-0.6,0.6-0.6,0.7v6.7h5v5.3h7.8v-4.5H553v-4.7h5.3v-5.3l6,0.4
			c0.6,0.1,1.2,0.2,1.2,0.6c0,0.2-0.2,0.4-0.6,0.6c-0.4,0.3-0.6,0.4-0.6,0.6v3.1h5.6v-5.3l5.9,0.4c1,0.1,1.3,0.2,1.3,0.6
			c0,0.2-0.2,0.3-0.4,0.4c-0.2,0.2-0.4,0.3-0.4,0.5v3.4h7.9v4.7h-7.9v4.5h9.3v4.8H570.6z M564.2,219h-4.8v3.5h4.8V219z M564.2,226.1
			h-4.8v3.8h4.8V226.1z M570,202.1h-5.6v4.5h5.6V202.1z M576.1,219h-5.5v3.5h5.5V219z M576.1,226.1h-5.5v3.8h5.5V226.1z"/>
		<path class="st2" d="M601,218.3c-1.8-1.2-4.2-2.9-10.5-5.2l3.5-6.1c3.6,1.3,7.1,3.2,10.2,5.5L601,218.3z M602,235
			c-0.5,1.1-3.4,6.6-3.5,7.1c0,0.2,0.1,1,0.1,1.2c0,0.1-0.1,0.7-0.5,0.7c-0.2,0-0.8-0.2-1.2-0.5L591,240c3.8-5.2,7-11.2,9.8-18.3
			l5.6,3.3C605,228.3,603.6,231.7,602,235z M604.7,203.9c-3.5-2.8-7.2-4.6-9.9-5.7l3.7-5.7c3.2,1.3,6.7,3.4,9.9,5.8L604.7,203.9z
			 M618.3,227.9l5.4,4.5c0.4,0.3,0.7,0.7,0.7,1.2c0,0.8-1.2,0.7-2.1,0.6c-0.9,1-6.2,6.6-11.8,10.1l-6.4-4.8c2.3-1,4.7-2.1,7.9-4.8
			c3.6-3,4.6-5,5.6-6.8H608v-6.6h4.4v-26.7c2.5,0.6,4,0.9,5.1,0.9c2.1,0,4.9-0.4,5.5-0.6c9.1-1.5,11.1-2.3,14.8-4l3.5,5.5
			c0.2,0.4,0.7,1.1,0.7,1.5c0,0.4-0.4,0.4-0.7,0.4c-0.2,0-1.4-0.2-1.7-0.2c-0.3,0-4,0.7-4.6,0.9c-2.5,0.5-10.1,1.6-15.6,1.7v4.7h24
			v6.4H634v9.4h11.3v6.6H618.3z M627.1,211.9h-7.7v9.4h7.7V211.9z M641.8,244.5c-6.7-4-11.2-8.8-14.1-12.3l5.4-4
			c3.6,4.9,8.8,8.4,14.2,11.2L641.8,244.5z"/>
		<path class="st2" d="M668.5,224.1c-0.9-1-2.2-2.3-3.3-3.8v24.3h-6.4v-17.8c-1,2.3-2.6,4.9-4,6.8l-5.3-3.1c5-5.9,8-14.9,8.9-21.7
			h-6.5v-5.9h6.9v-11l6,0.4c0.5,0.1,1.4,0.1,1.4,0.6c0,0.2-0.1,0.4-0.4,0.7c-0.4,0.2-0.6,0.5-0.6,0.7v8.5h6.7v5.9h-6.7
			c0.8,2.8,3.7,7.5,7.5,10.6L668.5,224.1z M702,244.3c-5.9-2.7-9.5-5.2-14.2-10.5c-3.1,3.1-6.7,6.4-15.1,10.5l-4.7-4.8
			c3.3-1.4,11-4.8,16.1-10.6c-1.1-1.8-2.9-4.6-5.5-10.3c-0.2,0.4-0.7,1.1-1.2,1.8l-5.8-2.4c3.6-4.8,5.8-9.3,7.2-13.6l5,2
			c0.5,0.2,1.2,0.6,1.2,1c0,0.3-0.5,0.5-0.7,0.6c-0.6,0.2-0.7,0.3-0.8,0.6c-1.3,3.1-2,4.8-3.8,8l3.8-2.1c1.8,5.2,3.2,7.7,4.3,9.4
			c2.2-3.8,3.2-6.4,4.2-10.6l4,0.9c-1.5-2-3.2-4.2-6.3-6.9l5.1-3.4c4.7,4.5,8.8,9.4,10.7,12.6l-5.9,3.4c-0.9-1.8-1.7-3-2.1-3.7
			c-1.4,4.8-2.8,8.2-5.9,12.9c5,5.4,9.1,7.7,15,9.8L702,244.3z M673.1,203.5v-6h11.8v-5.8l6.2,0.2c0.9,0.1,1.4,0.2,1.4,0.7
			c0,0.2-0.1,0.4-0.4,0.6c-0.8,0.6-0.9,0.7-0.9,0.9v3.4h13.7v6H673.1z"/>
		<path class="st2" d="M731.4,233.9c-3.7,1.3-7.4,2.5-11.2,3.7c-0.6,0.2-3.6,1-4.2,1.2c-1.4,0.4-2,0.6-2.4,1.1
			c-0.4,0.4-0.6,0.7-0.9,0.7c-0.2,0-0.5-0.2-0.5-0.4l-1.2-7.7c2.5-0.4,5.1-1,7.2-1.5v-18.4h-6.6v-6.7h6.6v-13.9l7.2,0.4
			c0.4,0,0.7,0.2,0.7,0.6s-0.5,0.6-0.6,0.7c-0.3,0.2-0.7,0.4-0.7,0.8v11.5h5.9v6.7h-5.9v16.6c3.5-1,4.7-1.3,6.7-2L731.4,233.9z
			 M757.3,243.8h-13.2c-5,0-9.1-2.4-9.1-7.5v-16.2l-5.8,2.3l-2-6.3l7.7-3v-17.7l6.9,0.7c0.4,0.1,0.7,0.2,0.7,0.6
			c0,0.3-0.2,0.6-0.4,0.7c-0.4,0.4-0.7,0.6-0.7,0.9v12.1l4-1.6v-17.3l7.1,0.6c0.4,0.1,0.7,0.2,0.7,0.6c0,0.2-0.2,0.5-0.4,0.7
			c-0.4,0.3-0.9,0.7-0.9,1v12l8.7-3.5l3.2,1.7v20.6c0,5.5-4.7,5.8-8.1,5.9l-3.7-6.2c1.1,0.2,2.2,0.3,3.2,0.3c1.8,0,1.8-1.8,1.8-2.2
			v-11.6l-5.2,2.1v18.2h-6.6v-15.6l-4,1.6v16.1c0,3.1,1,3.7,2.9,3.7h10.9c2.6,0,3.2-2.3,3.8-4.7l6.4,2.5
			C764.5,238.6,762.8,243.8,757.3,243.8z"/>
		<path class="st2" d="M826.7,242.8h-10.5c-2.8,0-5.3-1.9-5.3-5v-22.3H800l5,1.4c1.5,0.4,2.3,0.8,2.3,1.6c0,1.1-1.4,1.4-2.3,1.6
			c-1.6,14.7-10.7,21.9-19.7,24l-4.9-6.4c2.5-0.2,8.3-0.8,12.9-6.4c3.6-4.4,4.7-10.2,4.4-15.9h-14.5v-6.9h51.4v6.9h-16.8v18.1
			c0,1.6,0.7,2.5,2.2,2.5h4.8c3.5,0,3.9-5.1,4-6.5l7.2,2.9C834.2,240.3,832.5,242.8,826.7,242.8z M788.9,199.7v-6.8h39.9v6.8H788.9z
			"/>
		<path class="st2" d="M862.3,236.2V233h-14.1v6.6h-5.8v-46.3h25.6v42.9H862.3z M852.3,199.1h-4v10.5h4V199.1z M852.3,215.7h-4v11.1
			h4V215.7z M862.3,199.1H858v10.5h4.4V199.1z M862.3,215.7H858v11.1h4.4V215.7z M887.8,203.9v33.8c0,5.8-3.1,6.6-11.7,6.6l-3.1-7.1
			c2.8,0.6,4.8,0.6,5.3,0.6c1.7,0,2.5-0.6,2.5-2v-31.9H870v-6.3h24.8v6.3H887.8z"/>
		<path class="st2" d="M945.8,229.4V227h-14.1v17.4h-7V227h-14v2.7h-7v-27.5h21v-10.4l7.7,0.7c0.4,0.1,0.9,0.1,0.9,0.7
			c0,0.4-0.4,0.7-0.7,0.9c-0.5,0.3-0.9,0.6-0.9,0.9v7.3h21.1v27.3H945.8z M924.7,208.8h-14v11.5h14V208.8z M945.8,208.8h-14.1v11.5
			h14.1V208.8z"/>
		<path class="st2" d="M999.2,200.5v2.8h-6.8v-2.8h-9.7v2.8h-6.9v-2.8h-14.7v-5.3h14.7v-3.7l6.3,0.2c0.6,0,1.7,0,1.7,0.6
			c0,0.6-0.6,0.8-1.2,1.3v1.6h9.7v-3.7l4.5,0.1c1,0,3.5,0.1,3.5,0.7c0,0.2-0.2,0.6-0.6,0.9c-0.6,0.4-0.6,0.6-0.6,0.8v1.3h14.8v5.3
			H999.2z M1003.6,219.4v4.6h6.9v5.2h-19.6v3.2h22.2v5.5h-22.2v6.8h-6.6v-6.8h-21.4v-5.5h21.4v-3.2h-19.1V224h6.4v-4.6h-10.4v-5.5
			h10.4v-4h-6.4v-5.1h45.3v5.1h-6.9v4h10.5v5.5H1003.6z M984.2,209.9h-6.3v4h6.3V209.9z M984.2,219.4h-6.3v4.6h6.3V219.4z
			 M997.2,209.9h-6.4v4h6.4V209.9z M997.2,219.4h-6.4v4.6h6.4V219.4z"/>
		<path class="st2" d="M1036.8,207.5c-0.6,0.2-0.7,0.2-0.9,0.4c-0.9,1.7-2.1,3.4-3.2,5.1c0.3,0.2,0.8,0.6,0.8,1.1
			c0,0.3-0.2,0.4-0.6,0.8c-0.6,0.6-0.9,0.7-0.9,1.2v28.6h-6.5v-22.7c-0.7,0.9-0.8,1-1.5,1.6l-5.1-5.1c5-4.7,9.2-10.1,12.2-16.2
			l5.4,3.2c0.4,0.2,1,0.7,1,1.2C1037.6,207.3,1037.2,207.4,1036.8,207.5z M1036,196.7c-1.2,0.3-1.3,0.3-1.6,0.6
			c-3.4,4.6-6.3,7.2-8.9,9.4l-5-4.7c3.7-2.9,6.9-5.8,10.6-10.6l4.5,3.4c0.4,0.2,1,0.8,1,1.3S1036.2,196.7,1036,196.7z M1039.7,240.9
			c-1.2,0.2-1.2,0.4-1.7,1c-0.6,0.6-0.7,0.8-0.9,0.8c-0.6,0-0.8-0.9-0.9-1.4l-1.2-6.2c3.7-0.4,5.3-0.7,8.8-1.2v-7.2h-6.3v-6.4h6.3
			v-6h-7.6V208h7.6v-4.9h-6.3v-6.4h6.3v-5.1l6.5,0.4c0.4,0,1.3,0.1,1.3,0.9c0,0.2-0.1,0.4-0.6,0.7c-0.4,0.3-0.6,0.5-0.6,0.8v2.5h6.3
			v6.4h-6.3v4.9h6.3v6.2h-10.2l4.4,0.8c0.3,0.1,0.7,0.2,0.7,0.7c0,0.4-0.2,0.6-1.2,1.2v3.2h5.9v6.4h-5.9v5.9c2.8-0.6,4.9-1,8-1.9
			v6.3C1052.3,238.2,1051.9,238.4,1039.7,240.9z M1069.6,216.1v20.1c0,7.4-0.8,8.7-9.7,8.8l-3.2-7.4c2.2,0.3,3.6,0.4,4.5,0.4
			c0.9,0,1.8-0.1,1.8-1.8v-20h-5.1v-6.4h15.8v6.4H1069.6z M1058.4,200.3v-5.9h14.5v5.9H1058.4z"/>
		<path class="st2" d="M1097,224.1c-0.9-1-2.2-2.3-3.3-3.8v24.3h-6.4v-17.8c-1,2.3-2.6,4.9-4,6.8l-5.3-3.1c5-5.9,8-14.9,8.9-21.7
			h-6.5v-5.9h6.9v-11l6,0.4c0.5,0.1,1.4,0.1,1.4,0.6c0,0.2-0.1,0.4-0.4,0.7c-0.4,0.2-0.6,0.5-0.6,0.7v8.5h6.7v5.9h-6.7
			c0.8,2.8,3.7,7.5,7.5,10.6L1097,224.1z M1130.5,244.3c-5.9-2.7-9.5-5.2-14.2-10.5c-3.1,3.1-6.7,6.4-15.1,10.5l-4.7-4.8
			c3.3-1.4,11-4.8,16.1-10.6c-1.1-1.8-2.9-4.6-5.5-10.3c-0.2,0.4-0.7,1.1-1.2,1.8l-5.8-2.4c3.6-4.8,5.8-9.3,7.2-13.6l5,2
			c0.5,0.2,1.2,0.6,1.2,1c0,0.3-0.5,0.5-0.7,0.6c-0.6,0.2-0.7,0.3-0.8,0.6c-1.3,3.1-2,4.8-3.8,8l3.8-2.1c1.8,5.2,3.2,7.7,4.3,9.4
			c2.2-3.8,3.2-6.4,4.2-10.6l4,0.9c-1.5-2-3.2-4.2-6.3-6.9l5.1-3.4c4.7,4.5,8.8,9.4,10.7,12.6l-5.9,3.4c-0.9-1.8-1.7-3-2.1-3.7
			c-1.4,4.8-2.8,8.2-5.9,12.9c5,5.4,9.1,7.7,15,9.8L1130.5,244.3z M1101.5,203.5v-6h11.8v-5.8l6.2,0.2c0.9,0.1,1.4,0.2,1.4,0.7
			c0,0.2-0.1,0.4-0.4,0.6c-0.8,0.6-0.9,0.7-0.9,0.9v3.4h13.7v6H1101.5z"/>
		<path class="st2" d="M1188.2,212.9c-2.6-1-5-2.2-8.2-4v4.2h-10.4v3.2h20.5v5.9h-47.4v-5.9h19.9V213h-10v-4.7
			c-3.2,2.1-5.5,3.2-8.6,4.4l-5.6-5.1c9.2-3.2,17.6-8.6,23.5-16l7.4,0.8c0.7,0.1,1.3,0.4,1.3,0.9c0,0.1-0.1,0.2-0.1,0.4
			c6.6,6.7,15.3,10.8,24.3,13.5L1188.2,212.9z M1176.6,244.8v-2.1h-20.7v2.1h-6.9v-19.1h34.6v19.1H1176.6z M1165.6,197.9
			c-3.8,4-6.6,6.3-11.2,9.2h8.2v-4.7l6.7,0.2c0.6,0,1.4,0.1,1.4,0.8c0,0.2-0.1,0.4-0.5,0.9c-0.5,0.4-0.6,0.7-0.6,0.9v1.9h7.5
			C1172.2,203.9,1168.9,201.5,1165.6,197.9z M1176.6,231.4h-20.7v5.7h20.7V231.4z"/>
		<path class="st2" d="M6.4,309.3v-5.1H24v-9.9H11.3v-5H24V281H7.5v-5h18.9c-2.1-2.2-5.1-4.5-6.6-5.5l3.4-4.1c2.3,1.4,6,4.2,8.5,6.8
			l-2.3,2.7h17.1v5H29.8v8.3h12.8v5H29.8v9.9h17.7v5.1H6.4z"/>
		<path class="st2" d="M72.9,308.8v1.1h-5.3v-17.6c-0.8,0.9-0.9,1-1.4,1.5l-2.6-2.5V310h-5.3v-24.4c-0.5,0.7-1,1.4-2.4,2.9l-4.8-3.8
			c5.3-5.4,7.8-10.1,9.8-17.1l4.4,1.5c1.3,0.4,1.6,0.6,2,0.9v-1l4.2,0.3c1.6,0.1,2,0.2,2,0.6c0,0.3-0.3,0.5-0.5,0.6
			c-0.4,0.3-0.6,0.4-0.6,0.7v4.4h5.2v-8.1l4.2,0.3c0.7,0,2,0.1,2,0.6c0,0.2-0.2,0.3-0.3,0.4c-0.6,0.4-0.8,0.5-0.8,0.8v6h5.5v-6.6
			l4.4,0.3c0.7,0,1.9,0.1,1.9,0.6c0,0.2-0.1,0.4-0.6,0.6c-0.4,0.3-0.5,0.4-0.5,0.6v8.7H82.2l2.6,1.2c0.8,0.3,1.1,0.7,1.1,1
			c0,0.4-0.3,0.4-0.6,0.5c-0.5,0-0.6,0.1-0.8,0.3c-0.4,0.4-0.8,1.3-1.2,1.8h12.3v4.2H84.1v2.5h8.5v3.9h-8.5v2.5h8.5v3.9h-8.5v2.7
			h11.5v4.2H72.9z M67.3,280v-9c-0.1,0.1-0.1,0.1-0.5,0.3c-0.4,0.1-0.6,0.3-0.7,0.6c-1,2.3-1.4,3.2-2.5,5.1c0.6,0.3,1.3,0.6,1.3,1.2
			c0,0.3-0.2,0.6-0.5,0.8c-0.6,0.4-0.7,0.6-0.7,0.8v9.2c4-3.9,5.3-6.3,6.6-9H67.3z M78.9,289h-6v2.5h6V289z M78.9,295.4h-6v2.5h6
			V295.4z M78.9,301.9h-6v2.7h6V301.9z M73.9,280l1.8,1.1c0.1,0.1,0.8,0.4,0.8,0.9c0,0.2-0.1,0.3-0.2,0.4c-0.1,0.1-1.2,0.3-1.4,0.4
			c-0.3,0.1-1.2,1.6-1.4,1.9h4.1c0.6-0.8,1.6-2,3.1-4.7H73.9z"/>
		<path class="st2" d="M103,312l-3.9-1.8l9.8-21.4l-9.8-21.4l3.9-1.8l10.5,23.2L103,312z M109.7,312l-3.9-1.8l9.8-21.4l-9.8-21.4
			l3.9-1.8l10.5,23.2L109.7,312z"/>
		<path class="st2" d="M177,308.9c-6.1-3-9.5-5.5-14-10.4v11.3h-5.8v-11.5c-2.5,2.8-6.4,6.9-14.3,10.8l-4.2-3.9
			c5.3-1.9,8.9-4,14.7-10h-8.9v-16.1h12.7v-2.6h-17.8v-4.6h17.8v-4.1l5.9,0.4c0.6,0,0.7,0.3,0.7,0.5c0,0.1-0.2,0.3-0.3,0.4
			c-0.4,0.3-0.5,0.4-0.5,0.7v2.1h17.8v4.6H163v2.6h12.9v16.1h-9.5c3.2,3.3,6.5,5.8,14.4,9.5L177,308.9z M157.1,282.7H150v2.2h7.2
			V282.7z M157.1,288.9H150v2.3h7.2V288.9z M170.2,282.7H163v2.2h7.3V282.7z M170.2,288.9H163v2.3h7.3V288.9z"/>
		<path class="st2" d="M186.6,276.7v-4.6h18.1v-4.3l6.7,0.8c0.3,0,0.6,0.1,0.6,0.5c0,0.1-0.1,0.3-0.3,0.4c-0.6,0.4-0.9,0.6-0.9,0.7
			v1.9h17.7v4.6H186.6z M201.8,298.5c-0.6,0.1-0.7,0.2-0.8,0.3c-4,5-4.8,6.1-8.4,9.3l-5.2-3c4.7-3.8,7.2-7.3,9.4-10.9l5.2,3.3
			c0.1,0.1,0.2,0.3,0.2,0.5C202.3,298.3,202,298.4,201.8,298.5z M210.3,293.4v11.5c0,1.6-0.4,3.6-2.1,4.2c-1.1,0.4-3.1,0.7-6.2,0.8
			l-2.4-5.6c1.2,0.1,2,0.3,3.1,0.3c1.3,0,1.8-0.5,1.8-1.4v-9.8h-12.2v-13.9h30.6v13.9H210.3z M216.9,284h-18.7v4.9h18.7V284z
			 M221.9,308.2c-2.6-4-5.5-7.1-9-10.1l3.8-4c3.9,3.2,6.8,6.3,9.8,10.2L221.9,308.2z"/>
		<path class="st2" d="M275.9,295.5c-0.7,1.2-1.3,1.4-2,1.4c-0.9,0-3.9-0.5-5.6-5.8l-2,3.6c-0.9-0.9-2-1.6-2.9-2.1
			c-0.9,1.3-1.7,2-2.9,2.7h7.5v3.5h-26.1v-1.8c-1.9,0.1-3.2,0.2-4.9,0.2c-0.1,0-0.4,0-0.6,0.3c-0.3,0.3-0.3,0.3-0.5,0.3
			c-0.3,0-0.5-0.2-0.6-1.1l-0.4-3.5c3.1,0,6.5-0.2,9-0.3v-1.3H239v-1.8c-0.7,0.4-0.9,0.5-2.6,1.2l-2.5-3.4c1.3-0.3,3.1-1.1,4.4-3
			H234v-3.1h8.9v-1.2h-6.3v-3.1h6.3v-1.5h2.2V274h-11.1v-4.1h11.1v-2.5l5.5,0.4c0.7,0,1.3,0.1,1.3,0.6c0,0.2,0,0.3-0.6,0.7
			c-0.2,0.1-0.2,0.2-0.2,0.7h8.1v-2.3l5.7,0.2c1,0,1.2,0.3,1.2,0.6c0,0.2-0.1,0.4-0.5,0.6c-0.5,0.3-0.5,0.3-0.5,1h10.8v4.1h-10.8
			v2.7l1.7,0.2c0.8,0.1,1.2,0.2,1.2,0.6c0,0.2-0.1,0.3-0.4,0.6c-0.4,0.3-0.4,0.4-0.5,1.8h6c-0.4,1.9-0.8,4.2-0.8,6.1
			c0,1,0.2,3.6,0.8,3.6c0.3,0,0.8-1,1-2.1l3.4,2.9C277.2,293.1,276.3,294.9,275.9,295.5z M269.6,303.8c1.8,1,3.3,2.1,4.8,3.5
			l-3.1,3.5c-1.3-1.3-3.2-2.5-4.3-3.3c-2.5,0.3-13.6,1.8-27.9,2.5c-0.7,0-0.9,0-1.3,0.4c-0.4,0.4-0.4,0.5-0.7,0.5
			c-0.4,0-0.4-0.3-0.5-0.9l-0.7-4c2.8,0,9-0.2,11.9-0.3c0.5-0.7,0.8-1.5,1-1.9h-14.5v-3.6h42.1v3.6H269.6z M247.6,284.7h-7l2.2,1.2
			c0.2,0.1,0.5,0.3,0.5,0.6c0,0.3-0.5,0.4-1,0.4c-0.2,0.2-0.6,0.6-0.8,0.9h2.3v-1.5l3.8,0.3V284.7z M259.3,276.9V274h-8.1v2h-2.9
			v1.2h5.8v3.1h-5.8v1.2h7.6v3.1h-4.1v1.6c0,0.3,0,0.7,0.6,0.7c0.6,0,0.9-0.4,1.1-1.5l3.3,1.6c-0.1,2.4-1.4,3.3-3.1,3.3H252v1.3
			h-3.1v1c2.1-0.1,3.5-0.3,4.8-0.4l-1.4,3h4.4l-2.8-2c2.4-0.7,3.9-1.4,5.5-3.1c-0.8-0.4-1.6-0.8-2.5-1.2l2.3-3.6
			c0.8,0.3,1.2,0.5,2.3,1c0.3-0.9,0.3-1,0.6-2.2h-3.9v-4.1h4.2c0-0.7,0-2.4,0-3.2H259.3z M260.4,303.8h-6.3c-0.4,1-0.4,1.1-0.7,1.6
			c5.3-0.3,6.4-0.4,8.9-0.6C262.1,304.6,260.7,303.9,260.4,303.8z M266.8,284.1c-0.4,2.3-0.7,3.2-1.2,4.2c1.4,0.7,1.9,1,2.3,1.3
			c0-0.2-0.1-1.2-0.1-2.1c0-1,0.1-1.8,0.2-3.5H266.8z"/>
		<path class="st2" d="M321.2,285.1v19.1c0,4.3-1.3,5.8-5.6,5.8h-3l-1.7-5.2c0.8,0,3.6,0,4.1,0c0.5,0,0.9-0.2,0.9-1.5v-18.2h-5.8
			v-3.1h-5.2V310h-5.2v-28.1h-6.1V281c-0.3,0.5-0.7,1.3-2.1,3.3c0.3,0.1,0.9,0.4,0.9,1c0,0.2-0.1,0.4-0.3,0.5
			c-0.6,0.6-0.7,0.7-0.7,1.1v13.2c1.5-4.8,2-8.5,2.2-14.5l4.9,0.7c0.5,0,0.9,0.4,0.9,0.7c0,0.4-0.6,0.7-0.9,0.8
			c-0.2,5.2-1.1,11.3-2.2,14.2l-4.9-1.1v9H286v-18.5c-0.7,0.8-0.8,0.9-1.6,1.8l-4.4-3.3c4-3.7,7.3-8.1,9.7-13l4,2v-2.1h6.1v-9.1
			l5.1,0.2c0.5,0,1.1,0.2,1.1,0.7c0,0.1,0,0.3-0.3,0.5c-0.4,0.3-0.6,0.5-0.6,0.9v6.7h5.4v3.4h13.4v4.9H321.2z M293.3,272.1
			c-0.5,0-0.7,0-1,0.4c-2.9,2.9-5.1,4.6-7.8,6.5l-4-3.9c3.2-2.1,6.3-4.4,8.8-7.3l3.7,2.8c0.7,0.5,0.8,0.7,0.8,1
			C293.9,272,293.6,272,293.3,272.1z M306.9,275.9c-0.6-3.2-1.3-4.5-1.6-5.2l3.6-1.1c0.9,1.9,1.5,3.3,2,5.3L306.9,275.9z
			 M307.5,301.2c0-3.3-0.2-8.1-1.2-15l4.6-0.5c0.8,4.9,1.2,9.2,1.3,14.5L307.5,301.2z M311.5,274.4v-4.8h11.8v4.8H311.5z"/>
		<path class="st2" d="M366.9,310.1c-9.8-6-13.3-10.4-16.7-18.1c-4.5,9.5-9.1,14.3-17.6,18.4l-4.8-4.3c11.3-4.5,15.8-11,18.2-21.3
			h-16.9v-5.3h17.5c0.2-2.1,0.2-4.6,0.2-5.4c0-2.8-0.1-4.9-0.2-6.5l6.5,0.3c0.3,0,0.8,0,0.8,0.6c0,0.4-0.5,0.8-0.9,1.2
			c-0.1,1-0.1,0.4-0.1,2.8c0,0.4-0.1,4.6-0.2,6.9h18.3v5.3h-17.9c3,9.4,6.8,14.8,18.7,20.5L366.9,310.1z"/>
		<path class="st2" d="M412.1,288.5v-5.9h-28.9v6.1h-5.3v-10.6h24.2c2.3-2.8,4.5-5.8,6-9.2l4.8,1.6c0.3,0.1,0.8,0.4,0.8,0.8
			c0,0.2-0.1,0.2-0.2,0.3c-0.1,0.1-1.2,0.4-1.4,0.6c-1,1.9-2,3.5-3.8,5.9h9.2v10.4H412.1z M400.7,298.9v7.4c0,3.4-2.8,4.2-5.8,4.2
			h-3.1l-2.1-5.2c0.6,0,3.3,0.3,3.9,0.3c0.8,0,1.2-0.7,1.2-1.5v-5.3h-16.8v-4.8h16.8v-3l2.3,0.4c1.1-0.9,1.5-1.5,1.9-2h-13v-4.5H408
			l1.4,2.1c-2.2,2-6.1,5.2-8.7,7.1h16.5v4.8H400.7z M385.4,277.6c-1.2-2.4-2.3-4.2-4.2-6.5l4.5-2.7c1.6,1.9,3,3.7,4.3,6.3
			L385.4,277.6z M396.5,276.7c-1.2-2.5-2.5-4.5-4.5-7l4.4-2.6c2.3,2.7,3.7,4.9,4.8,7.2L396.5,276.7z"/>
		<path class="st2" d="M462,310.1c-9.8-6-13.3-10.4-16.7-18.1c-4.5,9.5-9.1,14.3-17.6,18.4l-4.8-4.3c11.3-4.5,15.8-11,18.2-21.3
			h-16.9v-5.3h17.5c0.2-2.1,0.2-4.6,0.2-5.4c0-2.8-0.1-4.9-0.2-6.5l6.5,0.3c0.3,0,0.8,0,0.8,0.6c0,0.4-0.5,0.8-0.9,1.2
			c-0.1,1-0.1,0.4-0.1,2.8c0,0.4-0.1,4.6-0.2,6.9h18.3v5.3h-17.9c3,9.4,6.8,14.8,18.7,20.5L462,310.1z"/>
		<path class="st2" d="M507.2,288.5v-5.9h-28.9v6.1H473v-10.6h24.2c2.3-2.8,4.5-5.8,6-9.2l4.8,1.6c0.3,0.1,0.8,0.4,0.8,0.8
			c0,0.2-0.1,0.2-0.2,0.3c-0.1,0.1-1.2,0.4-1.4,0.6c-1,1.9-2,3.5-3.8,5.9h9.2v10.4H507.2z M495.8,298.9v7.4c0,3.4-2.8,4.2-5.8,4.2
			h-3.1l-2.1-5.2c0.6,0,3.3,0.3,3.9,0.3c0.8,0,1.2-0.7,1.2-1.5v-5.3H473v-4.8h16.8v-3l2.3,0.4c1.1-0.9,1.5-1.5,1.9-2h-13v-4.5h22.1
			l1.4,2.1c-2.2,2-6.1,5.2-8.7,7.1h16.5v4.8H495.8z M480.4,277.6c-1.2-2.4-2.3-4.2-4.2-6.5l4.5-2.7c1.6,1.9,3,3.7,4.3,6.3
			L480.4,277.6z M491.5,276.7c-1.2-2.5-2.5-4.5-4.5-7l4.4-2.6c2.3,2.7,3.7,4.9,4.8,7.2L491.5,276.7z"/>
		<path class="st2" d="M555.4,282.8v-5.3h-16v5.4h-5.2v-8.4l-4.1,8.9c1.6,2,4.4,5.4,4.4,11.3c0,6.1-5,7.3-8,8.1l-1.8-3.8v11h-5.1
			V269h13.6l2.2,2.6l-0.5,1.1h8.7v-5.1l6.1,0.3c0.4,0,1.1,0.1,1.1,0.6c0,0.5-0.5,0.7-1,1.2v3h10.7v10.1H555.4z M525,284.3l3.6-10.2
			h-3.9v22.6c0.2,0,1,0.1,1.6,0.1c2,0,3.2-1,3.2-3.4C529.6,288.8,526.5,285.7,525,284.3z M556.5,309.9h-6c-2.1,0-2.9-1.7-2.9-3.4
			v-13.7h-6.2l3.8,1.3c0.4,0.1,1.2,0.4,1.2,1.1c0,0.3-0.1,0.5-1.2,1c-0.7,7.2-3.2,11-11.4,14l-4.3-4.5c2-0.4,6.6-1.4,8.7-4.1
			c1.9-2.4,2-7.3,2-8.7h-5.4V288H561v4.8h-8V303c0,0.7,0.3,1.1,1,1.1h0.9c1.4,0,1.4-2.7,1.3-4.6l5.3,2.6
			C560.8,306.5,560.1,309.9,556.5,309.9z M540.8,284.9v-4.7h12.9v4.7H540.8z"/>
		<path class="st2" d="M572,299.8v4.6h-4.6v-32.9H580v28.3H572z M575.4,276.6H572v6.6h3.4V276.6z M575.4,288.2H572v6.6h3.4V288.2z
			 M605,310.3c-4.7-2.9-8.8-6.7-11.4-11.6c-0.7,1.3-2.2,4-5.5,6.8c-3.2,2.9-6.2,4.2-7.5,4.8l-3.8-4.2c2.2-0.7,5.5-1.7,8.9-5.1
			c3.1-3.1,3.9-6.1,4.3-7.6h-8.7v-5h1.9v-12.9h8.1v-7.6l6,0.3c0.4,0,0.7,0.2,0.7,0.6c0,0.3-0.2,0.6-0.3,0.7
			c-0.7,0.6-0.8,0.7-0.8,1.1v4.9h8.9v12.9h2.6v5h-12c2.4,5.6,6.1,9.4,13.1,12.6L605,310.3z M591.4,280.6H588v7.9h3.1
			c0.1-0.9,0.3-2.2,0.3-4.4V280.6z M600.5,280.6h-3.6c0,1.1,0,4.9-0.2,7.9h3.9V280.6z"/>
		<path class="st2" d="M656.2,292.6c0.6,0.5,0.7,0.7,0.7,1c0,0.6-0.2,0.6-2,0.6c-0.3,0-1.4,0.9-1.8,1.2c-0.2,0.2-1.1,0.8-2,1.5
			c2.9,4.7,6.2,6.7,7.4,7.5l-4.1,3.5c-6.4-4.8-10.2-12.1-11.2-20.1c-0.7,0.6-1.3,1.2-3,2.3c4.6,4.2,5.3,9.8,5.3,12.3
			c0,6.2-2.4,7.5-7.6,7.6l-2.1-4.4c3.5,0.1,5.2-0.1,5.1-4.1c-4.5,3.5-8.5,5.7-11.9,7.3l-2.8-3.5c6.9-2.5,11.2-5.8,13.7-8.1
			c-0.2-0.6-0.5-1.1-0.7-1.4c-3,2.7-5.5,4.4-11.3,7.2l-3.2-3.2c2.2-0.8,7.7-2.7,12.5-6.8c-0.4-0.4-0.4-0.5-0.6-0.7
			c-4.3,2.6-6.3,3.6-8.5,4.5l-3.6-3.5c4-1.1,7.8-2.6,11.8-5.8h-7.6v-7.1c0,0-0.7,0.6-0.9,0.7l-2.9-2.5c0,0.4-0.1,0.5-0.7,1
			c-0.1,0.1-0.6,0.4-0.6,0.8V310h-5.5v-23.4c-1,1.5-1.4,2-2.1,2.8l-4.3-3.2c3.4-4,7.5-9.6,9-18.2l4.8,0.7c1.5,0.2,1.9,0.6,1.9,1
			c0,0.3-0.1,0.4-0.3,0.6c-0.2,0.1-1,0.7-1.1,0.8c-0.2,0.3-2.1,5.4-2.6,6.4c0.3,0.1,0.5,0.2,1,0.5c3.7-3.2,6.1-5.8,8.7-10.8l4.2,0.4
			c1.4,0.2,1.5,0.4,1.5,0.7c0,0.5-0.7,0.8-1.1,1l-0.2,0.3h11.3l1.7,1.4c-1.8,2.5-2.2,3-4.3,5.5h9.1v11h-7.4c0.2,2,0.5,3.5,1.2,5.3
			c2.2-1.8,2.9-2.7,3.5-3.4L656.2,292.6z M635,273.9c-1,1.2-1.2,1.6-2.3,2.8h7.5c0.3-0.4,1.7-2.4,2-2.8H635z M639.2,284v-3.6h-5.2
			v3.6H639.2z M644.6,284h5.6v-3.6h-5.6V284z"/>
		<path class="st2" d="M674.4,273.8c-0.7,4.1-1.3,6.6-2.4,9.8h8.6v20.1h-9.1v5.1h-4.9v-14.6c-1.1,1.5-1.9,2.3-2.9,3.3l-4.5-3.3
			c6.1-6,8.8-11.6,9.9-20.4h-6.7v-4.9h19.2v4.9H674.4z M676.1,288.5h-4.5V299h4.5V288.5z M699.8,288.9v20.8h-5.2v-20.8h-3.9
			c-0.2,4.1-0.5,8.3-2.2,13c-1.7,4.4-3.8,6.4-5.7,8.3L678,307c2.1-1.8,3.8-3,5.2-5.8c2.1-4.1,2.3-8.4,2.5-12.3h-3.9V284h3.9v-10.2
			h-2.4v-4.7h19.9v4.7h-3.5V284h4v4.8H699.8z M694.5,273.8H691V284h3.5V273.8z"/>
		<path class="st2" d="M745.8,309.6h-6.4c-2.4,0-4.6-0.9-4.6-3.6c0-0.9,1.1-10.2,1.2-11.5l-5.7,0.1c-2,7.1-8.1,13-17.9,15.3
			l-4.3-5.4c9.8-1.1,15-5.6,16.2-9.7l-12.6,0.3v-5.3l13.6-0.3c0-0.8,0.1-2.3,0.1-5l5.5,0.2v-1.6v-7.7h-6.9l4,1.8
			c0.4,0.2,0.6,0.3,0.6,0.6c0,0.1-0.1,0.4-0.2,0.5s-1.1,0.4-1.2,0.5c-3,5.2-6.1,7.6-11.7,9.5L712,284c2.1-0.5,4.8-1.1,7.4-3.6
			c2.1-2,2.6-3.6,3-4.9h-6.8v5.6h-5.3v-10.5h16.9v-2.8l6.5,0.4c0.1,0,0.9,0,0.9,0.6c0,0.1,0,0.2-0.1,0.3c-0.1,0.1-0.9,0.6-0.9,0.7
			v0.8h16.9v10.1h-3.4c-1.4,5.4-2.7,6.3-6,6.3h-7.8c-0.6,0-1.2-0.1-1.8-0.5c-0.1,1.3-0.1,2-0.3,2.9l11.1-0.3
			c-1,6.8-1.6,12.9-1.6,13.2c0,1.6,1.2,1.7,1.4,1.7h2.3c1.6,0,1.8-1.4,2.3-4.5l5.2,2.1C751.1,306.9,750.1,309.6,745.8,309.6z
			 M745.2,275.5h-8.8v5.4c0,0.7,0.4,1.2,1.3,1.2h2.3c1.2,0,1.5-1.1,2.1-3.2l3,1V275.5z"/>
		<path class="st2" d="M794.9,296.9v12.7h-5.5v-11.7l-14.8,2.9l-1.1-4.7c-1.6-1-2.4-1.8-3.4-2.9v16.3h-5.6v-12.1
			c-0.9,1.6-1.9,3.3-3.1,4.6l-4.5-3c4.2-6.1,5.7-9.3,6.9-14.1H757v-5.1h7.5v-4.1c-2.5,0.5-4.1,0.7-6.1,0.9l-2.1-4.8
			c1.9,0.2,9.6-0.2,16.5-4l3.5,3.7c0.2,0.2,0.4,0.5,0.4,0.9c0,0.3-0.3,0.4-0.6,0.4c-0.2,0-1.1-0.1-1.3-0.1c-0.3,0-0.5,0-0.9,0.2
			c-0.7,0.3-2,0.8-3.8,1.4v5.6h6.4v5.1h-6.4v0.6c2.5,3.6,4.8,5.1,7.1,6.3l-3,3.8l15.2-3.1v-24.9l5.2,0.3c0.6,0,1.2,0.2,1.2,0.8
			c0,0.3-0.1,0.4-0.3,0.5c-0.5,0.4-0.6,0.5-0.6,0.8v21.5l4.3-0.9l0.9,5.2L794.9,296.9z M783.5,291.4c-1.4-1.4-3.8-3.6-7-5.4l3.4-4.2
			c3,1.7,5.2,3.6,7.2,5.6L783.5,291.4z M784.7,281.4c-1.4-1.3-3.8-3.7-7-5.7l3.7-4.1c2.7,1.6,4.9,3.4,7.3,6.1L784.7,281.4z"/>
		<path class="st2" d="M849.5,283.5v2.5h9.4v15.8h-6.3c2.1,1.8,5.6,3.4,8.3,4.2l-2.7,3.7c-3.3-1.2-6.4-2.7-9.5-5.5l2.3-2.4h-7.9
			l1.8,1.7c0.4,0.4,0.7,0.7,0.7,1c0,0.3-0.3,0.3-1,0.3c-0.2,0-0.3,0-0.6,0.3c-2.5,2.3-6.3,4.2-7.9,4.9l-3.3-3.6
			c3.7-1.2,6.8-3,8.4-4.7h-5.8v-15.8h8.9v-2.5h-10.9V280h-4v2.7c0,1,1.7,3.5,2.4,4.5c0.6,1,1.4,2,2.1,2.9l-2.9,3.5
			c-1.2-1.6-1.5-2.1-1.7-2.4v18.6h-4.8v-16.5c-0.7,1.5-1.8,3.2-2.9,4.5l-4.2-2.5c3.2-3.8,6.1-9,7.1-15.2h-5.1v-4.6h5.1v-7.3l4.5,0.4
			c0.3,0,1.1,0.1,1.1,0.4c0,0.1-0.1,0.3-0.3,0.5c-0.4,0.4-0.5,0.4-0.5,0.6v5.3h4v4.2h6.2v-3.6h-4.2v-3.7h4.2v-4.2l4.8,0.3
			c0.4,0,0.9,0.1,0.9,0.5c0,0.2-0.2,0.3-0.4,0.5c-0.3,0.2-0.4,0.3-0.4,0.4v2.4h4.5v-4.2l4.7,0.3c0.8,0,1.1,0.2,1.1,0.5
			c0,0.1-0.1,0.2-0.3,0.3c-0.1,0.1-0.3,0.2-0.3,0.4v2.7h6.3v3.7h-6.3v3.6h7.4v3.8H849.5z M844.3,289.5h-3.9v2.8h3.9V289.5z
			 M844.3,295.2h-3.9v3h3.9V295.2z M849,276.1h-4.5v3.6h4.5V276.1z M853.9,289.5h-4.4v2.8h4.4V289.5z M853.9,295.2h-4.4v3h4.4V295.2
			z"/>
		<path class="st2" d="M873.8,288.9c-1.4-1-3.4-2.3-8.4-4.1l2.8-4.8c2.9,1.1,5.7,2.5,8.1,4.4L873.8,288.9z M874.5,302.2
			c-0.4,0.9-2.7,5.2-2.8,5.7c0,0.1,0,0.8,0,0.9c0,0.1,0,0.6-0.4,0.6c-0.1,0-0.6-0.2-0.9-0.4l-4.7-2.8c3-4.1,5.6-8.9,7.8-14.5
			l4.4,2.6C876.9,296.9,875.8,299.6,874.5,302.2z M876.6,277.5c-2.8-2.2-5.7-3.7-7.9-4.5l3-4.5c2.5,1.1,5.4,2.7,7.9,4.6L876.6,277.5
			z M887.5,296.6l4.3,3.6c0.3,0.2,0.6,0.5,0.6,1c0,0.6-0.9,0.5-1.7,0.5c-0.7,0.8-4.9,5.2-9.4,8.1l-5.1-3.9c1.8-0.8,3.8-1.7,6.3-3.9
			c2.8-2.4,3.7-4,4.5-5.4h-7.7v-5.3h3.5v-21.3c2,0.5,3.2,0.7,4.1,0.7c1.7,0,3.9-0.3,4.3-0.4c7.2-1.2,8.8-1.9,11.8-3.2l2.8,4.3
			c0.2,0.3,0.5,0.9,0.5,1.2c0,0.3-0.3,0.3-0.6,0.3c-0.2,0-1.1-0.1-1.4-0.1c-0.2,0-3.2,0.6-3.7,0.7c-2,0.4-8.1,1.3-12.4,1.4v3.7h19.1
			v5.1H900v7.5h9v5.3H887.5z M894.5,283.8h-6.1v7.5h6.1V283.8z M906.2,309.8c-5.4-3.2-8.9-7-11.2-9.8l4.3-3.2
			c2.9,3.9,7,6.7,11.3,8.9L906.2,309.8z"/>
		<path class="st2" d="M938.6,278.5v4.6h13.7v17.1c0,4.4-2.7,5.5-9,5.6l-2.1-5.5c0.9,0.1,1.7,0.1,2.8,0.1c2.1,0,2.5-0.3,2.5-1.9
			v-10.3h-7.9V311h-6.1v-22.7h-8.1v17.7h-5.9v-22.8h14v-4.6h-18v-5.2h18v-5.5l6.3,0.4c0.2,0,0.6,0.1,0.6,0.4c0,0.1,0,0.3-0.2,0.5
			c-0.6,0.6-0.6,0.7-0.6,0.8v3.2h17.9v5.2H938.6z"/>
		<path class="st2" d="M999.9,310c-6.5-1.9-10.8-4-16.7-8.8c-4.9,3.9-8.9,6-18.2,9.1l-4.3-4.7c2.5-0.5,5.5-1.2,10.1-3.2
			c4.7-2.1,6.5-3.6,8.4-5.2c-1.9-2-4.3-4.8-7.3-10.5c-1.8-3.4-2.4-5.4-3.3-7.8h-6.1v-5H980v-6.3l5.9,0.4c0.2,0,1.2,0.1,1.2,0.6
			c0,0.2-0.2,0.4-0.5,0.6c-0.1,0.1-0.6,0.4-0.6,0.8v3.9h17.4v5h-6.8c-2.2,6.8-4.3,12.3-9.4,18.4c5.6,4.2,9.8,5.9,16.2,7.3L999.9,310
			z M974.6,279c2.7,7.2,5,10.7,8.4,14.5c4.1-5,6-10.7,7-14.5H974.6z"/>
		<path class="st2" d="M1026.8,271.9c-0.9,0.3-1,0.4-1.1,0.7c-1,1.9-1.3,2.6-3.6,6.5c0.4,0.3,0.7,0.5,0.7,0.9c0,0.2,0,0.5-0.2,0.8
			c-0.5,0.6-0.6,0.8-0.6,1.2v27.6h-5.7v-22.2c-1.1,1.6-1.8,2.4-3,3.8l-4.7-3.4c6.8-7.3,10.2-14.1,12.6-20.3l5.2,2.8
			c0.3,0.2,0.9,0.5,0.9,1C1027.3,271.7,1026.9,271.9,1026.8,271.9z M1052.1,278.3c-0.2,0-1.2,0-1.4,0.1c-0.2,0.1-3.6,3.7-4.3,4.4
			c-3.5,3.2-7.2,6.2-11.1,9v9.2c0,2,0.4,2.6,2.1,2.6h6.8c1.8,0,2.4-1.2,2.9-5.2l4.9,3.4c-1.3,6.5-3,7.2-7,7.2h-10.5
			c-3.3,0-4.7-1.4-4.7-4.6v-36.6l5.2,0.4c0.7,0,1.6,0.1,1.6,0.7c0,0.3-0.4,0.6-0.5,0.7c-0.2,0.1-0.7,0.5-0.7,0.9v14.7
			c5.3-4.2,8.5-7.5,11.5-11.7l4.8,3c0.2,0.1,1,0.6,1,1.1C1052.5,278,1052.3,278.2,1052.1,278.3z"/>
		<path class="st2" d="M1095.7,310h-4.1c-1.5,0-3.5-0.4-3.5-2.7v-12.7h-3.6l2,0.6c0.3,0.1,0.8,0.2,0.8,0.7c0,0.2,0,0.3-0.8,1.1
			c-0.1,0.1-0.1,0.1-0.3,0.9c-2,9.2-6.1,11.9-7.8,12.9l-4.9-2.7c1-0.6,1.5-0.9,2-1.3h-10.8v3h-4.7V291l-4-3.3
			c2.9-1.6,4.7-3.2,6.7-6.4h-6v-4h4.3l-4.4-2c2.2-2.4,3.8-5.2,4.9-8.1l4.6,1.4c0.2,0,0.6,0.2,0.6,0.5c0,0.2-0.1,0.3-0.5,0.5
			c-0.4,0.2-0.6,0.3-0.8,0.9h12.6v4.2h-7.4c-0.3,1.3-0.4,1.6-0.8,2.6h8.4v4h-4.9l1.9,0.9c0.2,0.1,0.7,0.4,0.7,0.8
			c0,0.3-0.2,0.4-0.5,0.5c-0.5,0.1-0.6,0.2-0.8,0.6c-0.2,0.3-0.7,1-1,1.2h4.5v3.8h-5.4v2.2h4.1v3.2h-4.1v2.4h4.1v3.3h-4.1v2.7h5.3
			v1.3c2.5-3.2,3.3-8.6,3.4-9.6h-2v-25.6h19.6v25.6h-5.9v8.9c0,0.7,0.4,1.1,1,1.1h0.7c0.7,0,1.5-0.3,1.5-2.9l4.3,1.7
			C1100.1,310,1097.9,310,1095.7,310z M1063.4,274.6c-0.6,0.9-1.1,1.7-1.8,2.6h3.2c0.5-1.5,0.7-2.2,0.8-2.6H1063.4z M1068.7,289.1
			h-3.9v2.2h3.9V289.1z M1068.7,294.5h-3.9v2.4h3.9V294.5z M1068.7,300.2h-3.9v2.7h3.9V300.2z M1068.4,281.3c-1,1.8-1.8,2.9-2.7,4
			h3.3c1.2-1.3,1.9-2.5,2.5-4H1068.4z M1094.4,273.4h-9.7v2.6h9.7V273.4z M1094.4,279.9h-9.7v2.8h9.7V279.9z M1094.4,286.8h-9.7v3
			h9.7V286.8z"/>
		<path class="st2" d="M1140.4,309.7h-9.8c-2.6,0-4-1.1-4-3.6v-17.5h-8.3l4.6,0.9c0.5,0.1,1.2,0.3,1.2,0.8c0,0.4-0.4,0.6-1.1,0.9
			c-0.3,7.4-2.9,14.3-14.1,19.4l-5.1-4.9c11-3.8,13.3-8.4,13.3-17.2h-12.6V283h17.7v-15.1l6.1,0.1c0.4,0,1.3,0,1.3,0.6
			c0,0.2,0,0.4-0.4,0.7c-0.4,0.4-0.5,0.6-0.5,0.9V283h17.7v5.6h-14v13.7c0,1.1,0.6,1.9,1.9,1.9h4.8c1.9,0,2.1-2.2,2.3-4.9l5.1,2.8
			C1145.3,307.8,1144.9,309.7,1140.4,309.7z M1114,282.8c-1.5-3.1-3.4-6.2-6.7-10.1l5.1-3.2c2,2.1,4,4.7,7.1,10.3L1114,282.8z
			 M1141.8,273.6c-1,0.2-1.1,0.4-1.4,0.9c-1.4,3.2-2.4,5-4.8,8.4l-5.7-2.9c1.7-2.6,3.8-5.9,5.8-10.5l5.8,2.3
			c0.4,0.1,1.1,0.6,1.1,1.1C1142.6,273.4,1142.4,273.5,1141.8,273.6z"/>
		<path class="st2" d="M1193.3,292.7c-0.1,4.3-0.2,6.5-0.8,10.1c-0.9,5.6-3.8,6.7-9.7,6.8l-2.6-5.3c2.2,0.1,4.1,0.1,4.2,0.1
			c1,0,2.5-0.2,3-4.3c0.2-1.9,0.2-6.1,0.2-11.6h-25.6c-0.3,2.8-0.7,6.8-2.4,12.7c-1.3,4.7-2.3,6.4-3.5,8.5l-5.5-2.1
			c1.5-2.4,2.5-4,3.6-7.7c2.5-7.9,2.5-14.4,2.5-18.5c0-4.2,0-8.5-0.2-12.8h33.6v12.5h-27.8v2.8h31
			C1193.4,286.4,1193.4,288.2,1193.3,292.7z M1183.8,273.4h-21.5v3.6h21.5V273.4z M1168.8,303v2.3h-5.4v-13.8h19.8V303H1168.8z
			 M1177.7,295.7h-8.9v2.8h8.9V295.7z"/>
	</g>
	<line class="st3" x1="6.4" y1="170.7" x2="1196.4" y2="170.7"/>
</g>
</svg>
