<?xml version="1.0" encoding="utf-8"?>
<!-- Generator: Adobe Illustrator 22.1.0, SVG Export Plug-In . SVG Version: 6.00 Build 0)  -->
<svg version="1.1" id="レイヤー_1" xmlns="http://www.w3.org/2000/svg" xmlns:xlink="http://www.w3.org/1999/xlink" x="0px"
	 y="0px" viewBox="0 0 3423 489" style="enable-background:new 0 0 3423 489;" xml:space="preserve">
<style type="text/css">
	.st0{fill:#FEFEFF;}
</style>
<g>
	<g>
		<rect x="1168.4" y="209.1" class="st0" width="86" height="85.5"/>
		<rect x="2192.8" y="153.5" class="st0" width="82.1" height="66.4"/>
		<g>
			<path class="st0" d="M0.4,294.6l63-109.2c-7-3-13.5-6.9-19.7-11.5c-7.6-5.7-14.3-12.6-20.1-20.6c-5.8-7.9-10.4-16.9-13.7-26.7
				c-3.4-9.8-5.1-20-5.1-30.4C5,83.2,7.5,70.9,12.5,59.5C17.4,48.1,24.3,38,33,29.4C41.6,20.9,51.7,14,63,9.1
				c11.3-5,23.6-7.6,36.5-7.9c0,0,0,0,0,0c13.2,0,25.8,2.4,37.5,7c11.7,4.6,22.2,11.1,31.1,19.3c9,8.2,16.2,18.1,21.5,29.4
				c5.4,11.4,8.2,23.7,8.3,36.7c0,10.3-0.7,19.2-2.2,26.4c-1.5,7.5-4.5,15.1-8.9,22.6l-38.2,66.1h49.4v85.8H0.4z M90.3,96.4
				c0,3.2,1.2,6,3.6,8.4c2.5,2.5,5.3,3.6,8.7,3.6c3-0.1,5.3-1.2,7.3-3.5c2.1-2.4,3.1-5.2,3.1-8.3c0-3.1-1-5.7-3.2-8
				c-2.1-2.2-4.6-3.3-7.7-3.3c-3.1,0-5.8,1-8.1,3.2C91.7,90.6,90.5,93.2,90.3,96.4z"/>
			<path class="st0" d="M366.8,302.3c-27.1,0-52.6-6.8-75.8-20.3c-23.2-13.5-42-32-55.8-55.2c-13.9-23.2-20.9-48.6-20.9-75.4
				c0.1-20.3,4.1-39.6,11.7-57.6c7.6-17.9,18.4-34,32.2-47.7c13.7-13.7,29.7-24.6,47.7-32.3C323.8,6,343.2,2,363.4,1.9
				c20.7,0,40.5,3.9,58.9,11.5C440.7,21,457,31.8,471,45.4c14,13.7,25.1,29.7,33,47.6c7.9,18,12,37.2,12,57.3
				c0,27.2-6.8,52.7-20.1,75.8c-13.3,23.1-31.7,41.7-54.6,55.4C418.2,295.1,393.2,302.1,366.8,302.3L366.8,302.3L366.8,302.3z
				 M364.2,86.3c-11.5,0.1-22.3,3.1-32.2,9c-9.9,5.9-17.9,13.9-23.7,23.8c-5.8,9.9-8.8,20.8-8.9,32.4c0,11.9,3,23,9.1,33
				c6,10,14.2,18.1,24.4,24c10.1,5.9,21.2,8.8,33.1,8.8c9-0.2,17.5-2.1,25.3-5.6c7.8-3.5,14.8-8.3,20.8-14.4
				c6-6.1,10.6-13.2,13.9-21.1c3.3-7.9,4.9-16.3,4.9-25.1c0-8.7-1.8-17.1-5.2-24.9c-3.5-7.9-8.3-14.9-14.4-20.9
				c-6.1-6-13.3-10.7-21.4-14C381.6,88,373,86.3,364.2,86.3z"/>
			<polygon class="st0" points="561.9,294.6 561.9,92.7 524.7,92.7 530.7,80.7 530.8,80.7 536,68.5 536.6,68.5 540.1,60.6 
				539.4,60.6 547.2,46.1 547.2,46.1 552.4,34 552.8,34 555.9,26.4 555.7,26.4 556.8,24.2 557.9,21.5 558.1,21.5 565.1,7.6 
				648.1,7.6 647.7,294.6 			"/>
			<path class="st0" d="M683.3,294.6l50.3-106.4c-18.6-5.9-33.9-16.4-45.5-31.5c-12.7-16.3-19.8-35.6-21.2-57.2l0-0.1v-0.1
				c0-13.7,2.6-26.9,7.9-39.1c5.2-12.1,12.4-22.8,21.4-31.8c9-9,19.5-16,31.1-20.9c11.7-4.9,24.2-7.4,37.1-7.4
				c17.5,0,34,4.5,48.9,13.5c14.9,8.9,26.8,21.1,35.4,36.2c8.6,15.1,13,31.7,13,49.1c0,3.8-0.4,8.2-1.2,13
				c-0.8,4.7-1.7,8.9-2.7,12.6c-1,3.9-1.9,6.6-2.8,8.4l-76.8,161.8H683.3z M752.4,97.8c0.5,3.3,1.8,5.9,4.1,7.9
				c2.3,2.1,5,3.1,8.2,3.1c3-0.1,5.6-1.3,8-3.6c2.3-2.3,3.5-5,3.5-8.2c0-3.4-1.1-6.1-3.4-8.4c-2.3-2.3-4.9-3.5-8.1-3.6
				c-3.5,0-6.2,1.2-8.6,3.9C753.7,91.5,752.5,94.4,752.4,97.8z"/>
			<polygon class="st0" points="1013,294.6 1013,92.7 975.8,92.7 981.8,80.7 981.9,80.7 987.2,68.5 987.8,68.5 991.2,60.6 
				990.5,60.6 998.3,46.1 998.3,46.1 1003.6,34 1004,34 1007,26.4 1006.8,26.4 1007.9,24.2 1009,21.5 1009.3,21.5 1016.2,7.6 
				1099.2,7.6 1098.8,294.6 			"/>
			<polygon class="st0" points="1323.7,294.6 1323.7,92.7 1286.4,92.7 1292.4,80.7 1292.5,80.7 1297.8,68.5 1298.4,68.5 
				1301.9,60.6 1301.2,60.6 1308.9,46.1 1309,46.1 1314.2,34 1314.6,34 1317.6,26.4 1317.4,26.4 1318.5,24.2 1319.6,21.5 
				1319.9,21.5 1326.8,7.6 1409.8,7.6 1409.5,294.6 			"/>
			<path class="st0" d="M1445.1,294.6l50.3-106.4c-18.6-5.9-33.9-16.4-45.5-31.5c-12.7-16.3-19.8-35.6-21.2-57.2l0-0.1v-0.1
				c0-13.7,2.6-26.9,7.9-39.1c5.2-12.1,12.4-22.8,21.4-31.8c9-9,19.5-16,31.1-20.9c11.7-4.9,24.2-7.4,37.1-7.4
				c17.5,0,34,4.5,48.9,13.5c14.9,8.9,26.8,21.1,35.4,36.2c8.6,15.1,13,31.7,13,49.1c0,3.8-0.4,8.2-1.2,13
				c-0.8,4.7-1.7,8.9-2.7,12.6c-1,3.9-1.9,6.6-2.8,8.4l-76.8,161.8H1445.1z M1514.2,97.8c0.5,3.3,1.8,5.9,4.1,7.9
				c2.3,2.1,5,3.1,8.2,3.1c3-0.1,5.6-1.3,8-3.6c2.3-2.3,3.5-5,3.5-8.2c0-3.4-1.1-6.1-3.4-8.4c-2.3-2.3-4.9-3.5-8.1-3.6
				c-3.5,0-6.2,1.2-8.6,3.9C1515.4,91.5,1514.2,94.4,1514.2,97.8z"/>
			<path class="st0" d="M1755.3,302.3c-12.6,0-24.5-2.9-35.4-8.7c-10.9-5.8-19.8-13.9-26.5-24c-6.8-10.2-10.8-21.7-11.9-34.2
				c-0.2-1.7-0.3-3.9-0.3-6.7V224h66.3v4.6c0,1.6,0.2,2.5,0.3,3c0.4,1.2,1.1,2.1,2.2,2.7c1.3,0.8,2.8,1.1,4.6,1.1
				c2.1,0,3.8-0.7,5.2-2.1c1.4-1.5,2.1-3.2,2.1-5.3c0-1.3-0.3-2.5-0.9-3.6c-0.6-1.1-1.5-2-2.7-2.7c-1.1-0.7-2.4-1.1-3.9-1.1l-0.2,0
				l-7-0.8c-9.3-0.9-18.2-3.5-26.3-7.5c-8.1-4.1-15.3-9.4-21.4-16c-6.1-6.6-10.9-14.2-14.2-22.6c-3.3-8.4-5-17.4-5-26.7
				c0-13.1,3.4-25.4,10.2-36.6c6.7-11.2,16-20.1,27.4-26.6c11.4-6.5,24-9.7,37.3-9.7c12.7,0.2,24.3,3.1,34.8,8.7
				c10.4,5.6,19.1,13.5,25.8,23.3c6.7,9.9,10.7,21.1,11.9,33.4l0,0.1c0.1,1.3,0.2,2.6,0.3,4c0.1,1.6,0.1,2.8,0.1,3.8v4.6h-66.3v-4.6
				c0-2.3-0.2-3.1-0.2-3.1c-0.5-1.6-1.3-2.7-2.6-3.6c-1.3-0.9-2.8-1.4-4.5-1.4c-2.1,0-3.8,0.7-5.4,2.2c-1.5,1.4-2.2,3-2.2,4.9
				c0,1.9,0.7,3.6,2.3,5.1c1.7,1.7,3.6,2.6,5.7,2.7l7.8,0.8c9,0.7,17.7,3.2,25.7,7.4c8,4.2,15,9.7,20.9,16.3
				c5.8,6.6,10.5,14.3,14,22.9c3.4,8.6,5.2,17.4,5.3,26c0,13.6-3.4,26.2-10,37.6c-6.6,11.3-15.6,20.3-26.7,26.8
				C1780.8,298.7,1768.5,302.1,1755.3,302.3L1755.3,302.3L1755.3,302.3z"/>
			<path class="st0" d="M1928.4,296.6v-52.1h-14.7v52.1h-66.5V144c0-12.7,3.4-24.4,10-34.9c6.6-10.4,15.5-18.8,26.4-24.9
				c10.9-6.1,23-9.4,35.7-9.7c0,0,0,0,0,0c10.2,0,19.9,1.9,29,5.7c9.1,3.8,17.2,9,24.1,15.5c6.9,6.6,12.4,14.4,16.4,23.2
				c4,8.9,6,18.5,6,28.5l-0.3,149.2H1928.4z M1928.1,178.7v-32.3c0-1.7-0.7-3-2.2-4.2c-1.8-1.4-3.6-2.1-5.7-2.1
				c-1.8,0.1-3.5,0.8-5.1,2c-1.5,1.1-1.7,2-1.7,2.8v33.9H1928.1z"/>
			<polygon class="st0" points="2060.5,296.6 2060.5,144.7 2014.4,144.7 2014.4,79.5 2172.6,79.5 2172.6,145.5 2127.3,145.5 
				2127.3,296.6 			"/>
			<path class="st0" d="M2326.8,294.6l63-109.2c-7-3-13.5-6.9-19.7-11.5c-7.6-5.7-14.3-12.6-20.1-20.6c-5.8-7.9-10.4-16.9-13.7-26.7
				c-3.4-9.8-5.1-20-5.1-30.4c0.1-13.1,2.7-25.5,7.6-36.8c4.9-11.4,11.8-21.5,20.5-30.1c8.7-8.6,18.8-15.4,30.1-20.4
				c11.3-5,23.6-7.6,36.5-7.9c0,0,0,0,0,0c13.2,0,25.8,2.4,37.5,7c11.7,4.6,22.2,11.1,31.1,19.3c9,8.2,16.2,18.1,21.5,29.4
				c5.4,11.4,8.2,23.7,8.3,36.7c0,10.3-0.7,19.2-2.2,26.4c-1.5,7.5-4.5,15.1-8.9,22.6l-38.2,66.1h49.4v85.8H2326.8z M2416.7,96.4
				c0,3.2,1.2,6,3.6,8.4c2.5,2.5,5.3,3.6,8.7,3.6c3-0.1,5.3-1.2,7.3-3.5c2.1-2.4,3.1-5.2,3.1-8.3c0-3.1-1-5.7-3.2-8
				c-2.1-2.2-4.6-3.3-7.7-3.3c-3.1,0-5.8,1-8.1,3.2C2418.1,90.6,2416.9,93.2,2416.7,96.4z"/>
			<path class="st0" d="M2695.8,302.3c-27.1,0-52.6-6.8-75.8-20.3c-23.2-13.5-42-32-55.8-55.2c-13.9-23.2-20.9-48.6-20.9-75.4
				c0.1-20.3,4.1-39.6,11.7-57.6c7.6-17.9,18.4-34,32.2-47.7c13.7-13.7,29.7-24.6,47.7-32.3c18-7.8,37.3-11.7,57.6-11.9
				c20.7,0,40.5,3.9,58.9,11.5c18.3,7.6,34.7,18.4,48.7,32.1c14,13.7,25.1,29.7,33,47.6c7.9,18,12,37.2,12,57.3
				c0,27.2-6.8,52.7-20.1,75.8c-13.3,23.1-31.7,41.7-54.6,55.4C2747.2,295.1,2722.2,302.1,2695.8,302.3L2695.8,302.3L2695.8,302.3z
				 M2693.1,86.3c-11.5,0.1-22.3,3.1-32.2,9c-9.9,5.9-17.9,13.9-23.7,23.8c-5.8,9.9-8.8,20.8-8.9,32.4c0,11.9,3,23,9.1,33
				c6,10,14.2,18.1,24.4,24c10.1,5.9,21.2,8.8,33.1,8.8c9-0.2,17.5-2.1,25.3-5.6c7.8-3.5,14.8-8.3,20.8-14.4
				c6-6.1,10.6-13.2,13.9-21.1c3.3-7.9,4.9-16.3,4.9-25.1c0-8.7-1.8-17.1-5.2-24.9c-3.5-7.9-8.3-14.9-14.4-20.9
				c-6.1-6-13.3-10.7-21.4-14C2710.6,88,2702,86.3,2693.1,86.3z"/>
			<path class="st0" d="M2990.7,302.3c-12.6,0-24.5-2.9-35.4-8.7c-10.9-5.8-19.8-13.9-26.5-24c-6.8-10.2-10.8-21.7-11.9-34.2
				c-0.2-1.7-0.3-3.9-0.3-6.7V224h66.3v4.6c0,1.6,0.2,2.5,0.3,3c0.4,1.2,1.1,2.1,2.2,2.7c1.3,0.8,2.8,1.1,4.6,1.1
				c2.1,0,3.8-0.7,5.2-2.1c1.4-1.5,2.1-3.2,2.1-5.3c0-1.3-0.3-2.5-0.9-3.6c-0.6-1.1-1.5-2-2.7-2.7c-1.1-0.7-2.4-1.1-3.9-1.1l-0.2,0
				l-7-0.8c-9.3-0.9-18.2-3.5-26.3-7.5c-8.1-4.1-15.3-9.4-21.4-16c-6.1-6.6-10.9-14.2-14.2-22.6c-3.3-8.4-5-17.4-5-26.7
				c0-13.1,3.4-25.4,10.2-36.6c6.7-11.2,16-20.1,27.4-26.6c11.4-6.5,24-9.7,37.3-9.7c12.7,0.2,24.3,3.1,34.8,8.7
				c10.4,5.6,19.1,13.5,25.8,23.3c6.7,9.9,10.7,21.1,11.9,33.4l0,0.1c0.1,1.3,0.2,2.6,0.3,4c0.1,1.6,0.1,2.8,0.1,3.8v4.6h-66.3v-4.6
				c0-2.3-0.2-3.1-0.2-3.1c-0.5-1.6-1.3-2.7-2.6-3.6c-1.3-0.9-2.8-1.4-4.5-1.4c-2.1,0-3.8,0.7-5.4,2.2c-1.5,1.4-2.2,3-2.2,4.9
				c0,1.9,0.7,3.6,2.3,5.1c1.7,1.7,3.6,2.6,5.7,2.7l7.8,0.8c9,0.7,17.7,3.2,25.7,7.4c8,4.2,15,9.7,20.9,16.3
				c5.8,6.6,10.5,14.3,14,22.9c3.4,8.6,5.2,17.4,5.3,26c0,13.6-3.4,26.2-10,37.6c-6.6,11.3-15.6,20.3-26.7,26.8
				C3016.2,298.7,3003.9,302.1,2990.7,302.3L2990.7,302.3L2990.7,302.3z"/>
			<path class="st0" d="M3156.2,302c-12.7-0.3-24.8-3.5-35.9-9.7c-11.1-6.2-20.1-14.7-26.7-25.3c-6.6-10.6-10-22.4-10-35V79.5h66.9
				v152c0,0.9,0.2,1.7,1.5,2.6c1.5,1.1,3.1,1.7,5,1.8c2.1,0,4-0.7,5.7-2.1c1.5-1.2,2.1-2.5,2.1-4.3V79.5h66.5v149.6
				c0,13.1-3.5,25.4-10.3,36.6c-6.8,11.2-16.1,20.1-27.5,26.5c-11.4,6.5-24,9.7-37.3,9.7L3156.2,302z"/>
			<polygon class="st0" points="3311.6,212.7 3311.6,296.6 3245.1,296.6 3245.1,79.5 3356.4,164.3 3356.4,79.9 3422.9,79.9 
				3422.9,296.6 			"/>
		</g>
	</g>
	<g>
		<polygon class="st0" points="18.2,485.6 18.2,391.5 0.1,391.5 4.1,383.5 6.6,377.7 6.9,377.7 7.4,376.6 6.9,376.6 11.5,367.9 
			14.2,361.6 14.4,361.6 14.8,360.6 14.5,360.6 15.9,357.8 16.7,355.8 16.9,355.8 20.2,349.3 60.9,349.3 60.7,485.6 		"/>
		<polygon class="st0" points="93.9,485.6 93.9,391.5 75.8,391.5 79.8,383.5 82.3,377.7 82.6,377.7 83.1,376.6 82.6,376.6 
			87.2,367.9 89.9,361.6 90.1,361.6 90.5,360.6 90.2,360.6 91.6,357.8 92.4,355.8 92.6,355.8 95.9,349.3 136.6,349.3 136.4,485.6 		
			"/>
		<path class="st0" d="M159.5,455.6v-42.2H202v42.2H159.5z M159.5,404.3v-42.6H202V404h-34.2v0.2H159.5z"/>
		<path class="st0" d="M293,489.1c-12.8,0-24.9-3.2-35.9-9.6c-11-6.4-19.9-15.2-26.4-26.1c-6.6-11-9.9-23-9.9-35.8
			c0.1-9.6,1.9-18.8,5.5-27.3c3.6-8.5,8.7-16.1,15.3-22.6c6.5-6.5,14.1-11.7,22.6-15.3c8.5-3.7,17.7-5.6,27.3-5.6
			c9.8,0,19.2,1.8,27.9,5.4c8.7,3.6,16.5,8.7,23.1,15.2c6.6,6.5,11.9,14.1,15.6,22.6c3.8,8.5,5.7,17.7,5.7,27.2
			c0,12.9-3.2,25-9.5,35.9c-6.3,10.9-15,19.8-25.9,26.2C317.4,485.8,305.5,489.1,293,489.1L293,489.1L293,489.1z M291.8,388.5
			c-5.1,0.1-9.9,1.4-14.3,4c-4.4,2.6-8,6.2-10.6,10.6c-2.6,4.4-3.9,9.3-4,14.5c0,5.3,1.4,10.2,4,14.7c2.7,4.5,6.4,8.1,10.9,10.7
			c4.5,2.6,9.5,3.9,14.8,3.9c4-0.1,7.8-0.9,11.3-2.5c3.5-1.6,6.6-3.7,9.3-6.5c2.7-2.7,4.8-5.9,6.2-9.4c1.5-3.5,2.2-7.3,2.2-11.2
			c0-3.9-0.8-7.6-2.3-11.1c-1.6-3.5-3.7-6.7-6.5-9.3c-2.7-2.7-5.9-4.8-9.6-6.2C299.6,389.3,295.7,388.5,291.8,388.5z"/>
		<path class="st0" d="M445.5,489.1c-12.8,0-24.9-3.2-35.9-9.6c-11-6.4-19.9-15.2-26.4-26.1c-6.6-11-9.9-23-9.9-35.8
			c0.1-9.6,1.9-18.8,5.5-27.3c3.6-8.5,8.7-16.1,15.3-22.6c6.5-6.5,14.1-11.7,22.6-15.3c8.5-3.7,17.7-5.6,27.3-5.6
			c9.8,0,19.2,1.8,27.9,5.4c8.7,3.6,16.5,8.7,23.1,15.2c6.6,6.5,11.9,14.1,15.6,22.6c3.8,8.5,5.7,17.7,5.7,27.2
			c0,12.9-3.2,25-9.5,35.9c-6.3,10.9-15,19.8-25.9,26.2C469.9,485.8,458,489.1,445.5,489.1L445.5,489.1L445.5,489.1z M444.3,388.5
			c-5.1,0.1-9.9,1.4-14.3,4c-4.4,2.6-8,6.2-10.6,10.6c-2.6,4.4-3.9,9.3-4,14.5c0,5.3,1.4,10.2,4,14.7c2.7,4.5,6.4,8.1,10.9,10.7
			c4.5,2.6,9.5,3.9,14.8,3.9c4-0.1,7.8-0.9,11.3-2.5c3.5-1.6,6.6-3.7,9.3-6.5c2.7-2.7,4.8-5.9,6.2-9.4c1.5-3.5,2.2-7.3,2.2-11.2
			c0-3.9-0.8-7.6-2.3-11.1c-1.6-3.5-3.7-6.7-6.5-9.3c-2.7-2.7-5.9-4.8-9.6-6.2C452.1,389.3,448.3,388.5,444.3,388.5z"/>
		<rect x="535.4" y="395.4" class="st0" width="52.2" height="42.4"/>
		<polygon class="st0" points="628.5,485.6 628.5,391.5 610.4,391.5 614.4,383.5 616.9,377.7 617.2,377.7 617.7,376.6 617.2,376.6 
			621.8,367.9 624.5,361.6 624.7,361.6 625.1,360.6 624.8,360.6 626.2,357.8 627,355.8 627.2,355.8 630.4,349.3 671.2,349.3 
			671,485.6 		"/>
		<path class="st0" d="M691.1,485.6l23.7-50.1c-8.3-2.9-15.2-7.8-20.5-14.6c-6.1-7.8-9.5-17-10.1-27.4l0-0.1v-0.1
			c0-6.6,1.3-12.9,3.8-18.7c2.5-5.8,5.9-10.9,10.2-15.2c4.3-4.3,9.3-7.7,14.9-10c5.6-2.4,11.6-3.5,17.8-3.5c8.4,0,16.3,2.2,23.4,6.5
			c7.1,4.3,12.8,10.1,16.9,17.3c4.1,7.2,6.2,15.2,6.2,23.5c0,1.8-0.2,3.9-0.6,6.2c-0.4,2.2-0.8,4.3-1.3,6c-0.5,1.9-0.9,3.2-1.4,4.1
			l-36.1,76.1H691.1z M726.5,392.5c0.2,1.2,0.7,2.1,1.5,2.8c0.8,0.8,1.8,1.1,3,1.1c1,0,1.9-0.5,2.8-1.3c0.9-0.9,1.2-1.8,1.2-2.9
			c0-1.3-0.4-2.2-1.2-3c-0.8-0.8-1.8-1.2-2.9-1.3c-1.2,0-2.2,0.4-3,1.4C727,390.3,726.6,391.3,726.5,392.5z"/>
		<path class="st0" d="M789.7,455.6v-42.2h42.5v42.2H789.7z M789.7,404.3v-42.6h42.5V404H798v0.2H789.7z"/>
		<path class="st0" d="M923.1,489.1c-12.8,0-24.9-3.2-35.9-9.6c-11-6.4-19.9-15.2-26.4-26.1c-6.6-11-9.9-23-9.9-35.8
			c0.1-9.6,1.9-18.8,5.5-27.3c3.6-8.5,8.7-16.1,15.3-22.6c6.5-6.5,14.1-11.7,22.6-15.3c8.5-3.7,17.7-5.6,27.3-5.6
			c9.8,0,19.2,1.8,27.9,5.4c8.7,3.6,16.5,8.7,23.1,15.2c6.6,6.5,11.9,14.1,15.6,22.6c3.8,8.5,5.7,17.7,5.7,27.2
			c0,12.9-3.2,25-9.5,35.9c-6.3,10.9-15,19.8-25.9,26.2C947.5,485.8,935.7,489.1,923.1,489.1L923.1,489.1L923.1,489.1z M921.9,388.5
			c-5.1,0.1-9.9,1.4-14.3,4c-4.4,2.6-8,6.2-10.6,10.6c-2.6,4.4-3.9,9.3-4,14.5c0,5.3,1.4,10.2,4,14.7c2.7,4.5,6.4,8.1,10.9,10.7
			c4.5,2.6,9.5,3.9,14.8,3.9c4-0.1,7.8-0.9,11.3-2.5c3.5-1.6,6.6-3.7,9.3-6.5c2.7-2.7,4.8-5.9,6.2-9.4c1.5-3.5,2.2-7.3,2.2-11.2
			c0-3.9-0.8-7.6-2.3-11.1c-1.6-3.5-3.7-6.7-6.5-9.3c-2.7-2.7-5.9-4.8-9.6-6.2C929.7,389.3,925.9,388.5,921.9,388.5z"/>
		<path class="st0" d="M1075.6,489.1c-12.8,0-24.9-3.2-35.9-9.6c-11-6.4-19.9-15.2-26.4-26.1c-6.6-11-9.9-23-9.9-35.8
			c0.1-9.6,1.9-18.8,5.5-27.3c3.6-8.5,8.7-16.1,15.3-22.6c6.5-6.5,14.1-11.7,22.6-15.3c8.5-3.7,17.7-5.6,27.3-5.6
			c9.8,0,19.2,1.8,27.9,5.4c8.7,3.6,16.5,8.7,23.1,15.2c6.6,6.5,11.9,14.1,15.6,22.6c3.8,8.5,5.7,17.7,5.7,27.2
			c0,12.9-3.2,25-9.5,35.9c-6.3,10.9-15,19.8-25.9,26.2C1100,485.8,1088.2,489.1,1075.6,489.1L1075.6,489.1L1075.6,489.1z
			 M1074.4,388.5c-5.1,0.1-9.9,1.4-14.3,4c-4.4,2.6-8,6.2-10.6,10.6c-2.6,4.4-3.9,9.3-4,14.5c0,5.3,1.4,10.2,4,14.7
			c2.7,4.5,6.4,8.1,10.9,10.7c4.5,2.6,9.5,3.9,14.8,3.9c4-0.1,7.8-0.9,11.3-2.5c3.5-1.6,6.6-3.7,9.3-6.5c2.7-2.7,4.8-5.9,6.2-9.4
			c1.5-3.5,2.2-7.3,2.2-11.2c0-3.9-0.8-7.6-2.3-11.1c-1.6-3.5-3.7-6.7-6.5-9.3c-2.7-2.7-5.9-4.8-9.6-6.2
			C1082.2,389.3,1078.4,388.5,1074.4,388.5z"/>
	</g>
	<g>
		<g>
			<path class="st0" d="M2214.5,362.7c4.2,0.4,8.9,0.4,10,0.4c-0.2-11.5-0.5-13.1-1.6-15.8l8.9,2.3c0.7,0.2,1.3,0.3,1.3,0.9
				c0,0.5-0.6,1.1-2.3,2.5c-0.1,0.8-0.1,1.7-0.1,2.5c0,1.3,0.1,6.6,0.1,7.7h0.7l1.7-2.9c0.2-0.3,0.7-0.8,1-0.8
				c0.4,0,0.9,0.5,1.2,0.7l3.1,2.9c0.3,0.3,0.6,0.7,0.6,1c0,0.7-0.5,0.7-1,0.7h-7.4c0,1.7-0.1,3.6,0,6.8c1.9,0.7,7.8,2.9,7.8,7.2
				c0,2-1.7,3.2-3.3,3.2c-2.1,0-2.5-1.8-2.7-3.3c-0.3-2.1-0.9-3.6-1.8-5.1c0.1,17.8,0.1,19.8,0.1,23.3c0,1.2,0.2,6.5,0.2,7.6
				c0,2.6-1,4-4.5,4c-2.1,0-2.6-1.3-2.6-2.5c0-1,0.3-5.6,0.3-6.5c0.1-4.4,0.2-11.1,0.2-18.4c-1.6,2.9-3.4,5.7-10.6,12.8l-0.5-0.3
				c5.1-8.2,9.9-23.3,10.3-28.8c-4.2,0-5.8,0.1-8.2,0.5L2214.5,362.7z M2231.5,407.3c8-3.8,12.2-9,14.2-11.7l6.8,2.9
				c0.5,0.2,0.9,0.7,0.9,1.3c0,0.9-0.9,1.1-3,1.3c-6.4,3.6-11.3,5.8-18.6,6.9L2231.5,407.3z M2242.9,368.2c-4,0-5.5,0.1-7.2,0.4
				l-1.1-2.4c4,0.3,8.4,0.4,10.3,0.4c0.1-3.2,0-5.4,0-8c-4.6,0-6,0.2-7.2,0.5l-1.1-2.5c2.7,0.2,4.8,0.3,8.3,0.4c0-3.9-0.3-7-1.1-8.9
				l8,1.9c0.7,0.2,1.2,0.4,1.2,0.9c0,0.5-0.3,0.7-0.7,1c-0.5,0.3-1,0.7-1.4,0.9c0,0.7-0.1,3.2-0.1,4.2h6c0-4-0.3-6.8-1.1-9.1
				l8.3,1.9c0.6,0.1,1.3,0.5,1.3,1.1c0,0.5-0.7,1.1-2.4,2.3c-0.1,0.5-0.1,1.3-0.1,2v1.9h2.4l1.7-3.2c0.2-0.3,0.6-0.8,1-0.8
				c0.4,0,0.9,0.5,1.2,0.7l3.7,3.2c0.4,0.3,0.7,0.7,0.7,1c0,0.7-0.5,0.7-1,0.7h-9.7c0,1.3-0.1,6.8,0,8h3l2.5-3.7
				c0.3-0.4,0.7-0.9,1.1-0.9c0.3,0,0.9,0.5,1.2,0.7l3.9,3.6c0.4,0.3,0.7,0.7,0.7,1.1c0,0.6-0.6,0.7-1.1,0.7h-17v6.2h5.5l1.9-2.7
				c0.5-0.7,0.7-1.1,1.1-1.1c0.3,0,0.7,0.3,1.2,0.7l3.9,3c0.2,0.2,0.8,0.7,0.8,1.1c0,0.5-0.6,1.1-2.3,2.6c-0.1,1-0.1,1.9-0.1,3.2
				c0,1.9,0.3,10.1,0.3,11.7c0,2.6-1.6,4-4.2,4c-1.7,0-2.1-0.7-2.1-1.7c0-0.3,0.1-0.5,0.1-0.8h-17.7c-0.1,2.2-2.1,3.2-4.1,3.2
				c-2.5,0-2.5-1.9-2.5-2.8c0-0.3,0.3-10.1,0.3-12c0-5.3-0.3-9.2-1.1-11.3l8,2.8h5v-6.2H2242.9z M2251.3,383.4V376h-5.6v7.4H2251.3z
				 M2251.3,392.9V385h-5.6v7.9H2251.3z M2257,366.6c0-1.6,0-6.6-0.1-8h-6c0,0.9-0.1,7.1,0,8H2257z M2256.9,396.9
				c14.5,1.3,16.3,5.8,16.3,7.9c0,2-1.6,3.4-3.4,3.4c-1.6,0-2.7-0.9-3.6-2c-3.9-4.8-4.4-5.2-9.6-8.8L2256.9,396.9z M2257.3,376v7.4
				h6.1V376H2257.3z M2257.3,385v7.9h6.1V385H2257.3z"/>
			<path class="st0" d="M2290.7,377c-1.7,0-2-0.4-4.1-4.5c-2.1-3.8-3.2-4.8-4.2-5.8v-0.5c2,0.2,6,0.5,8.4,1.8c2.6,1.4,3.7,3.5,3.7,5
				C2294.5,375,2292.9,377,2290.7,377z M2294.9,387.8c-0.9,3.5-1.3,4.4-1.3,6.2c0,1.3,0.1,1.7,1.2,5.6c0.3,1.1,0.7,2.6,0.7,3.8
				c0,3.1-2.6,4.8-4.6,4.8c-0.5,0-3.6-0.2-3.6-3.6c0-1.3,1.1-6.8,1.1-8c0-1.8-0.9-5.2-4.4-7v-0.5c0.5,0.1,1.1,0.3,1.7,0.3
				c2.3,0,3-1.1,3.8-2.7c2.8-4.7,8.2-15.9,10.7-21.9l0.4,0.2C2298.9,372.7,2297,380.2,2294.9,387.8z M2296.3,360.7
				c-2.5,0-3.2-1.6-5.1-5.6c-0.7-1.5-2.5-3.9-3.8-5.1v-0.5c2.3,0.1,12.7,1.6,12.7,7.4C2300.1,358.9,2298.5,360.7,2296.3,360.7z
				 M2315.4,396.7c-9.5,7.8-14.9,9.9-19.3,11.2l-0.1-0.3c5.6-4.2,12.8-12.7,13.9-18.3l7.8,5.2c0.3,0.3,0.6,0.5,0.6,1
				C2318.2,396.4,2317.2,396.5,2315.4,396.7z M2341.8,387.7h-36.5c-4,0-5.5,0.1-7.2,0.5l-1.1-2.5c2.9,0.3,5.9,0.4,9.1,0.4
				c0-20.7,0-22.9-0.1-26.3c-0.1-4-0.3-5.2-0.5-6.4l7,2.7c4.4-1.3,13.9-5.1,16.4-8.4l7.4,5.2c0.3,0.2,0.5,0.5,0.5,0.8
				c0,1.1-1.2,1.1-3.2,1.1c-1.9,0-2.1,0-3.1,0.2c-9.8,2-11.7,2.4-17.7,2.7c-0.1,2.5-0.1,6.4-0.1,8.9h17.4l2.7-4.1
				c0.3-0.5,0.7-0.9,1-0.9c0.4,0,0.7,0.2,1.3,0.7l4.6,4.1c0.4,0.4,0.7,0.6,0.7,1c0,0.6-0.6,0.7-1.1,0.7h-10.5v17.8h3.6l2.8-4.4
				c0.3-0.5,0.7-0.8,1-0.8c0.4,0,0.8,0.2,1.3,0.7l4.6,4.4c0.4,0.3,0.7,0.6,0.7,1C2342.8,387.6,2342.2,387.7,2341.8,387.7z
				 M2322.3,368.4h-9.5c-0.1,4.9-0.1,12.9-0.1,17.8h9.5V368.4z M2336.3,407.1c-2.3,0-3.2-1.7-4.1-3.2c-4-6.9-7.2-9.6-10.3-12.2v-0.4
				c14.6,2.9,18.3,8.6,18.3,11.8C2340.2,404.9,2338.8,407.1,2336.3,407.1z"/>
			<path class="st0" d="M2276.5,482c-2.7,1.3-5,2.3-6.8,6.8c-2.9-1.2-9.7-4.1-15.6-11.5c-5.3,4.8-13.4,9.1-20.7,10.5l-0.2-0.5
				c10.4-5,17-13.2,18-14.4c-3.5-6.4-4.8-12.7-5.2-18.3c-3.2,2.1-4.8,2.8-5.7,3.2c0.3,0.5,0.7,1.3,0.7,2.5c0,2.4-2.3,3.8-3.5,3.8
				c-2.3,0-2.8-2.7-3-3.8c-0.3-1.1-0.8-4-2.7-6c0.1,4.8,0.2,25.9,0.2,30.1c0,2.1,0,4.6-4.3,4.6c-2.4,0-2.7-1.1-2.7-2.9
				c0-5.4,0.6-14.1,0.7-19.4c0-0.9,0-1.5,0.1-6.7c-3.8,6.6-7.4,10.2-11.3,13.3l-0.5-0.3c2.9-4.5,8.8-14.9,10.8-27.3h-1.5
				c-3.8,0-5.3,0.1-7,0.5l-1.1-2.5c4,0.3,8.4,0.4,9.2,0.4h1.3c-0.1-6.4-0.4-12.9-1.5-15.5l9,2c0.5,0.1,1,0.3,1,0.8
				c0,0.7-1.5,1.6-2.5,2.3c-0.1,1.7-0.1,9-0.1,10.5h0.9l2-3.6c0.1-0.3,0.6-0.8,0.9-0.8c0.4,0,0.9,0.3,1.3,0.7l3.8,3.6
				c0.4,0.3,0.7,0.7,0.7,1c0,0.7-0.6,0.7-1,0.7h-8.6c-0.1,4.8-0.1,5.4-0.1,6.8c1.9,0.4,5.1,1.4,7.6,4c4.4-6.2,5.6-7.9,7.2-13.1
				l7.4,4.2c0.3,0.1,0.7,0.7,0.7,0.9c0,1-0.5,1.1-2.7,1.2c-1.1,0.9-2.4,2-5.2,4c1.7,5.4,3.4,10.7,7.1,15c2.3-3.5,4.8-9.1,4.8-15
				l8.4,3.9c0.6,0.3,1.1,0.5,1.1,1.1c0,0.8-0.5,1-2.6,1.7c-3.4,7-4.7,9.2-7.6,12.5c5.2,4.4,11.6,7.2,18.4,8.4L2276.5,482z
				 M2273.9,441.7h-25.8c-4.1,0-5.5,0.1-7.2,0.5l-1.1-2.5c4,0.3,8.7,0.4,9.5,0.4h2.7c-0.1-5.7-0.1-7.4-1.1-11.6l8.8,1.9
				c0.5,0.1,1.4,0.5,1.4,1c0,0.7-1.8,1.7-2.5,2.1c-0.1,1,0,5.6,0,6.6h5.9l2.5-4c0.2-0.3,0.6-0.8,1-0.8c0.3,0,0.9,0.3,1.3,0.7l5,4
				c0.3,0.3,0.7,0.6,0.7,1C2274.9,441.7,2274.3,441.7,2273.9,441.7z M2270,457.5c-1.6,0-2-0.6-5.5-6c-0.7-1.1-3.1-4.6-6.2-7.2V444
				c4.2,0.7,15.4,3.4,15.4,9.4C2273.7,454.5,2273,457.5,2270,457.5z"/>
			<path class="st0" d="M2337.4,486.5c-1.9,0.6-4.3,0.6-12.2,0.6c-12.3,0-15,0-17-2.6c-1.3-1.8-1.3-2.9-1.3-13.1
				c-6.2,4.4-11.1,7.4-17.4,10.9c-0.5,1.5-0.9,2.3-1.7,2.3c-0.5,0-0.9-0.5-1.2-1.1l-4.4-7.8c1.5,0.1,3,0.3,9.5-1.3
				c0.1-7.6,0.1-15.2,0.1-22.9c-4.8,0-6.1,0.1-7.9,0.5l-1.1-2.5c1.6,0.1,7.1,0.3,9,0.4v-8.8c0-5.8-0.3-8.1-0.7-10.5l8.1,2.3
				c1,0.3,1.5,0.5,1.5,1.3c0,0.6-0.4,1.1-2.4,2.2c-0.1,2.3-0.1,10.5-0.1,13.5h0.1l2.1-3.2c0.4-0.6,0.7-0.9,1-0.9
				c0.4,0,0.8,0.3,1.2,0.7l2.7,3.1c0.3,0.4,0.6,0.9,0.6,1.2c0,0.5-0.6,0.6-1,0.6h-6.7v21.2c1.5-0.4,3.6-1,8.6-2.6
				c0.1-9.8,0.1-10.9,0.1-13.7c-2.7,1.1-4.2,1.9-5.8,2.9l-1.9-1.9c2.8-0.9,3.7-1.2,7.7-2.7c0-11.3,0-14.3-0.7-18.9l7.3,2.1
				c0.9,0.3,1.7,0.6,1.7,1.2c0,1-1.3,1.7-2.1,2.2c0,0.5-0.1,8.6-0.1,10.9l5.4-2.2c0.1-11.7,0.1-16.6-0.8-20.9l7.5,2
				c1.2,0.3,1.7,0.5,1.7,1.1c0,0.5-0.5,1.2-2.1,2.2c0,1.9,0,11-0.1,13.1l4.8-1.9l1.8-3.5c0.3-0.7,0.7-1.1,1.1-1.1
				c0.3,0,0.9,0.2,1.5,0.7l4.6,3.1c0.5,0.3,0.8,0.7,0.8,1.2c0,1-1.3,2.1-1.8,2.5c0,1.7,0.1,9.6,0.1,11.4c0,6.5,0,12.6-9.3,14.1
				c-0.1-1.9-0.1-4.2-3.2-7.2c0,0.5,0.1,5,0.1,5.2c0,0.9,0,4.7-4.2,4.7c-2.7,0-2.7-2.4-2.7-3.6c0-3,0.2-17.8,0.2-21.2l-5.4,2.2v4.3
				c0,2.1,0.1,14.6,0.1,17.4c0,2.9,0,4.4,1.7,4.8c1,0.2,2.1,0.3,12.3,0.3c3.1,0,5.8-0.1,7.3-1.3c1.7-1.4,3.2-6.4,3.6-8.4h0.5
				c0.8,7.4,1.4,7.9,2.2,8.7c1,0.9,1.5,1.5,1.5,2C2342.3,483.2,2340.6,485.4,2337.4,486.5z M2324.7,449.2c0,2.7,0.1,14.3,0.2,16.7
				c4.8,0.1,5.3,0.1,5.6-2.7c0.3-1.9,0.1-13.5,0.1-16.4L2324.7,449.2z"/>
		</g>
		<g>
			<path class="st0" d="M1406.9,478.8c-8.9-2.8-35.6-20.1-46.3-45.9c0.3,9.4,0.7,36.8,0.7,44.8c0,8.3-8.5,8.8-10.1,8.8
				c-7,0-7-3.6-7-5.8c0-0.4,0.1-1.2,0.1-2.1c0.7-12.2,1-29.3,1.2-34.7c-11.2,11.9-33.1,28.1-59.6,35.1l-0.4-1.2
				c21.4-11.3,43.8-34.8,50.2-46.5h-12.7c0.4,8.2-6.1,9.5-10.3,9.5c-5.8,0-5.8-3.7-5.8-6c0-4.2,0.9-22.8,0.9-27.1
				c0-8-0.1-20.5-1.8-28l18.6,6.8h21c0-3.3-0.1-11-0.3-14.6h-40.4c-9.1,0-12.4,0.3-16.1,1l-2.4-5.5c9.1,0.7,19.5,0.9,21.1,0.9h37.7
				c-0.1-3.4-0.4-12.7-3-20.1l20.8,4.8c1.9,0.4,2.7,1,2.7,1.9c0,1-0.4,1.8-5.1,4.6c0,0.7-0.1,7.6-0.1,8.8h34.1l7.4-9.2
				c1.2-1.5,1.6-1.9,2.4-1.9c0.7,0,1.5,0.7,2.7,1.6l12.5,9.2c0.7,0.6,1.5,1.3,1.5,2.2c0,1.5-1.3,1.6-2.4,1.6h-58.2v14.6h21.3l5.1-6
				c0.7-0.7,1.3-1.5,2.4-1.5c0.7,0,1.6,0.7,2.5,1.3l10.4,7.3c1,0.7,1.9,1.5,1.9,2.8c0,1-0.4,2.1-5.2,4.8c0,6,0,14.4,0.3,24.7
				c0,1.9,0.4,10.1,0.4,11.8c0,5.5-6,7.4-10.7,7.4c-6,0-6-3.7-5.8-8h-20.7c12.7,13.8,34.5,26.5,61.6,29.9v1
				C1419.7,464.1,1411.7,467.5,1406.9,478.8z M1345.7,390.4h-22.8v16.5h22.8V390.4z M1345.7,410.5h-22.8v17.4h22.8V410.5z
				 M1383.5,390.4h-22.8l-0.1,16.5h22.9V390.4z M1383.5,410.5h-22.9v17.4h22.9V410.5z"/>
			<path class="st0" d="M1482.7,452.8c-10.9,11.5-27.8,23.1-45.7,29.8l-0.7-0.9c13.1-10.4,29.3-29.9,33.4-42l16.7,7.9
				c0.6,0.3,2.1,1.5,2.1,2.8C1488.4,452.2,1487.8,452.2,1482.7,452.8z M1569.7,374.9h-113c-9.1,0-12.4,0.3-16.1,1l-2.4-5.5
				c9.1,0.7,19.5,0.9,21.1,0.9h38.1c0-9.7,0-13.7-2.7-22.8l21.6,4.2c1.2,0.3,3,0.9,3,2.1c0,1.8-2.4,3.1-5.8,5.2
				c-0.1,7.7-0.1,9.2-0.1,11.3h32.2l7.1-9.1c0.4-0.6,1.3-1.8,2.2-1.8c0.6,0,1.9,0.9,3,1.6l12.5,8.9c0.4,0.3,1.5,1.2,1.5,2.2
				C1571.9,374.7,1570.7,374.9,1569.7,374.9z M1547.2,401.1c-0.1,3.1-0.1,7.9,0,11.8c0,2.1,0.4,11.5,0.4,13.3c0,8.6-8.3,9.5-9.8,9.5
				c-6.1,0-6.1-3.4-6-8.3h-18c0,6.4,0.3,35.1,0.3,41c0,6.3,0,14.9-20.4,18.5c-1-9.5-7.6-16.1-16.2-20.1l0.3-1.2
				c11.5,1.8,13.4,2.1,17.4,2.1c1.9,0,3-0.6,3-3.7c0-5.8,0.3-31.3,0-36.5h-19.7c0.1,2.4,0.4,10.9-10.1,10.9c-6,0-6-4.5-6-6.4
				c0-3.3,0.3-17.6,0.3-20.5c0-17-0.6-20.7-1.6-27.5l18.8,7.1h51.2l5.2-5.7c1-1,1.5-1.5,2.2-1.5c0.4,0,0.9,0.1,2.2,1.2l9.5,7.6
				c0.7,0.6,2.2,1.8,2.2,3C1552.6,397.2,1550.6,398.6,1547.2,401.1z M1531.9,394.4h-53.3v29.3h53.3V394.4z M1556.7,478.7
				c-4.6,0-5.2-1-11.6-11.2c-0.6-1-9.8-15.9-22.8-24.9l0.1-1c17.4,2.7,43.5,12.4,43.5,27.7C1566,473.2,1563,478.7,1556.7,478.7z"/>
			<path class="st0" d="M1720.5,459.5h-66.7c-2.8,2.1-8.2,6.3-16.1,10.6c7.1,0,32.2-0.6,46.8-1.8c-4.5-3.4-7-4.9-10-6.6v-1.3
				c17.6,1.5,40.5,9.1,40.5,18.9c0,3.1-3.6,6.7-7.6,6.7c-2.7,0-4.6-1.6-7.4-4c-1.6-1.5-9.5-9.1-11.5-10.6
				c-45.6,8.2-64.9,11.6-78.3,12.5c-0.4,2.1-0.7,3.3-1.9,3.3c-1.5,0-2.7-2.5-3.3-3.7l-7.1-14.9c8,1.9,23.1,1.8,31.7,1.6
				c1.6-3.1,3.4-8,4-10.7h-25.9c-10.3,0-13.1,0.4-16.1,0.9l-2.4-5.4c7,0.6,14.1,0.9,21.1,0.9h90.5l4.9-8c0.6-0.9,1.5-1.9,2.4-1.9
				c0.7,0,1.6,0.7,2.7,1.5l10.4,8.2c0.6,0.4,1.5,1.3,1.5,2.2C1722.8,459.3,1721.3,459.5,1720.5,459.5z M1721.1,367.1h-37.1
				c0,2.4,0.1,6-0.1,7c0,0.7-0.3,1-0.9,1.6l6,1.3c1.3,0.3,3.3,1.6,3.3,3c0,1.5-2.4,2.7-3.6,3.3c-0.4,3.1-0.6,3.7-0.9,4.9h6.6
				l2.7-3.6c0.6-0.9,1.6-2.1,2.5-2.1s2.2,0.9,2.7,1.2l6.4,4.8c1.2,0.9,2.1,1.5,2.1,2.8c0,1.5-0.4,1.8-4.8,4.8
				c-0.1,1.9-0.3,3.9-0.3,6.7c0,6.7,1.8,17.9,4.8,17.9c2.5,0,6.8-8.3,8.3-11.6l1.2,0.6c-1,6-2.1,15.6-2.1,17.7
				c0,1.3,1.3,7.6,1.3,8.8c0,2.4-0.9,5.4-5.1,5.4c-6,0-20.5-8.3-20.5-38.7c0-4.9,0.3-9.2,0.4-11h-6.8c-1.5,7.3-3.4,12.7-5.2,16.8
				c3.6,2.5,7.9,6.7,7.9,11.5c0,3.3-2.4,7-6.3,7c-3.6,0-4.2-1-7.6-7.4c-8.6,13.1-19.2,18.6-23.5,20.8l-0.7-1
				c11.8-9.7,17.3-25,18.3-28c-3.9-4.5-7.3-7.9-9.4-9.8l0.3-1c7.1,1.9,9.2,2.8,11.5,3.6c1.3-6,1.9-9.4,2.2-12.4
				c-4.9,0.1-8.2,0.1-12.7,1l-2.4-5.5c5.4,0.6,12.4,0.9,15.2,0.9c0.1-4.2,0.1-6.6-0.1-10c-2.7,0-4.6-0.7-4.6-3.9
				c0-1,0.4-6.3,0.4-7.3h-26.1c0.1,3.1,0.1,7.6-0.9,9.1c0.4,0.3,0.7,0.4,1.3,0.9l7.6,5.5c0.9,0.6,1.5,1.3,1.5,2.4
				c0,1.3-1.2,1.5-2.2,1.5h-22.2c0,1-0.1,7.6-0.3,8h11.2l3.4-5.8c0.4-0.7,1.6-1.9,2.4-1.9c0.7,0,2.1,0.9,2.8,1.5l8.3,6
				c0.6,0.4,1.5,1.2,1.5,2.2c0,1.3-1.3,1.6-2.2,1.6h-17.4v7c0,1.5,2.4,1.5,6.4,1.5c5.1,0,6.3-2.5,7.9-6.4h1.3
				c0.1,1.3,0.7,3.3,1.6,4.5c0.7,0.7,4.9,3.7,4.9,4.8c0,6.6-12.4,6.7-15.8,6.7l5.5,4.8c0.9,0.7,1.6,1.3,1.6,2.4
				c0,1.3-1.3,1.6-2.2,1.6h-21.3c0,1-0.1,5.7-0.1,7.3c10.9-0.6,19.7-1.3,26.1-2.7v1.8c-10.4,4.6-47.7,13.1-50.9,13.7
				c-0.1,2.5-1.5,3.1-2.1,3.1c-1.9,0-2.4-0.9-3.3-2.7l-7-13.7c2.8,0.7,4.9,1.2,10.3,1.2c2.4,0,12.1-0.3,15-0.3
				c0-1.2-0.1-6.7-0.1-7.7h-3.1c-9.1,0-12.4,0.3-16.1,0.9l-2.5-5.4c8.8,0.7,18.9,0.9,21.9,0.9c0-6.1-0.1-7.1-1.9-13.4l12.7,2.8
				c-0.4-2.2-0.4-6-0.4-7.6v-5.1h-14.9l7.7,1.9c0.6,0.1,2.2,0.6,2.2,1.9c0,1.8-3.4,2.2-5.8,2.5c-10.1,10.1-21,13.4-26.4,14.9
				l-0.6-0.9c9.7-6,16.2-17.1,16.8-20.4c-6.6,0-8.9,0.1-13,0.7l-2.4-5.1c6.7,0.6,13.6,0.7,16.8,0.7h8.8c0-1.3,0.3-6.9,0.3-8
				c-9.2,0-12.8,0.1-17.9,1l-2.5-5.5c6.7,0.6,10.7,0.7,20.4,0.9c-0.1-6.4-0.7-8.3-2.4-12.2l14.9,3l0.6,0.1c0-1,0.3-6,0.3-6.7h-20.8
				c-9.1,0-12.4,0.4-16.1,1l-2.4-5.5c8.9,0.9,19.5,0.9,21.1,0.9h18.3c0-8.3-0.9-10.9-2.2-14.6l17.3,3.4c1.6,0.3,2.8,1.5,2.8,2.7
				c0,1.5-3,3.4-4.2,4c-0.1,1.9-0.1,2.5,0,4.5h26.2c0-9.7-1.2-12.2-2.4-14.9l16.8,3.4c1.5,0.3,3.1,0.9,3.1,2.4c0,1.8-3.3,3.4-4,4
				c-0.1,0.9-0.1,4.6-0.1,5.1h16.2l5.1-8.3c0.6-1,1.5-1.9,2.4-1.9s1.6,0.6,2.8,1.5l11.3,8.5c0.7,0.6,1.5,1.3,1.5,2.4
				C1723.4,367,1722.2,367.1,1721.1,367.1z M1695.8,447.4h-59.1c-9.1,0-12.4,0.4-16.1,1l-2.4-5.5c8.9,0.9,19.5,0.9,21.1,0.9h37.7
				l5.1-7.7c0.7-1.2,1.5-1.9,2.4-1.9c0.7,0,1.6,0.6,2.7,1.5l9.4,7.9c0.7,0.7,1.5,1.3,1.5,2.4
				C1698.1,447.3,1696.7,447.4,1695.8,447.4z M1632.4,414.8c-0.9,0.6-1.2,0.7-3,1.3v5.2h7.7l3.3-4.9c0.1-0.1,0.3-0.3,0.4-0.6
				C1640,415.8,1634.8,415.4,1632.4,414.8z M1631.3,378l-1.5,0.9c0,1.8,0,2.2-0.1,4h6.8l2.2-3.7
				C1633.9,379.6,1632.5,378.9,1631.3,378z"/>
			<path class="st0" d="M1738.7,440c11.3-13.7,26.7-43.5,29.3-56.6l17.1,9.2c0.7,0.4,1.2,1.2,1.2,1.8c0,2.1-1.8,2.4-5.4,2.8
				c-1.9,3-3.7,5.7-7.3,10.1l2.8,1c0.7,0.3,1.6,1,1.6,2.1c0,1.8-0.7,2.2-3.7,4c0,10-0.1,54.2-0.1,63.1c0,4.9-3.4,7-8.8,7
				c-4.5,0-5.7-2.2-5.7-5.2c0-4.9,0.9-27,0.9-31.4c0-2.5,0.1-15.8,0-25.5c-4.5,4.6-13.3,13.6-21.1,17.9L1738.7,440z M1741.5,390.2
				c11.6-12.7,23.7-30.8,26.2-40.4l16.2,10.6c0.7,0.4,1,1.2,1,1.9c0,1.9-2.2,2.1-4.8,2.4c-13.4,13-24.9,21-38.6,26.1L1741.5,390.2z
				 M1842.1,381.9c0.6,0.4,1.5,1.5,1.5,2.4c0,1.3-1.2,1.5-2.4,1.5h-26.1c0.1,33.7,0.3,55.2,0.3,57.5c0.1,5.1,0.7,28,0.7,32.6
				c0,5.1-3.9,6.7-9.7,6.7c-4.8,0-5.4-1.9-5.4-4.6c0-5.8,0.6-31.9,0.6-37.2c0.3-18.9,0.3-21,0.3-29c-0.7,0.6-1,0.7-4.2,2.1
				c-2.2,10.4-8.3,35.1-20.5,49.4l-0.9-0.4c8-23.5,8.6-56,8.2-58.7l16.7,4.3l0.7,0.1c0-3.6,0.1-19.5,0.1-22.8h-6
				c-9.1,0-12.4,0.4-16.1,1l-2.4-5.5c7.3,0.9,11.8,0.9,21.1,0.9h3.3c-0.1-7.6-0.6-26.7-2.8-32.9l18.8,4.3c1.2,0.3,2.1,1.2,2.1,2.5
				c0,0.9-0.3,1.2-0.6,1.6c1.6,0.1,17.4,1.9,17.4,13.1c0,3.3-1.3,4.5-2.2,5.4L1842.1,381.9z M1827.5,377.6c-2.8-1.2-3-1.9-4.5-8.9
				c-0.7-3.3-2.5-7.3-4.6-9.8c-1,0.6-1.5,0.7-3.3,1.3v22h8.9L1827.5,377.6z M1819.3,400.9c19.7,18.3,20.1,36,20.1,38.4
				c0,5.4-2.4,10.4-8.3,10.4c-3.1,0-7-1-7.1-8.5c-0.1-13-0.4-25.8-5.7-39.9L1819.3,400.9z M1839.4,403.6c-0.6,0-3.6,0-6.7,0.4
				l-2.5-4.5c6.3,0.3,11.6,0.4,11.9,0.4h16.1l5.1-9.4c0.4-0.7,1.3-1.8,2.2-1.8c1,0,2.1,0.7,2.7,1.5l9.2,9.4c0.7,0.7,1.5,1.5,1.5,2.2
				c0,1.5-1.3,1.6-2.2,1.6h-15.2v35.6c0,4.3,0.7,27.7,0.7,27.8c0,7.7-1.2,15.5-19.5,18c-0.6-6-2.2-11.8-14-19.2l0.1-1
				c10.1,1.5,10.3,1.5,14.7,1.5c4.5,0,4.5-1,4.5-4.8v-57.9H1839.4z M1856.8,363l4.2-7.6c0.6-1,1.2-1.8,2.2-1.8
				c0.9,0,1.9,0.9,2.7,1.5l8.8,7.6c0.7,0.6,1.5,1.3,1.5,2.2c0,1.5-1.3,1.6-2.2,1.6h-25.2c-0.6,0-3.6,0-6.9,0.4l-2.4-4.5
				c6.1,0.4,11.6,0.4,11.9,0.4H1856.8z"/>
			<path class="st0" d="M2012.7,483.4c-33.4-17.7-42.1-49.6-46.5-76.7c-7.4,61.8-54.9,73.4-72.7,77.7l-0.6-1.2
				c42.6-18.6,54.7-53.2,57.2-87h-33.8c-10.3,0-13.3,0.4-16.1,1l-2.4-5.5c7,0.6,14,0.9,21.1,0.9h31.4c0.3-2.7,0.6-6.8,0.6-13.1
				c0-9.4-0.9-19.7-3-28.9l22.6,5.7c2.4,0.6,2.8,1.2,2.8,2.1c0,1.6-1.8,3-5.1,5.1c-0.1,4.2-1.2,24.6-1.3,29.2h35.3l8-10.7
				c0.7-1,1.5-1.8,2.2-1.8c0.7,0,1.8,0.7,3,1.6l12.8,10.6c0.6,0.4,1.5,1.2,1.5,2.2c0,1.5-1.3,1.6-2.2,1.6h-60.2
				c10.3,42.4,32.9,61.5,64.8,70.3v1.2C2027.8,468.8,2018.4,471.2,2012.7,483.4z"/>
			<path class="st0" d="M2179.6,440h-58.1v27.1c0,5.4,0,16.5-21.6,19.1c-2.1-12.2-8.2-15.5-18-20.3l0.1-1.2c5.7,0.4,14.3,1.2,20,1.2
				c4.2,0,4.2-1,4.2-4.9v-21H2065c-10.3,0-13.1,0.4-16.1,1l-2.4-5.5c7,0.6,14.1,0.9,21.1,0.9h38.6c0-10.3-0.9-14.1-2.4-19.1l15,3.4
				c3.6-4.5,6.1-7.9,10-13.4h-36.6c-10.3,0-13.1,0.4-16.1,0.9l-2.4-5.4c7,0.6,14.1,0.9,21.1,0.9h34.2l7-6.1c1-0.9,1.6-1.5,2.5-1.5
				c0.6,0,1.3,0.3,2.5,1.3l11.9,11c0.7,0.7,1,1.2,1,2.1c0,2.7-3,2.8-6.1,2.8c-3.4,0.1-4.2,0.1-5.5,0.7c-10.4,4.8-11.6,5.4-18.6,7.9
				c0.4,0.1,1,0.6,1,1.5c0,2.1-2.1,3.4-3.4,4.5v8.3h33.1l7.3-9.8c0.7-1,1.5-2.2,2.7-2.2c0.7,0,1.8,0.7,2.8,1.5l13.1,10.3
				c0.6,0.4,1.5,1.3,1.5,2.2C2182,439.8,2180.5,440,2179.6,440z M2172.3,395.7c-1.3,0.1-1.3,0-3.4,1.3c-6.6,3.9-13.3,6.9-17.7,8.9
				l-0.9-0.9c1.9-4.3,5.5-14.9,6.1-18.3h-85.9c0.7,13.7-5.7,25.8-14.7,25.8c-2.8,0-8.3-1.8-8.3-8c0-4.5,2.4-6.4,6.4-10
				c8.8-7.4,11.3-14.1,13.1-20.4h1.2c0.7,2.2,1.5,4.9,2.1,9.1h56.6c7.4-13.3,12.7-27.1,12.4-34l17.9,9.2c1.3,0.7,1.9,1,1.9,2.2
				c0,2.1-3.1,2.7-5.8,3c-11.8,11.9-17,16.1-22.2,19.5h25.8l6.1-6c1-1,1.6-1.3,2.1-1.3c0.6,0,1.2,0.4,2.5,1.8l11.6,12.1
				c1,1.2,1.5,1.5,1.5,2.5C2180.5,395.1,2178.2,395.4,2172.3,395.7z M2084.8,379.6c-4.6,0-5.4-2.1-7.7-8.6
				c-4.2-12.1-7.1-14.9-9.4-16.8l0.4-1.2c13.1,1.9,24.7,8.5,24.7,18.5C2092.8,377.4,2088.5,379.6,2084.8,379.6z M2113.5,378.3
				c-5.7,0-7-4.6-8.2-8.6c-2.5-8.3-5.7-13.4-9.8-18.5l0.6-1c7.9,1.9,25.8,7.6,25.8,19.2C2121.9,374.3,2119,378.3,2113.5,378.3z"/>
			<path class="st0" d="M2505.2,405.3h-41.8v54.9c0,3.6,0.3,4.9,5.1,4.9c18.2,0,20.3,0,22.5-4c1.8-3.3,2.1-4.6,5.7-17.7
				c0.1-0.6,0.3-1.2,0.9-3.3h1.2c0.7,11.8,1.2,19.8,4.3,22.2c3.7,3,4.2,3.3,4.2,5.2c0,3.3-2.1,6.6-4.3,8.8
				c-4.5,4.6-11.5,4.6-24.1,4.6c-24.9,0-31.6,0-31.6-14.7c0-17-0.1-43.9-0.1-60.9h-24.9l10.1,3c1,0.3,2.8,0.9,2.8,2.2
				c0,1-0.9,1.6-5.4,4.3c-1,21.9-7.6,59-55.1,70l-0.3-1c26.2-13.8,38.4-35,38.4-70.4c0-3.3-0.1-5.7-0.4-8h-19.5
				c-9.2,0-12.4,0.3-16.1,1l-2.5-5.5c9.1,0.9,19.7,0.9,21.3,0.9h85.8l7.1-10.6c0.7-1,1.3-1.9,2.2-1.9s1.5,0.6,2.8,1.6l12.5,10.6
				c0.7,0.6,1.5,1.3,1.5,2.2C2507.4,405.1,2506.2,405.3,2505.2,405.3z M2491.2,367.7h-84.3c-9.1,0-12.4,0.3-16.1,0.9l-2.5-5.4
				c9.1,0.7,19.7,0.9,21.3,0.9h56.9l7.1-10.6c0.7-1,1.3-1.9,2.2-1.9c0.7,0,1.6,0.6,2.7,1.5l13.4,10.7c0.9,0.7,1.6,1.2,1.6,2.2
				C2493.6,367.4,2492.2,367.7,2491.2,367.7z"/>
			<path class="st0" d="M2593.3,371.5c-0.3,15.9-0.3,18.8,0.1,67.8c0,1.6,0.3,9.4,0.3,10.9c0,2.1,0,9.1-10,9.1
				c-5.7,0-5.4-3.3-4.9-11.6h-32.5c0,1.6,0.1,8.3,0,9.4c-0.3,3.3-2.7,8-9.7,8c-5.8,0-6-3.1-6-5.4c0-0.1,0.6-10.7,0.7-12.8
				c0.3-5.8,1-42,1-56.6c0-24.3-0.7-29-2.4-36.8l17.9,7.9h29.8l4.8-5.2c0.6-0.6,1.5-1.6,2.1-1.6s1.8,0.7,2.7,1.3l9.7,7.4
				c0.7,0.6,1.3,1.3,1.3,2.4C2598.4,367,2598,367.4,2593.3,371.5z M2555.8,364.9h-9.5v35.6h9.5V364.9z M2555.8,404.1h-9.5V444h9.5
				V404.1z M2579,364.9h-9.8v35.6h9.8V364.9z M2579,404.1h-9.8V444h9.8V404.1z M2659.2,374.1h-23.1c-0.1,11.8-0.1,54.2,0,62.2
				c0,4,0.3,23.7,0.3,25.2c0,10.3,0,21.1-21.9,24c-1.8-8.3-3.1-12.4-17.6-19.4v-0.9c3,0,15.6,0.7,18.3,0.7c4.5,0,5.4-0.7,5.4-5.2
				c0.3-22.8,0.6-64.6,0.3-86.7h-3.7c-9.2,0-12.5,0.4-16.2,1l-2.4-5.5c9.1,0.9,19.5,0.9,21.3,0.9h17.6l7.1-9.8
				c0.7-1,1.6-1.8,2.4-1.8c0.6,0,1.9,0.9,2.7,1.5l10.3,9.8c0.9,0.9,1.5,1.5,1.5,2.4C2661.4,374,2660,374.1,2659.2,374.1z"/>
			<path class="st0" d="M2801.8,392.9c0,4.3-0.1,11.6,0,19.2c0,6.3,0.7,16.2,0.7,22.6c0,2.5,0,7.9-11.2,7.9c-6.1,0-6-3-5.4-11h-34.4
				c0,11.5,0,29.9,0.6,40.8c0,1,0.1,3.3,0.1,4.2c0,7-4.5,9.7-10.4,9.7c-5.8,0-7-3.1-7-6c0-0.1,0-1.5,0.1-3.6c0.9-18.5,1-40.5,1-45.1
				h-33.8c0.4,8,0.9,15.2-11.3,15.2c-4.2,0-5.2-1.9-5.2-6.3c0-1,0.1-5.5,0.3-6.4c0.3-7,0.3-28.6,0.3-30.1c0-11.8,0-21.6-1.5-29.8
				l19.4,8.2h31.9c-0.4-21-0.4-23.8-2.7-32.6l21.1,4.8c1.3,0.3,2.8,0.9,2.8,2.2c0,1.3-1,2.7-5.7,5.4c-0.1,3.3-0.1,17.4-0.1,20.3
				h33.5l4.9-6.8c0.7-0.9,1.3-1.5,2.1-1.5c0.7,0,1.5,0.6,2.5,1.3l11.2,8.6c1.3,1,1.9,1.8,1.9,2.7
				C2807.8,388.3,2806.7,389.5,2801.8,392.9z M2702.3,386v42h33.8c0-6.7,0.1-37.8,0.1-42H2702.3z M2786,386h-34.4v42h34.4V386z"/>
			<path class="st0" d="M2961.2,414.6h-29.6v21h1l4.9-8.2c0.3-0.4,1.2-1.9,2.4-1.9c0.9,0,2.4,1.3,2.5,1.5l8.9,8.3
				c0.6,0.6,1.5,1.5,1.5,2.2c0,1.5-1.5,1.6-2.4,1.6h-47.8l0.3,16.7h34l6-9.2c0.4-0.7,1.5-1.8,2.2-1.8c0.7,0,2.2,1,2.7,1.3l9.7,9.2
				c0.7,0.7,1.5,1.5,1.5,2.4c0,1.5-1.5,1.6-2.2,1.6h-53.6c0,3,0.4,15.9,0.4,18.3c0,8.5-8.3,8.5-10,8.5c-2.8,0-6.4-1-6.4-5.5
				c0-5.2,0.3-16.1,0.4-21.3h-35.4c-10.4,0-13.3,0.4-16.1,0.9l-2.5-5.4c7,0.6,14.1,0.9,21.3,0.9h32.9l0.3-16.7h-29
				c-10.3,0-13.1,0.4-16.1,1l-2.4-5.5c5.8,0.4,9.4,0.7,18.8,0.9v-21h-11.5c-10.3,0-13.1,0.6-16.1,1l-2.4-5.5
				c7,0.6,14.1,0.9,21.1,0.9h8.8v-20.5c-10.1-0.1-13.3,0.4-15.9,0.9l-2.4-5.4c7,0.6,14.1,0.9,21.1,0.9h66.6l5.7-8
				c0.6-0.9,1.5-1.9,2.2-1.9c0.9,0,2.2,1,2.8,1.5l9.8,8.2c0.6,0.4,1.5,1.2,1.5,2.2c0,1.5-1.3,1.6-2.2,1.6h-17v20.5h10.1l6-9.1
				c0.4-0.7,1.2-1.8,2.2-1.8c0.7,0,2.1,0.9,2.7,1.5l9.4,9.1c0.9,0.7,1.5,1.3,1.5,2.2C2963.4,414.6,2961.9,414.6,2961.2,414.6z
				 M2958.8,369.2H2921c0,1.5,0.3,7.4,0.3,8.8c0,4.6-4.2,6.7-8.3,6.7c-5.7,0-6.3-3.3-6.3-5.2c0-2.5,0.1-7.4,0.1-10.3h-23.4
				c0,1.5,0.1,7.6,0.1,8.8c0,3.7-3.4,6.4-8.3,6.4c-6.1,0-6.1-3.3-6.1-4.8c0-1.6,0.1-8.9,0.1-10.4h-19.5c-9.1,0-12.4,0.4-16.1,1
				l-2.5-5.5c9.1,0.9,19.7,0.9,21.3,0.9h16.8c-0.4-11.2-0.4-12.4-2.1-17l17.6,4.3c1.2,0.3,3.1,0.9,3.1,2.2c0,1.6-1.5,2.4-4.5,3.9
				v6.6h23.4c-0.1-9.4-0.1-9.5-1.8-16.7l17.1,3.7c2.4,0.6,2.8,1.2,2.8,2.2c0,1.6-1,2.4-3.9,4c-0.1,1.9-0.1,2.5-0.1,6.7h17.3l6.1-8.6
				c1-1.5,1.6-1.9,2.2-1.9c0.9,0,2.2,1.2,2.7,1.6l10.3,8.6c0.3,0.3,1.5,1.3,1.5,2.4C2961,369.1,2959.7,369.2,2958.8,369.2z
				 M2888.2,390.5h-14.9v20.5h14.9V390.5z M2888.2,414.6h-14.9v21h14.9V414.6z M2917.7,390.5h-15.2c0.1,6.6,0,14,0,20.5h15.2V390.5z
				 M2917.7,414.6h-15.2v21h15.2V414.6z"/>
			<path class="st0" d="M3016.3,395.6c-2.5,3.1-4.6,5.8-7.3,9.1l2.8,1.5c1.6,0.9,2.8,1.6,2.8,2.8c0,0.7-1,1.6-4,4
				c-0.1,1.8-0.3,5.1-0.3,6.8c0,6.4,0.7,49.4,0.7,58.8c0,3.4-5.1,6.7-9.7,6.7s-5.5-2.7-5.5-6c0-1.8,0.4-10.7,0.4-12.8
				c0.4-17.1,0.7-39.8,0.7-40.8c0-2.5,0-6.1-0.1-7.6c-9.7,10-16.2,14.3-19.1,15.9l-0.6-0.7c9.1-11.2,24.6-37.8,27.1-52.4l14.7,9.4
				c1.2,0.7,2.2,1.5,2.2,2.2C3021.3,394.1,3020.1,394.5,3016.3,395.6z M3019.1,363.9c-0.7,0.1-1.9,0.3-3.3,0.6
				c-5.7,6-18.8,19.1-37.2,27.4l-0.6-0.9c5.2-5.4,22.8-25.9,26.8-42.6l15.5,10.9c1,0.7,1.6,1.9,1.6,2.8
				C3021.9,362.8,3020.7,363.6,3019.1,363.9z M3027.3,470.9c-1,2.2-1.6,3.3-3,3.3c-0.7,0-1.6-0.9-1.9-1.6l-8.5-18.5
				c3,0.4,7,0.9,8.8,0.9c2.8,0,9.5-0.7,14.3-1.5v-20.8h-2.7c-9.2,0-12.4,0.3-16.2,0.9l-2.4-5.4c9.4,0.7,19.7,0.9,21.1,0.7
				c-0.1-13.7-0.3-16.4-1.8-24c-2.5,0-10.7,0-16.4,1l-2.5-5.5c6,0.4,14.9,0.9,21,0.9c0.1-3.6,0-19.1,0-22.2c-8.6,0-10.9,0-16.7,1
				l-2.4-5.5c4.9,0.4,14.3,0.9,19.1,0.9c0-13-0.4-19.2-3-27.1l18.5,4.8c0.6,0.1,3.1,0.7,3.1,2.2c0,1.2-1,2.1-1.8,2.5
				c-0.6,0.4-1.9,1.5-3,2.2c0,4-0.1,13.7-0.1,15.3h3.4l5.1-7.9c0.4-0.7,1.5-1.9,2.2-1.9c1,0,2.1,1,2.8,1.6l8.9,7.9
				c1.2,1,1.3,1.8,1.3,2.2c0,1.5-1.3,1.6-2.2,1.6h-21.6v22.2h5.1l5.7-7.9c0.9-1.2,1.5-1.8,2.2-1.8c0.6,0,1.3,0.3,2.7,1.5l9.1,7.9
				c1.2,1,1.5,1.6,1.5,2.2c0,1.5-1.3,1.6-2.2,1.6H3037l15,3.9c1.5,0.4,3.3,0.7,3.3,2.2c0,1.2-0.4,1.5-4.5,4.6
				c0,0.6-0.1,11.9-0.1,13.3h4.6l5.4-8.2c1-1.5,1.6-1.8,2.2-1.8s1,0.1,2.7,1.5l10.1,8.2c0.9,0.7,1.6,1.5,1.6,2.4
				c0,1.3-1.3,1.6-2.4,1.6h-24.3c0,3-0.1,16.1-0.1,18.8c4.6-0.7,25.2-4,29.3-4.8l0.6,1.2C3055.4,460.2,3049.6,463,3027.3,470.9z
				 M3115.1,402.9h-15.5v30.2c0,3.7,0.6,32.3,0.6,33.5c0,10.4-3.6,15.5-20.1,19.1c-1.6-7.6-2.5-12.5-14.6-19.4v-1
				c4.2,0.6,7.4,1,11.6,1c7.7,0,8.2-1.2,8.2-7.3c0-8,0.3-47.2,0.1-56.1c-2.1,0-4.8,0.1-6.7,0.4l-2.5-4.5c3.7,0.1,8.2,0.4,11.9,0.4h8
				l5.2-8.9c0.3-0.6,1.5-1.9,2.2-1.9c1,0,2.5,1.5,4.5,3.3l7.7,7.3c0.6,0.6,1.5,1.3,1.5,2.2C3117.4,402.9,3115.9,402.9,3115.1,402.9z
				 M3111.6,368.3h-29.3c-0.6,0-3.6,0-6.8,0.3l-2.4-4.5c6.1,0.4,11.6,0.6,11.9,0.6h8.3l4.8-8c0.4-0.7,1.6-1.8,2.2-1.8
				c0.9,0,2.1,1,3.3,2.1l8.8,7.4c0.7,0.6,1.5,1.5,1.5,2.2C3113.8,368,3112.6,368.3,3111.6,368.3z"/>
			<path class="st0" d="M3270.9,470c-6,2.8-11.2,5.2-15.2,15.2c-6.4-2.7-21.9-9.2-35-25.9c-11.9,10.7-30.1,20.5-46.6,23.5l-0.4-1.2
				c23.4-11.2,38.3-29.6,40.5-32.3c-7.9-14.4-10.7-28.4-11.8-41.1c-7.1,4.6-10.7,6.3-12.8,7.3c0.6,1.2,1.5,3,1.5,5.7
				c0,5.4-5.1,8.6-7.9,8.6c-5.1,0-6.3-6.1-6.7-8.5c-0.6-2.5-1.8-8.9-6-13.4c0.1,10.7,0.4,58.1,0.4,67.6c0,4.6,0,10.4-9.7,10.4
				c-5.4,0-6-2.4-6-6.4c0-12.1,1.3-31.6,1.5-43.6c0-2.1,0-3.3,0.1-15c-8.5,14.7-16.7,22.9-25.3,29.8l-1-0.7
				c6.6-10.1,19.8-33.5,24.3-61.4h-3.3c-8.5,0-11.9,0.3-15.6,1l-2.4-5.5c8.9,0.7,18.9,0.9,20.7,0.9h3c-0.3-14.4-0.9-29-3.3-34.8
				l20.3,4.5c1,0.3,2.2,0.6,2.2,1.8c0,1.5-3.3,3.6-5.5,5.1c-0.1,3.7-0.3,20.3-0.3,23.5h2.1l4.5-8.2c0.3-0.6,1.3-1.8,2.1-1.8
				c0.9,0,2.1,0.7,2.8,1.5l8.5,8.2c0.9,0.7,1.5,1.5,1.5,2.2c0,1.5-1.3,1.6-2.2,1.6h-19.2c-0.1,10.9-0.1,12.1-0.1,15.3
				c4.2,0.9,11.5,3.1,17.1,9.1c10-14,12.5-17.7,16.2-29.5l16.7,9.5c0.6,0.3,1.5,1.5,1.5,2.1c0,2.2-1,2.4-6,2.7
				c-2.5,2.1-5.4,4.5-11.6,8.9c3.7,12.1,7.7,24.1,15.9,33.8c5.1-7.9,10.7-20.5,10.7-33.7l18.9,8.8c1.3,0.6,2.5,1.2,2.5,2.5
				c0,1.8-1.2,2.2-5.8,3.7c-7.7,15.8-10.6,20.7-17,28.1c11.8,10,26.1,16.2,41.2,18.8L3270.9,470z M3265.1,379.5h-57.9
				c-9.2,0-12.4,0.3-16.1,1l-2.5-5.5c9.1,0.7,19.7,0.9,21.3,0.9h6.1c-0.1-12.8-0.1-16.5-2.5-26.1l19.8,4.3c1.2,0.3,3.1,1,3.1,2.2
				c0,1.6-4,3.9-5.5,4.8c-0.1,2.2,0,12.7,0,14.7h13.3l5.5-9.1c0.4-0.6,1.3-1.8,2.2-1.8c0.7,0,1.9,0.7,2.8,1.5l11.2,9.1
				c0.7,0.6,1.5,1.3,1.5,2.2C3267.3,379.3,3266.1,379.5,3265.1,379.5z M3256.3,414.9c-3.6,0-4.5-1.3-12.4-13.6
				c-1.5-2.4-7-10.4-13.8-16.1v-0.7c9.4,1.5,34.7,7.7,34.7,21.1C3264.8,408.2,3263.2,414.9,3256.3,414.9z"/>
			<path class="st0" d="M3410,405.1c-15.5-5.4-37.1-15.8-53.9-43.8c-15.8,18.3-36,34.4-72.2,47.5l-0.7-0.9
				c38.1-24.9,55.4-48.2,59-60.5l18.2,7.3c0.6,0.3,1.9,1.2,1.9,2.2c0,1.8-2.7,2.8-3.6,3c12.4,11.5,37.1,24.7,64.3,26.2v1
				C3413.7,392.3,3411.8,398.1,3410,405.1z M3415.7,430h-110.5c-9.1,0-12.4,0.3-16.1,0.9l-2.4-5.4c8.9,0.7,19.5,0.9,21.1,0.9h35.4
				c0-3.1-0.1-16.8-0.1-19.7h-11.6c-9.1,0-12.4,0.3-16.1,1l-2.5-5.5c9.1,0.7,19.7,0.9,21.3,0.9h8.9c0-7.7,0-16.5-2.1-21.9l21,4.8
				c1.2,0.3,2.1,0.4,2.1,1.6c0,1.3-1.6,2.5-4.8,5.2c-0.3,2.4-0.3,3.1-0.4,10.3h10.4l5.5-7.6c0.9-1.2,1.5-1.9,2.4-1.9
				c0.7,0,2.1,1,2.7,1.6l8.6,7.6c0.9,0.9,1.3,1.3,1.3,2.2c0,1.3-1.2,1.6-2.2,1.6h-28.7v19.7h33.5l6.6-9.4c0.7-1,1.3-1.9,2.4-1.9
				c0.6,0,1.6,0.7,2.7,1.5l12.5,9.5c0.7,0.6,1.5,1.2,1.5,2.2C3418,429.7,3416.7,430,3415.7,430z M3390.8,451.4
				c0,8.6,0.1,13.4,0.3,17.3c0.1,1.9,0.4,8.6,0.4,10.4c0,7.1-8.2,7.4-10,7.4c-6.1,0-6-3-6-7.7h-48.5c0.3,5.7-5.1,7.4-9.5,7.4
				c-5.2,0-6.3-2.7-6.3-5.4c0-4.3,0.6-22.9,0.6-26.8c0-7,0-7.7-0.6-17l16.7,6.6h46.6l4.3-5.4c0.4-0.4,1.5-2.1,2.2-2.1
				c0.4,0,1.9,0.9,2.2,1l10.4,7.1c0.9,0.6,1.6,1.8,1.6,2.2C3395.4,447.8,3393.6,449.2,3390.8,451.4z M3375.7,447.3h-48.7v28h48.7
				V447.3z"/>
		</g>
	</g>
	<g>
		<path class="st0" d="M1246.1,378.4c-11.4-4.7-20.3-13.8-25.3-25c-7.3,11.5-21.1,22.9-34.4,27.5l-0.3-0.5
			c15.1-10.6,25.6-26.6,27.2-33.7l9.5,3c0.6,0.2,1.5,0.6,1.5,1.2c0,0.8-0.8,1.1-2.3,1.5c4.2,6.3,15.4,14.9,31.2,17.5v0.5
			C1248.2,372.9,1247.3,375.2,1246.1,378.4z M1248,388.1h-29.7c-3.3,6-9.1,13-11,15.1c17.2-0.9,20.8-1,25.6-1.7
			c-2.7-4.2-5.4-6.9-7.8-9.3l0.4-0.5c3.3,1,20.2,6.8,20.2,17.2c0,2.3-1.8,4.7-4.6,4.7c-2.6,0-3.8-2-4.7-4.4c-0.9-2.8-1.4-4-2.7-6.3
			c-6.8,2.3-24.5,7.4-35.3,9.4c-0.4,1.1-0.7,1.8-1.4,1.8c-0.7,0-1-0.7-1.3-1.2l-4.4-9.8c2.3,0.4,3.9,0.7,6.6,0.7
			c0.6,0,3.9-0.2,6.5-0.3c1.6-3.9,3.3-10.9,4.2-15.4h-10.2c-5,0-6.5,0.2-7.9,0.5l-1.2-2.7c3.5,0.3,6.9,0.4,10.4,0.4h36.1l3.9-5
			c0.4-0.6,0.8-0.9,1.2-0.9c0.4,0,0.7,0.3,1.3,0.8l6.3,5c0.4,0.3,0.7,0.7,0.7,1.1C1249.1,388,1248.4,388.1,1248,388.1z
			 M1232.1,375.7h-21.3c-4.4,0-6,0.1-7.9,0.4l-1.2-2.6c4.4,0.4,9.5,0.4,10.3,0.4h9l3.6-4.7c0.4-0.5,0.7-0.9,1.1-0.9
			c0.4,0,1,0.4,1.4,0.8l5.3,4.7c0.4,0.4,0.7,0.7,0.7,1.1C1233.2,375.5,1232.5,375.7,1232.1,375.7z"/>
		<path class="st0" d="M1211.3,443h-9c-0.1,3.1,0,17,0,19.9c4.4-1.5,5.8-2,8.2-3l0.3,0.6c-6.2,5.6-16.2,12.1-18.8,13.8
			c-0.4,1.5-0.7,2-1.4,2s-0.9-0.5-1.2-1.1l-4.4-8.3c3.8-0.1,4.4-0.2,10.2-1.7c0-3.5-0.1-19-0.1-22.1c-2.3,0-4.7,0-7.6,0.4l-1.2-2.6
			c1.5,0.1,3.9,0.3,8.7,0.4c-0.2-10.6-0.4-13-0.7-14.6c-0.2-1.3-0.5-2.3-0.9-3.5l9.7,2.3c0.6,0.1,1.7,0.4,1.7,1.3
			c0,1.1-1.7,1.8-2.5,2.3c-0.1,0.9-0.1,1.5-0.1,6.6v5.7h0.6l2.6-4.4c0.3-0.5,0.7-0.9,1.1-0.9c0.4,0,0.9,0.4,1.3,0.8l3.9,4.3
			c0.5,0.5,0.7,0.8,0.7,1.1C1212.5,442.9,1211.8,443,1211.3,443z M1252.3,454.5h-29.5c-1.4,3.1-2.7,5.1-4.1,6.9h22.1l2.2-2.8
			c0.6-0.7,0.7-0.9,1.1-0.9c0.3,0,0.7,0.2,1.4,0.7l4.4,3.1c0.5,0.4,0.9,0.8,0.9,1.4c0,0.4-0.6,1.4-2.5,2.3c-1.5,18.6-4,23.7-14.4,24
			c0-5.1-3.1-7.4-5.4-9.1l0.3-0.6c3.8,0.7,6.6,0.7,7.2,0.7c1.2,0,2.4,0,3.3-3.3c1.2-4.4,1.7-9.6,2-13.7h-3
			c-2.8,9.5-11.7,21.3-25.3,25.7l-0.3-0.4c11.7-9.2,17-21.5,18.1-25.3h-2.6c-4.8,10.4-16,20.2-27.5,23.5l-0.2-0.4
			c8-4.9,16-14.9,19.9-23.1h-3c-4.1,4.8-9.3,8.4-14.9,11.5l-0.3-0.4c4.2-4.3,9.2-10.8,13-19.8c-4.3,0-6.2,0-8.7,0.4l-1.2-2.6
			c4.4,0.4,9.6,0.4,10.4,0.4h26.3l3.1-4.8c0.4-0.5,0.7-0.9,1.2-0.9c0.4,0,0.7,0.2,1.2,0.7l5.3,4.8c0.5,0.4,0.7,0.8,0.7,1.1
			C1253.4,454.4,1252.8,454.5,1252.3,454.5z M1241.7,430.1c-0.1,2.5,0.1,13.6,0.1,15.9c0,1.2-0.1,1.6-0.5,2.3c-0.6,1-2.3,2-4.3,2
			c-2.7,0-2.8-1.4-2.5-3.1h-11.9c-0.1,2.3-1.5,3.6-5,3.6c-2.3,0-2.5-0.9-2.5-1.9c0-0.8,0.4-12.4,0.4-14.6c0-6.5-0.5-9.3-0.9-11.5
			l7.9,3.6h11.7l2-2.5c0.4-0.6,0.7-0.8,1.1-0.8c0.3,0,0.6,0.1,1.3,0.6l4.4,3c0.4,0.3,0.9,0.7,0.9,1.2
			C1243.9,428.8,1242.6,429.6,1241.7,430.1z M1234.6,428h-12v7.5h12V428z M1234.6,437.3h-12v8.1h12V437.3z"/>
	</g>
</g>
</svg>
