<?xml version="1.0" encoding="utf-8"?>
<!-- Generator: Adobe Illustrator 19.2.1, SVG Export Plug-In . SVG Version: 6.00 Build 0)  -->
<svg version="1.1" id="レイヤー_1" xmlns="http://www.w3.org/2000/svg" xmlns:xlink="http://www.w3.org/1999/xlink" x="0px"
	 y="0px" viewBox="0 0 1307.5 97.5" style="enable-background:new 0 0 1307.5 97.5;" xml:space="preserve">
<style type="text/css">
	.st0{fill:#FCFCFC;}
</style>
<g>
	<g>
		<path class="st0" d="M140.1,63.2h-5.9c-0.3,0-0.6-0.3-0.6-0.6V57c0-0.3,0.3-0.6,0.6-0.6h14c0.3,0,0.6,0.3,0.6,0.6v38.9
			c0,0.3-0.3,0.6-0.6,0.6h-6.8c-0.3,0-0.6-0.3-0.6-0.6v-32C140.7,63.5,140.4,63.2,140.1,63.2z"/>
		<path class="st0" d="M278.5,63.2h-5.9c-0.3,0-0.6-0.3-0.6-0.6V57c0-0.3,0.3-0.6,0.6-0.6h14c0.3,0,0.6,0.3,0.6,0.6v38.9
			c0,0.3-0.3,0.6-0.6,0.6h-6.8c-0.3,0-0.6-0.3-0.6-0.6v-32C279.1,63.5,278.8,63.2,278.5,63.2z"/>
		<path class="st0" d="M319,57v5.6c0,0.3-0.3,0.6-0.6,0.6h-13.8c-0.3,0-0.6,0.2-0.6,0.5l-1.1,6.1c-0.1,0.7,0.3,1,0.9,0.7
			c1.1-0.6,2.6-1,5.1-1c9.1,0,13.4,7.5,13.4,13.4c0,6.6-5,14.4-14.9,14.4c-7.5,0-13.3-4.5-14.7-11c-0.1-0.4,0.2-0.8,0.6-0.8l6.9,0
			c0.2,0,0.5,0.2,0.6,0.4c1,2.5,3.6,4.3,6.3,4.3c3.8,0,7-3.2,7-7c0-3.7-2.8-7-7.1-7c-1.8,0-4.2,0.6-6,3.4c-0.1,0.2-0.4,0.3-0.7,0.3
			l-5.6-1.4c-0.3-0.1-0.5-0.4-0.5-0.7l3.3-20.8c0-0.3,0.3-0.5,0.6-0.5h20C318.7,56.4,319,56.6,319,57z"/>
		<g>
			<g>
				<path class="st0" d="M167.1,96.7l-1.1-2.9c0.4,0.1,0.9,0.1,1.7,0.1c0.6,0,0.8-0.2,0.8-0.7v-3.6H162c-0.7,3.1-1.7,4.8-4.2,6.7
					l-2.2-1.8c1.5-1.2,4.1-3.2,4.1-8.1v-8.1h11.4v16.1C171.1,96.5,169.3,96.7,167.1,96.7z M168.6,85.1h-6.2c0,1.2,0,1.8-0.1,2.3h6.3
					V85.1z M168.6,80.7h-6.2V83h6.2V80.7z"/>
			</g>
		</g>
		<g>
			<g>
				<path class="st0" d="M122.5,92.4v4.3h-2.7v-4.3h-9.3v-2.3h3.1v-5.2h6.1v-2.6h-5c-1.2,2-1.9,2.7-2.4,3.3l-2.4-1.2
					c2-2,3.4-4.4,4.2-6.6l2.7,1c0.1,0,0.2,0.1,0.2,0.2s0,0.2-0.1,0.2c-0.1,0-0.4,0.1-0.5,0.2c0,0-0.4,0.7-0.5,0.8H128v2.2h-5.6v2.6
					h3.8v2.2h-3.8v2.9h6.7v2.3H122.5z M119.8,87.1h-3.5v2.9h3.5V87.1z"/>
			</g>
		</g>
		<g>
			<g>
				<path class="st0" d="M239.2,97.5c-1.2-1.4-3.6-4.4-3.6-9.4c0-5,2.5-8,3.6-9.4l1.5,1.3c-1,1.2-3.1,3.8-3.1,8.1
					c0,4.3,2.1,6.9,3.1,8.1L239.2,97.5z"/>
				<path class="st0" d="M242.3,95.9v-2.1h7.2v-6.5h-5.8V85h5.8v-5.3l2.3,0.3c0.3,0,0.5,0.1,0.5,0.3c0,0.1,0,0.1-0.2,0.3
					c-0.2,0.1-0.3,0.2-0.3,0.2V85h6v2.2h-6v6.5h7.3v2.1H242.3z"/>
				<path class="st0" d="M262.3,97.5l-1.5-1.3c1-1.2,3.1-3.8,3.1-8.1c0-4.3-2.1-6.9-3.1-8.1l1.5-1.3c1.2,1.4,3.6,4.4,3.6,9.4
					C265.9,93.1,263.4,96.1,262.3,97.5z"/>
			</g>
		</g>
		<g>
			<g>
				<path class="st0" d="M330.3,97.5c-1.2-1.4-3.6-4.4-3.6-9.4c0-5,2.5-8,3.6-9.4l1.5,1.3c-1,1.2-3.1,3.8-3.1,8.1
					c0,4.3,2.1,6.9,3.1,8.1L330.3,97.5z"/>
				<path class="st0" d="M344.4,95.9v-1h-7.5V96h-2.3V80.7h12.1v15.2H344.4z M344.4,82.8h-7.5v3.7h7.5V82.8z M344.4,88.6h-7.5v4h7.5
					V88.6z"/>
				<path class="st0" d="M350.6,97.5l-1.5-1.3c1-1.2,3.1-3.8,3.1-8.1c0-4.3-2.1-6.9-3.1-8.1l1.5-1.3c1.2,1.4,3.6,4.4,3.6,9.4
					C354.3,93.1,351.8,96.1,350.6,97.5z"/>
			</g>
		</g>
		<g>
			<path class="st0" d="M185,63.2h-5.9c-0.3,0-0.6-0.3-0.6-0.6V57c0-0.3,0.3-0.6,0.6-0.6h14c0.3,0,0.6,0.3,0.6,0.6v38.9
				c0,0.3-0.3,0.6-0.6,0.6h-6.8c-0.3,0-0.6-0.3-0.6-0.6V63.8C185.6,63.5,185.3,63.2,185,63.2z"/>
			<path class="st0" d="M217,89.2h-17.3c-0.3,0-0.6-0.3-0.6-0.6v-4.8c0-0.3,0.1-0.7,0.3-0.9l18.1-26.3c0.1-0.2,0.3-0.3,0.5-0.3h6.7
				c0.3,0,0.6,0.3,0.6,0.6v25.3c0,0.3,0.3,0.6,0.6,0.6h3.1c0.3,0,0.6,0.3,0.6,0.6v5.1c0,0.3-0.3,0.6-0.6,0.6H226
				c-0.3,0-0.6,0.3-0.6,0.6v6c0,0.3-0.3,0.6-0.6,0.6h-6.5c-0.3,0-0.6-0.3-0.6-0.6v-6C217.7,89.5,217.4,89.2,217,89.2z M218.2,82.3
				v-14c0-0.6-0.8-0.9-1.1-0.3l-9.1,14c-0.3,0.4,0,1,0.5,1h9.1C217.9,82.9,218.2,82.6,218.2,82.3z"/>
		</g>
		<g>
			<path class="st0" d="M0.1,90.3c0-0.2,0.1-0.4,0.2-0.5C4.1,86.4,8,83,11.8,79.6c4-3.5,7.2-6.2,7.2-10.8c0-3.9-2.5-6-5.8-6
				c-3.7,0-5.3,3.2-5.5,7c0,0.3-0.3,0.6-0.6,0.6l-6.5,0c-0.4,0-0.6-0.3-0.6-0.6c0.2-2.9,0.7-5.9,2.8-8.7c3.1-4.5,8.3-5.3,11.1-5.3
				c8.3,0,13.1,5.8,13.1,12.3c-0.1,4.6-1.7,7.9-6.4,12.4c-2.8,2.7-5.6,5.3-8.4,8c-0.6,0.6-0.4,1.1,0.4,1.1h13.9
				c0.3,0,0.6,0.3,0.6,0.6v5.5c0,0.3-0.3,0.6-0.6,0.6H0.8c-0.3,0-0.6-0.3-0.6-0.6V90.3z"/>
			<path class="st0" d="M32.6,70.4c0-11.5,9.4-14.6,14.4-14.6c5.6,0,14.3,3.8,14.3,14.5v12.3c0,10.9-8.6,14.5-14.2,14.5
				c-5.6,0-14.5-3.7-14.5-14.5V70.4z M40.7,82.8c0,3.6,1.9,7.3,6.3,7.3c4.5,0,6.3-4.2,6.3-7.3V70.1c0-2.3-0.9-7.3-6.4-7.3
				c-4.5,0-6.2,3.8-6.2,7.3V82.8z"/>
			<path class="st0" d="M72.1,63.3h-5.9c-0.3,0-0.6-0.3-0.6-0.6v-5.5c0-0.3,0.3-0.6,0.6-0.6h13.9c0.3,0,0.6,0.3,0.6,0.6v38.6
				c0,0.3-0.3,0.6-0.6,0.6h-6.8c-0.3,0-0.6-0.3-0.6-0.6V63.9C72.8,63.6,72.5,63.3,72.1,63.3z"/>
			<path class="st0" d="M112,57.1v5.4c0,0.1,0,0.2-0.1,0.3L97.3,96c-0.1,0.2-0.3,0.4-0.6,0.4h-7.5c-0.5,0-0.8-0.4-0.6-0.9l14.6-31.3
				c0.2-0.5,0-0.9-0.6-0.9H88c-0.3,0-0.6-0.3-0.6-0.6v-5.5c0-0.3,0.3-0.6,0.6-0.6h23.5C111.8,56.5,112,56.8,112,57.1z"/>
		</g>
	</g>
	<g>
		<g>
			<g>
				<g>
					<g>
						<path class="st0" d="M584.3,67.2c-0.1-4.9-1.3-7.9-6.7-7.9c-4.3,0-7,1.5-7,6.2c0,5.9,3,6,7.5,9.3c4.9,3.5,9.9,4.6,9.9,12.2
							c0,7.1-3.6,10.5-10.5,10.5c-7.7,0-11.2-4.2-10.9-11.9h3.6c0,4.4,0.3,8.9,7.4,8.9c4.6,0,6.9-2.5,6.9-7c0-5.4-3.6-6.9-9.3-10.4
							c-7.7-4.7-8-7.1-8.1-11c-0.1-6.9,4.3-9.7,10.8-9.7c8.2,0,10,5.1,10,10.8H584.3z"/>
						<path class="st0" d="M588.8,71.2v-2.7h4.5v-5.8l3.4-1.5v7.3h5.7v2.7h-5.7v18.2c0,3.8,0.4,4.6,3.1,4.6c1.1,0,1.9-0.1,2.6-0.2
							v2.9c-1,0.1-2.1,0.2-3.2,0.2c-4.5,0-5.9-2-5.9-5.5V71.2H588.8z"/>
						<path class="st0" d="M622.8,68.5v28.3h-2.9v-3.1h-0.1c-2,2.4-4,3.7-7.1,3.7c-5.8,0-7.5-4.3-7.5-8.9v-20h3.4v19.4
							c0,0.8-0.2,6.7,4.7,6.7c4.5,0,6.2-4.3,6.2-6.2V68.5H622.8z"/>
						<path class="st0" d="M641.3,93.2l-0.1,0.1c-1.7,2.7-3.9,4.1-7.2,4.1c-8.2,0-8.6-8.1-8.6-14.7c0-5.4,0-14.7,8.7-14.7
							c2.6,0,5.1,1.2,6.8,3.4l0.1,0.1v-15h3.4v34.8c0,2.8,0.2,4.6,0.3,5.6h-3.2L641.3,93.2z M641.2,85.2v-5c0-1.7,0-9.5-6.3-9.5
							c-6,0-6,5.5-6,12.1c0,10.5,2.5,11.9,6.2,11.9C638.1,94.7,641.2,92.1,641.2,85.2"/>
						<path class="st0" d="M647.9,60.6h4.1v4.3h-4.1V60.6z M648.3,68.5h3.4v28.3h-3.4V68.5z"/>
						<path class="st0" d="M654.7,85.7v-6.1c0-7.3,3.1-11.7,9.7-11.7c6.6,0,9.7,4.3,9.7,11.7v6.1c0,7.3-3.1,11.7-9.7,11.7
							C657.8,97.4,654.7,93,654.7,85.7 M658,82.6c0,7.4,0.8,12,6.4,12c5.5,0,6.4-4.6,6.4-12c0-7.3-0.8-12-6.4-12
							C658.9,70.6,658,75.3,658,82.6"/>
					</g>
				</g>
				<path class="st0" d="M399.1,74.3V59.4h7.1c2.9,0,6.6,0.1,6.6,6.8c0,4.6-1.6,8.1-6.8,8.1H399.1z M407,96.8
					c6.8,0,10.2-4,10.2-11.2c0-5.1-1.4-8.6-6.7-9.7v-0.1c5.1-1.4,5.9-4.7,5.9-9.6c0-7.1-3.2-9.7-9.6-9.7h-11.2v40.4H407z
					 M399.1,77.4h7.3c6.1,0,7.2,4.9,7.2,8.5c0,5.9-2.8,7.9-8.8,7.9h-5.7V77.4z"/>
				<path class="st0" d="M435,87.5c0,3.7-3.1,7.2-7,7.2c-3.5,0-5.1-2.6-5.1-5.8c0-6.9,7.3-6.3,12.1-6.5V87.5z M435.2,96.8h3.5
					c-0.3-3.3-0.3-5.1-0.3-7.1V75.5c0-7.2-5.9-7.5-8.8-7.5c-4.9,0-9.1,2.1-9.4,7.5h3.6c0-3.3,2.5-4.9,5.6-4.9c4.5,0,5.7,2.5,5.7,6.7
					v2.3c-5.7,0.4-15.6-0.6-15.6,9.3c0,4.9,2.7,8.3,7.8,8.3c3.5,0,6.2-1.3,8-4h0.1V96.8z"/>
				<path class="st0" d="M445.3,96.8H442V68.5h3.3V72h0.1c1.6-2.3,3.8-4,6.8-4c7,0,7.7,5.2,7.7,8.9v19.9h-3.4V77
					c0-3.3-1.3-6.4-5.2-6.4c-3,0-6.1,2.1-6.1,8.4V96.8z"/>
				<polygon class="st0" points="463.7,56.4 467,56.4 467,81 467.1,81 476.9,68.5 480.8,68.5 470.8,81.1 481.5,96.8 477.2,96.8 
					467.1,81.4 467,81.4 467,96.8 463.7,96.8 				"/>
				<path class="st0" d="M486.7,83.1l6.8-22.8h0.1l6.9,22.8H486.7z M491.6,56.4l-12.7,40.4h3.6l3.2-10.6h15.8l3.2,10.6h3.8
					l-12.6-40.4H491.6z"/>
				<path class="st0" d="M514.4,59.4h7.3c4.2,0,6.4,1.1,6.4,6.6c0,6.8-2.5,8.1-7.9,8.1h-5.8V59.4z M521.2,77.2
					c7.8,0,6.6,7.8,6.6,9.5c0.1,2.2,0.2,8.9,0.6,10.1h3.4c-0.1-1.6-0.4-3.1-0.4-4.7c0-14.4-0.3-15.1-6-16.3v-0.1
					c5.4-1.2,6.3-4.6,6.3-9.6c0-7.1-2-9.7-9.7-9.7h-11.1v40.4h3.6V77.2H521.2z"/>
				<polygon class="st0" points="543.9,59.4 534,59.4 534,56.4 557.3,56.4 557.3,59.4 547.4,59.4 547.4,96.8 543.9,96.8 				"/>
				<path class="st0" d="M705,56.8v29.7h-0.1c0,0-11.2-29.1-11.4-29.7h-10.3v39.6h6.9V65.2h0.1c0,0,11.5,30.7,11.7,31.3h10V56.8H705
					z"/>
				<path class="st0" d="M735.1,56.8c-0.2,0.5-6.8,18-6.8,18s-6.2-17.5-6.4-18h-8.1c0.5,1.1,10.3,25.8,10.3,25.8s0,13.1,0,13.9h7.4
					V82.6c0,0,10.6-24.7,11.1-25.8H735.1z"/>
				<path class="st0" d="M761.4,56.8c-0.2,0.4-9.7,17.1-9.7,17.1h-0.1V56.8h-7.4v39.6h7.4V76.2h0.1c0,0,9.3,19.8,9.5,20.3h8.4
					c-0.6-1.2-11.1-21.9-11.1-21.9s10.3-16.5,11.1-17.8H761.4z"/>
			</g>
		</g>
		<g>
			<path class="st0" d="M792.1,57.2h3.8l-14.1,39.1H778L792.1,57.2z"/>
		</g>
		<g>
			<path class="st0" d="M837.2,94.5c-5.4-2.7-8.5-4.9-12.5-9.3v10.1h-5.2V85.1c-2.3,2.5-5.7,6.1-12.8,9.6l-3.8-3.5
				c4.8-1.7,8-3.6,13.1-8.9h-7.9V67.9h11.4v-2.3h-15.9v-4.1h15.9v-3.6l5.3,0.3c0.5,0,0.7,0.3,0.7,0.4c0,0.1-0.2,0.3-0.3,0.4
				c-0.4,0.3-0.5,0.4-0.5,0.6v1.8h15.9v4.1h-15.9v2.3h11.5v14.4h-8.5c2.9,3,5.8,5.1,12.9,8.5L837.2,94.5z M819.5,71.1h-6.4v2h6.4
				V71.1z M819.5,76.6h-6.4v2.1h6.4V76.6z M831.2,71.1h-6.5v2h6.5V71.1z M831.2,76.6h-6.5v2.1h6.5V76.6z"/>
			<path class="st0" d="M844.8,65.7v-4.1H861v-3.8l6,0.7c0.3,0,0.6,0.1,0.6,0.4c0,0.1-0.1,0.3-0.3,0.3c-0.5,0.3-0.8,0.5-0.8,0.7v1.7
				h15.8v4.1H844.8z M858.4,85.2c-0.6,0.1-0.7,0.2-0.7,0.3c-3.5,4.5-4.3,5.5-7.5,8.3l-4.6-2.7c4.2-3.4,6.5-6.5,8.4-9.8l4.7,2.9
				c0.1,0.1,0.2,0.3,0.2,0.5C858.8,85.1,858.6,85.2,858.4,85.2z M866,80.7V91c0,1.4-0.3,3.2-1.9,3.7c-1,0.3-2.7,0.7-5.5,0.7l-2.1-5
				c1,0.1,1.8,0.3,2.8,0.3c1.2,0,1.6-0.5,1.6-1.3v-8.7h-10.9V68.3h27.3v12.4H866z M871.9,72.3h-16.7v4.4h16.7V72.3z M876.4,94
				c-2.3-3.6-4.9-6.4-8.1-9l3.4-3.5c3.4,2.8,6.1,5.7,8.8,9.1L876.4,94z"/>
			<path class="st0" d="M923.6,82.6c-0.7,1-1.2,1.2-1.8,1.2c-0.8,0-3.4-0.5-5-5.2l-1.8,3.2c-0.8-0.8-1.8-1.4-2.6-1.9
				c-0.8,1.1-1.5,1.7-2.6,2.4h6.7v3.1h-23.3v-1.6c-1.7,0.1-2.9,0.2-4.4,0.2c-0.1,0-0.4,0-0.6,0.3c-0.3,0.3-0.3,0.3-0.5,0.3
				c-0.3,0-0.5-0.2-0.6-1l-0.3-3.1c2.8,0,5.8-0.2,8-0.3v-1.1h-4.3v-1.6c-0.6,0.4-0.8,0.5-2.3,1.1l-2.3-3.1c1.2-0.3,2.8-1,4-2.7h-3.8
				v-2.8h7.9v-1.1h-5.6v-2.8h5.6v-1.4h2v-1.5h-9.9v-3.7h9.9v-2.2l4.9,0.4c0.6,0,1.1,0.1,1.1,0.6c0,0.2,0,0.3-0.5,0.6
				c-0.2,0.1-0.2,0.2-0.2,0.7h7.3v-2.1l5.1,0.2c0.9,0,1.1,0.3,1.1,0.5c0,0.2-0.1,0.3-0.4,0.5c-0.5,0.3-0.5,0.3-0.5,0.9h9.7v3.7H914
				v2.4l1.5,0.2c0.7,0.1,1,0.2,1,0.6c0,0.2-0.1,0.3-0.4,0.6c-0.4,0.3-0.4,0.4-0.4,1.6h5.4c-0.3,1.7-0.7,3.8-0.7,5.4
				c0,0.9,0.2,3.2,0.7,3.2c0.3,0,0.7-0.9,0.9-1.9l3.1,2.6C924.8,80.4,923.9,82.1,923.6,82.6z M917.9,90c1.6,0.9,3,1.9,4.3,3.1
				l-2.8,3.1c-1.2-1.1-2.9-2.3-3.9-2.9c-2.3,0.3-12.2,1.6-24.9,2.2c-0.6,0-0.8,0-1.1,0.3c-0.3,0.4-0.4,0.4-0.7,0.4
				c-0.3,0-0.4-0.3-0.5-0.8l-0.7-3.5c2.5,0,8.1-0.2,10.6-0.3c0.5-0.7,0.7-1.3,0.9-1.7h-13v-3.2h37.6V90H917.9z M898.3,72.9H892
				l2,1.1c0.2,0.1,0.4,0.3,0.4,0.5s-0.4,0.4-0.9,0.4c-0.2,0.2-0.5,0.6-0.7,0.8h2.1v-1.3l3.4,0.3V72.9z M908.8,65.9v-2.5h-7.3v1.8
				l-2.6,0v1h5.2v2.8h-5.2v1.1h6.8v2.8H902v1.4c0,0.3,0,0.7,0.6,0.7c0.5,0,0.8-0.4,1-1.4l2.9,1.4c-0.1,2.2-1.2,2.9-2.7,2.9h-1.6v1.1
				h-2.7V80c1.9-0.1,3.1-0.3,4.3-0.3l-1.2,2.7h3.9l-2.5-1.8c2.1-0.6,3.4-1.2,4.9-2.7c-0.7-0.3-1.4-0.7-2.3-1l2.1-3.2
				c0.7,0.3,1.1,0.4,2,0.9c0.3-0.8,0.3-0.9,0.6-2h-3.5v-3.6h3.8c0-0.7,0-2.2,0-2.9H908.8z M909.7,90h-5.6c-0.3,0.9-0.4,1-0.6,1.4
				c4.7-0.3,5.7-0.3,7.9-0.6C911.2,90.7,910,90.1,909.7,90z M915.4,72.4c-0.3,2.1-0.6,2.9-1,3.8c1.3,0.6,1.7,0.9,2.1,1.2
				c0-0.2-0.1-1.1-0.1-1.8c0-0.9,0.1-1.6,0.2-3.1H915.4z"/>
			<path class="st0" d="M963.1,73.2v17.1c0,3.9-1.1,5.1-5,5.1h-2.7l-1.5-4.7c0.7,0,3.2,0,3.6,0c0.5,0,0.8-0.2,0.8-1.3V73.2h-5.2
				v-2.8h-4.7v25.1h-4.6V70.5h-5.5v-0.8c-0.3,0.5-0.7,1.1-1.9,2.9c0.3,0.1,0.8,0.4,0.8,0.9c0,0.2-0.1,0.3-0.3,0.5
				c-0.6,0.5-0.7,0.6-0.7,1v11.8c1.3-4.3,1.8-7.6,2-13l4.4,0.6c0.4,0,0.8,0.3,0.8,0.7c0,0.4-0.6,0.6-0.8,0.7c-0.2,4.6-1,10.1-2,12.7
				l-4.4-1v8.1h-4.8V79c-0.7,0.7-0.7,0.8-1.4,1.6l-4-3c3.6-3.3,6.5-7.2,8.7-11.6l3.6,1.7v-1.9h5.5v-8.2l4.5,0.2c0.4,0,1,0.2,1,0.6
				c0,0.1,0,0.3-0.3,0.5c-0.4,0.3-0.6,0.5-0.6,0.8v6h4.8v3.1h12v4.4H963.1z M938.1,61.6c-0.5,0-0.6,0-0.9,0.3
				c-2.6,2.6-4.6,4.1-6.9,5.8l-3.5-3.4c2.9-1.9,5.6-4,7.9-6.5l3.3,2.5c0.6,0.4,0.7,0.7,0.7,0.9C938.6,61.6,938.3,61.6,938.1,61.6z
				 M950.2,65c-0.6-2.9-1.1-4-1.4-4.7l3.2-1c0.8,1.7,1.3,3,1.7,4.7L950.2,65z M950.8,87.6c0-3-0.2-7.2-1.1-13.4l4.1-0.5
				c0.7,4.4,1,8.2,1.1,13L950.8,87.6z M954.4,63.7v-4.3h10.6v4.3H954.4z"/>
			<path class="st0" d="M1002.8,95.7c-8.8-5.4-11.9-9.3-14.9-16.2c-4.1,8.5-8.2,12.8-15.7,16.5l-4.3-3.8c10.1-4.1,14.1-9.9,16.3-19
				h-15.1v-4.7h15.7c0.2-1.9,0.2-4.1,0.2-4.8c0-2.5-0.1-4.4-0.2-5.8l5.8,0.3c0.3,0,0.7,0,0.7,0.5c0,0.3-0.4,0.7-0.8,1.1
				c-0.1,0.9-0.1,0.3-0.1,2.5c0,0.4-0.1,4.1-0.2,6.2h16.4v4.7h-16c2.7,8.4,6.1,13.2,16.7,18.4L1002.8,95.7z"/>
			<path class="st0" d="M1042.2,76.3v-5.2h-25.9v5.5h-4.7V67h21.6c2.1-2.5,4-5.2,5.3-8.2l4.3,1.4c0.3,0.1,0.7,0.4,0.7,0.7
				c0,0.2-0.1,0.2-0.2,0.3c-0.1,0.1-1.1,0.4-1.3,0.5c-0.9,1.7-1.8,3.1-3.4,5.2h8.2v9.3H1042.2z M1032,85.6v6.6c0,3-2.5,3.8-5.2,3.8
				h-2.7l-1.9-4.6c0.5,0,3,0.3,3.5,0.3c0.7,0,1-0.7,1-1.3v-4.7h-15v-4.3h15v-2.7l2.1,0.4c1-0.8,1.3-1.3,1.7-1.8h-11.6v-4h19.8
				l1.2,1.9c-2,1.8-5.4,4.6-7.8,6.3h14.8v4.3H1032z M1018.3,66.6c-1-2.1-2-3.8-3.8-5.8l4-2.4c1.4,1.7,2.7,3.3,3.9,5.6L1018.3,66.6z
				 M1028.2,65.7c-1.1-2.2-2.2-4.1-4.1-6.3l4-2.4c2,2.4,3.3,4.4,4.3,6.4L1028.2,65.7z"/>
			<g>
				<path class="st0" d="M1110.8,86.6c-0.8,3-1.8,5.9-3.6,8.4l-5.2-1.9c1.4-1.9,3.2-4.5,4.5-9.4l4.6,1.3c0.3,0.1,0.7,0.3,0.7,0.7
					S1111.5,86.2,1110.8,86.6z M1139,88.9c-1.6,5.9-4.1,6.2-9,6.3l-2.3-5.2c1.4,0.2,2.5,0.3,3.3,0.3c1.1,0,2.1-0.1,3-3
					c0.6-2.1,0.7-4.5,0.7-5.3h-22.5v1.4h-5.1V58.9h31.5v4h-13.3v2.2h10.4v4h-10.4v2.3h10.4v4h-10.4v2.5h15.2
					C1140.4,79.7,1140.2,84.5,1139,88.9z M1112.9,93.1c-0.1-2.9-0.3-5.4-1.2-8l4.5-0.7c1.1,3.1,1.5,5.5,1.6,8L1112.9,93.1z
					 M1119.9,62.9h-7.7v2.2h7.7V62.9z M1119.9,69.1h-7.7v2.3h7.7V69.1z M1119.9,75.3h-7.7v2.5h7.7V75.3z M1120.1,91.9
					c-0.8-4.1-1.7-6.2-2.2-7.1l4.5-0.7c1.5,3.3,1.9,5.2,2.1,6.6L1120.1,91.9z M1126.8,89.8c-0.7-2.2-1.3-3.6-2.4-5.7l4.3-1
					c0.7,1.3,1.7,3.2,2.1,5.3L1126.8,89.8z"/>
				<path class="st0" d="M1165.5,88.8v6.6h-5.1v-6.6h-16.2v-4h16.2v-2.2h-10.9V67.3h10.9v-2.1h-14.9v-3.9h14.9v-3.5l5.3,0.3
					c0.3,0,0.6,0.2,0.6,0.4c0,0.2-0.2,0.3-0.3,0.5c-0.2,0.2-0.4,0.5-0.4,0.6v1.7h15.4v3.9h-15.4v2.1h11.2v15.3h-11.2v2.2h16.4v4
					H1165.5z M1160.4,71.1h-6.2v2h6.2V71.1z M1160.4,76.7h-6.2v2h6.2V76.7z M1172,71.1h-6.5v2h6.5V71.1z M1172,76.7h-6.5v2h6.5V76.7
					z"/>
				<path class="st0" d="M1222.2,94.4h-17.8c-2.7,0-5.6-0.2-7.8-1c-2.4-0.9-3.2-2.3-3.7-3c-0.6,0.6-1.5,1.6-3.2,2.9
					c-1.4,1.1-1.4,1.2-1.6,1.5c-0.2,0.6-0.2,0.7-0.4,0.7c-0.1,0-0.3-0.1-0.6-0.5l-2.3-4.6c3.6-1.4,4.8-2.1,5.5-2.6V78h-4.5v-4.7h9.5
					v13.6c0,2.7,2.5,3.3,9,3.3c6.7,0,13.3-0.2,19.9-1L1222.2,94.4z M1191.8,67.3c-2-2.5-3.7-3.9-5.9-5.2l3.5-3.5
					c2,1.3,3.7,2.6,6,5.4L1191.8,67.3z M1211.9,66c-0.9,1.3-1.4,1.9-2,2.6h10.2v19.5h-4.8v-1h-10.6v1h-4.8V68.6h5.3
					c0.7-0.8,1-1.4,1.5-2.6h-9.6v-3.7h5.4c-0.9-1.8-1.6-2.7-2.2-3.5l4.1-1.8c1.3,1.7,2.1,2.9,2.8,4.7l-1.6,0.7h6.1
					c1-1.8,1.6-3,2.3-4.9l4.9,1.3c0.1,0,0.7,0.2,0.7,0.5c0,0.1,0,0.2-0.4,0.3c-0.4,0.1-0.4,0.1-0.5,0.2c-0.7,1-1.1,1.5-2,2.6h6.5V66
					H1211.9z M1215.3,71.7h-10.6v2h10.6V71.7z M1215.3,76.7h-10.6v2h10.6V76.7z M1215.3,81.6h-10.6v2.1h10.6V81.6z"/>
				<path class="st0" d="M1238.9,80.9c-0.7-0.7-1.6-1.7-2.4-2.7v17.3h-4.5V82.8c-0.7,1.7-1.9,3.5-2.8,4.8l-3.8-2.2
					c3.6-4.2,5.7-10.6,6.3-15.4h-4.6v-4.2h4.9V58l4.3,0.3c0.3,0,1,0.1,1,0.4c0,0.2,0,0.3-0.3,0.5c-0.3,0.2-0.4,0.3-0.4,0.5v6.1h4.8
					V70h-4.8c0.6,2,2.6,5.3,5.4,7.5L1238.9,80.9z M1262.7,95.2c-4.2-1.9-6.8-3.7-10.1-7.5c-2.2,2.2-4.8,4.5-10.7,7.5l-3.4-3.4
					c2.4-1,7.8-3.4,11.5-7.5c-0.8-1.3-2-3.3-3.9-7.3c-0.2,0.3-0.5,0.8-0.9,1.3l-4.1-1.7c2.6-3.4,4.1-6.6,5.1-9.7l3.6,1.4
					c0.3,0.1,0.9,0.4,0.9,0.7c0,0.2-0.3,0.3-0.5,0.4c-0.4,0.2-0.5,0.2-0.6,0.4c-0.9,2.2-1.4,3.4-2.7,5.7l2.7-1.5
					c1.3,3.7,2.3,5.5,3.1,6.7c1.6-2.7,2.3-4.5,3-7.5l2.9,0.6c-1.1-1.4-2.3-3-4.5-4.9l3.6-2.4c3.3,3.2,6.2,6.7,7.6,8.9l-4.2,2.4
					c-0.7-1.3-1.2-2.1-1.5-2.6c-1,3.4-2,5.8-4.2,9.2c3.5,3.8,6.5,5.5,10.7,7L1262.7,95.2z M1242.1,66.2v-4.3h8.4v-4.1l4.4,0.2
					c0.7,0,1,0.1,1,0.5c0,0.2-0.1,0.3-0.3,0.4c-0.6,0.4-0.7,0.5-0.7,0.7v2.4h9.7v4.3H1242.1z"/>
				<path class="st0" d="M1302.8,72.8c-1.8-0.7-3.5-1.6-5.8-2.9v3h-7.4v2.3h14.6v4.2h-33.8v-4.2h14.2v-2.3h-7.1v-3.4
					c-2.3,1.5-3.9,2.3-6.2,3.1l-4-3.6c6.5-2.3,12.5-6.1,16.7-11.4l5.2,0.6c0.5,0,0.9,0.3,0.9,0.7c0,0.1,0,0.2-0.1,0.3
					c4.7,4.8,10.9,7.7,17.3,9.6L1302.8,72.8z M1294.5,95.6v-1.5h-14.7v1.5h-4.9V82h24.6v13.6H1294.5z M1286.8,62.2
					c-2.7,2.8-4.7,4.5-7.9,6.5h5.8v-3.3l4.8,0.1c0.4,0,1,0,1,0.6c0,0.2,0,0.3-0.3,0.6c-0.3,0.3-0.4,0.5-0.4,0.7v1.4h5.4
					C1291.4,66.4,1289.1,64.7,1286.8,62.2z M1294.5,86h-14.7v4.1h14.7V86z"/>
			</g>
			<g>
				<path class="st0" d="M1068.5,64.2v1.1h4V72h-2.7c0.9,0.8,2.4,1.5,3.6,1.8l-1.2,1.6c-1.4-0.5-2.8-1.2-4.1-2.3l1-1h-3.4l0.8,0.7
					c0.2,0.2,0.3,0.3,0.3,0.4c0,0.1-0.1,0.1-0.4,0.1c-0.1,0-0.1,0-0.3,0.1c-1.1,1-2.7,1.8-3.4,2.1l-1.4-1.5c1.6-0.5,2.9-1.3,3.6-2
					h-2.5v-6.8h3.8v-1.1h-4.7v-1.5h-1.7v1.2c0,0.4,0.7,1.5,1,1.9c0.3,0.4,0.6,0.8,0.9,1.2l-1.2,1.5c-0.5-0.7-0.6-0.9-0.7-1v8h-2.1
					v-7.1c-0.3,0.6-0.8,1.4-1.2,1.9l-1.8-1.1c1.4-1.6,2.6-3.9,3-6.5h-2.2v-2h2.2v-3.1l1.9,0.2c0.1,0,0.5,0,0.5,0.2
					c0,0.1,0,0.1-0.1,0.2c-0.2,0.2-0.2,0.2-0.2,0.3v2.3h1.7v1.8h2.7V61h-1.8v-1.6h1.8v-1.8l2.1,0.1c0.2,0,0.4,0.1,0.4,0.2
					c0,0.1-0.1,0.1-0.2,0.2c-0.1,0.1-0.2,0.1-0.2,0.2v1h1.9v-1.8l2,0.1c0.4,0,0.5,0.1,0.5,0.2c0,0.1-0.1,0.1-0.1,0.1
					c-0.1,0.1-0.1,0.1-0.1,0.2v1.2h2.7V61h-2.7v1.5h3.2v1.6H1068.5z M1066.3,66.8h-1.7V68h1.7V66.8z M1066.3,69.2h-1.7v1.3h1.7V69.2
					z M1068.3,61h-1.9v1.5h1.9V61z M1070.4,66.8h-1.9V68h1.9V66.8z M1070.4,69.2h-1.9v1.3h1.9V69.2z"/>
				<path class="st0" d="M1061.2,90c-0.3-0.3-0.8-0.8-1.1-1.3V97h-2.2v-6.1c-0.4,0.8-0.9,1.7-1.4,2.3l-1.8-1c1.7-2,2.7-5.1,3-7.4
					h-2.2v-2h2.4V79l2.1,0.1c0.2,0,0.5,0,0.5,0.2c0,0.1,0,0.1-0.1,0.3c-0.1,0.1-0.2,0.2-0.2,0.2v2.9h2.3v2h-2.3
					c0.3,1,1.3,2.6,2.6,3.6L1061.2,90z M1072.7,96.8c-2-0.9-3.2-1.8-4.9-3.6c-1,1-2.3,2.2-5.2,3.6l-1.6-1.6c1.1-0.5,3.8-1.6,5.5-3.6
					c-0.4-0.6-1-1.6-1.9-3.5c-0.1,0.1-0.2,0.4-0.4,0.6l-2-0.8c1.2-1.7,2-3.2,2.5-4.7l1.7,0.7c0.2,0.1,0.4,0.2,0.4,0.3
					c0,0.1-0.2,0.2-0.2,0.2c-0.2,0.1-0.2,0.1-0.3,0.2c-0.4,1.1-0.7,1.6-1.3,2.7l1.3-0.7c0.6,1.8,1.1,2.6,1.5,3.2
					c0.8-1.3,1.1-2.2,1.4-3.6l1.4,0.3c-0.5-0.7-1.1-1.4-2.2-2.3l1.7-1.2c1.6,1.5,3,3.2,3.7,4.3l-2,1.2c-0.3-0.6-0.6-1-0.7-1.3
					c-0.5,1.7-1,2.8-2,4.4c1.7,1.8,3.1,2.6,5.1,3.4L1072.7,96.8z M1062.8,82.9v-2.1h4v-2l2.1,0.1c0.3,0,0.5,0.1,0.5,0.2
					c0,0.1,0,0.1-0.1,0.2c-0.3,0.2-0.3,0.2-0.3,0.3v1.2h4.7v2.1H1062.8z"/>
				<path class="st0" d="M1079.6,66.5c-0.6-0.4-1.4-1-3.6-1.8l1.2-2.1c1.2,0.5,2.4,1.1,3.5,1.9L1079.6,66.5z M1079.9,72.2
					c-0.2,0.4-1.2,2.2-1.2,2.4c0,0.1,0,0.3,0,0.4c0,0,0,0.3-0.2,0.3c-0.1,0-0.3-0.1-0.4-0.2l-2-1.2c1.3-1.8,2.4-3.8,3.4-6.2l1.9,1.1
					C1080.9,69.9,1080.4,71.1,1079.9,72.2z M1080.8,61.6c-1.2-0.9-2.5-1.6-3.4-1.9l1.3-1.9c1.1,0.5,2.3,1.2,3.4,2L1080.8,61.6z
					 M1085.5,69.8l1.8,1.6c0.1,0.1,0.2,0.2,0.2,0.4c0,0.3-0.4,0.2-0.7,0.2c-0.3,0.3-2.1,2.2-4,3.5l-2.2-1.7c0.8-0.4,1.6-0.7,2.7-1.7
					c1.2-1,1.6-1.7,1.9-2.3h-3.3v-2.3h1.5v-9.1c0.9,0.2,1.4,0.3,1.8,0.3c0.7,0,1.7-0.1,1.9-0.2c3.1-0.5,3.8-0.8,5.1-1.4l1.2,1.9
					c0.1,0.1,0.2,0.4,0.2,0.5c0,0.1-0.1,0.1-0.2,0.1c-0.1,0-0.5-0.1-0.6-0.1c-0.1,0-1.4,0.3-1.6,0.3c-0.9,0.2-3.5,0.5-5.3,0.6v1.6
					h8.2v2.2h-3.2v3.2h3.9v2.3H1085.5z M1088.5,64.3h-2.6v3.2h2.6V64.3z M1093.5,75.5c-2.3-1.4-3.8-3-4.8-4.2l1.8-1.4
					c1.2,1.7,3,2.9,4.8,3.8L1093.5,75.5z"/>
				<path class="st0" d="M1083.4,93.3c-1.3,0.4-2.5,0.9-3.8,1.3c-0.2,0.1-1.2,0.3-1.4,0.4c-0.5,0.1-0.7,0.2-0.8,0.4
					c-0.1,0.1-0.2,0.2-0.3,0.2c-0.1,0-0.2-0.1-0.2-0.1l-0.4-2.6c0.8-0.1,1.8-0.4,2.4-0.5V86h-2.3v-2.3h2.3v-4.8l2.5,0.1
					c0.1,0,0.3,0.1,0.3,0.2c0,0.1-0.2,0.2-0.2,0.2c-0.1,0.1-0.3,0.1-0.3,0.3v3.9h2V86h-2v5.7c1.2-0.3,1.6-0.5,2.3-0.7L1083.4,93.3z
					 M1092.2,96.7h-4.5c-1.7,0-3.1-0.8-3.1-2.6v-5.5l-2,0.8l-0.7-2.1l2.6-1v-6.1l2.4,0.2c0.1,0,0.2,0.1,0.2,0.2
					c0,0.1-0.1,0.2-0.1,0.3c-0.1,0.1-0.2,0.2-0.2,0.3v4.1l1.4-0.5v-5.9l2.4,0.2c0.1,0,0.3,0.1,0.3,0.2c0,0.1-0.1,0.2-0.1,0.2
					c-0.1,0.1-0.3,0.2-0.3,0.3v4.1l3-1.2l1.1,0.6v7c0,1.9-1.6,2-2.8,2l-1.3-2.1c0.4,0.1,0.8,0.1,1.1,0.1c0.6,0,0.6-0.6,0.6-0.8v-4
					l-1.8,0.7v6.2h-2.2v-5.3l-1.4,0.5v5.5c0,1,0.3,1.3,1,1.3h3.7c0.9,0,1.1-0.8,1.3-1.6l2.2,0.9
					C1094.7,94.9,1094.1,96.7,1092.2,96.7z"/>
			</g>
		</g>
	</g>
	<g>
		<g>
			<path class="st0" d="M384.7,64.3c-1.1-0.4-1.9-0.8-2.5-1.2V65h-10.6v-1.8c-1.1,0.7-1.8,1-2.7,1.4l-1.7-1.9c3.7-1.5,6-3.5,8-6.7
				l3.1,0.5c0.2,0,0.3,0.1,0.3,0.3c0,0.1-0.1,0.2-0.2,0.3c1.1,1.2,2.3,2.3,3.7,3.1c0.8,0.5,2.5,1.4,4.3,1.9L384.7,64.3z M383.2,75.3
				c-0.2-0.3-0.5-0.8-1.4-2c-3,0.4-7.9,0.9-8.6,1c-0.5,0-2.8,0.2-3.3,0.3c-0.1,0-0.2,0.1-0.2,0.2c-0.1,0.3-0.2,0.3-0.3,0.3
				s-0.2-0.1-0.2-0.2l-0.7-2.9c1.4,0,2,0,3.1-0.1c0.5-0.9,1-1.6,2-3.5h-5v-2.1h16.1v2.1h-4.6c1.9,1.5,3.8,3.5,5.1,5.2L383.2,75.3z
				 M376.7,58.5c-1.6,1.9-2.7,3-4.5,4.3h9.4C379.7,61.6,378.4,60.6,376.7,58.5z M378.3,70l1.6-1.6h-3.3c-1,1.8-1.7,2.8-2.1,3.4
				c1.8-0.1,3.7-0.2,5.5-0.4C379.7,71.1,379.1,70.6,378.3,70z"/>
			<path class="st0" d="M378,88.1c-0.1,0.3-0.3,0.6-0.4,0.8h8c0,2.2-0.4,5.5-1.2,6.7c-0.7,1-1.7,1.3-3.5,1.4l-0.9-2.1
				c-0.6,0.7-1.4,1.4-2.7,2.3l-1.6-1.1c2.4-1.4,4.2-3.8,5-5.3h-1.1c-0.3,0.5-1,1.7-2.2,2.9c-1.1,1-2.2,1.9-3.4,2.7l-1.7-1.2
				c2.9-1.3,4.8-3.7,5.2-4.4h-1c-1.1,1.3-2,2.1-2.9,2.8l-1.7-1.2c0.6-0.4,1.1-0.7,1.9-1.5c-1.5,0.6-3.9,1.4-4.5,1.5
				c-0.8,0.2-0.9,0.2-1,0.4c-0.2,0.3-0.3,0.4-0.4,0.4c0,0-0.1,0-0.2-0.2l-0.4-2.5c0.7-0.1,1.7-0.4,2.4-0.6v-5.1h-2.1v-2.3h2.1v-4.4
				l2.5,0.2c0.1,0,0.3,0.1,0.3,0.2s-0.1,0.2-0.2,0.4c-0.1,0.1-0.3,0.2-0.3,0.3v3.2h2.3v2.3H372v4.5c0.8-0.2,1.5-0.4,2.2-0.7v1.8
				c0.8-0.8,1.2-1.4,1.6-2.3h-2.1v-1.8h12.2v1.8H378z M375.3,85.5v-6.9h8.9v6.9H375.3z M382.1,80.4h-4.7v0.9h4.7V80.4z M382.1,82.9
				h-4.7v0.9h4.7V82.9z M382.8,90.7c-0.4,0.9-0.9,2-2.5,3.8c0.6,0.1,1.1,0.1,1.2,0.1c0.6,0,0.9-0.1,1.2-0.6c0.5-1,0.6-2.2,0.7-3.4
				H382.8z"/>
		</g>
	</g>
</g>
<g>
	<path class="st0" d="M14.5,3.2C14,3.4,14,3.6,13.8,3.8c-0.4,1.2-1.1,3.3-3.4,7.7c0.8,0.2,1.6,0.5,1.6,1.1c0,0.2,0,0.3-0.4,0.7
		c-0.4,0.3-0.5,0.5-0.5,0.7V42H6V19c-0.3,0.4-0.8,1.2-1.4,1.9L0,18.1c3.5-4,6.9-9.3,9.1-17.7L14.4,2c0.3,0.1,0.7,0.2,0.7,0.6
		C15.1,2.8,14.9,3,14.5,3.2z M39.2,22c-4.3-1-6.9-2.1-10.1-4.3c-3.1,2.1-5.3,3.1-8.7,4.3l-3.2-3.2V35h-4.4V8.8L17,9.3
		c0.3,0,0.8,0.1,0.8,0.5c0,0.2-0.6,0.9-0.6,1.1v0.9c2.5-2.6,3.9-5.2,5.4-11.3l4.7,1.1c0.2,0,0.8,0.1,0.8,0.6c0,0.2,0,0.3-0.4,0.5
		c-0.5,0.3-0.6,0.4-0.7,0.8h14.4v4.5H38c-1.7,3-3,4.7-4.9,6.6c2.6,1.2,4.8,2,9.4,2.5L39.2,22z M22.9,11.9c-1.4,2.3-2.2,3-2.7,3.6
		l-3-2v4.8c3.5-0.8,5.6-1.7,8.4-3.4C24.5,13.8,23.8,13,22.9,11.9z M43.1,32.5c-0.1,0-0.7-0.1-0.9-0.1c-0.3,0-0.3,0-0.8,0.4
		c-8.7,7.5-17.7,8.7-20.8,9.2l-3.5-4.5c10.9-1.4,18-6,22.2-9.6l3.7,3.4c0.2,0.1,0.5,0.4,0.5,0.8C43.6,32.5,43.2,32.5,43.1,32.5z
		 M31.9,23.1c-0.4,0-0.4,0-0.9,0.3C27.2,26,24,27.3,21,28.4l-2.8-3.9c4.3-1.4,7.7-3.1,11.3-5.4l3.1,2.8c0.2,0.2,0.5,0.5,0.5,0.8
		C33,23.1,32.7,23.1,31.9,23.1z M37.8,27.6c-0.1,0-0.7,0-0.8,0c-0.3,0-0.3,0-0.7,0.3c-4.5,3.3-9.6,5.7-15,7.2l-3.1-4.1
		c8.2-2.4,13.4-6,16-7.8l3.7,3.3c0.2,0.2,0.5,0.5,0.5,0.8C38.4,27.6,38.1,27.6,37.8,27.6z M25.5,7.9c1.2,1.8,2.1,2.8,3.6,4.1
		c1.4-1.4,2.2-2.4,3.2-4.1H25.5z"/>
	<path class="st0" d="M96.4,19.1v16.4h14v5.3H76.1v-5.3h14.1V19.1H72.8v-5.6h17.4V0.3l5.4,0.5c0.3,0,1.8,0.2,1.8,1.1
		c0,0.3-0.1,0.5-0.5,0.7c-0.3,0.1-0.5,0.3-0.5,0.4v10.4h17.5v5.6H96.4z"/>
	<path class="st0" d="M144.1,11.8V7.6h15.6v4.2H144.1z M182.1,39.9c-2.2-1.6-4.6-3.6-7.3-7.5v9.4h-5.2V31.1
		c-1.9,3.3-4.2,6.1-8.1,9.1l-2.9-2.3v3h-4.7v-1.3h-4.2v2.1h-4.8V26.8h13.6v9c1.6-1.1,4.6-3.2,7.9-8.3h-6.7v-4.7h9.7v-2.7h-8.4V1.4
		h22.5v18.7h-8.9v2.7h10.5v4.7h-8.5c2.3,3.6,5.7,6.5,9.3,8.8L182.1,39.9z M146.2,24.4v-3.9h11.5v3.9H146.2z M146.4,18.1v-3.9h11.2
		v3.9H146.4z M146.5,5.7V1.3h11.2v4.4H146.5z M154.1,30.9h-4.2v4.2h4.2V30.9z M169.7,5.7h-3.6v3.1h3.6V5.7z M169.7,12.6h-3.6v3.8
		h3.6V12.6z M178.7,5.7h-3.9v3.1h3.9V5.7z M178.7,12.6h-3.9v3.8h3.9V12.6z"/>
	<path class="st0" d="M230.4,29.6c-1.2-1.1-2.1-1.9-3.6-3.7v15.8h-5.3v-12c-0.5,0.8-1.4,2.4-2.9,3.8l-4.5-3
		c3.4-3.9,5.6-8.4,6.7-13.4h-5.2v-5.4h5.9V8.2c-1.6,0.2-2.4,0.3-4.4,0.5L214.6,4c6.3-0.3,9.6-1.1,14.5-3.6l2.8,4.1
		c0.2,0.2,0.3,0.5,0.3,0.8c0,0.2,0,0.5-0.4,0.6c0,0-1.2,0-1.3,0c-0.4,0-0.6,0-2,0.6c-0.1,0-0.7,0.2-1.8,0.5v4.7h5.3v5.4h-5.3
		c1.9,3.4,4.1,6.3,7.2,8.8L230.4,29.6z M229.9,41.2v-5h12.1v-3.8h-6.8v-4.8h6.8v-3.7h-8.5v-4.6h22.6v4.6h-8.4v3.7h6.1v4.8h-6.1v3.8
		h8.9v5H229.9z M233.9,16.5V1.8h21.8v14.7H233.9z M250.4,6.6H239v5.1h11.4V6.6z"/>
	<path class="st0" d="M299.2,3.2c-0.5,0.2-0.5,0.4-0.7,0.6c-0.4,1.2-1.1,3.3-3.4,7.7c0.8,0.2,1.6,0.5,1.6,1.1c0,0.2,0,0.3-0.4,0.7
		c-0.4,0.3-0.5,0.5-0.5,0.7V42h-5.1V19c-0.3,0.4-0.8,1.2-1.4,1.9l-4.7-2.8c3.5-4,6.9-9.3,9.1-17.7l5.3,1.6c0.3,0.1,0.7,0.2,0.7,0.6
		C299.8,2.8,299.6,3,299.2,3.2z M323.9,22c-4.3-1-6.9-2.1-10.1-4.3c-3.1,2.1-5.3,3.1-8.7,4.3l-3.2-3.2V35h-4.4V8.8l4.2,0.5
		c0.3,0,0.8,0.1,0.8,0.5c0,0.2-0.6,0.9-0.6,1.1v0.9c2.5-2.6,3.9-5.2,5.4-11.3l4.7,1.1c0.2,0,0.8,0.1,0.8,0.6c0,0.2,0,0.3-0.4,0.5
		c-0.5,0.3-0.6,0.4-0.7,0.8H326v4.5h-3.3c-1.7,3-3,4.7-4.9,6.6c2.6,1.2,4.8,2,9.4,2.5L323.9,22z M307.6,11.9c-1.4,2.3-2.2,3-2.7,3.6
		l-3-2v4.8c3.5-0.8,5.6-1.7,8.4-3.4C309.2,13.8,308.5,13,307.6,11.9z M327.8,32.5c-0.1,0-0.7-0.1-0.9-0.1c-0.3,0-0.3,0-0.8,0.4
		c-8.7,7.5-17.7,8.7-20.8,9.2l-3.5-4.5c10.9-1.4,18-6,22.2-9.6l3.7,3.4c0.2,0.1,0.5,0.4,0.5,0.8C328.3,32.5,327.9,32.5,327.8,32.5z
		 M316.6,23.1c-0.4,0-0.4,0-0.9,0.3c-3.9,2.6-7.1,3.9-10.1,4.9l-2.8-3.9c4.3-1.4,7.7-3.1,11.3-5.4l3.1,2.8c0.2,0.2,0.5,0.5,0.5,0.8
		C317.7,23.1,317.4,23.1,316.6,23.1z M322.5,27.6c-0.1,0-0.7,0-0.8,0c-0.3,0-0.3,0-0.7,0.3c-4.5,3.3-9.6,5.7-15,7.2l-3.1-4.1
		c8.2-2.4,13.4-6,16-7.8l3.7,3.3c0.2,0.2,0.5,0.5,0.5,0.8C323.1,27.6,322.8,27.6,322.5,27.6z M310.2,7.9c1.2,1.8,2.1,2.8,3.6,4.1
		c1.4-1.4,2.2-2.4,3.2-4.1H310.2z"/>
	<path class="st0" d="M380.3,17.2v19.5c0,3.4-2.5,5.3-5.5,5.3h-4.6l-2.8-6.4c2.3,0.4,3.5,0.6,4.3,0.6c1.3,0,2.2-0.3,2.2-2V12
		l2.6,0.9c1.3-0.8,4.4-2.7,7-5.5h-25.4V1.8H393l3.6,4.3C393.8,8.1,386.5,13.2,380.3,17.2z"/>
	<path class="st0" d="M440.2,18.2v3h8.5V35c0,3-2.5,3.4-6,4l-2.2-4.5c2.1,0,3.1,0,3.1-1.3v-7.4h-3.4v16.1h-5V25.8h-3.4v13.7h-5V21.2
		h8.4v-3H425v-4.7h10.1v-3.3h-4.7c-0.3,0.7-0.5,1.1-1.2,2.4l-5-1.4c1.1-1.6,2.8-4.5,4.2-9l4.5,0.9c0.1,0,0.9,0.2,0.9,0.6
		c0,0.5-0.5,0.5-1.1,0.7l-0.4,1.2h2.8V0.4l4.8,0.2c0.3,0,1.1,0.1,1.1,0.5c0,0.4-0.4,0.7-0.9,1.1v3.4h8.2v4.7h-8.2v3.3h9.8v4.7H440.2
		z M456.3,7.6v24.7h-4.8V5.8l4.3,0.1c0.3,0,1.4,0,1.4,0.6C457.2,6.9,456.9,7.1,456.3,7.6z M465.3,2.2c-0.3,0.3-0.4,0.4-0.4,0.7v34
		c0,4.8-2.4,5-7.8,5.1l-2.7-5.1c2,0.1,3.5,0.1,3.8,0.1c0.5,0,1.7,0,1.7-1.5v-35l4.8,0.4c0.3,0,1.1,0.1,1.1,0.6
		C465.8,1.6,465.6,1.9,465.3,2.2z"/>
	<path class="st0" d="M510.6,3.6c-0.8,0.4-0.9,0.5-1.2,1.2c-0.8,1.9-1.3,3-2.8,5.9l0.7,0.3c0.1,0,0.2,0.3,0.2,0.5
		c0,0.4-0.3,0.6-0.5,0.8c-0.2,0.1-0.7,0.5-0.7,0.9v28.5h-5.5V19.6c-0.5,0.7-1,1.2-1.6,1.8l-4.8-3c5.1-5.6,7.3-9.5,9.8-17.5l6.3,1.5
		c0.3,0.1,0.5,0.3,0.5,0.5C511,3.2,510.8,3.4,510.6,3.6z M524.2,12.5v4.8h10.9v4.9h-10.9V27h12.5v5.3h-12.5v9.1h-5.6v-29H517
		c-1.9,3.5-3.4,5.5-5.2,7.6l-5.1-2.7c4.8-5,7-9,9.2-16.7l5.8,1.7c0.2,0.1,0.4,0.3,0.4,0.5c0,0.1,0,0.3-0.3,0.5
		c-0.1,0.1-0.8,0.4-0.9,0.5c-0.1,0.1-1.2,3-1.4,3.5h18v5.1H524.2z"/>
	<path class="st0" d="M604.6,41.4c-1.4-0.5-4.7-1.7-8.3-4.4c-4.8-3.7-6.8-7.8-7.8-9.8h-2.2l0,8c2.3-0.3,4.2-0.6,6.6-1.2l-0.2,4.7
		c-6.3,1.4-11,2.3-14,2.8c-0.8,0.1-1.1,0.1-1.5,0.4c-0.1,0.1-0.7,0.8-0.9,0.8c-0.5,0-0.7-0.7-0.8-1.2l-0.6-4.8c0.8,0,1.5,0,5.8-0.6
		v-8.8h-5.4c-0.4,3.4-1.4,8.2-4.1,13.5l-5.1-1.6c0.6-1.2,1.8-3.4,2.7-7.1c1.1-4.1,1.8-9,1.8-14.8c0-4.9-0.3-11.1-0.6-16.5h37.4V12
		h-12l3,0.5c0.7,0.1,1.5,0.2,1.5,0.7c0,0.3-0.4,0.5-0.7,0.6v1.6h7.8v4.1h-7.8v3.4h9.2v4.3h-5.2l2.9,2.6c0.1,0.1,0.3,0.3,0.3,0.5
		c0,0.4-0.3,0.4-0.8,0.4c-0.7,0-0.9,0.1-1.2,0.3c-0.8,0.7-2.1,1.6-3.7,3.2c2.5,1.5,4.9,2.4,7.9,3L604.6,41.4z M582.1,19.5h-4.9v-4.1
		h4.9V12h-6.2v5.5c0,1.1,0,3.2-0.1,5.5h6.3V19.5z M602.2,4.9h-26.4v2.8h26.4V4.9z M594,12h-10.5l3,0.5c0.1,0,1.3,0.2,1.3,0.7
		c0,0.2-0.3,0.4-0.5,0.6v1.6h6.7V12z M594,19.5h-6.7v3.4h6.7V19.5z M594.1,27.2c1.3,2.3,2.5,3.5,3.3,4.1c1.8-1.3,2.9-2.6,4-4.1
		H594.1z"/>
	<path class="st0" d="M648,42V0h4.5v42H648z"/>
	<path class="st0" d="M703.7,3.2c-0.5,0.2-0.5,0.4-0.7,0.6c-0.4,1.2-1.1,3.3-3.4,7.7c0.8,0.2,1.6,0.5,1.6,1.1c0,0.2,0,0.3-0.4,0.7
		c-0.4,0.3-0.5,0.5-0.5,0.7V42h-5.1V19c-0.3,0.4-0.8,1.2-1.4,1.9l-4.7-2.8c3.5-4,6.9-9.3,9.1-17.7l5.3,1.6c0.3,0.1,0.7,0.2,0.7,0.6
		C704.3,2.8,704.1,3,703.7,3.2z M728.4,22c-4.3-1-6.9-2.1-10.1-4.3c-3.1,2.1-5.3,3.1-8.7,4.3l-3.2-3.2V35H702V8.8l4.2,0.5
		c0.3,0,0.8,0.1,0.8,0.5c0,0.2-0.6,0.9-0.6,1.1v0.9c2.5-2.6,3.9-5.2,5.4-11.3l4.7,1.1c0.2,0,0.8,0.1,0.8,0.6c0,0.2,0,0.3-0.4,0.5
		c-0.5,0.3-0.6,0.4-0.7,0.8h14.4v4.5h-3.3c-1.7,3-3,4.7-4.9,6.6c2.6,1.2,4.8,2,9.4,2.5L728.4,22z M712.1,11.9
		c-1.4,2.3-2.2,3-2.7,3.6l-3-2v4.8c3.5-0.8,5.6-1.7,8.4-3.4C713.7,13.8,713,13,712.1,11.9z M732.3,32.5c-0.1,0-0.7-0.1-0.9-0.1
		c-0.3,0-0.3,0-0.8,0.4c-8.7,7.5-17.7,8.7-20.8,9.2l-3.5-4.5c10.9-1.4,18-6,22.2-9.6l3.7,3.4c0.2,0.1,0.5,0.4,0.5,0.8
		C732.8,32.5,732.4,32.5,732.3,32.5z M721.1,23.1c-0.4,0-0.4,0-0.9,0.3c-3.9,2.6-7.1,3.9-10.1,4.9l-2.8-3.9
		c4.3-1.4,7.7-3.1,11.3-5.4l3.1,2.8c0.2,0.2,0.5,0.5,0.5,0.8C722.2,23.1,721.9,23.1,721.1,23.1z M727,27.6c-0.1,0-0.7,0-0.8,0
		c-0.3,0-0.3,0-0.7,0.3c-4.5,3.3-9.6,5.7-15,7.2l-3.1-4.1c8.2-2.4,13.4-6,16-7.8l3.7,3.3c0.2,0.2,0.5,0.5,0.5,0.8
		C727.5,27.6,727.3,27.6,727,27.6z M714.7,7.9c1.2,1.8,2.1,2.8,3.6,4.1c1.4-1.4,2.2-2.4,3.2-4.1H714.7z"/>
	<path class="st0" d="M786.6,19.1v16.4h14v5.3h-34.4v-5.3h14.1V19.1h-17.4v-5.6h17.4V0.3l5.4,0.5c0.3,0,1.8,0.2,1.8,1.1
		c0,0.3-0.1,0.5-0.5,0.7c-0.3,0.1-0.5,0.3-0.5,0.4v10.4h17.5v5.6H786.6z"/>
	<path class="st0" d="M834.7,24.5v-6.6h40.4v6.6H834.7z"/>
	<path class="st0" d="M933.3,32.4v9.5h-6v-9.5h-20.4v-5.1h6.9V15.9h13.5v-5.8h-11c-2.7,4.4-4.2,6-5.4,7.2l-5.2-2.7
		c4.5-4.5,7.6-9.7,9.3-14.6l5.9,2.2c0.2,0.1,0.3,0.3,0.3,0.4c0,0.1-0.1,0.3-0.2,0.4c-0.1,0-0.9,0.2-1,0.4c-0.1,0-1,1.6-1.1,1.8h26.6
		v4.8h-12.4v5.8h8.4v4.9h-8.4v6.5h14.7v5.1H933.3z M927.3,20.8h-7.7v6.5h7.7V20.8z"/>
	<path class="st0" d="M986.7,28.5c-1.9,4.5-2.4,5.4-4.5,9.4c-0.4,0.8-0.5,0.9-0.5,1.2c0,0.1,0.1,0.8,0.1,1c0,0,0,0.4-0.4,0.4
		c-0.2,0-0.6-0.2-0.9-0.4l-4.5-3.4c3.3-4.2,6.5-10.7,8.6-16.3l3.6,3.8C987.6,26.3,987.2,27.2,986.7,28.5z M982.4,14
		c-2.3-2.8-4-4.4-6.2-6l3.6-4c2.7,1.9,4.8,4.1,6.6,6.3L982.4,14z M1015,40.9c-5.2-3.8-8.6-7-12.2-13.7c-2.8,6.6-5.9,10.3-13.4,14.3
		l-3.9-4.1c2.5-1,7.3-3,10.8-8.8c3.4-5.6,3.6-11.6,3.6-14.6l4.8,0.2c0.8,0,1.6,0,1.6,0.7c0,0.2-0.1,0.4-0.3,0.5
		c-0.6,0.4-0.6,0.4-0.7,0.6c-0.1,1.1-0.2,1.9,0,3.1c0.5,2.5,2.2,6.2,2.5,6.7c3.6,6.1,8.8,9.2,11.3,10.8L1015,40.9z M1013.2,22.3
		l-5.1-2.3c1.3-2,2.8-4.8,3.7-7.5h-15.1c-1.9,3.8-2.9,5.4-3.7,6.5l-5.1-2.4c4.4-5.4,6.5-11.8,7.6-16l4.8,1.3
		c1.4,0.4,1.4,0.6,1.4,0.8c0,0.1,0,0.2-0.2,0.3c-0.1,0-1,0.3-1.1,0.5c-0.1,0.1-1.3,3.4-1.6,4h17l2.8,2.5
		C1018.2,11.9,1015.5,18,1013.2,22.3z"/>
	<path class="st0" d="M1087.7,39.4c-1.2,2.1-2.3,2.3-3.2,2.3c-3.9,0-8-5.2-9.2-6.9c-2.8,2.8-5,4.6-8.4,6.9l-3.9-3.8
		c3.6-2.1,6.1-4,9.6-7.9c-1.7-4.1-2.9-7.9-3.9-16.9H1057c0,2.6,0,3.6-0.1,4.9h10.5c-0.1,5.3-0.4,10.8-1.3,14.2
		c-0.4,1.4-1.2,4.3-6.1,4.3h-2.1l-2.4-4.3c-0.7,3.5-1.4,5.7-2.9,8.8l-5.1-1.5c1.9-4,4.3-9.8,4.3-22.8c0-3.2-0.1-5.6-0.3-8.5h16.8
		c-0.2-3.6-0.2-5.3-0.2-7.9l6,0.6c0.4,0,0.7,0.3,0.7,0.6c0,0.3-0.2,0.5-0.4,0.7c-0.6,0.6-0.6,0.8-0.6,1.5c0,1.5,0,3,0,4.5h7.4
		c-2-2.5-3.3-3.7-4.1-4.4l3.5-3c1.2,1.2,2.5,2.4,4.4,4.9l-2.7,2.4h7.1v4.8h-15.3c0.5,5.9,1.1,8.5,2.2,11.8c2.2-3.6,3.4-6.2,4.6-10.1
		l5.1,2.7c0.3,0.1,0.4,0.3,0.4,0.6c0,0.4-0.3,0.5-0.5,0.6c-0.9,0.5-0.9,0.5-1.2,1.1c-1.5,3.7-2.6,6.2-5.9,10.7c0.7,1,3,4.7,4.7,4.7
		c1,0,1.4-2.2,1.8-3.9l4.5,2.6C1089.6,34.8,1088.9,37.1,1087.7,39.4z M1056.7,23c-0.3,4.3-0.6,6-1,8.2c1,0.1,2.2,0.3,3.7,0.3
		c0.9,0,1.5-0.2,1.8-0.9c0.2-0.5,0.7-2.6,0.7-7.6H1056.7z"/>
	<path class="st0" d="M1145.8,27c3.8,4.5,8.7,7.3,14.5,9l-3.6,4.5c-7.4-2.9-11.7-7.4-13.8-9.8V42h-5.3V30.3
		c-3.6,4.7-8.4,8.3-13.7,10.9l-3.7-4c3.1-1.3,10-4.5,13.9-10.2h-14.4v-4.7h17.9v-3.1H1125V1.3h31v17.9h-13v3.1h18.2V27H1145.8z
		 M1137.7,5.3h-7.4v3h7.4V5.3z M1137.7,12h-7.4v3h7.4V12z M1150.6,5.3h-7.6v3h7.6V5.3z M1150.6,12h-7.6v3h7.6V12z"/>
	<path class="st0" d="M1229.9,21.3c-2.7-1.3-4.6-2.4-7.2-4.6v2.4h-3.1v5h9.4v4.4h-9.4v6.7c0,1.1,0.6,1.6,1.7,1.6h4.8
		c1.1,0,2.1-1.8,2.5-5l4.4,3c-0.3,1.8-1,3.7-2.2,5.1c-0.8,1-1.6,1.6-4.2,1.6h-8.5c-2.3,0-3.8-1.2-3.8-3.4v-9.6h-5
		c-1.2,6.8-6,11.7-13.1,13.6l-3.3-4.6c7.5-1.1,10.6-5.4,11.7-9.1h-8.4V24h8.7v-5h-2.3v-2.2c-2.9,2.5-5.6,4.4-8.6,6.1l-3.9-3.7
		c2.9-1.3,5.3-2.7,8.1-4.9c-1.6-1.8-3.4-3.3-4.3-4l3.4-3h-2.7V2.9h15.9l1.1,1.2c-2.4,5-4.2,7.6-6.9,10.6h15.6
		c-4.3-4.4-6.8-8.9-8.2-12.3l4.7-1.8c0.6,1.6,1.2,3.2,2.2,4.6c1.6-1.7,2.5-2.7,3.6-4.1l3.7,2.3c0.1,0.1,0.6,0.4,0.6,0.8
		c0,0.1-0.1,0.5-0.6,0.5c-0.8,0-0.9,0-1.2,0.3c-1.8,2-2.7,2.8-3.6,3.7c0.7,0.9,1.1,1.3,2,2.2c1.8-1.8,2.9-3.1,4.4-4.9l3.8,1.9
		c0,0,0.7,0.4,0.7,0.9c0,0.2-0.1,0.4-0.3,0.5c-0.1,0-0.9,0.1-1.1,0.2c-0.3,0.1-3.6,3.6-4.3,4.2c1.9,1.2,3.6,2.2,6.8,3.3L1229.9,21.3
		z M1198.3,7.3c1.5,1.4,2.4,2.3,3.4,3.6c1.2-1.4,1.7-2.4,2.3-3.6H1198.3z M1214.4,19.1h-4.5v5h4.5V19.1z"/>
	<path class="st0" d="M1300.6,40.8c-2.9-1.2-11.5-4.8-17.8-16.6c-1.1,0.9-2.1,1.6-4.6,3.2v6.6c2.5-0.5,5.2-1.2,9.3-2.3l0.1,4.4
		c-4,1.3-10.2,3.2-18.4,5.3c-1,0.2-1.1,0.3-1.3,0.7c-0.1,0.5-0.2,0.6-0.4,0.6c-0.4,0-0.7-0.8-0.8-1.1l-1.8-5.2
		c2.4-0.1,4.7-0.5,8-1.2v-4.8c-3,1.5-4.6,2.2-7.3,3.3l-3.6-3.9c3.9-1.2,11.1-3.9,16.6-8.8h-15.6v-4.4h17.3v-2.3h-11.5V10h11.5V7.7
		h-16.1V3.5h16.1V0.1l5.2,0.3c0.6,0,1.3,0.1,1.3,0.5c0,0.3-0.2,0.5-0.3,0.6c-0.1,0-0.3,0.3-0.3,0.4v1.5h16.7v4.2h-16.7V10h12v4.2
		h-12v2.3h17.8v4.4h-5.8l2.8,2.8c0.2,0.2,0.5,0.6,0.5,1c0,0.4-0.1,0.4-1.1,0.4c-0.4,0-0.4,0-1.1,0.6c-1.8,1.5-3.7,3.1-5.7,4.4
		c3,2.9,6.8,4.9,10.6,6.4L1300.6,40.8z M1286.6,20.9c1,2.1,2.4,4.2,4,6c1.9-1.1,4.7-3.5,6.1-6H1286.6z"/>
</g>
</svg>
