<?xml version="1.0" encoding="utf-8"?>
<!-- Generator: Adobe Illustrator 19.2.1, SVG Export Plug-In . SVG Version: 6.00 Build 0)  -->
<svg version="1.1" id="レイヤー_1" xmlns="http://www.w3.org/2000/svg" xmlns:xlink="http://www.w3.org/1999/xlink" x="0px"
	 y="0px" viewBox="0 0 1401.8 603.4" style="enable-background:new 0 0 1401.8 603.4;" xml:space="preserve">
<style type="text/css">
	.st0{fill:#FCFCFC;}
</style>
<g>
	<g>
		<g>
			<path class="st0" d="M2.8,225.4V3.3C2.8,1.5,4.3,0,6.1,0h72.4c1.4,0,2.8,1.1,3.2,2.4l39,133.9c1.8,6.1,4.7,6.1,6.4,0L165,2.4
				c0.4-1.3,1.8-2.4,3.2-2.4h72.7c1.8,0,3.3,1.5,3.3,3.3v222.1c0,1.8-1.5,3.3-3.3,3.3h-47.1c-1.8,0-3.3-1.5-3.3-3.4L192,81.9
				c0.1-13.4-2.8-13.9-6.5-1l-42,145.4c-0.4,1.3-1.8,2.4-3.2,2.4h-33.6c-1.4,0-2.8-1.1-3.2-2.4l-42-145.4c-3.7-12.9-6.7-12.5-6.5,1
				l1.6,143.5c0,1.8-1.5,3.4-3.3,3.4H6.1C4.3,228.7,2.8,227.2,2.8,225.4z"/>
			<path class="st0" d="M264.2,0h122.9c1.8,0,3.3,1.5,3.3,3.3V48c0,1.8-1.5,3.3-3.3,3.3h-64.5c-1.8,0-3.3,1.5-3.3,3.3v28.9
				c0,1.8,1.5,3.3,3.3,3.3h62.3c1.8,0,3.3,1.5,3.3,3.3v44.7c0,1.8-1.5,3.3-3.3,3.3h-62.3c-1.8,0-3.3,1.5-3.3,3.3v32.6
				c0,1.8,1.5,3.3,3.3,3.3h64.5c1.8,0,3.3,1.5,3.3,3.3v44.7c0,1.8-1.5,3.3-3.3,3.3H264.2c-1.8,0-3.3-1.5-3.3-3.3V3.3
				C260.9,1.5,262.4,0,264.2,0z"/>
			<path class="st0" d="M405.6,3.3c0-1.8,1.5-3.3,3.3-3.3h72.4c25.7,0,71.4,0,101.1,42.7c15.8,21.6,21,46.1,21,71.1
				c0,62.4-30.9,115-117.8,115h-76.7c-1.8,0-3.3-1.5-3.3-3.3V3.3z M464,174.1c0,1.8,1.5,3.3,3.3,3.3H489c43.6,0,55.9-30.3,55.9-62.7
				c0-13-2.8-29.4-11.1-42.3c-6.8-10.2-18.5-21-44.5-21h-22c-1.8,0-3.3,1.5-3.3,3.3V174.1z"/>
			<path class="st0" d="M619.7,0h51.8c1.8,0,3.3,1.5,3.3,3.3v222.1c0,1.8-1.5,3.3-3.3,3.3h-51.8c-1.8,0-3.3-1.5-3.3-3.3V3.3
				C616.4,1.5,617.9,0,619.7,0z"/>
			<path class="st0" d="M743.8,228.7h-56c-2.7,0-4.1-2-3.1-4.5L772.6,2.1c0.5-1.2,1.8-2.1,3.1-2.1h45.8c1.3,0,2.6,1,3.1,2.1
				l85.2,222.1c1,2.5-0.4,4.5-3.1,4.5h-56.7c-1.3,0-2.7-1-3.2-2.3l-9.3-28.5c-0.4-1.3-1.8-2.3-3.2-2.3h-75.2c-1.3,0-2.8,1-3.2,2.3
				l-9,28.4C746.6,227.7,745.2,228.7,743.8,228.7z M792.9,79.6L772.6,145c-0.7,2.4,0.7,4.3,3.2,4.3h41.3c2.5,0,3.9-2,3.2-4.3
				l-21-65.4C797.5,74,794.6,74.1,792.9,79.6z"/>
			<path class="st0" d="M77.6,242.1c42.3,0,58.1,6.5,70.5,16.7c17.9,14.8,26.9,37.4,26.9,60.6c0,23.2-9.6,47.6-24.1,60
				c-15.8,13.3-31.2,19.8-66.8,19.8H65.8c-2.5,0-4.5,2-4.5,4.5v62.6c0,2.5-2,4.5-4.5,4.5H7.3c-2.5,0-4.5-2-4.5-4.5V246.7
				c0-2.5,2-4.5,4.5-4.5H77.6z M61.2,343.3c0,2.5,2,4.5,4.5,4.5h16.8c5.6,0,14.8,0,22.6-3.4c7.7-3.4,13.9-10.5,13.9-24.1
				s-6.5-20.1-14.5-23.5c-8-3.4-17.6-3.4-24.1-3.4H65.8c-2.5,0-4.5,2-4.5,4.5V343.3z"/>
			<path class="st0" d="M187,246.7c0-2.5,2-4.5,4.5-4.5h70.3c35.9,0,58.1,6.5,70.8,16.4c19.2,14.8,27.8,37.4,27.8,62.4
				c0,17.6-4.9,31.2-11.4,41.4c-6.7,10.5-16,17.7-25.4,22.4c-2.3,1.2-3.2,4-1.9,6.3l41.1,73.1c2.1,3.7,0.3,6.8-4,6.8h-49.8
				c-1.5,0-3.3-1.1-4-2.4l-58.4-108h9.6c14.8,0,27.5-1.2,35.2-6.2c7.1-4.6,13-15.5,13-28.1c0-12.1-5.9-21.6-13.6-26.6
				c-6.5-4-15.8-6.2-23.8-6.2H250c-2.5,0-4.5,2-4.5,4.5v168.3c0,2.5-2,4.5-4.5,4.5h-49.3c-2.5,0-4.5-2-4.5-4.5V246.7z"/>
			<path class="st0" d="M400.1,470.9h-53.3c-3.7,0-5.6-2.8-4.2-6.2l87-219.6c0.6-1.6,2.5-2.9,4.2-2.9h44.2c1.7,0,3.6,1.3,4.2,2.9
				l84.3,219.6c1.3,3.4-0.6,6.2-4.2,6.2h-54.1c-1.8,0-3.8-1.4-4.3-3.1l-8.8-26.8c-0.6-1.7-2.5-3.1-4.3-3.1h-73.4
				c-1.8,0-3.8,1.4-4.3,3.2l-8.5,26.7C403.9,469.4,401.9,470.9,400.1,470.9z M448.9,325.4l-18.6,60.1c-1,3.2,0.9,5.9,4.3,5.9h38
				c3.4,0,5.4-2.7,4.3-5.9l-19.3-60.1C455.2,317.9,451.3,317.9,448.9,325.4z"/>
			<path class="st0" d="M776.1,385.3c3.4,0,5.4,2.7,4.4,5.9c-15.2,50.8-60.7,84-114,84c-71.7,0-120.5-57.2-120.5-119
				c0-58.4,45.1-118.4,119.9-118.4c68.1,0,106.1,49.9,115,85.6c0.8,3.1-1.3,5.6-4.4,5.6l-52.5,0c-1.6,0-3.5-1.2-4.1-2.7
				c-7.2-16.6-24.3-37.2-54.2-37.2c-39.3,0-61.2,34.3-61.2,66.8c0,34.6,23.5,68,61.5,68c33.3,0,48.6-25.6,53.8-36.1
				c0.7-1.4,2.5-2.5,4.1-2.5L776.1,385.3z"/>
			<path class="st0" d="M819.3,293.5h-36c-2.5,0-4.5-2-4.5-4.5v-42.2c0-2.5,2-4.5,4.5-4.5h139.3c2.5,0,4.5,2,4.5,4.5v42.2
				c0,2.5-2,4.5-4.5,4.5h-35.7c-2.5,0-4.5,2-4.5,4.5v168.3c0,2.5-2,4.5-4.5,4.5h-49.3c-2.5,0-4.5-2-4.5-4.5V298
				C823.8,295.5,821.8,293.5,819.3,293.5z"/>
			<path class="st0" d="M948.9,242.1h49.3c2.5,0,4.5,2,4.5,4.5v219.6c0,2.5-2,4.5-4.5,4.5h-49.3c-2.5,0-4.5-2-4.5-4.5V246.7
				C944.4,244.2,946.4,242.1,948.9,242.1z"/>
			<path class="st0" d="M1247.8,385.3c3.4,0,5.4,2.7,4.4,5.9c-15.2,50.8-60.7,84-114,84c-71.7,0-120.5-57.2-120.5-119
				c0-58.4,45.1-118.4,119.9-118.4c68.1,0,106.1,49.9,115,85.6c0.8,3.1-1.3,5.6-4.4,5.6l-52.5,0c-1.6,0-3.5-1.2-4.1-2.7
				c-7.2-16.6-24.3-37.2-54.2-37.2c-39.3,0-61.2,34.3-61.2,66.8c0,34.6,23.5,68,61.5,68c33.3,0,48.6-25.6,53.8-36.1
				c0.7-1.4,2.5-2.5,4.1-2.5L1247.8,385.3z"/>
			<path class="st0" d="M1273.9,242.1h120.4c2.5,0,4.5,2,4.5,4.5v42.2c0,2.5-2,4.5-4.5,4.5h-62c-2.5,0-4.5,2-4.5,4.5v26.5
				c0,2.5,2,4.5,4.5,4.5h59.8c2.5,0,4.5,2,4.5,4.5v42.2c0,2.5-2,4.5-4.5,4.5h-59.8c-2.5,0-4.5,2-4.5,4.5V415c0,2.5,2,4.5,4.5,4.5h62
				c2.5,0,4.5,2,4.5,4.5v42.2c0,2.5-2,4.5-4.5,4.5h-120.4c-2.5,0-4.5-2-4.5-4.5V246.7C1269.3,244.2,1271.4,242.1,1273.9,242.1z"/>
		</g>
		<g>
			<g>
				<path class="st0" d="M943.5,58.7h-19.4c-2.1,0-3.7-1.7-3.7-3.7V27.1c0-2.1,1.7-3.7,3.7-3.7h61.5c2.1,0,3.7,1.7,3.7,3.7v157.1
					c0,2.1-1.7,3.7-3.7,3.7H951c-2.1,0-3.7-1.7-3.7-3.7V62.5C947.2,60.4,945.5,58.7,943.5,58.7z"/>
				<path class="st0" d="M1099.2,23.3c4.1,0,5.4,2.7,3,6L1076.8,64c-1.9,2.7-3.9,5.4-6,8.3c-0.2,0.3,0,0.6,0.3,0.6
					c1.6-0.1,5.3-0.5,7.7-0.5c24,0,51.8,18.5,51.8,55.8c0,37.6-29.1,62.7-63.8,62.7c-20.7,0-39.8-7.6-50.9-22.2
					c-10.5-11.8-14-28.7-14-41.4c0-16.7,6.9-31.4,15.1-44l39.8-58.4c0.6-0.9,2-1.6,3.1-1.6H1099.2z M1043.2,131.4
					c0,15.1,12,22.7,22.2,22.7c12.5,0,23.1-9.1,23.1-22.2c0-10.7-8-22.5-23.1-22.5c-13.3,0-22.2,10.2-22.2,21.8V131.4z"/>
				<path class="st0" d="M1211.5,96.8v28.8c0,2.1-1.7,3.7-3.7,3.7h-55c-2.1,0-3.7-1.7-3.7-3.7V96.8c0-2.1,1.7-3.7,3.7-3.7h55
					C1209.9,93.1,1211.5,94.7,1211.5,96.8z"/>
				<path class="st0" d="M1232.2,58.7h-19.4c-2.1,0-3.7-1.7-3.7-3.7V27.1c0-2.1,1.7-3.7,3.7-3.7h61.5c2.1,0,3.7,1.7,3.7,3.7v157.1
					c0,2.1-1.7,3.7-3.7,3.7h-34.5c-2.1,0-3.7-1.7-3.7-3.7V62.5C1236,60.4,1234.3,58.7,1232.2,58.7z"/>
				<path class="st0" d="M1398.8,27.1v27.7c0,0.4-0.1,1.1-0.3,1.5L1342,185.7c-0.5,1.2-2.1,2.2-3.4,2.2h-37.9
					c-3.2,0-4.8-2.4-3.4-5.3l55.7-118.5c1.4-2.9-0.1-5.3-3.4-5.3h-54.2c-2.1,0-3.7-1.7-3.7-3.7V27.1c0-2.1,1.7-3.7,3.7-3.7h99.7
					C1397.1,23.3,1398.8,25,1398.8,27.1z"/>
			</g>
		</g>
	</g>
	<g>
		<g>
			<path class="st0" d="M38.8,538.5c-6.1-3.1-9.6-5.6-14.2-10.6v11.6h-5.9v-11.8c-2.6,2.8-6.5,7-14.5,11l-4.3-4
				c5.4-1.9,9-4.1,14.9-10.2h-9v-16.5h12.9v-2.6h-18v-4.7h18v-4.1l6,0.4c0.6,0,0.7,0.3,0.7,0.5c0,0.1-0.2,0.3-0.3,0.4
				c-0.4,0.3-0.5,0.4-0.5,0.7v2.1h18v4.7h-18v2.6h13v16.5h-9.6c3.3,3.4,6.6,5.9,14.6,9.7L38.8,538.5z M18.8,511.8h-7.3v2.3h7.3
				V511.8z M18.8,518.1h-7.3v2.4h7.3V518.1z M32,511.8h-7.4v2.3H32V511.8z M32,518.1h-7.4v2.4H32V518.1z"/>
			<path class="st0" d="M47.5,505.6v-4.7h18.3v-4.4l6.8,0.8c0.3,0.1,0.6,0.1,0.6,0.5c0,0.1-0.1,0.3-0.3,0.4
				c-0.6,0.4-0.9,0.6-0.9,0.7v1.9H90v4.7H47.5z M62.9,527.9c-0.6,0.1-0.7,0.2-0.8,0.3c-4,5.1-4.9,6.2-8.5,9.5l-5.2-3
				c4.7-3.9,7.3-7.4,9.5-11.2l5.3,3.3c0.1,0.1,0.2,0.3,0.2,0.5C63.4,527.7,63.1,527.9,62.9,527.9z M71.5,522.7v11.8
				c0,1.6-0.4,3.7-2.2,4.3c-1.1,0.4-3.1,0.7-6.3,0.8l-2.4-5.7c1.2,0.1,2.1,0.3,3.2,0.3c1.3,0,1.8-0.5,1.8-1.4v-10H53.2v-14.2h31
				v14.2H71.5z M78.2,513.1h-19v5h19V513.1z M83.2,537.9c-2.6-4.1-5.5-7.3-9.1-10.3l3.9-4c3.9,3.2,6.9,6.5,9.9,10.4L83.2,537.9z"/>
			<path class="st0" d="M136.8,524.9c-0.7,1.2-1.3,1.4-2,1.4c-0.9,0-3.9-0.5-5.6-5.9l-2,3.6c-0.9-0.9-2-1.6-3-2.2
				c-0.9,1.3-1.7,2-2.9,2.8h7.6v3.5h-26.4v-1.8c-1.9,0.1-3.3,0.2-5,0.2c-0.1,0.1-0.4,0.1-0.6,0.3c-0.3,0.3-0.3,0.3-0.5,0.3
				c-0.3,0-0.5-0.2-0.6-1.1l-0.4-3.5c3.2,0,6.6-0.2,9.1-0.3v-1.3h-4.8v-1.8c-0.7,0.4-0.9,0.5-2.6,1.2l-2.6-3.5
				c1.3-0.3,3.2-1.1,4.5-3h-4.3v-3.2h9v-1.2H97v-3.2h6.4v-1.5h2.3v-1.7H94.5v-4.2h11.2v-2.5l5.6,0.4c0.7,0,1.3,0.1,1.3,0.6
				c0,0.2,0,0.3-0.6,0.7c-0.2,0.1-0.2,0.2-0.2,0.7h8.3v-2.4l5.8,0.2c1,0,1.2,0.3,1.2,0.6c0,0.2-0.1,0.4-0.5,0.6
				c-0.5,0.3-0.5,0.3-0.5,1h11v4.2h-11v2.8l1.7,0.2c0.8,0.1,1.2,0.2,1.2,0.6c0,0.2-0.1,0.3-0.4,0.6c-0.4,0.3-0.4,0.4-0.5,1.8h6.1
				c-0.4,1.9-0.8,4.3-0.8,6.2c0,1,0.2,3.7,0.8,3.7c0.3,0,0.8-1,1-2.2l3.5,3C138.2,522.4,137.2,524.3,136.8,524.9z M130.4,533.3
				c1.8,1,3.4,2.1,4.8,3.5l-3.2,3.6c-1.3-1.3-3.3-2.6-4.4-3.3c-2.6,0.3-13.8,1.8-28.2,2.5c-0.7,0-0.9,0-1.3,0.4
				c-0.4,0.4-0.4,0.5-0.7,0.5c-0.4,0-0.4-0.3-0.5-0.9l-0.7-4c2.8,0,9.1-0.2,12-0.3c0.5-0.7,0.8-1.5,1-1.9H94.5v-3.6h42.7v3.6H130.4z
				 M108.1,513.8H101l2.2,1.2c0.2,0.1,0.5,0.3,0.5,0.6s-0.5,0.4-1,0.4c-0.2,0.2-0.6,0.6-0.8,0.9h2.4v-1.5l3.8,0.3V513.8z M120,505.8
				v-2.9h-8.3v2.1h-3v1.2h5.9v3.2h-5.9v1.2h7.7v3.2h-4.1v1.6c0,0.3,0,0.7,0.6,0.7s0.9-0.4,1.1-1.5l3.3,1.6c-0.1,2.5-1.4,3.3-3.1,3.3
				h-1.8v1.3h-3.1v1c2.1-0.1,3.5-0.3,4.8-0.4l-1.4,3h4.4l-2.8-2c2.4-0.7,3.9-1.4,5.6-3.1c-0.8-0.4-1.6-0.8-2.6-1.2l2.4-3.6
				c0.8,0.3,1.2,0.5,2.3,1c0.3-0.9,0.3-1,0.6-2.3h-4v-4.1h4.3c0-0.7,0-2.5,0-3.3H120z M121.1,533.3h-6.4c-0.4,1-0.4,1.1-0.7,1.6
				c5.3-0.3,6.5-0.4,9-0.6C122.8,534.1,121.4,533.5,121.1,533.3z M127.6,513.2c-0.4,2.3-0.7,3.3-1.2,4.3c1.4,0.7,1.9,1,2.4,1.3
				c0-0.2-0.1-1.2-0.1-2.1c0-1,0.1-1.8,0.2-3.6H127.6z"/>
			<path class="st0" d="M181.6,514.2v19.5c0,4.4-1.3,5.9-5.7,5.9h-3.1l-1.7-5.3c0.8,0,3.7,0,4.1,0c0.5,0,0.9-0.2,0.9-1.5v-18.6h-5.8
				V511h-5.3v28.7h-5.2V511h-6.2v-0.9c-0.3,0.5-0.7,1.3-2.1,3.3c0.3,0.1,0.9,0.4,0.9,1c0,0.2-0.1,0.4-0.3,0.5
				c-0.6,0.6-0.7,0.7-0.7,1.1v13.5c1.5-4.9,2-8.7,2.2-14.8l5,0.7c0.5,0.1,0.9,0.4,0.9,0.7c0,0.4-0.6,0.7-0.9,0.8
				c-0.2,5.3-1.1,11.6-2.3,14.6l-4.9-1.1v9.2h-5.5v-18.9c-0.7,0.8-0.8,0.9-1.6,1.8l-4.5-3.4c4.1-3.7,7.4-8.3,9.8-13.3l4.1,2v-2.2
				h6.2v-9.3l5.1,0.2c0.5,0,1.1,0.2,1.1,0.7c0,0.1,0,0.3-0.3,0.5c-0.4,0.3-0.6,0.5-0.6,0.9v6.9h5.5v3.5h13.6v5H181.6z M153.3,500.9
				c-0.5,0-0.7,0-1,0.4c-2.9,2.9-5.2,4.7-7.9,6.6l-4-3.9c3.3-2.1,6.4-4.5,8.9-7.5l3.7,2.8c0.7,0.5,0.8,0.7,0.8,1
				C153.9,500.8,153.6,500.9,153.3,500.9z M167.1,504.8c-0.6-3.3-1.3-4.6-1.6-5.3l3.7-1.1c0.9,1.9,1.5,3.4,2,5.4L167.1,504.8z
				 M167.7,530.6c0-3.4-0.2-8.3-1.2-15.4l4.7-0.5c0.8,5,1.2,9.4,1.3,14.8L167.7,530.6z M171.8,503.3v-4.9h12v4.9H171.8z"/>
			<path class="st0" d="M226.7,539.8c-9.9-6.1-13.4-10.7-16.9-18.5c-4.6,9.7-9.2,14.6-17.8,18.8l-4.8-4.4
				c11.4-4.6,16-11.3,18.5-21.7h-17.1v-5.4h17.7c0.2-2.2,0.2-4.7,0.2-5.5c0-2.9-0.1-5-0.2-6.6l6.6,0.3c0.3,0,0.8,0,0.8,0.6
				c0,0.4-0.5,0.8-0.9,1.2c-0.1,1-0.1,0.4-0.1,2.9c0,0.4-0.1,4.7-0.2,7H231v5.4h-18.1c3,9.6,6.9,15.1,18.9,21L226.7,539.8z"/>
			<path class="st0" d="M271.4,517.7v-6h-29.3v6.2h-5.3v-10.9h24.5c2.4-2.9,4.5-5.9,6-9.4l4.9,1.6c0.3,0.1,0.8,0.4,0.8,0.8
				c0,0.2-0.1,0.2-0.2,0.3c-0.1,0.1-1.2,0.4-1.4,0.6c-1,1.9-2,3.5-3.9,6h9.3v10.6H271.4z M259.9,528.3v7.5c0,3.5-2.9,4.3-5.9,4.3
				h-3.1l-2.2-5.3c0.6,0,3.4,0.3,4,0.3c0.8,0,1.2-0.7,1.2-1.5v-5.4h-17.1v-4.9h17.1v-3.1l2.4,0.4c1.1-0.9,1.5-1.5,1.9-2.1h-13.2V514
				h22.4l1.4,2.2c-2.2,2-6.1,5.3-8.8,7.2h16.8v4.9H259.9z M244.3,506.6c-1.2-2.4-2.3-4.3-4.3-6.6l4.5-2.8c1.6,1.9,3.1,3.8,4.4,6.4
				L244.3,506.6z M255.6,505.6c-1.2-2.5-2.5-4.6-4.6-7.2l4.5-2.7c2.3,2.7,3.7,5,4.8,7.3L255.6,505.6z"/>
			<path class="st0" d="M334.7,539.8c-9.9-6.1-13.4-10.7-16.9-18.5c-4.6,9.7-9.2,14.6-17.8,18.8l-4.8-4.4
				c11.4-4.6,16-11.3,18.5-21.7h-17.1v-5.4h17.7c0.2-2.2,0.2-4.7,0.2-5.5c0-2.9-0.1-5-0.2-6.6l6.6,0.3c0.3,0,0.8,0,0.8,0.6
				c0,0.4-0.5,0.8-0.9,1.2c-0.1,1-0.1,0.4-0.1,2.9c0,0.4-0.1,4.7-0.2,7h18.6v5.4h-18.1c3,9.6,6.9,15.1,18.9,21L334.7,539.8z"/>
			<path class="st0" d="M379.4,517.7v-6h-29.3v6.2h-5.3v-10.9h24.5c2.4-2.9,4.5-5.9,6-9.4l4.9,1.6c0.3,0.1,0.8,0.4,0.8,0.8
				c0,0.2-0.1,0.2-0.2,0.3c-0.1,0.1-1.2,0.4-1.4,0.6c-1,1.9-2,3.5-3.9,6h9.3v10.6H379.4z M367.8,528.3v7.5c0,3.5-2.9,4.3-5.9,4.3
				h-3.1l-2.2-5.3c0.6,0,3.4,0.3,4,0.3c0.8,0,1.2-0.7,1.2-1.5v-5.4h-17.1v-4.9h17.1v-3.1l2.4,0.4c1.1-0.9,1.5-1.5,1.9-2.1h-13.2V514
				h22.4l1.4,2.2c-2.2,2-6.1,5.3-8.8,7.2h16.8v4.9H367.8z M352.3,506.6c-1.2-2.4-2.3-4.3-4.3-6.6l4.5-2.8c1.6,1.9,3.1,3.8,4.4,6.4
				L352.3,506.6z M363.5,505.6c-1.2-2.5-2.5-4.6-4.6-7.2l4.5-2.7c2.3,2.7,3.7,5,4.8,7.3L363.5,505.6z"/>
			<path class="st0" d="M427.1,511.9v-5.4h-16.2v5.5h-5.2v-8.6l-4.2,9.1c1.6,2,4.4,5.5,4.4,11.5c0,6.2-5.1,7.5-8.1,8.2l-1.8-3.9
				v11.3h-5.2v-41.8h13.8l2.3,2.7l-0.5,1.1h8.8v-5.2l6.2,0.3c0.4,0,1.1,0.1,1.1,0.6c0,0.5-0.5,0.7-1,1.2v3.1h10.8v10.3H427.1z
				 M396.3,513.4l3.7-10.5h-3.9v23.1c0.2,0.1,1,0.1,1.6,0.1c2,0,3.3-1,3.3-3.4C401,518,397.8,514.8,396.3,513.4z M428.2,539.5h-6
				c-2.1,0-3-1.7-3-3.4v-14h-6.3l3.9,1.3c0.4,0.1,1.2,0.4,1.2,1.1c0,0.3-0.1,0.5-1.2,1c-0.7,7.4-3.2,11.3-11.6,14.3l-4.4-4.6
				c2-0.4,6.7-1.4,8.8-4.1c1.9-2.4,2-7.4,2-8.9h-5.5v-4.9h26.6v4.9h-8.1v10.4c0,0.7,0.3,1.1,1,1.1h0.9c1.4,0,1.4-2.7,1.3-4.7
				l5.3,2.6C432.6,536.1,431.8,539.5,428.2,539.5z M412.3,514v-4.8h13v4.8H412.3z"/>
			<path class="st0" d="M442.8,529.3v4.7h-4.7v-33.6h12.8v29H442.8z M446.2,505.6h-3.4v6.7h3.4V505.6z M446.2,517.4h-3.4v6.7h3.4
				V517.4z M476.2,540c-4.7-3-8.9-6.9-11.5-11.9c-0.7,1.3-2.3,4.1-5.5,7c-3.3,2.9-6.3,4.3-7.6,4.9l-3.9-4.3c2.2-0.7,5.6-1.7,9-5.2
				c3.2-3.2,4-6.2,4.4-7.7h-8.8v-5.1h1.9v-13.2h8.3v-7.8l6,0.3c0.4,0,0.7,0.2,0.7,0.6c0,0.3-0.2,0.6-0.3,0.7
				c-0.7,0.6-0.8,0.7-0.8,1.1v5h9v13.2h2.7v5.1h-12.1c2.4,5.7,6.1,9.6,13.2,12.9L476.2,540z M462.4,509.6H459v8.1h3.1
				c0.1-0.9,0.3-2.2,0.3-4.5V509.6z M471.7,509.6H468c0,1.1,0,5-0.2,8.1h3.9V509.6z"/>
			<path class="st0" d="M527,521.9c0.6,0.5,0.7,0.7,0.7,1c0,0.6-0.2,0.6-2,0.6c-0.3,0-1.4,0.9-1.8,1.2c-0.2,0.2-1.1,0.8-2.1,1.5
				c2.9,4.8,6.3,6.9,7.5,7.7l-4.1,3.6c-6.5-4.9-10.4-12.4-11.4-20.5c-0.7,0.6-1.3,1.2-3,2.4c4.7,4.3,5.3,10,5.3,12.6
				c0,6.3-2.4,7.7-7.7,7.8l-2.1-4.5c3.6,0.1,5.2-0.1,5.2-4.1c-4.5,3.6-8.6,5.8-12.1,7.5l-2.8-3.5c7-2.5,11.3-5.9,13.9-8.3
				c-0.2-0.6-0.5-1.1-0.7-1.4c-3.1,2.7-5.6,4.5-11.5,7.3l-3.2-3.2c2.2-0.8,7.8-2.7,12.7-7c-0.4-0.4-0.4-0.5-0.6-0.7
				c-4.3,2.6-6.4,3.6-8.6,4.6l-3.7-3.6c4-1.1,7.9-2.6,12-5.9h-7.7v-7.2c0,0-0.7,0.6-0.9,0.7l-3-2.6c0,0.4-0.1,0.5-0.7,1
				c-0.1,0.1-0.6,0.4-0.6,0.8v30.1h-5.5v-23.9c-1,1.5-1.4,2-2.1,2.8l-4.3-3.3c3.5-4.1,7.6-9.8,9.1-18.5l4.8,0.7
				c1.5,0.2,1.9,0.6,1.9,1c0,0.3-0.1,0.4-0.3,0.6c-0.2,0.1-1,0.7-1.1,0.8c-0.2,0.3-2.2,5.5-2.6,6.6c0.3,0.1,0.5,0.2,1,0.5
				c3.8-3.2,6.1-5.9,8.8-11l4.3,0.4c1.4,0.2,1.5,0.4,1.5,0.7c0,0.5-0.7,0.8-1.1,1l-0.2,0.3h11.4l1.7,1.4c-1.8,2.5-2.2,3.1-4.3,5.6
				h9.2v11.2h-7.5c0.2,2,0.5,3.5,1.2,5.4c2.3-1.8,3-2.7,3.5-3.4L527,521.9z M505.5,502.8c-1,1.2-1.2,1.6-2.3,2.9h7.6
				c0.3-0.4,1.7-2.4,2-2.9H505.5z M509.7,513.1v-3.6h-5.3v3.6H509.7z M515.2,513.1h5.6v-3.6h-5.6V513.1z"/>
			<path class="st0" d="M544.3,502.7c-0.7,4.2-1.3,6.7-2.4,10h8.7v20.5h-9.2v5.2h-4.9v-14.9c-1.1,1.5-1.9,2.3-3,3.4l-4.6-3.4
				c6.2-6.1,8.9-11.8,10-20.9h-6.8v-5h19.5v5H544.3z M545.9,517.7h-4.5v10.8h4.5V517.7z M570,518.1v21.2h-5.3v-21.2h-4
				c-0.2,4.2-0.5,8.5-2.3,13.3c-1.7,4.5-3.8,6.6-5.8,8.5l-4.7-3.2c2.2-1.8,3.8-3.1,5.2-5.9c2.1-4.1,2.4-8.6,2.6-12.6h-4v-4.9h4
				v-10.5h-2.4v-4.8h20.2v4.8H570v10.5h4.1v4.9H570z M564.7,502.7h-3.6v10.5h3.6V502.7z"/>
			<path class="st0" d="M615.4,539.2H609c-2.5,0-4.6-0.9-4.6-3.7c0-0.9,1.1-10.4,1.2-11.7l-5.8,0.1c-2,7.3-8.3,13.3-18.1,15.7
				l-4.3-5.5c9.9-1.1,15.2-5.7,16.5-9.9l-12.8,0.3v-5.4l13.7-0.3c0-0.8,0.1-2.4,0.1-5.1l5.6,0.2v-1.6v-7.9h-7l4.1,1.8
				c0.4,0.2,0.6,0.3,0.6,0.6c0,0.1-0.1,0.4-0.2,0.5c-0.1,0.1-1.1,0.4-1.2,0.5c-3,5.3-6.1,7.7-11.8,9.7l-3.6-4.5
				c2.1-0.5,4.8-1.1,7.5-3.7c2.1-2,2.6-3.6,3.1-5h-6.9v5.7h-5.4v-10.8h17.1v-2.9l6.6,0.4c0.1,0,0.9,0,0.9,0.6c0,0.1,0,0.2-0.1,0.3
				c-0.1,0.1-0.9,0.6-0.9,0.7v0.8h17.1v10.4h-3.5c-1.4,5.5-2.8,6.4-6.1,6.4h-7.9c-0.6,0-1.2-0.1-1.8-0.5c-0.1,1.3-0.1,2-0.3,3
				l11.2-0.3c-1,7-1.6,13.2-1.6,13.5c0,1.6,1.2,1.7,1.4,1.7h2.3c1.6,0,1.8-1.4,2.3-4.6l5.3,2.1C620.8,536.5,619.8,539.2,615.4,539.2
				z M614.8,504.4h-8.9v5.5c0,0.7,0.4,1.2,1.3,1.2h2.3c1.2,0,1.5-1.1,2.2-3.2l3.1,1V504.4z"/>
			<path class="st0" d="M664,526.3v13h-5.5v-11.9l-15,3l-1.1-4.8c-1.6-1-2.5-1.8-3.5-3v16.7h-5.7v-12.4c-0.9,1.6-1.9,3.3-3.2,4.7
				l-4.6-3.1c4.3-6.2,5.7-9.5,7-14.4h-6.9V509h7.6v-4.2c-2.6,0.5-4.2,0.7-6.2,0.9l-2.1-4.9c1.9,0.2,9.7-0.2,16.7-4.1l3.5,3.8
				c0.2,0.2,0.4,0.5,0.4,0.9c0,0.3-0.3,0.4-0.6,0.4c-0.2,0-1.1-0.1-1.3-0.1c-0.3,0-0.5,0-0.9,0.2c-0.7,0.3-2,0.8-3.8,1.4v5.7h6.5
				v5.2h-6.5v0.6c2.5,3.6,4.8,5.2,7.2,6.4l-3.1,3.8l15.4-3.1v-25.5l5.2,0.3c0.6,0,1.2,0.2,1.2,0.8c0,0.3-0.1,0.4-0.3,0.5
				c-0.5,0.4-0.6,0.5-0.6,0.8v21.9l4.4-0.9l0.9,5.3L664,526.3z M652.5,520.7c-1.4-1.4-3.8-3.7-7.1-5.5l3.5-4.3
				c3.1,1.7,5.3,3.7,7.3,5.7L652.5,520.7z M653.7,510.5c-1.4-1.3-3.9-3.8-7.1-5.8l3.7-4.2c2.7,1.6,5,3.4,7.4,6.2L653.7,510.5z"/>
			<path class="st0" d="M721.4,504.8c-2.2,4.7-3.4,7.6-6.8,12.7c2.2,2.4,4.1,4.4,6.5,7.6l-4.5,4.4c-1.8-2.7-3.3-4.7-5.6-7.3
				c-4.2,4.7-7.7,8.3-15.6,12.9l-4.8-4.5c9.7-5.1,13.3-9.2,16.3-12.6c-1.2-1.2-3.2-3.3-8-6.4l3.4-4.6c3.5,2.2,5.9,4.3,8.1,6.3
				c2.9-4.4,4.3-7.8,5.8-12.5l5.5,2.5c0.2,0.1,1,0.5,1,1C722.6,504.6,721.9,504.7,721.4,504.8z"/>
			<path class="st0" d="M758.5,516.9c-0.2,11.8-4.7,17.7-14.3,22l-4.6-4.2c8.7-3.1,12.9-7.2,13.1-17.8h-16.5v-5.2h37.1v5.2H758.5z
				 M742.9,504.6v-5.4H767v5.4H742.9z M775.2,507.6c-2.2-1.9-3.9-2.9-5.2-3.7l1.9-2.8c2.2,1.2,3.5,2.2,5.2,3.7L775.2,507.6z
				 M776.7,501.3c-0.8-0.8-1.8-1.6-5-3.4l1.8-2.7c3.3,1.8,4.2,2.6,5,3.4L776.7,501.3z"/>
			<path class="st0" d="M811.5,510.7c-1.2,1.4-2.8,3.3-6.7,6.5v21.6h-5.1v-17.8c-3.8,2.6-6.5,4.2-10,5.8l-3.2-4
				c2.5-1,5.9-2.4,11.7-6.6c6.6-4.8,9.3-8.3,11-10.4l4,3.3c0.2,0.1,0.3,0.3,0.3,0.5C813.4,510.5,811.9,510.7,811.5,510.7z"/>
			<path class="st0" d="M856.1,521.7l-4.6-3.9c3.1-2.8,6.4-6.2,9-10.8h-30.9v-5.4h33.3c0.6,0,1.4-0.7,1.7-1.1l4.5,4.6
				C866.7,508.7,861.5,516.3,856.1,521.7z M851.8,509.5c-0.1,0.1-0.7,0.6-0.7,0.8c-0.1,0.1-0.3,3.6-0.4,4.2
				c-1.7,14.3-10,20.5-12.7,22.4l-5.3-3.1c10.4-7.3,12.8-15.2,12.4-25.6l5.8,0.3c1,0,1.2,0,1.2,0.4
				C852,509.2,851.9,509.3,851.8,509.5z"/>
			<path class="st0" d="M879.9,529.3v4.7h-4.7v-33.6H888v29H879.9z M883.3,505.6h-3.4v6.7h3.4V505.6z M883.3,517.4h-3.4v6.7h3.4
				V517.4z M913.3,540c-4.7-3-8.9-6.9-11.5-11.9c-0.7,1.3-2.3,4.1-5.5,7c-3.3,2.9-6.3,4.3-7.6,4.9l-3.9-4.3c2.2-0.7,5.6-1.7,9-5.2
				c3.2-3.2,4-6.2,4.4-7.7h-8.8v-5.1h1.9v-13.2h8.3v-7.8l6,0.3c0.4,0,0.7,0.2,0.7,0.6c0,0.3-0.2,0.6-0.3,0.7
				c-0.7,0.6-0.8,0.7-0.8,1.1v5h9v13.2h2.7v5.1h-12.1c2.4,5.7,6.1,9.6,13.2,12.9L913.3,540z M899.5,509.6h-3.4v8.1h3.1
				c0.1-0.9,0.3-2.2,0.3-4.5V509.6z M908.7,509.6h-3.7c0,1.1,0,5-0.2,8.1h3.9V509.6z"/>
			<path class="st0" d="M964,521.9c0.6,0.5,0.7,0.7,0.7,1c0,0.6-0.2,0.6-2,0.6c-0.3,0-1.4,0.9-1.8,1.2c-0.2,0.2-1.1,0.8-2.1,1.5
				c2.9,4.8,6.3,6.9,7.5,7.7l-4.1,3.6c-6.5-4.9-10.4-12.4-11.4-20.5c-0.7,0.6-1.3,1.2-3,2.4c4.7,4.3,5.3,10,5.3,12.6
				c0,6.3-2.4,7.7-7.7,7.8l-2.1-4.5c3.6,0.1,5.2-0.1,5.2-4.1c-4.5,3.6-8.6,5.8-12.1,7.5l-2.8-3.5c7-2.5,11.3-5.9,13.9-8.3
				c-0.2-0.6-0.5-1.1-0.7-1.4c-3.1,2.7-5.6,4.5-11.5,7.3l-3.2-3.2c2.2-0.8,7.8-2.7,12.7-7c-0.4-0.4-0.4-0.5-0.6-0.7
				c-4.3,2.6-6.4,3.6-8.6,4.6l-3.7-3.6c4-1.1,7.9-2.6,12-5.9h-7.7v-7.2c0,0-0.7,0.6-0.9,0.7l-3-2.6c0,0.4-0.1,0.5-0.7,1
				c-0.1,0.1-0.6,0.4-0.6,0.8v30.1h-5.5v-23.9c-1,1.5-1.4,2-2.1,2.8l-4.3-3.3c3.5-4.1,7.6-9.8,9.1-18.5l4.8,0.7
				c1.5,0.2,1.9,0.6,1.9,1c0,0.3-0.1,0.4-0.3,0.6c-0.2,0.1-1,0.7-1.1,0.8c-0.2,0.3-2.2,5.5-2.6,6.6c0.3,0.1,0.5,0.2,1,0.5
				c3.8-3.2,6.1-5.9,8.8-11l4.3,0.4c1.4,0.2,1.5,0.4,1.5,0.7c0,0.5-0.7,0.8-1.1,1l-0.2,0.3h11.4l1.7,1.4c-1.8,2.5-2.2,3.1-4.3,5.6
				h9.2v11.2h-7.5c0.2,2,0.5,3.5,1.2,5.4c2.3-1.8,3-2.7,3.5-3.4L964,521.9z M942.5,502.8c-1,1.2-1.2,1.6-2.3,2.9h7.6
				c0.3-0.4,1.7-2.4,2-2.9H942.5z M946.7,513.1v-3.6h-5.3v3.6H946.7z M952.3,513.1h5.6v-3.6h-5.6V513.1z"/>
			<path class="st0" d="M1001.8,529.1v6.6c0,2.9-1.9,3.5-8.2,4.2l-2.3-5.6h3.7c0.9,0,1.3-0.3,1.3-1.5v-3.6h-14c2.8,2.3,4.1,4,5,5.3
				l-4.6,3.9c-2.5-3.3-3.9-4.6-5.5-6.1l3.3-3.1h-11.9v-4.6h27.7v-2.3h-22.8v-16h13.3v-2.5h-17.5v-4.2h17.5v-3l4.4,0.2
				c2.4,0.1,2.4,0.3,2.4,0.6c0,0.3-0.1,0.5-0.5,0.8c-0.5,0.4-0.5,0.5-0.5,1.4h18v4.2h-18v2.5h14v16h-4.8v2.3h9.3v4.6H1001.8z
				 M986.9,509.9h-7.5v2.4h7.5V509.9z M986.9,515.8h-7.5v2.5h7.5V515.8z M1000.8,509.9h-8.2v2.4h8.2V509.9z M1000.8,515.8h-8.2v2.5
				h8.2V515.8z"/>
			<path class="st0" d="M1020.2,531.8c-2.1,0.6-2.4,0.7-2.7,1.1c-0.4,0.5-0.5,0.7-0.8,0.7c-0.5,0-0.7-0.5-0.8-1.5l-0.3-5.3
				c2.4-0.4,3.6-0.6,6.3-1.2v-18.3h-6.3v-5.2h17v5.2h-5.5v17.2c2.3-0.5,4.4-1,7.2-1.7v4.8C1029.6,529.2,1025.8,530.2,1020.2,531.8z
				 M1055.4,538.7c-5.7-3.4-7.9-5.1-10.8-8.4c-3.7,3.5-6.7,5.5-14.3,9.3l-4.1-4.6c8.1-2.9,11.7-5.3,15.4-9
				c-2.3-4.3-3.3-7.6-4.3-12.5c-0.7,1.4-1.5,3-3.1,5.3l-4.6-2.1c2.5-3.6,6-9.1,7.5-20.3l4.6,0.8c1.1,0.2,1.6,0.4,1.6,0.8
				c0,0.3-0.3,0.5-0.6,0.7c-0.4,0.2-0.7,0.4-0.8,0.9c-0.2,0.8-0.5,2.1-0.7,2.9h16.8v5.2h-3.9c-1.6,9.3-3.1,13.6-6.1,18.5
				c4.1,4.8,7.7,6.6,12,8.2L1055.4,538.7z M1041.3,507.5c1,7.4,2.1,10.4,3.6,13.7c1.6-3.1,3-6.4,4.1-13.7H1041.3z"/>
			<path class="st0" d="M1104,529.7v9.8h-6.2v-9.8h-21.1v-5.3h7.1v-11.9h13.9v-6h-11.4c-2.8,4.5-4.3,6.2-5.5,7.5l-5.3-2.8
				c4.6-4.7,7.8-10.1,9.6-15.2l6.1,2.3c0.2,0.1,0.3,0.3,0.3,0.4s-0.1,0.3-0.2,0.4c-0.1,0-0.9,0.2-1,0.4c-0.1,0-1,1.7-1.1,1.9h27.4v5
				h-12.8v6h8.6v5.1h-8.6v6.7h15.1v5.3H1104z M1097.8,517.7h-8v6.7h8V517.7z"/>
			<path class="st0" d="M1133.5,525.7c-2,4.6-2.5,5.6-4.6,9.7c-0.4,0.8-0.5,0.9-0.5,1.3c0,0.1,0.1,0.8,0.1,1c0,0,0,0.4-0.4,0.4
				c-0.2,0-0.6-0.2-0.9-0.4l-4.6-3.5c3.4-4.4,6.7-11.1,8.9-16.9l3.7,3.9C1134.4,523.3,1134,524.3,1133.5,525.7z M1129.1,510.6
				c-2.3-2.9-4.1-4.5-6.4-6.3l3.7-4.1c2.8,2,5,4.2,6.8,6.5L1129.1,510.6z M1162.6,538.5c-5.3-4-8.8-7.3-12.6-14.2
				c-2.9,6.8-6,10.7-13.8,14.8l-4-4.2c2.6-1,7.5-3.1,11.1-9.1c3.5-5.8,3.7-12,3.7-15.2l4.9,0.2c0.8,0,1.6,0,1.6,0.7
				c0,0.2-0.1,0.4-0.3,0.5c-0.6,0.4-0.6,0.4-0.7,0.6c-0.1,1.1-0.2,2,0,3.2c0.5,2.6,2.3,6.5,2.6,7c3.8,6.4,9,9.6,11.7,11.2
				L1162.6,538.5z M1160.8,519.2l-5.3-2.3c1.4-2.1,2.9-5,3.9-7.8h-15.5c-2,4-3,5.6-3.8,6.8l-5.2-2.5c4.5-5.6,6.7-12.2,7.9-16.6
				l5,1.3c1.4,0.4,1.4,0.6,1.4,0.8c0,0.1,0,0.2-0.2,0.3c-0.1,0-1,0.3-1.1,0.5s-1.4,3.5-1.7,4.2h17.5l2.9,2.6
				C1165.9,508.4,1163.1,514.7,1160.8,519.2z"/>
			<path class="st0" d="M1210.9,536.9c-1.2,2.1-2.3,2.4-3.3,2.4c-4.1,0-8.2-5.4-9.5-7.1c-2.9,2.9-5.1,4.8-8.7,7.1l-4.1-3.9
				c3.7-2.1,6.3-4.1,9.9-8.2c-1.8-4.3-3-8.2-4-17.5h-12c0,2.7,0,3.7-0.1,5.1h10.8c-0.1,5.5-0.4,11.2-1.3,14.8
				c-0.4,1.4-1.2,4.5-6.3,4.5h-2.1l-2.5-4.4c-0.7,3.6-1.4,5.9-3,9.2l-5.2-1.6c2-4.2,4.4-10.2,4.4-23.6c0-3.3-0.1-5.8-0.3-8.8h17.2
				c-0.2-3.8-0.2-5.5-0.2-8.2l6.2,0.6c0.4,0,0.7,0.3,0.7,0.6c0,0.3-0.2,0.5-0.4,0.7c-0.6,0.6-0.6,0.8-0.6,1.5c0,1.5,0,3.1,0,4.7h7.7
				c-2-2.6-3.4-3.8-4.2-4.5l3.6-3.1c1.3,1.2,2.6,2.4,4.5,5.1l-2.8,2.5h7.3v5h-15.8c0.5,6.1,1.1,8.8,2.3,12.3
				c2.3-3.7,3.5-6.5,4.7-10.5l5.3,2.8c0.3,0.1,0.4,0.3,0.4,0.6c0,0.4-0.3,0.5-0.5,0.6c-0.9,0.5-0.9,0.5-1.2,1.1
				c-1.6,3.8-2.7,6.4-6,11.1c0.7,1,3.1,4.8,4.8,4.8c1,0,1.4-2.3,1.8-4.1l4.6,2.7C1212.9,532.1,1212.2,534.6,1210.9,536.9z
				 M1179,519.9c-0.3,4.4-0.6,6.2-1,8.5c1,0.1,2.2,0.3,3.8,0.3c0.9,0,1.5-0.2,1.8-0.9c0.2-0.5,0.7-2.7,0.7-7.9H1179z"/>
			<path class="st0" d="M1244.3,524.1c3.9,4.7,8.9,7.6,15,9.4l-3.7,4.7c-7.6-3-12.1-7.7-14.2-10.2v11.7h-5.4v-12.1
				c-3.7,4.9-8.7,8.6-14.1,11.3l-3.8-4.2c3.2-1.3,10.3-4.6,14.3-10.6h-14.8v-4.8h18.4V516h-13.1v-18.5h31.9V516h-13.4v3.2h18.8v4.8
				H1244.3z M1235.9,501.6h-7.7v3.1h7.7V501.6z M1235.9,508.6h-7.7v3.1h7.7V508.6z M1249.2,501.6h-7.8v3.1h7.8V501.6z M1249.2,508.6
				h-7.8v3.1h7.8V508.6z"/>
			<path class="st0" d="M1304.3,518.1c-2.8-1.3-4.7-2.5-7.4-4.8v2.5h-3.2v5.2h9.7v4.6h-9.7v6.9c0,1.1,0.6,1.7,1.7,1.7h5
				c1.1,0,2.1-1.9,2.6-5.2l4.5,3.1c-0.3,1.9-1,3.8-2.2,5.3c-0.8,1-1.6,1.6-4.3,1.6h-8.7c-2.3,0-4-1.3-4-3.5v-10h-5.1
				c-1.2,7-6.2,12.2-13.5,14.2l-3.4-4.7c7.8-1.1,10.9-5.6,12.1-9.4h-8.6V521h9v-5.2h-2.4v-2.2c-3,2.6-5.7,4.5-8.8,6.3l-4-3.9
				c3-1.3,5.5-2.8,8.4-5.1c-1.6-1.9-3.5-3.4-4.4-4.2l3.5-3.1h-2.8V499h16.4l1.1,1.2c-2.5,5.2-4.3,7.9-7.1,11h16.1
				c-4.4-4.6-7-9.3-8.5-12.8l4.8-1.9c0.6,1.6,1.2,3.3,2.2,4.7c1.7-1.7,2.6-2.8,3.7-4.3l3.8,2.4c0.1,0.1,0.6,0.4,0.6,0.8
				c0,0.1-0.1,0.5-0.6,0.5c-0.8,0-0.9,0-1.2,0.3c-1.9,2-2.8,2.9-3.7,3.8c0.7,0.9,1.1,1.3,2.1,2.2c1.8-1.9,3-3.2,4.5-5.1l3.9,2
				c0,0,0.7,0.4,0.7,0.9c0,0.2-0.1,0.4-0.3,0.5c-0.1,0-0.9,0.1-1.1,0.2c-0.3,0.1-3.7,3.7-4.4,4.4c2,1.3,3.8,2.2,7,3.4L1304.3,518.1z
				 M1271.8,503.6c1.6,1.4,2.4,2.3,3.5,3.7c1.2-1.5,1.8-2.4,2.4-3.7H1271.8z M1288.3,515.8h-4.6v5.2h4.6V515.8z"/>
			<path class="st0" d="M1350.6,538.4c-3-1.2-11.9-5-18.3-17.2c-1.1,0.9-2.1,1.6-4.7,3.3v6.8c2.6-0.5,5.3-1.2,9.6-2.4l0.1,4.5
				c-4.1,1.3-10.5,3.3-18.9,5.5c-1,0.2-1.1,0.3-1.3,0.7c-0.1,0.5-0.2,0.6-0.4,0.6c-0.4,0-0.7-0.8-0.8-1.1l-1.9-5.4
				c2.4-0.1,4.8-0.5,8.2-1.2v-5c-3.1,1.6-4.7,2.3-7.6,3.4l-3.7-4.1c4-1.3,11.4-4,17.1-9.2h-16.1v-4.6h17.8v-2.4h-11.9v-4.3h11.9V504
				H1313v-4.3h16.6v-3.5l5.4,0.3c0.6,0,1.3,0.1,1.3,0.5c0,0.3-0.2,0.5-0.3,0.6c-0.1,0-0.3,0.3-0.3,0.4v1.5h17.2v4.3h-17.2v2.4h12.4
				v4.3h-12.4v2.4h18.3v4.6h-6l2.9,2.9c0.2,0.2,0.5,0.6,0.5,1c0,0.4-0.1,0.4-1.1,0.4c-0.4,0-0.4,0-1.1,0.6c-1.9,1.6-3.8,3.2-5.9,4.5
				c3.1,3,7,5.1,10.9,6.7L1350.6,538.4z M1336.2,517.7c1,2.2,2.4,4.4,4.2,6.3c2-1.1,4.8-3.6,6.3-6.3H1336.2z"/>
			<path class="st0" d="M1397.8,514.8c-2.5-0.8-4.2-1.8-5.7-2.6v4.2h-23.8v-4.1c-2.5,1.5-4,2.3-6.2,3.2l-3.8-4.4
				c8.4-3.3,13.5-8,18-15.2l7.1,1.2c0.4,0,0.7,0.3,0.7,0.6c0,0.3-0.2,0.5-0.4,0.6c2.4,2.8,5.2,5.2,8.4,7.1c1.7,1,5.7,3.2,9.6,4.4
				L1397.8,514.8z M1394.6,539.8c-0.5-0.7-1.1-1.8-3.3-4.4c-6.8,0.8-17.9,2.1-19.3,2.2c-1,0.1-6.3,0.5-7.5,0.7
				c-0.2,0-0.4,0.1-0.5,0.3c-0.3,0.6-0.4,0.7-0.6,0.7c-0.1,0-0.4-0.2-0.4-0.4l-1.6-6.5c3.1,0,4.5,0,7-0.1c1.2-2,2.3-3.7,4.5-8h-11.2
				v-4.8h36.3v4.8h-10.4c4.2,3.4,8.6,8,11.5,11.8L1394.6,539.8z M1379.9,501.7c-3.6,4.4-6.2,6.8-10.2,9.8h21.3
				C1386.7,508.7,1383.8,506.4,1379.9,501.7z M1383.5,527.9l3.6-3.6h-7.4c-2.3,4.1-3.8,6.3-4.6,7.7c4.2-0.2,8.3-0.4,12.4-0.9
				C1386.6,530.3,1385.4,529.3,1383.5,527.9z"/>
		</g>
	</g>
	<g>
		<g>
			<path class="st0" d="M16.4,603.3l-9.7-21.4l9.7-21.4l3.6,1.7l-9,19.7l9,19.7L16.4,603.3z M22.6,603.3l-9.7-21.4l9.7-21.4l3.6,1.7
				l-9,19.7l9,19.7L22.6,603.3z"/>
			<path class="st0" d="M1382.7,603.3l-3.6-1.7l9-19.7l-9-19.7l3.6-1.7l9.7,21.4L1382.7,603.3z M1388.9,603.3l-3.6-1.7l9-19.7
				l-9-19.7l3.6-1.7l9.7,21.4L1388.9,603.3z"/>
		</g>
		<g>
			<path class="st0" d="M65,563.9c-0.5,0.2-0.5,0.4-0.7,0.6c-0.4,1.2-1.1,3.3-3.4,7.7c0.8,0.2,1.6,0.5,1.6,1.1c0,0.2,0,0.3-0.4,0.7
				c-0.4,0.3-0.5,0.5-0.5,0.7v27.9h-5.1v-23c-0.3,0.4-0.8,1.2-1.4,1.9l-4.7-2.8c3.5-4,6.9-9.3,9.1-17.7l5.3,1.6
				c0.3,0.1,0.7,0.2,0.7,0.6C65.6,563.6,65.4,563.8,65,563.9z M89.7,582.8c-4.3-1-6.9-2.1-10.1-4.3c-3.1,2.1-5.3,3.1-8.7,4.3
				l-3.2-3.2v16.2h-4.4v-26.2l4.2,0.5c0.3,0,0.8,0.1,0.8,0.5c0,0.2-0.6,0.9-0.6,1.1v0.9c2.5-2.6,3.9-5.2,5.4-11.3l4.7,1.1
				c0.2,0,0.8,0.1,0.8,0.6c0,0.2,0,0.3-0.4,0.5c-0.5,0.3-0.6,0.4-0.7,0.8h14.4v4.5h-3.3c-1.7,3-3,4.7-4.9,6.6c2.6,1.2,4.8,2,9.4,2.5
				L89.7,582.8z M73.4,572.6c-1.4,2.3-2.2,3-2.7,3.6l-3-2v4.8c3.5-0.8,5.6-1.7,8.4-3.4C75.1,574.6,74.3,573.7,73.4,572.6z
				 M93.6,593.3c-0.1,0-0.7-0.1-0.9-0.1c-0.3,0-0.3,0-0.8,0.4c-8.7,7.5-17.7,8.7-20.8,9.2l-3.5-4.5c10.9-1.4,18-6,22.2-9.6l3.7,3.4
				c0.2,0.1,0.5,0.4,0.5,0.8C94.1,593.3,93.7,593.3,93.6,593.3z M82.4,583.9c-0.4,0-0.4,0-0.9,0.3c-3.9,2.6-7.1,3.9-10.1,4.9
				l-2.8-3.9c4.3-1.4,7.7-3.1,11.3-5.4l3.1,2.8c0.2,0.2,0.5,0.5,0.5,0.8C83.6,583.9,83.2,583.9,82.4,583.9z M88.4,588.4
				c-0.1,0-0.7,0-0.8,0c-0.3,0-0.3,0-0.7,0.3c-4.5,3.3-9.6,5.7-15,7.2l-3.1-4.1c8.2-2.4,13.4-6,16-7.8l3.7,3.3
				c0.2,0.2,0.5,0.5,0.5,0.8C88.9,588.3,88.6,588.4,88.4,588.4z M76.1,568.6c1.2,1.8,2.1,2.8,3.6,4.1c1.4-1.4,2.2-2.4,3.2-4.1H76.1z
				"/>
			<path class="st0" d="M147,579.8v16.4h14v5.3h-34.4v-5.3h14.1v-16.4h-17.4v-5.6h17.4v-13.1l5.4,0.5c0.3,0,1.8,0.2,1.8,1.1
				c0,0.3-0.1,0.5-0.5,0.7c-0.3,0.1-0.5,0.3-0.5,0.4v10.4h17.5v5.6H147z"/>
			<path class="st0" d="M194.6,572.6v-4.2h15.6v4.2H194.6z M232.7,600.7c-2.2-1.6-4.6-3.6-7.3-7.5v9.4h-5.2v-10.8
				c-1.9,3.3-4.2,6.1-8.1,9.1l-2.9-2.3v3h-4.7v-1.3h-4.2v2.1h-4.8v-14.8h13.6v9c1.6-1.1,4.6-3.2,7.9-8.3h-6.7v-4.7h9.7v-2.7h-8.4
				v-18.7h22.5v18.7h-8.9v2.7h10.5v4.7h-8.5c2.3,3.6,5.7,6.5,9.3,8.8L232.7,600.7z M196.8,585.2v-3.9h11.5v3.9H196.8z M196.9,578.9
				V575h11.2v3.9H196.9z M197,566.5v-4.4h11.2v4.4H197z M204.6,591.7h-4.2v4.2h4.2V591.7z M220.2,566.4h-3.6v3.1h3.6V566.4z
				 M220.2,573.4h-3.6v3.8h3.6V573.4z M229.3,566.4h-3.9v3.1h3.9V566.4z M229.3,573.4h-3.9v3.8h3.9V573.4z"/>
			<path class="st0" d="M280.9,590.4c-1.2-1.1-2.1-1.9-3.6-3.7v15.8H272v-12c-0.5,0.8-1.4,2.4-2.9,3.8l-4.5-3
				c3.4-3.9,5.6-8.4,6.7-13.4h-5.2v-5.4h5.9V569c-1.6,0.2-2.4,0.3-4.4,0.5l-2.4-4.7c6.3-0.3,9.6-1.1,14.5-3.6l2.8,4.1
				c0.2,0.2,0.3,0.5,0.3,0.8c0,0.2,0,0.5-0.4,0.6c0,0-1.2,0-1.3,0c-0.4,0-0.6,0-2,0.6c-0.1,0-0.7,0.2-1.8,0.5v4.7h5.3v5.4h-5.3
				c1.9,3.4,4.1,6.3,7.2,8.8L280.9,590.4z M280.5,602v-5h12.1v-3.8h-6.8v-4.8h6.8v-3.7h-8.5V580h22.6v4.6h-8.4v3.7h6.1v4.8h-6.1v3.8
				h8.9v5H280.5z M284.4,577.2v-14.7h21.8v14.7H284.4z M301,567.4h-11.4v5.1H301V567.4z"/>
			<path class="st0" d="M349.7,563.9c-0.5,0.2-0.5,0.4-0.7,0.6c-0.4,1.2-1.1,3.3-3.4,7.7c0.8,0.2,1.6,0.5,1.6,1.1
				c0,0.2,0,0.3-0.4,0.7c-0.4,0.3-0.5,0.5-0.5,0.7v27.9h-5.1v-23c-0.3,0.4-0.8,1.2-1.4,1.9l-4.7-2.8c3.5-4,6.9-9.3,9.1-17.7l5.3,1.6
				c0.3,0.1,0.7,0.2,0.7,0.6C350.3,563.6,350.1,563.8,349.7,563.9z M374.4,582.8c-4.3-1-6.9-2.1-10.1-4.3c-3.1,2.1-5.3,3.1-8.7,4.3
				l-3.2-3.2v16.2H348v-26.2l4.2,0.5c0.3,0,0.8,0.1,0.8,0.5c0,0.2-0.6,0.9-0.6,1.1v0.9c2.5-2.6,3.9-5.2,5.4-11.3l4.7,1.1
				c0.2,0,0.8,0.1,0.8,0.6c0,0.2,0,0.3-0.4,0.5c-0.5,0.3-0.6,0.4-0.7,0.8h14.4v4.5h-3.3c-1.7,3-3,4.7-4.9,6.6c2.6,1.2,4.8,2,9.4,2.5
				L374.4,582.8z M358.1,572.6c-1.4,2.3-2.2,3-2.7,3.6l-3-2v4.8c3.5-0.8,5.6-1.7,8.4-3.4C359.8,574.6,359,573.7,358.1,572.6z
				 M378.3,593.3c-0.1,0-0.7-0.1-0.9-0.1c-0.3,0-0.3,0-0.8,0.4c-8.7,7.5-17.7,8.7-20.8,9.2l-3.5-4.5c10.9-1.4,18-6,22.2-9.6l3.7,3.4
				c0.2,0.1,0.5,0.4,0.5,0.8C378.8,593.3,378.4,593.3,378.3,593.3z M367.2,583.9c-0.4,0-0.4,0-0.9,0.3c-3.9,2.6-7.1,3.9-10.1,4.9
				l-2.8-3.9c4.3-1.4,7.7-3.1,11.3-5.4l3.1,2.8c0.2,0.2,0.5,0.5,0.5,0.8C368.3,583.9,367.9,583.9,367.2,583.9z M373.1,588.4
				c-0.1,0-0.7,0-0.8,0c-0.3,0-0.3,0-0.7,0.3c-4.5,3.3-9.6,5.7-15,7.2l-3.1-4.1c8.2-2.4,13.4-6,16-7.8l3.7,3.3
				c0.2,0.2,0.5,0.5,0.5,0.8C373.6,588.3,373.3,588.4,373.1,588.4z M360.8,568.6c1.2,1.8,2.1,2.8,3.6,4.1c1.4-1.4,2.2-2.4,3.2-4.1
				H360.8z"/>
			<path class="st0" d="M430.8,578v19.5c0,3.4-2.5,5.3-5.5,5.3h-4.6l-2.8-6.4c2.3,0.4,3.5,0.6,4.3,0.6c1.3,0,2.2-0.3,2.2-2v-22.2
				l2.6,0.9c1.3-0.8,4.4-2.7,7-5.5h-25.4v-5.6h34.9l3.6,4.3C444.4,568.9,437,574,430.8,578z"/>
			<path class="st0" d="M490.7,579v3h8.5v13.9c0,3-2.5,3.4-6,4l-2.2-4.5c2.1,0,3.1,0,3.1-1.3v-7.4h-3.4v16.1h-5v-16.1h-3.4v13.7h-5
				v-18.3h8.4v-3h-10.1v-4.7h10.1V571h-4.7c-0.3,0.7-0.5,1.1-1.2,2.4l-5-1.4c1.1-1.6,2.8-4.5,4.2-9l4.5,0.9c0.1,0,0.9,0.2,0.9,0.6
				c0,0.5-0.5,0.5-1.1,0.7l-0.4,1.2h2.8v-5.2l4.8,0.2c0.3,0,1.1,0.1,1.1,0.5c0,0.4-0.4,0.7-0.9,1.1v3.4h8.2v4.7h-8.2v3.3h9.8v4.7
				H490.7z M506.9,568.4v24.7h-4.8v-26.5l4.3,0.1c0.3,0,1.4,0,1.4,0.6C507.7,567.6,507.4,567.9,506.9,568.4z M515.8,562.9
				c-0.3,0.3-0.4,0.4-0.4,0.7v34c0,4.8-2.4,5-7.8,5.1l-2.7-5.1c2,0.1,3.5,0.1,3.8,0.1c0.5,0,1.7,0,1.7-1.5v-35l4.8,0.4
				c0.3,0,1.1,0.1,1.1,0.6C516.3,562.4,516.1,562.6,515.8,562.9z"/>
			<path class="st0" d="M561.1,564.3c-0.8,0.4-0.9,0.5-1.2,1.2c-0.8,1.9-1.3,3-2.8,5.9l0.7,0.3c0.1,0,0.2,0.3,0.2,0.5
				c0,0.4-0.3,0.6-0.5,0.8c-0.2,0.1-0.7,0.5-0.7,0.9v28.5h-5.5v-21.9c-0.5,0.7-1,1.2-1.6,1.8l-4.8-3c5.1-5.6,7.3-9.5,9.8-17.5
				l6.3,1.5c0.3,0.1,0.5,0.3,0.5,0.5C561.5,564,561.3,564.2,561.1,564.3z M574.8,573.3v4.8h10.9v4.9h-10.9v4.8h12.5v5.3h-12.5v9.1
				h-5.6v-29h-1.6c-1.9,3.5-3.4,5.5-5.2,7.6l-5.1-2.7c4.8-5,7-9,9.2-16.7l5.8,1.7c0.2,0.1,0.4,0.3,0.4,0.5c0,0.1,0,0.3-0.3,0.5
				c-0.1,0.1-0.8,0.4-0.9,0.5c-0.1,0.1-1.2,3-1.4,3.5h18v5.1H574.8z"/>
			<path class="st0" d="M655.2,602.2c-1.4-0.5-4.7-1.7-8.3-4.4c-4.8-3.7-6.8-7.8-7.8-9.8h-2.2l0,8c2.3-0.3,4.2-0.6,6.6-1.2l-0.2,4.7
				c-6.3,1.4-11,2.3-14,2.8c-0.8,0.1-1.1,0.1-1.5,0.4c-0.1,0.1-0.7,0.8-0.9,0.8c-0.5,0-0.7-0.7-0.8-1.2l-0.6-4.8
				c0.8,0,1.5,0,5.8-0.6v-8.8h-5.4c-0.4,3.4-1.4,8.2-4.1,13.5l-5.1-1.6c0.6-1.2,1.8-3.4,2.7-7.1c1.1-4.1,1.8-9,1.8-14.8
				c0-4.9-0.3-11.1-0.6-16.5H658v11.2h-12l3,0.5c0.7,0.1,1.5,0.2,1.5,0.7c0,0.3-0.4,0.5-0.7,0.6v1.6h7.8v4.1h-7.8v3.4h9.2v4.3h-5.2
				l2.9,2.6c0.1,0.1,0.3,0.3,0.3,0.5c0,0.4-0.3,0.4-0.8,0.4c-0.7,0-0.9,0.1-1.2,0.3c-0.8,0.7-2.1,1.6-3.7,3.2c2.5,1.5,4.9,2.4,7.9,3
				L655.2,602.2z M632.6,580.3h-4.9v-4.1h4.9v-3.4h-6.2v5.5c0,1.1,0,3.2-0.1,5.5h6.3V580.3z M652.7,565.7h-26.4v2.8h26.4V565.7z
				 M644.6,572.7h-10.5l3,0.5c0.1,0,1.3,0.2,1.3,0.7c0,0.2-0.3,0.4-0.5,0.6v1.6h6.7V572.7z M644.6,580.3h-6.7v3.4h6.7V580.3z
				 M644.6,587.9c1.3,2.3,2.5,3.5,3.3,4.1c1.8-1.3,2.9-2.6,4-4.1H644.6z"/>
			<path class="st0" d="M698.5,602.8v-42h4.5v42H698.5z"/>
			<path class="st0" d="M754.2,563.9c-0.5,0.2-0.5,0.4-0.7,0.6c-0.4,1.2-1.1,3.3-3.4,7.7c0.8,0.2,1.6,0.5,1.6,1.1
				c0,0.2,0,0.3-0.4,0.7c-0.4,0.3-0.5,0.5-0.5,0.7v27.9h-5.1v-23c-0.3,0.4-0.8,1.2-1.4,1.9l-4.7-2.8c3.5-4,6.9-9.3,9.1-17.7l5.3,1.6
				c0.3,0.1,0.7,0.2,0.7,0.6C754.8,563.6,754.6,563.8,754.2,563.9z M778.9,582.8c-4.3-1-6.9-2.1-10.1-4.3c-3.1,2.1-5.3,3.1-8.7,4.3
				l-3.2-3.2v16.2h-4.4v-26.2l4.2,0.5c0.3,0,0.8,0.1,0.8,0.5c0,0.2-0.6,0.9-0.6,1.1v0.9c2.5-2.6,3.9-5.2,5.4-11.3l4.7,1.1
				c0.2,0,0.8,0.1,0.8,0.6c0,0.2,0,0.3-0.4,0.5c-0.5,0.3-0.6,0.4-0.7,0.8H781v4.5h-3.3c-1.7,3-3,4.7-4.9,6.6c2.6,1.2,4.8,2,9.4,2.5
				L778.9,582.8z M762.6,572.6c-1.4,2.3-2.2,3-2.7,3.6l-3-2v4.8c3.5-0.8,5.6-1.7,8.4-3.4C764.3,574.6,763.5,573.7,762.6,572.6z
				 M782.8,593.3c-0.1,0-0.7-0.1-0.9-0.1c-0.3,0-0.3,0-0.8,0.4c-8.7,7.5-17.7,8.7-20.8,9.2l-3.5-4.5c10.9-1.4,18-6,22.2-9.6l3.7,3.4
				c0.2,0.1,0.5,0.4,0.5,0.8C783.3,593.3,782.9,593.3,782.8,593.3z M771.6,583.9c-0.4,0-0.4,0-0.9,0.3c-3.9,2.6-7.1,3.9-10.1,4.9
				l-2.8-3.9c4.3-1.4,7.7-3.1,11.3-5.4l3.1,2.8c0.2,0.2,0.5,0.5,0.5,0.8C772.7,583.9,772.4,583.9,771.6,583.9z M777.5,588.4
				c-0.1,0-0.7,0-0.8,0c-0.3,0-0.3,0-0.7,0.3c-4.5,3.3-9.6,5.7-15,7.2l-3.1-4.1c8.2-2.4,13.4-6,16-7.8l3.7,3.3
				c0.2,0.2,0.5,0.5,0.5,0.8C778.1,588.3,777.8,588.4,777.5,588.4z M765.3,568.6c1.2,1.8,2.1,2.8,3.6,4.1c1.4-1.4,2.2-2.4,3.2-4.1
				H765.3z"/>
			<path class="st0" d="M837.1,579.8v16.4h14v5.3h-34.4v-5.3h14.1v-16.4h-17.4v-5.6h17.4v-13.1l5.4,0.5c0.3,0,1.8,0.2,1.8,1.1
				c0,0.3-0.1,0.5-0.5,0.7c-0.3,0.1-0.5,0.3-0.5,0.4v10.4h17.5v5.6H837.1z"/>
			<path class="st0" d="M885.2,585.3v-6.6h40.4v6.6H885.2z"/>
			<path class="st0" d="M983.8,593.2v9.5h-6v-9.5h-20.4v-5.1h6.9v-11.4h13.5v-5.8h-11c-2.7,4.4-4.2,6-5.4,7.2l-5.2-2.7
				c4.5-4.5,7.6-9.7,9.3-14.6l5.9,2.2c0.2,0.1,0.3,0.3,0.3,0.4c0,0.1-0.1,0.3-0.2,0.4c-0.1,0-0.9,0.2-1,0.4c-0.1,0-1,1.6-1.1,1.8
				H996v4.8h-12.4v5.8h8.4v4.9h-8.4v6.5h14.7v5.1H983.8z M977.8,581.6h-7.7v6.5h7.7V581.6z"/>
			<path class="st0" d="M1037.2,589.3c-1.9,4.5-2.4,5.4-4.5,9.4c-0.4,0.8-0.5,0.9-0.5,1.2c0,0.1,0.1,0.8,0.1,1c0,0,0,0.4-0.4,0.4
				c-0.2,0-0.6-0.2-0.9-0.4l-4.5-3.4c3.3-4.2,6.5-10.7,8.6-16.3l3.6,3.8C1038.2,587,1037.8,588,1037.2,589.3z M1033,574.8
				c-2.3-2.8-4-4.4-6.2-6l3.6-4c2.7,1.9,4.8,4.1,6.6,6.3L1033,574.8z M1065.6,601.7c-5.2-3.8-8.6-7-12.2-13.7
				c-2.8,6.6-5.9,10.3-13.4,14.3l-3.9-4.1c2.5-1,7.3-3,10.8-8.8c3.4-5.6,3.6-11.6,3.6-14.6l4.8,0.2c0.8,0,1.6,0,1.6,0.7
				c0,0.2-0.1,0.4-0.3,0.5c-0.6,0.4-0.6,0.4-0.7,0.6c-0.1,1.1-0.2,1.9,0,3.1c0.5,2.5,2.2,6.2,2.5,6.7c3.6,6.1,8.8,9.2,11.3,10.8
				L1065.6,601.7z M1063.7,583.1l-5.1-2.3c1.3-2,2.8-4.8,3.7-7.5h-15.1c-1.9,3.8-2.9,5.4-3.7,6.5l-5.1-2.4c4.4-5.4,6.5-11.8,7.6-16
				l4.8,1.3c1.4,0.4,1.4,0.6,1.4,0.8c0,0.1,0,0.2-0.2,0.3c-0.1,0-1,0.3-1.1,0.5c-0.1,0.1-1.3,3.4-1.6,4h17l2.8,2.5
				C1068.7,572.7,1066,578.7,1063.7,583.1z"/>
			<path class="st0" d="M1138.2,600.1c-1.2,2.1-2.3,2.3-3.2,2.3c-3.9,0-8-5.2-9.2-6.9c-2.8,2.8-5,4.6-8.4,6.9l-3.9-3.8
				c3.6-2.1,6.1-4,9.6-7.9c-1.7-4.1-2.9-7.9-3.9-16.9h-11.7c0,2.6,0,3.6-0.1,4.9h10.5c-0.1,5.3-0.4,10.8-1.3,14.2
				c-0.4,1.4-1.2,4.3-6.1,4.3h-2.1l-2.4-4.3c-0.7,3.5-1.4,5.7-2.9,8.8l-5.1-1.5c1.9-4,4.3-9.8,4.3-22.8c0-3.2-0.1-5.6-0.3-8.5h16.8
				c-0.2-3.6-0.2-5.3-0.2-7.9l6,0.6c0.4,0,0.7,0.3,0.7,0.6c0,0.3-0.2,0.5-0.4,0.7c-0.6,0.6-0.6,0.8-0.6,1.5c0,1.5,0,3,0,4.5h7.4
				c-2-2.5-3.3-3.7-4.1-4.4l3.5-3c1.2,1.2,2.5,2.4,4.4,4.9l-2.7,2.4h7.1v4.8h-15.3c0.5,5.9,1.1,8.5,2.2,11.8
				c2.2-3.6,3.4-6.2,4.6-10.1l5.1,2.7c0.3,0.1,0.4,0.3,0.4,0.6c0,0.4-0.3,0.5-0.5,0.6c-0.9,0.5-0.9,0.5-1.2,1.1
				c-1.5,3.7-2.6,6.2-5.9,10.7c0.7,1,3,4.7,4.7,4.7c1,0,1.4-2.2,1.8-3.9l4.5,2.6C1140.1,595.5,1139.5,597.9,1138.2,600.1z
				 M1107.2,583.8c-0.3,4.3-0.6,6-1,8.2c1,0.1,2.2,0.3,3.7,0.3c0.9,0,1.5-0.2,1.8-0.9c0.2-0.5,0.7-2.6,0.7-7.6H1107.2z"/>
			<path class="st0" d="M1196.3,587.8c3.8,4.5,8.7,7.3,14.5,9l-3.6,4.5c-7.4-2.9-11.7-7.4-13.8-9.8v11.3h-5.3v-11.7
				c-3.6,4.7-8.4,8.3-13.7,10.9l-3.7-4c3.1-1.3,10-4.5,13.9-10.2h-14.4v-4.7h17.9V580h-12.7v-17.9h31V580h-13v3.1h18.2v4.7H1196.3z
				 M1188.2,566.1h-7.4v3h7.4V566.1z M1188.2,572.8h-7.4v3h7.4V572.8z M1201.1,566.1h-7.6v3h7.6V566.1z M1201.1,572.8h-7.6v3h7.6
				V572.8z"/>
			<path class="st0" d="M1280.4,582c-2.7-1.3-4.6-2.4-7.2-4.6v2.4h-3.1v5h9.4v4.4h-9.4v6.7c0,1.1,0.6,1.6,1.7,1.6h4.8
				c1.1,0,2.1-1.8,2.5-5l4.4,3c-0.3,1.8-1,3.7-2.2,5.1c-0.8,1-1.6,1.6-4.2,1.6h-8.5c-2.3,0-3.8-1.2-3.8-3.4v-9.6h-5
				c-1.2,6.8-6,11.7-13.1,13.6l-3.3-4.6c7.5-1.1,10.6-5.4,11.7-9.1h-8.4v-4.4h8.7v-5h-2.3v-2.2c-2.9,2.5-5.6,4.4-8.6,6.1l-3.9-3.7
				c2.9-1.3,5.3-2.7,8.1-4.9c-1.6-1.8-3.4-3.3-4.3-4l3.4-3h-2.7v-4.4h15.9l1.1,1.2c-2.4,5-4.2,7.6-6.9,10.6h15.6
				c-4.3-4.4-6.8-8.9-8.2-12.3l4.7-1.8c0.6,1.6,1.2,3.2,2.2,4.6c1.6-1.7,2.5-2.7,3.6-4.1l3.7,2.3c0.1,0.1,0.6,0.4,0.6,0.8
				c0,0.1-0.1,0.5-0.6,0.5c-0.8,0-0.9,0-1.2,0.3c-1.8,2-2.7,2.8-3.6,3.7c0.7,0.9,1.1,1.3,2,2.2c1.8-1.8,2.9-3.1,4.4-4.9l3.8,1.9
				c0,0,0.7,0.4,0.7,0.9c0,0.2-0.1,0.4-0.3,0.5c-0.1,0-0.9,0.1-1.1,0.2c-0.3,0.1-3.6,3.6-4.3,4.2c1.9,1.2,3.6,2.2,6.8,3.3
				L1280.4,582z M1248.8,568.1c1.5,1.4,2.4,2.3,3.4,3.6c1.2-1.4,1.7-2.4,2.3-3.6H1248.8z M1264.9,579.8h-4.5v5h4.5V579.8z"/>
			<path class="st0" d="M1351.2,601.5c-2.9-1.2-11.5-4.8-17.8-16.6c-1.1,0.9-2.1,1.6-4.6,3.2v6.6c2.5-0.5,5.2-1.2,9.3-2.3l0.1,4.4
				c-4,1.3-10.2,3.2-18.4,5.3c-1,0.2-1.1,0.3-1.3,0.7c-0.1,0.5-0.2,0.6-0.4,0.6c-0.4,0-0.7-0.8-0.8-1.1l-1.8-5.2
				c2.4-0.1,4.7-0.5,8-1.2v-4.8c-3,1.5-4.6,2.2-7.3,3.3l-3.6-3.9c3.9-1.2,11.1-3.9,16.6-8.8h-15.6v-4.4h17.3v-2.3h-11.5v-4.2h11.5
				v-2.3h-16.1v-4.2h16.1v-3.4l5.2,0.3c0.6,0,1.3,0.1,1.3,0.5c0,0.3-0.2,0.5-0.3,0.6c-0.1,0-0.3,0.3-0.3,0.4v1.5h16.7v4.2h-16.7v2.3
				h12v4.2h-12v2.3h17.8v4.4h-5.8l2.8,2.8c0.2,0.2,0.5,0.6,0.5,1c0,0.4-0.1,0.4-1.1,0.4c-0.4,0-0.4,0-1.1,0.6
				c-1.8,1.5-3.7,3.1-5.7,4.4c3,2.9,6.8,4.9,10.6,6.4L1351.2,601.5z M1337.2,581.7c1,2.1,2.4,4.2,4,6c1.9-1.1,4.7-3.5,6.1-6H1337.2z
				"/>
		</g>
	</g>
</g>
</svg>
